# MagicaVoxel @ Ephtracy

# group
o 

# material
mtllib Baum-5.mtl
usemtl palette

# normals
vn -1 0 0
vn 1 0 0
vn 0 0 1
vn 0 0 -1
vn 0 -1 0
vn 0 1 0

# texcoords
vt 0.919922 0.5
vt 0.951172 0.5
vt 0.955078 0.5
vt 0.958984 0.5
vt 0.962891 0.5

# verts
v -0.5 0.3 -0.1
v -0.5 0.3 -0.4
v -0.5 0.4 -0.1
v -0.5 0.4 -0.4
v -0.4 0.2 0.5
v -0.4 0.2 0.2
v -0.4 0.2 -0.1
v -0.4 0.2 -0.4
v -0.4 0.3 0
v -0.4 0.3 -0.1
v -0.4 0.3 -0.4
v -0.4 0.3 -0.5
v -0.4 0.4 0.5
v -0.4 0.4 0.2
v -0.4 0.4 0
v -0.4 0.4 -0.1
v -0.4 0.4 -0.4
v -0.4 0.4 -0.5
v -0.4 0.5 -0.1
v -0.4 0.5 -0.4
v -0.3 0 0.4
v -0.3 0 0.3
v -0.3 0 -0.2
v -0.3 0 -0.3
v -0.3 0.2 0.4
v -0.3 0.2 0.3
v -0.3 0.2 -0.2
v -0.3 0.2 -0.3
v -0.3 0.4 0.3
v -0.3 0.4 0.2
v -0.3 0.4 0
v -0.3 0.4 -0.1
v -0.3 0.5 -0.1
v -0.3 0.5 -0.2
v -0.3 0.7 0.3
v -0.3 0.7 -0.2
v -0.2 0.7 0.2
v -0.2 0.7 -0.1
v -0.2 0.8 0.2
v -0.2 0.8 -0.1
v -0.1 0 0.1
v -0.1 0 0
v -0.1 0.4 0.1
v -0.1 0.4 0
v 0 0 0.4
v 0 0 0.3
v 0 0.1 0.5
v 0 0.1 0.4
v 0 0.1 0.3
v 0 0.2 -0.1
v 0 0.2 -0.4
v 0 0.3 0.5
v 0 0.3 0.3
v 0 0.3 -0.2
v 0 0.3 -0.4
v 0 0.4 -0.1
v 0 0.4 -0.2
v 0 0.4 -0.4
v 0 0.5 -0.2
v 0 0.5 -0.4
v 0.1 0 -0.2
v 0.1 0 -0.3
v 0.1 0.2 -0.2
v 0.1 0.2 -0.3
v 0.2 0.2 0.3
v 0.2 0.2 0
v 0.2 0.3 0.3
v 0.2 0.4 0.3
v 0.2 0.4 0
v 0.3 0 0.2
v 0.3 0 0.1
v 0.3 0 -0.1
v 0.3 0 -0.2
v 0.3 0 -0.4
v 0.3 0.1 -0.1
v 0.3 0.1 -0.2
v 0.3 0.1 -0.4
v 0.3 0.2 0.2
v 0.3 0.2 0.1
v 0.3 0.4 0.2
v 0.3 0.4 0.1
v 0.3 0.5 0.2
v 0.3 0.5 0.1
v -0.2 0 0.4
v -0.2 0 0.3
v -0.2 0 -0.2
v -0.2 0 -0.3
v -0.2 0.2 0.4
v -0.2 0.2 0.3
v -0.2 0.2 -0.2
v -0.2 0.2 -0.3
v -0.2 0.3 0
v -0.2 0.3 -0.1
v -0.2 0.4 0
v -0.2 0.4 -0.1
v -0.1 0.2 0.5
v -0.1 0.2 0.2
v -0.1 0.2 -0.1
v -0.1 0.2 -0.4
v -0.1 0.3 -0.2
v -0.1 0.3 -0.4
v -0.1 0.3 -0.5
v -0.1 0.4 0.5
v -0.1 0.4 0.3
v -0.1 0.4 0.2
v -0.1 0.4 -0.1
v -0.1 0.4 -0.2
v -0.1 0.4 -0.4
v -0.1 0.4 -0.5
v -0.1 0.5 -0.2
v -0.1 0.5 -0.4
v 0 0 0.1
v 0 0 0
v 0 0.4 0.1
v 0 0.4 0
v 0.1 0 0.4
v 0.1 0 0.3
v 0.1 0.1 0.4
v 0.1 0.1 0.3
v 0.1 0.7 0.2
v 0.1 0.7 -0.1
v 0.1 0.8 0.2
v 0.1 0.8 -0.1
v 0.2 0 -0.2
v 0.2 0 -0.3
v 0.2 0.1 0.5
v 0.2 0.1 0.3
v 0.2 0.2 0.3
v 0.2 0.2 -0.2
v 0.2 0.2 -0.3
v 0.2 0.3 0.5
v 0.2 0.3 0.3
v 0.2 0.4 0.3
v 0.2 0.4 0
v 0.2 0.4 -0.1
v 0.2 0.5 -0.1
v 0.2 0.5 -0.2
v 0.2 0.7 0.3
v 0.2 0.7 -0.2
v 0.3 0.2 -0.1
v 0.3 0.2 -0.4
v 0.3 0.5 -0.1
v 0.3 0.5 -0.4
v 0.4 0 0.2
v 0.4 0 0.1
v 0.4 0 -0.1
v 0.4 0 -0.2
v 0.4 0 -0.4
v 0.4 0.1 -0.1
v 0.4 0.1 -0.2
v 0.4 0.1 -0.4
v 0.4 0.2 0.2
v 0.4 0.2 0.1
v 0.4 0.4 0.2
v 0.4 0.4 0.1
v 0.4 0.5 0.2
v 0.4 0.5 0.1
v 0.5 0.2 0.3
v 0.5 0.2 0
v 0.5 0.4 0.3
v 0.5 0.4 0
v -0.4 0.2 0.5
v -0.4 0.4 0.5
v -0.1 0.2 0.5
v -0.1 0.4 0.5
v 0 0.1 0.5
v 0 0.3 0.5
v 0.2 0.1 0.5
v 0.2 0.3 0.5
v -0.3 0 0.4
v -0.3 0.2 0.4
v -0.2 0 0.4
v -0.2 0.2 0.4
v 0 0 0.4
v 0 0.1 0.4
v 0.1 0 0.4
v 0.1 0.1 0.4
v -0.3 0.4 0.3
v -0.3 0.7 0.3
v -0.1 0.4 0.3
v 0.2 0.2 0.3
v 0.2 0.3 0.3
v 0.2 0.4 0.3
v 0.2 0.7 0.3
v 0.5 0.2 0.3
v 0.5 0.4 0.3
v -0.2 0.7 0.2
v -0.2 0.8 0.2
v 0.1 0.7 0.2
v 0.1 0.8 0.2
v 0.3 0 0.2
v 0.3 0.2 0.2
v 0.3 0.4 0.2
v 0.3 0.5 0.2
v 0.4 0 0.2
v 0.4 0.2 0.2
v 0.4 0.4 0.2
v 0.4 0.5 0.2
v -0.1 0 0.1
v -0.1 0.4 0.1
v 0 0 0.1
v 0 0.4 0.1
v -0.4 0.3 0
v -0.4 0.4 0
v -0.3 0.4 0
v -0.2 0.3 0
v -0.2 0.4 0
v -0.5 0.3 -0.1
v -0.5 0.4 -0.1
v -0.4 0.2 -0.1
v -0.4 0.3 -0.1
v -0.4 0.4 -0.1
v -0.4 0.5 -0.1
v -0.3 0.4 -0.1
v -0.3 0.5 -0.1
v -0.2 0.3 -0.1
v -0.2 0.4 -0.1
v -0.1 0.2 -0.1
v -0.1 0.4 -0.1
v 0 0.2 -0.1
v 0 0.4 -0.1
v 0.2 0.4 -0.1
v 0.2 0.5 -0.1
v 0.3 0 -0.1
v 0.3 0.1 -0.1
v 0.3 0.2 -0.1
v 0.3 0.5 -0.1
v 0.4 0 -0.1
v 0.4 0.1 -0.1
v -0.3 0 -0.2
v -0.3 0.2 -0.2
v -0.2 0 -0.2
v -0.2 0.2 -0.2
v -0.1 0.3 -0.2
v -0.1 0.4 -0.2
v 0 0.3 -0.2
v 0 0.4 -0.2
v 0.1 0 -0.2
v 0.1 0.2 -0.2
v 0.2 0 -0.2
v 0.2 0.2 -0.2
v -0.3 0 0.3
v -0.3 0.2 0.3
v -0.2 0 0.3
v -0.2 0.2 0.3
v 0 0 0.3
v 0 0.1 0.3
v 0 0.3 0.3
v 0.1 0 0.3
v 0.1 0.1 0.3
v 0.2 0.1 0.3
v 0.2 0.2 0.3
v 0.2 0.3 0.3
v -0.4 0.2 0.2
v -0.4 0.4 0.2
v -0.3 0.4 0.2
v -0.1 0.2 0.2
v -0.1 0.4 0.2
v 0.3 0 0.1
v 0.3 0.2 0.1
v 0.3 0.4 0.1
v 0.3 0.5 0.1
v 0.4 0 0.1
v 0.4 0.2 0.1
v 0.4 0.4 0.1
v 0.4 0.5 0.1
v -0.1 0 0
v -0.1 0.4 0
v 0 0 0
v 0 0.4 0
v 0.2 0.2 0
v 0.2 0.4 0
v 0.5 0.2 0
v 0.5 0.4 0
v -0.2 0.7 -0.1
v -0.2 0.8 -0.1
v 0.1 0.7 -0.1
v 0.1 0.8 -0.1
v -0.3 0.5 -0.2
v -0.3 0.7 -0.2
v -0.1 0.4 -0.2
v -0.1 0.5 -0.2
v 0 0.4 -0.2
v 0 0.5 -0.2
v 0.2 0.5 -0.2
v 0.2 0.7 -0.2
v -0.3 0 -0.3
v -0.3 0.2 -0.3
v -0.2 0 -0.3
v -0.2 0.2 -0.3
v 0.1 0 -0.3
v 0.1 0.2 -0.3
v 0.2 0 -0.3
v 0.2 0.2 -0.3
v -0.5 0.3 -0.4
v -0.5 0.4 -0.4
v -0.4 0.2 -0.4
v -0.4 0.3 -0.4
v -0.4 0.4 -0.4
v -0.4 0.5 -0.4
v -0.1 0.2 -0.4
v -0.1 0.3 -0.4
v -0.1 0.4 -0.4
v -0.1 0.5 -0.4
v 0 0.2 -0.4
v 0 0.3 -0.4
v 0 0.4 -0.4
v 0 0.5 -0.4
v 0.3 0 -0.4
v 0.3 0.1 -0.4
v 0.3 0.2 -0.4
v 0.3 0.5 -0.4
v 0.4 0 -0.4
v 0.4 0.1 -0.4
v -0.4 0.3 -0.5
v -0.4 0.4 -0.5
v -0.1 0.3 -0.5
v -0.1 0.4 -0.5
v -0.3 0 0.4
v -0.2 0 0.4
v 0 0 0.4
v 0.1 0 0.4
v -0.3 0 0.3
v -0.2 0 0.3
v 0 0 0.3
v 0.1 0 0.3
v 0.3 0 0.2
v 0.4 0 0.2
v -0.1 0 0.1
v 0 0 0.1
v 0.3 0 0.1
v 0.4 0 0.1
v -0.1 0 0
v 0 0 0
v 0.3 0 -0.1
v 0.4 0 -0.1
v -0.3 0 -0.2
v -0.2 0 -0.2
v 0.1 0 -0.2
v 0.2 0 -0.2
v 0.3 0 -0.2
v 0.4 0 -0.2
v -0.3 0 -0.3
v -0.2 0 -0.3
v 0.1 0 -0.3
v 0.2 0 -0.3
v 0.3 0 -0.4
v 0.4 0 -0.4
v 0 0.1 0.5
v 0.2 0.1 0.5
v 0 0.1 0.4
v 0.1 0.1 0.4
v 0.1 0.1 0.3
v 0.2 0.1 0.3
v -0.4 0.2 0.5
v -0.1 0.2 0.5
v -0.3 0.2 0.4
v -0.2 0.2 0.4
v -0.3 0.2 0.3
v -0.2 0.2 0.3
v 0.2 0.2 0.3
v 0.5 0.2 0.3
v -0.4 0.2 0.2
v -0.1 0.2 0.2
v 0.3 0.2 0.2
v 0.4 0.2 0.2
v 0.3 0.2 0.1
v 0.4 0.2 0.1
v 0.2 0.2 0
v 0.5 0.2 0
v -0.4 0.2 -0.1
v -0.1 0.2 -0.1
v 0 0.2 -0.1
v 0.3 0.2 -0.1
v -0.3 0.2 -0.2
v -0.2 0.2 -0.2
v 0.1 0.2 -0.2
v 0.2 0.2 -0.2
v -0.3 0.2 -0.3
v -0.2 0.2 -0.3
v 0.1 0.2 -0.3
v 0.2 0.2 -0.3
v -0.4 0.2 -0.4
v -0.1 0.2 -0.4
v 0 0.2 -0.4
v 0.3 0.2 -0.4
v -0.4 0.3 0
v -0.2 0.3 0
v -0.5 0.3 -0.1
v -0.4 0.3 -0.1
v -0.2 0.3 -0.1
v -0.1 0.3 -0.2
v 0 0.3 -0.2
v -0.5 0.3 -0.4
v -0.4 0.3 -0.4
v -0.1 0.3 -0.4
v 0 0.3 -0.4
v -0.4 0.3 -0.5
v -0.1 0.3 -0.5
v -0.1 0.4 0.3
v 0.2 0.4 0.3
v -0.3 0.4 0.2
v -0.1 0.4 0.2
v -0.1 0.4 0.1
v 0 0.4 0.1
v -0.3 0.4 0
v -0.2 0.4 0
v -0.1 0.4 0
v 0 0.4 0
v 0.2 0.4 0
v -0.2 0.4 -0.1
v -0.1 0.4 -0.1
v 0 0.4 -0.1
v 0.2 0.4 -0.1
v -0.1 0.4 -0.2
v 0 0.4 -0.2
v 0.3 0.1 -0.1
v 0.4 0.1 -0.1
v 0.3 0.1 -0.2
v 0.4 0.1 -0.2
v 0.3 0.1 -0.4
v 0.4 0.1 -0.4
v 0 0.3 0.5
v 0.2 0.3 0.5
v 0 0.3 0.3
v 0.2 0.3 0.3
v -0.4 0.4 0.5
v -0.1 0.4 0.5
v -0.3 0.4 0.3
v -0.1 0.4 0.3
v 0.2 0.4 0.3
v 0.5 0.4 0.3
v -0.4 0.4 0.2
v -0.3 0.4 0.2
v 0.3 0.4 0.2
v 0.4 0.4 0.2
v 0.3 0.4 0.1
v 0.4 0.4 0.1
v -0.4 0.4 0
v -0.3 0.4 0
v 0.2 0.4 0
v 0.5 0.4 0
v -0.5 0.4 -0.1
v -0.4 0.4 -0.1
v -0.3 0.4 -0.1
v -0.1 0.4 -0.2
v 0 0.4 -0.2
v -0.5 0.4 -0.4
v -0.4 0.4 -0.4
v -0.1 0.4 -0.4
v 0 0.4 -0.4
v -0.4 0.4 -0.5
v -0.1 0.4 -0.5
v 0.3 0.5 0.2
v 0.4 0.5 0.2
v 0.3 0.5 0.1
v 0.4 0.5 0.1
v -0.4 0.5 -0.1
v -0.3 0.5 -0.1
v 0.2 0.5 -0.1
v 0.3 0.5 -0.1
v -0.3 0.5 -0.2
v -0.1 0.5 -0.2
v 0 0.5 -0.2
v 0.2 0.5 -0.2
v -0.4 0.5 -0.4
v -0.1 0.5 -0.4
v 0 0.5 -0.4
v 0.3 0.5 -0.4
v -0.3 0.7 0.3
v 0.2 0.7 0.3
v -0.2 0.7 0.2
v 0.1 0.7 0.2
v -0.2 0.7 -0.1
v 0.1 0.7 -0.1
v -0.3 0.7 -0.2
v 0.2 0.7 -0.2
v -0.2 0.8 0.2
v 0.1 0.8 0.2
v -0.2 0.8 -0.1
v 0.1 0.8 -0.1

# faces
f 3/1/1 2/1/1 1/1/1
f 4/1/1 2/1/1 3/1/1
f 10/1/1 8/1/1 7/1/1
f 11/1/1 8/1/1 10/1/1
f 13/1/1 6/1/1 5/1/1
f 14/1/1 6/1/1 13/1/1
f 15/1/1 10/1/1 9/1/1
f 16/1/1 10/1/1 15/1/1
f 17/1/1 12/1/1 11/1/1
f 18/1/1 12/1/1 17/1/1
f 19/1/1 17/1/1 16/1/1
f 20/1/1 17/1/1 19/1/1
f 25/5/1 22/5/1 21/5/1
f 26/5/1 22/5/1 25/5/1
f 27/3/1 24/3/1 23/3/1
f 28/3/1 24/3/1 27/3/1
f 33/1/1 30/1/1 29/1/1
f 33/1/1 32/1/1 31/1/1
f 33/1/1 31/1/1 30/1/1
f 35/1/1 33/1/1 29/1/1
f 35/1/1 34/1/1 33/1/1
f 36/1/1 34/1/1 35/1/1
f 39/1/1 38/1/1 37/1/1
f 40/1/1 38/1/1 39/1/1
f 43/5/1 42/5/1 41/5/1
f 44/5/1 42/5/1 43/5/1
f 48/2/1 46/2/1 45/2/1
f 49/2/1 46/2/1 48/2/1
f 52/1/1 48/1/1 47/1/1
f 52/1/1 49/1/1 48/1/1
f 53/1/1 49/1/1 52/1/1
f 54/1/1 51/1/1 50/1/1
f 55/1/1 51/1/1 54/1/1
f 56/1/1 54/1/1 50/1/1
f 57/1/1 54/1/1 56/1/1
f 59/1/1 58/1/1 57/1/1
f 60/1/1 58/1/1 59/1/1
f 63/5/1 62/5/1 61/5/1
f 64/5/1 62/5/1 63/5/1
f 67/1/1 66/1/1 65/1/1
f 68/1/1 66/1/1 67/1/1
f 69/1/1 66/1/1 68/1/1
f 75/3/1 73/3/1 72/3/1
f 76/4/1 74/4/1 73/4/1
f 76/3/1 73/3/1 75/3/1
f 77/4/1 74/4/1 76/4/1
f 78/5/1 71/5/1 70/5/1
f 79/5/1 71/5/1 78/5/1
f 82/1/1 81/1/1 80/1/1
f 83/1/1 81/1/1 82/1/1
f 84/5/2 85/5/2 88/5/2
f 88/5/2 85/5/2 89/5/2
f 86/3/2 87/3/2 90/3/2
f 90/3/2 87/3/2 91/3/2
f 92/1/2 93/1/2 94/1/2
f 94/1/2 93/1/2 95/1/2
f 98/1/2 99/1/2 100/1/2
f 100/1/2 99/1/2 101/1/2
f 96/1/2 97/1/2 103/1/2
f 103/1/2 97/1/2 104/1/2
f 104/1/2 97/1/2 105/1/2
f 98/1/2 100/1/2 106/1/2
f 106/1/2 100/1/2 107/1/2
f 101/1/2 102/1/2 108/1/2
f 108/1/2 102/1/2 109/1/2
f 107/1/2 108/1/2 110/1/2
f 110/1/2 108/1/2 111/1/2
f 112/5/2 113/5/2 114/5/2
f 114/5/2 113/5/2 115/5/2
f 116/2/2 117/2/2 118/2/2
f 118/2/2 117/2/2 119/2/2
f 120/1/2 121/1/2 122/1/2
f 122/1/2 121/1/2 123/1/2
f 126/1/2 127/1/2 128/1/2
f 124/5/2 125/5/2 129/5/2
f 129/5/2 125/5/2 130/5/2
f 126/1/2 128/1/2 131/1/2
f 131/1/2 128/1/2 132/1/2
f 133/1/2 134/1/2 136/1/2
f 134/1/2 135/1/2 136/1/2
f 133/1/2 136/1/2 138/1/2
f 136/1/2 137/1/2 138/1/2
f 138/1/2 137/1/2 139/1/2
f 140/1/2 141/1/2 142/1/2
f 142/1/2 141/1/2 143/1/2
f 146/3/2 147/3/2 149/3/2
f 147/4/2 148/4/2 150/4/2
f 149/3/2 147/3/2 150/3/2
f 150/4/2 148/4/2 151/4/2
f 144/5/2 145/5/2 152/5/2
f 152/5/2 145/5/2 153/5/2
f 154/1/2 155/1/2 156/1/2
f 156/1/2 155/1/2 157/1/2
f 158/1/2 159/1/2 160/1/2
f 160/1/2 159/1/2 161/1/2
f 164/1/3 163/1/3 162/1/3
f 165/1/3 163/1/3 164/1/3
f 168/1/3 167/1/3 166/1/3
f 169/1/3 167/1/3 168/1/3
f 172/5/3 171/5/3 170/5/3
f 173/5/3 171/5/3 172/5/3
f 176/2/3 175/2/3 174/2/3
f 177/2/3 175/2/3 176/2/3
f 180/1/3 179/1/3 178/1/3
f 183/1/3 179/1/3 180/1/3
f 184/1/3 179/1/3 183/1/3
f 185/1/3 182/1/3 181/1/3
f 185/1/3 183/1/3 182/1/3
f 186/1/3 183/1/3 185/1/3
f 189/1/3 188/1/3 187/1/3
f 190/1/3 188/1/3 189/1/3
f 195/5/3 192/5/3 191/5/3
f 196/5/3 192/5/3 195/5/3
f 197/1/3 194/1/3 193/1/3
f 198/1/3 194/1/3 197/1/3
f 201/5/3 200/5/3 199/5/3
f 202/5/3 200/5/3 201/5/3
f 205/1/3 204/1/3 203/1/3
f 206/1/3 205/1/3 203/1/3
f 207/1/3 205/1/3 206/1/3
f 211/1/3 209/1/3 208/1/3
f 212/1/3 209/1/3 211/1/3
f 214/1/3 213/1/3 212/1/3
f 215/1/3 213/1/3 214/1/3
f 216/1/3 211/1/3 210/1/3
f 218/1/3 216/1/3 210/1/3
f 218/1/3 217/1/3 216/1/3
f 219/1/3 217/1/3 218/1/3
f 222/1/3 221/1/3 220/1/3
f 226/1/3 222/1/3 220/1/3
f 226/1/3 223/1/3 222/1/3
f 227/1/3 223/1/3 226/1/3
f 228/3/3 225/3/3 224/3/3
f 229/3/3 225/3/3 228/3/3
f 232/3/3 231/3/3 230/3/3
f 233/3/3 231/3/3 232/3/3
f 236/1/3 235/1/3 234/1/3
f 237/1/3 235/1/3 236/1/3
f 240/5/3 239/5/3 238/5/3
f 241/5/3 239/5/3 240/5/3
f 242/5/4 243/5/4 244/5/4
f 244/5/4 243/5/4 245/5/4
f 246/2/4 247/2/4 249/2/4
f 247/1/4 248/1/4 250/1/4
f 249/2/4 247/2/4 250/2/4
f 250/1/4 248/1/4 251/1/4
f 251/1/4 248/1/4 252/1/4
f 252/1/4 248/1/4 253/1/4
f 254/1/4 255/1/4 256/1/4
f 254/1/4 256/1/4 257/1/4
f 257/1/4 256/1/4 258/1/4
f 259/5/4 260/5/4 263/5/4
f 263/5/4 260/5/4 264/5/4
f 261/1/4 262/1/4 265/1/4
f 265/1/4 262/1/4 266/1/4
f 267/5/4 268/5/4 269/5/4
f 269/5/4 268/5/4 270/5/4
f 271/1/4 272/1/4 273/1/4
f 273/1/4 272/1/4 274/1/4
f 275/1/4 276/1/4 277/1/4
f 277/1/4 276/1/4 278/1/4
f 279/1/4 280/1/4 282/1/4
f 281/1/4 282/1/4 283/1/4
f 282/1/4 280/1/4 284/1/4
f 283/1/4 282/1/4 284/1/4
f 284/1/4 280/1/4 285/1/4
f 285/1/4 280/1/4 286/1/4
f 287/3/4 288/3/4 289/3/4
f 289/3/4 288/3/4 290/3/4
f 291/5/4 292/5/4 293/5/4
f 293/5/4 292/5/4 294/5/4
f 295/1/4 296/1/4 298/1/4
f 298/1/4 296/1/4 299/1/4
f 297/1/4 298/1/4 301/1/4
f 301/1/4 298/1/4 302/1/4
f 299/1/4 300/1/4 303/1/4
f 303/1/4 300/1/4 304/1/4
f 302/1/4 303/1/4 306/1/4
f 306/1/4 303/1/4 307/1/4
f 305/1/4 306/1/4 311/1/4
f 306/1/4 307/1/4 311/1/4
f 307/1/4 308/1/4 311/1/4
f 311/1/4 308/1/4 312/1/4
f 309/4/4 310/4/4 313/4/4
f 313/4/4 310/4/4 314/4/4
f 315/1/4 316/1/4 317/1/4
f 317/1/4 316/1/4 318/1/4
f 323/5/5 320/5/5 319/5/5
f 324/5/5 320/5/5 323/5/5
f 325/2/5 322/2/5 321/2/5
f 326/2/5 322/2/5 325/2/5
f 331/5/5 328/5/5 327/5/5
f 332/5/5 328/5/5 331/5/5
f 333/5/5 330/5/5 329/5/5
f 334/5/5 330/5/5 333/5/5
f 341/3/5 336/3/5 335/3/5
f 342/3/5 336/3/5 341/3/5
f 343/3/5 338/3/5 337/3/5
f 344/3/5 338/3/5 343/3/5
f 345/5/5 340/5/5 339/5/5
f 346/5/5 340/5/5 345/5/5
f 347/4/5 342/4/5 341/4/5
f 348/4/5 342/4/5 347/4/5
f 351/1/5 350/1/5 349/1/5
f 352/1/5 350/1/5 351/1/5
f 353/1/5 350/1/5 352/1/5
f 354/1/5 350/1/5 353/1/5
f 357/1/5 356/1/5 355/1/5
f 358/1/5 356/1/5 357/1/5
f 359/1/5 357/1/5 355/1/5
f 360/1/5 356/1/5 358/1/5
f 363/1/5 359/1/5 355/1/5
f 363/1/5 360/1/5 359/1/5
f 364/1/5 356/1/5 360/1/5
f 364/1/5 360/1/5 363/1/5
f 365/1/5 362/1/5 361/1/5
f 366/1/5 362/1/5 365/1/5
f 367/1/5 365/1/5 361/1/5
f 368/1/5 362/1/5 366/1/5
f 369/1/5 367/1/5 361/1/5
f 369/1/5 368/1/5 367/1/5
f 370/1/5 362/1/5 368/1/5
f 370/1/5 368/1/5 369/1/5
f 375/1/5 372/1/5 371/1/5
f 376/1/5 372/1/5 375/1/5
f 377/1/5 374/1/5 373/1/5
f 378/1/5 374/1/5 377/1/5
f 379/1/5 375/1/5 371/1/5
f 380/1/5 372/1/5 376/1/5
f 381/1/5 377/1/5 373/1/5
f 382/1/5 374/1/5 378/1/5
f 383/1/5 379/1/5 371/1/5
f 383/1/5 380/1/5 379/1/5
f 384/1/5 372/1/5 380/1/5
f 384/1/5 380/1/5 383/1/5
f 385/1/5 382/1/5 381/1/5
f 385/1/5 381/1/5 373/1/5
f 386/1/5 374/1/5 382/1/5
f 386/1/5 382/1/5 385/1/5
f 390/1/5 388/1/5 387/1/5
f 391/1/5 388/1/5 390/1/5
f 394/1/5 390/1/5 389/1/5
f 395/1/5 390/1/5 394/1/5
f 396/1/5 393/1/5 392/1/5
f 397/1/5 393/1/5 396/1/5
f 398/1/5 396/1/5 395/1/5
f 399/1/5 396/1/5 398/1/5
f 403/1/5 401/1/5 400/1/5
f 404/1/5 401/1/5 403/1/5
f 404/1/5 403/1/5 402/1/5
f 405/1/5 401/1/5 404/1/5
f 406/1/5 404/1/5 402/1/5
f 407/1/5 404/1/5 406/1/5
f 408/1/5 404/1/5 407/1/5
f 409/1/5 401/1/5 405/1/5
f 410/1/5 401/1/5 409/1/5
f 411/1/5 408/1/5 407/1/5
f 411/1/5 410/1/5 409/1/5
f 411/1/5 409/1/5 408/1/5
f 412/1/5 410/1/5 411/1/5
f 413/1/5 410/1/5 412/1/5
f 414/1/5 410/1/5 413/1/5
f 415/1/5 413/1/5 412/1/5
f 416/1/5 413/1/5 415/1/5
f 417/3/6 418/3/6 419/3/6
f 419/3/6 418/3/6 420/3/6
f 419/4/6 420/4/6 421/4/6
f 421/4/6 420/4/6 422/4/6
f 423/1/6 424/1/6 425/1/6
f 425/1/6 424/1/6 426/1/6
f 427/1/6 428/1/6 429/1/6
f 429/1/6 428/1/6 430/1/6
f 427/1/6 429/1/6 433/1/6
f 433/1/6 429/1/6 434/1/6
f 431/1/6 432/1/6 435/1/6
f 435/1/6 432/1/6 436/1/6
f 431/1/6 435/1/6 437/1/6
f 436/1/6 432/1/6 438/1/6
f 431/1/6 437/1/6 441/1/6
f 437/1/6 438/1/6 441/1/6
f 438/1/6 432/1/6 442/1/6
f 441/1/6 438/1/6 442/1/6
f 439/1/6 440/1/6 444/1/6
f 444/1/6 440/1/6 445/1/6
f 443/1/6 444/1/6 448/1/6
f 448/1/6 444/1/6 449/1/6
f 446/1/6 447/1/6 450/1/6
f 450/1/6 447/1/6 451/1/6
f 449/1/6 450/1/6 452/1/6
f 452/1/6 450/1/6 453/1/6
f 454/1/6 455/1/6 456/1/6
f 456/1/6 455/1/6 457/1/6
f 458/1/6 459/1/6 462/1/6
f 460/1/6 461/1/6 465/1/6
f 462/1/6 463/1/6 466/1/6
f 458/1/6 462/1/6 466/1/6
f 466/1/6 463/1/6 467/1/6
f 464/1/6 465/1/6 468/1/6
f 465/1/6 461/1/6 469/1/6
f 468/1/6 465/1/6 469/1/6
f 470/1/6 471/1/6 472/1/6
f 472/1/6 471/1/6 473/1/6
f 470/1/6 472/1/6 474/1/6
f 473/1/6 471/1/6 475/1/6
f 470/1/6 474/1/6 476/1/6
f 474/1/6 475/1/6 476/1/6
f 475/1/6 471/1/6 477/1/6
f 476/1/6 475/1/6 477/1/6
f 478/1/6 479/1/6 480/1/6
f 480/1/6 479/1/6 481/1/6
