# MagicaVoxel @ Ephtracy

# group
o 

# material
mtllib Baum_1.mtl
usemtl palette

# normals
vn -1 0 0
vn 1 0 0
vn 0 0 1
vn 0 0 -1
vn 0 -1 0
vn 0 1 0

# texcoords
vt 0.373047 0.5
vt 0.896484 0.5
vt 0.900391 0.5
vt 0.919922 0.5
vt 0.951172 0.5
vt 0.955078 0.5
vt 0.962891 0.5

# verts
v -0.5 0.3 0.3
v -0.5 0.3 0
v -0.5 0.4 0.3
v -0.5 0.4 0
v -0.4 0.2 0.3
v -0.4 0.2 0
v -0.4 0.3 0.4
v -0.4 0.3 0.3
v -0.4 0.3 0
v -0.4 0.3 -0.1
v -0.4 0.4 0.4
v -0.4 0.4 0.3
v -0.4 0.4 0
v -0.4 0.4 -0.1
v -0.4 0.5 0.3
v -0.4 0.5 0
v -0.3 0 0.2
v -0.3 0 0.1
v -0.3 0.2 0.2
v -0.3 0.2 0.1
v -0.2 0.4 0
v -0.2 0.4 -0.1
v -0.2 0.4 -0.3
v -0.2 0.5 0
v -0.2 0.5 -0.3
v -0.1 0 -0.1
v -0.1 0 -0.2
v -0.1 0.1 -0.1
v -0.1 0.1 -0.2
v -0.1 0.3 0
v -0.1 0.3 -0.3
v -0.1 0.4 0
v -0.1 0.4 -0.3
v -0.1 0.4 -0.4
v -0.1 0.5 0
v -0.1 0.5 -0.3
v -0.1 0.5 -0.4
v -0.1 0.6 0
v -0.1 0.6 -0.3
v 0 0.1 -0.1
v 0 0.1 -0.2
v 0 0.3 -0.1
v 0 0.3 -0.2
v 0 0.5 0.4
v 0 0.5 0.1
v 0 0.6 0.4
v 0 0.6 0.1
v 0.1 0.3 -0.3
v 0.1 0.3 -0.4
v 0.1 0.3 -0.5
v 0.1 0.4 0.4
v 0.1 0.4 0.1
v 0.1 0.4 -0.3
v 0.1 0.4 -0.4
v 0.1 0.4 -0.5
v 0.1 0.5 0.5
v 0.1 0.5 0.4
v 0.1 0.5 0.1
v 0.1 0.5 0
v 0.1 0.6 0.5
v 0.1 0.6 0.4
v 0.1 0.6 0.1
v 0.1 0.6 0
v 0.1 0.7 0.4
v 0.1 0.7 0.1
v 0.2 0 0.3
v 0.2 0 0.2
v 0.2 0 -0.2
v 0.2 0 -0.3
v 0.2 0.3 -0.2
v 0.2 0.3 -0.3
v 0.2 0.4 0.3
v 0.2 0.4 0.2
v 0.3 0.3 -0.1
v 0.3 0.3 -0.2
v 0.3 0.4 -0.1
v 0.3 0.4 -0.2
v -0.3 0.2 0.3
v -0.3 0.2 0.2
v -0.3 0.3 0.3
v -0.3 0.3 0.2
v -0.2 0 0.2
v -0.2 0 0.1
v -0.2 0.2 0.2
v -0.2 0.2 0.1
v -0.2 0.3 0
v -0.2 0.3 -0.1
v -0.2 0.4 0
v -0.2 0.4 -0.1
v -0.1 0.2 0.2
v -0.1 0.2 0
v -0.1 0.3 0.4
v -0.1 0.3 0.3
v -0.1 0.3 0.2
v -0.1 0.3 0
v -0.1 0.4 0.4
v -0.1 0.4 0.3
v -0.1 0.4 0.1
v -0.1 0.5 0.3
v -0.1 0.5 0.1
v 0 0.3 0.3
v 0 0.3 0
v 0 0.4 0.3
v 0 0.4 0.1
v 0 0.4 0
v 0.1 0 -0.1
v 0.1 0 -0.2
v 0.1 0.3 -0.1
v 0.1 0.3 -0.2
v 0.1 0.4 0.1
v 0.1 0.4 0
v 0.1 0.5 0.1
v 0.1 0.5 0
v 0.2 0.3 0
v 0.2 0.3 -0.2
v 0.2 0.4 0.4
v 0.2 0.4 0.3
v 0.2 0.4 0
v 0.2 0.4 -0.2
v 0.2 0.5 0.4
v 0.2 0.5 0.3
v 0.2 0.5 0
v 0.2 0.5 -0.3
v 0.2 0.6 0
v 0.2 0.6 -0.3
v 0.3 0 0.3
v 0.3 0 0.2
v 0.3 0 -0.2
v 0.3 0 -0.3
v 0.3 0.3 -0.2
v 0.3 0.3 -0.3
v 0.3 0.4 0.3
v 0.3 0.4 0.2
v 0.3 0.4 0
v 0.3 0.4 -0.1
v 0.3 0.4 -0.2
v 0.3 0.5 0
v 0.3 0.5 -0.2
v 0.4 0.3 -0.1
v 0.4 0.3 -0.2
v 0.4 0.3 -0.4
v 0.4 0.3 -0.5
v 0.4 0.4 0.3
v 0.4 0.4 0.1
v 0.4 0.4 -0.1
v 0.4 0.4 -0.2
v 0.4 0.4 -0.4
v 0.4 0.4 -0.5
v 0.4 0.5 0.5
v 0.4 0.5 0.4
v 0.4 0.5 0.3
v 0.4 0.5 0.1
v 0.4 0.5 0
v 0.4 0.5 -0.2
v 0.4 0.5 -0.4
v 0.4 0.6 0.5
v 0.4 0.6 0.4
v 0.4 0.6 0.1
v 0.4 0.6 0
v 0.4 0.7 0.4
v 0.4 0.7 0.1
v 0.5 0.3 -0.2
v 0.5 0.3 -0.4
v 0.5 0.4 -0.2
v 0.5 0.4 -0.4
v 0.5 0.5 0.4
v 0.5 0.5 0.1
v 0.5 0.6 0.4
v 0.5 0.6 0.1
v 0.1 0.5 0.5
v 0.1 0.6 0.5
v 0.3 0.5 0.5
v 0.3 0.6 0.5
v 0.4 0.5 0.5
v 0.4 0.6 0.5
v -0.4 0.3 0.4
v -0.4 0.4 0.4
v -0.1 0.3 0.4
v -0.1 0.4 0.4
v 0 0.5 0.4
v 0 0.6 0.4
v 0.1 0.4 0.4
v 0.1 0.5 0.4
v 0.1 0.6 0.4
v 0.1 0.7 0.4
v 0.2 0.4 0.4
v 0.2 0.5 0.4
v 0.3 0.6 0.4
v 0.4 0.5 0.4
v 0.4 0.6 0.4
v 0.4 0.7 0.4
v 0.5 0.5 0.4
v 0.5 0.6 0.4
v -0.5 0.3 0.3
v -0.5 0.4 0.3
v -0.4 0.2 0.3
v -0.4 0.3 0.3
v -0.4 0.4 0.3
v -0.4 0.5 0.3
v -0.3 0.2 0.3
v -0.3 0.3 0.3
v -0.1 0.3 0.3
v -0.1 0.4 0.3
v -0.1 0.5 0.3
v 0 0.3 0.3
v 0 0.4 0.3
v 0.2 0 0.3
v 0.2 0.4 0.3
v 0.2 0.5 0.3
v 0.3 0 0.3
v 0.3 0.4 0.3
v 0.3 0.5 0.3
v 0.4 0.4 0.3
v 0.4 0.5 0.3
v -0.3 0 0.2
v -0.3 0.2 0.2
v -0.3 0.3 0.2
v -0.2 0 0.2
v -0.2 0.2 0.2
v -0.2 0.3 0.2
v -0.1 0.2 0.2
v -0.1 0.3 0.2
v -0.1 0.4 0.1
v -0.1 0.5 0.1
v 0 0.4 0.1
v 0 0.5 0.1
v 0.1 0.4 0.1
v 0.1 0.5 0.1
v -0.1 0.5 0
v -0.1 0.6 0
v 0 0.3 0
v 0 0.4 0
v 0.1 0.4 0
v 0.1 0.5 0
v 0.1 0.6 0
v 0.2 0.3 0
v 0.2 0.4 0
v 0.2 0.5 0
v 0.3 0.4 0
v 0.3 0.5 0
v -0.1 0 -0.1
v -0.1 0.1 -0.1
v 0 0.1 -0.1
v 0 0.3 -0.1
v 0.1 0 -0.1
v 0.1 0.3 -0.1
v 0.3 0.3 -0.1
v 0.3 0.4 -0.1
v 0.4 0.3 -0.1
v 0.4 0.4 -0.1
v 0.2 0 -0.2
v 0.2 0.3 -0.2
v 0.2 0.4 -0.2
v 0.3 0 -0.2
v 0.3 0.3 -0.2
v 0.3 0.4 -0.2
v 0.3 0.5 -0.2
v 0.4 0.3 -0.2
v 0.4 0.4 -0.2
v 0.4 0.5 -0.2
v 0.5 0.3 -0.2
v 0.5 0.4 -0.2
v 0.2 0 0.2
v 0.2 0.4 0.2
v 0.3 0 0.2
v 0.3 0.4 0.2
v -0.3 0 0.1
v -0.3 0.2 0.1
v -0.2 0 0.1
v -0.2 0.2 0.1
v 0 0.5 0.1
v 0 0.6 0.1
v 0.1 0.4 0.1
v 0.1 0.5 0.1
v 0.1 0.6 0.1
v 0.1 0.7 0.1
v 0.4 0.4 0.1
v 0.4 0.5 0.1
v 0.4 0.6 0.1
v 0.4 0.7 0.1
v 0.5 0.5 0.1
v 0.5 0.6 0.1
v -0.5 0.3 0
v -0.5 0.4 0
v -0.4 0.2 0
v -0.4 0.3 0
v -0.4 0.4 0
v -0.4 0.5 0
v -0.2 0.3 0
v -0.2 0.4 0
v -0.2 0.5 0
v -0.1 0.2 0
v -0.1 0.3 0
v -0.1 0.4 0
v 0.2 0.5 0
v 0.2 0.6 0
v 0.3 0.5 0
v 0.4 0.5 0
v 0.4 0.6 0
v -0.4 0.3 -0.1
v -0.4 0.4 -0.1
v -0.2 0.3 -0.1
v -0.2 0.4 -0.1
v -0.1 0 -0.2
v -0.1 0.1 -0.2
v 0 0.1 -0.2
v 0 0.3 -0.2
v 0.1 0 -0.2
v 0.1 0.3 -0.2
v -0.2 0.4 -0.3
v -0.2 0.5 -0.3
v -0.1 0.3 -0.3
v -0.1 0.4 -0.3
v -0.1 0.5 -0.3
v -0.1 0.6 -0.3
v 0.1 0.3 -0.3
v 0.1 0.4 -0.3
v 0.2 0 -0.3
v 0.2 0.3 -0.3
v 0.2 0.5 -0.3
v 0.2 0.6 -0.3
v 0.3 0 -0.3
v 0.3 0.3 -0.3
v -0.1 0.4 -0.4
v -0.1 0.5 -0.4
v 0.1 0.4 -0.4
v 0.4 0.3 -0.4
v 0.4 0.4 -0.4
v 0.4 0.5 -0.4
v 0.5 0.3 -0.4
v 0.5 0.4 -0.4
v 0.1 0.3 -0.5
v 0.1 0.4 -0.5
v 0.4 0.3 -0.5
v 0.4 0.4 -0.5
v 0.2 0 0.3
v 0.3 0 0.3
v -0.3 0 0.2
v -0.2 0 0.2
v 0.2 0 0.2
v 0.3 0 0.2
v -0.3 0 0.1
v -0.2 0 0.1
v -0.1 0 -0.1
v 0.1 0 -0.1
v -0.1 0 -0.2
v 0.1 0 -0.2
v 0.2 0 -0.2
v 0.3 0 -0.2
v 0.2 0 -0.3
v 0.3 0 -0.3
v -0.4 0.2 0.3
v -0.3 0.2 0.3
v -0.3 0.2 0.2
v -0.2 0.2 0.2
v -0.1 0.2 0.2
v -0.3 0.2 0.1
v -0.2 0.2 0.1
v -0.4 0.2 0
v -0.1 0.2 0
v -0.4 0.3 0.4
v -0.1 0.3 0.4
v -0.5 0.3 0.3
v -0.4 0.3 0.3
v -0.3 0.3 0.3
v -0.1 0.3 0.3
v 0 0.3 0.3
v -0.3 0.3 0.2
v -0.2 0.3 0.2
v -0.1 0.3 0.2
v -0.5 0.3 0
v -0.4 0.3 0
v -0.2 0.3 0
v -0.1 0.3 0
v 0 0.3 0
v 0.2 0.3 0
v -0.4 0.3 -0.1
v -0.2 0.3 -0.1
v 0 0.3 -0.1
v 0.1 0.3 -0.1
v 0.3 0.3 -0.1
v 0.4 0.3 -0.1
v 0 0.3 -0.2
v 0.1 0.3 -0.2
v 0.2 0.3 -0.2
v 0.3 0.3 -0.2
v 0.4 0.3 -0.2
v 0.5 0.3 -0.2
v -0.1 0.3 -0.3
v 0.1 0.3 -0.3
v 0.2 0.3 -0.3
v 0.3 0.3 -0.3
v 0.1 0.3 -0.4
v 0.2 0.3 -0.4
v 0.4 0.3 -0.4
v 0.5 0.3 -0.4
v 0.1 0.3 -0.5
v 0.4 0.3 -0.5
v 0.1 0.4 0.4
v 0.2 0.4 0.4
v 0.2 0.4 0.3
v 0.3 0.4 0.3
v 0.4 0.4 0.3
v 0.2 0.4 0.2
v 0.3 0.4 0.2
v 0 0.4 0.1
v 0.1 0.4 0.1
v 0.4 0.4 0.1
v -0.2 0.4 0
v -0.1 0.4 0
v 0 0.4 0
v 0.1 0.4 0
v 0.2 0.4 0
v 0.3 0.4 0
v -0.2 0.4 -0.1
v 0.3 0.4 -0.1
v 0.2 0.4 -0.2
v 0.3 0.4 -0.2
v -0.2 0.4 -0.3
v -0.1 0.4 -0.3
v 0.1 0.4 -0.3
v -0.1 0.4 -0.4
v 0.1 0.4 -0.4
v 0.1 0.5 0.5
v 0.3 0.5 0.5
v 0.4 0.5 0.5
v 0 0.5 0.4
v 0.1 0.5 0.4
v 0.2 0.5 0.4
v 0.3 0.5 0.4
v 0.4 0.5 0.4
v 0.5 0.5 0.4
v 0.2 0.5 0.3
v 0.3 0.5 0.3
v 0.4 0.5 0.3
v 0 0.5 0.1
v 0.1 0.5 0.1
v 0.4 0.5 0.1
v 0.5 0.5 0.1
v 0.1 0.5 0
v 0.2 0.5 0
v 0.3 0.5 0
v 0.4 0.5 0
v -0.1 0.1 -0.1
v 0 0.1 -0.1
v -0.1 0.1 -0.2
v 0 0.1 -0.2
v -0.4 0.4 0.4
v -0.1 0.4 0.4
v -0.5 0.4 0.3
v -0.4 0.4 0.3
v -0.1 0.4 0.3
v 0 0.4 0.3
v -0.1 0.4 0.1
v 0 0.4 0.1
v -0.5 0.4 0
v -0.4 0.4 0
v -0.2 0.4 0
v -0.4 0.4 -0.1
v -0.2 0.4 -0.1
v 0.3 0.4 -0.1
v 0.4 0.4 -0.1
v 0.3 0.4 -0.2
v 0.4 0.4 -0.2
v 0.5 0.4 -0.2
v 0.1 0.4 -0.4
v 0.4 0.4 -0.4
v 0.5 0.4 -0.4
v 0.1 0.4 -0.5
v 0.4 0.4 -0.5
v -0.4 0.5 0.3
v -0.1 0.5 0.3
v -0.1 0.5 0.1
v 0 0.5 0.1
v 0.1 0.5 0.1
v -0.4 0.5 0
v -0.2 0.5 0
v -0.1 0.5 0
v 0.1 0.5 0
v 0.2 0.5 0
v 0.3 0.5 0
v 0.3 0.5 -0.2
v 0.4 0.5 -0.2
v -0.2 0.5 -0.3
v -0.1 0.5 -0.3
v 0.2 0.5 -0.3
v -0.1 0.5 -0.4
v 0.4 0.5 -0.4
v 0.1 0.6 0.5
v 0.3 0.6 0.5
v 0.4 0.6 0.5
v 0 0.6 0.4
v 0.1 0.6 0.4
v 0.3 0.6 0.4
v 0.4 0.6 0.4
v 0.5 0.6 0.4
v 0 0.6 0.1
v 0.1 0.6 0.1
v 0.4 0.6 0.1
v 0.5 0.6 0.1
v -0.1 0.6 0
v 0.1 0.6 0
v 0.2 0.6 0
v 0.4 0.6 0
v -0.1 0.6 -0.3
v 0.2 0.6 -0.3
v 0.1 0.7 0.4
v 0.4 0.7 0.4
v 0.1 0.7 0.1
v 0.4 0.7 0.1

# faces
f 3/4/1 2/4/1 1/4/1
f 4/4/1 2/4/1 3/4/1
f 8/4/1 6/4/1 5/4/1
f 9/4/1 6/4/1 8/4/1
f 11/4/1 8/4/1 7/4/1
f 12/4/1 8/4/1 11/4/1
f 13/4/1 10/4/1 9/4/1
f 14/4/1 10/4/1 13/4/1
f 15/4/1 13/4/1 12/4/1
f 16/4/1 13/4/1 15/4/1
f 19/7/1 18/7/1 17/7/1
f 20/7/1 18/7/1 19/7/1
f 24/4/1 22/4/1 21/4/1
f 24/4/1 23/4/1 22/4/1
f 25/4/1 23/4/1 24/4/1
f 28/6/1 27/6/1 26/6/1
f 29/6/1 27/6/1 28/6/1
f 32/4/1 31/4/1 30/4/1
f 33/4/1 31/4/1 32/4/1
f 36/4/1 34/4/1 33/4/1
f 37/4/1 34/4/1 36/4/1
f 38/4/1 36/4/1 35/4/1
f 39/4/1 36/4/1 38/4/1
f 42/6/1 41/6/1 40/6/1
f 43/6/1 41/6/1 42/6/1
f 46/4/1 45/4/1 44/4/1
f 47/4/1 45/4/1 46/4/1
f 53/3/1 49/3/1 48/3/1
f 54/4/1 50/4/1 49/4/1
f 54/3/1 49/3/1 53/3/1
f 55/4/1 50/4/1 54/4/1
f 57/4/1 52/4/1 51/4/1
f 58/4/1 52/4/1 57/4/1
f 60/4/1 57/4/1 56/4/1
f 61/4/1 57/4/1 60/4/1
f 62/4/1 59/4/1 58/4/1
f 63/4/1 59/4/1 62/4/1
f 64/4/1 62/4/1 61/4/1
f 65/4/1 62/4/1 64/4/1
f 70/7/1 69/7/1 68/7/1
f 71/7/1 69/7/1 70/7/1
f 72/5/1 67/5/1 66/5/1
f 73/5/1 67/5/1 72/5/1
f 76/4/1 75/4/1 74/4/1
f 77/4/1 75/4/1 76/4/1
f 78/4/2 79/4/2 80/4/2
f 80/4/2 79/4/2 81/4/2
f 82/7/2 83/7/2 84/7/2
f 84/7/2 83/7/2 85/7/2
f 86/4/2 87/4/2 88/4/2
f 88/4/2 87/4/2 89/4/2
f 90/4/2 91/4/2 94/4/2
f 94/4/2 91/4/2 95/4/2
f 92/4/2 93/4/2 96/4/2
f 96/4/2 93/4/2 97/4/2
f 97/4/2 98/4/2 99/4/2
f 99/4/2 98/4/2 100/4/2
f 101/4/2 102/4/2 103/4/2
f 103/4/2 102/4/2 104/4/2
f 104/4/2 102/4/2 105/4/2
f 106/6/2 107/6/2 108/6/2
f 108/6/2 107/6/2 109/6/2
f 110/4/2 111/4/2 112/4/2
f 112/4/2 111/4/2 113/4/2
f 114/4/2 115/4/2 118/4/2
f 118/4/2 115/4/2 119/4/2
f 116/4/2 117/4/2 120/4/2
f 120/4/2 117/4/2 121/4/2
f 122/4/2 123/4/2 124/4/2
f 124/4/2 123/4/2 125/4/2
f 128/7/2 129/7/2 130/7/2
f 130/7/2 129/7/2 131/7/2
f 126/5/2 127/5/2 132/5/2
f 132/5/2 127/5/2 133/5/2
f 135/4/2 136/4/2 137/4/2
f 134/4/2 135/4/2 137/4/2
f 137/4/2 136/4/2 138/4/2
f 139/4/2 140/4/2 145/4/2
f 145/4/2 140/4/2 146/4/2
f 141/4/2 142/4/2 147/4/2
f 147/4/2 142/4/2 148/4/2
f 143/4/2 144/4/2 151/4/2
f 151/4/2 144/4/2 152/4/2
f 146/4/2 147/4/2 154/4/2
f 154/4/2 147/4/2 155/4/2
f 149/3/2 150/3/2 156/3/2
f 156/3/2 150/3/2 157/3/2
f 152/4/2 153/4/2 158/4/2
f 158/4/2 153/4/2 159/4/2
f 157/4/2 158/4/2 160/4/2
f 160/4/2 158/4/2 161/4/2
f 162/4/2 163/4/2 164/4/2
f 164/4/2 163/4/2 165/4/2
f 166/4/2 167/4/2 168/4/2
f 168/4/2 167/4/2 169/4/2
f 172/4/3 171/4/3 170/4/3
f 173/4/3 171/4/3 172/4/3
f 174/3/3 173/3/3 172/3/3
f 175/3/3 173/3/3 174/3/3
f 178/4/3 177/4/3 176/4/3
f 179/4/3 177/4/3 178/4/3
f 183/4/3 181/4/3 180/4/3
f 184/4/3 181/4/3 183/4/3
f 186/4/3 183/4/3 182/4/3
f 187/4/3 183/4/3 186/4/3
f 188/4/3 185/4/3 184/4/3
f 190/4/3 185/4/3 188/4/3
f 191/4/3 185/4/3 190/4/3
f 192/4/3 190/4/3 189/4/3
f 193/4/3 190/4/3 192/4/3
f 197/4/3 195/4/3 194/4/3
f 198/4/3 195/4/3 197/4/3
f 200/4/3 197/4/3 196/4/3
f 201/4/3 197/4/3 200/4/3
f 203/4/3 199/4/3 198/4/3
f 204/4/3 199/4/3 203/4/3
f 205/4/3 203/4/3 202/4/3
f 206/4/3 203/4/3 205/4/3
f 210/5/3 208/5/3 207/5/3
f 211/1/3 209/1/3 208/1/3
f 211/5/3 208/5/3 210/5/3
f 212/1/3 209/1/3 211/1/3
f 213/4/3 212/4/3 211/4/3
f 214/4/3 212/4/3 213/4/3
f 218/7/3 216/7/3 215/7/3
f 219/1/3 217/1/3 216/1/3
f 219/7/3 216/7/3 218/7/3
f 220/1/3 217/1/3 219/1/3
f 221/4/3 220/4/3 219/4/3
f 222/4/3 220/4/3 221/4/3
f 225/4/3 224/4/3 223/4/3
f 226/4/3 224/4/3 225/4/3
f 227/4/3 226/4/3 225/4/3
f 228/4/3 226/4/3 227/4/3
f 233/4/3 232/4/3 231/4/3
f 234/4/3 230/4/3 229/4/3
f 235/4/3 230/4/3 234/4/3
f 236/4/3 233/4/3 231/4/3
f 237/2/3 234/2/3 233/2/3
f 237/4/3 233/4/3 236/4/3
f 238/2/3 234/2/3 237/2/3
f 239/4/3 238/4/3 237/4/3
f 240/4/3 238/4/3 239/4/3
f 243/6/3 242/6/3 241/6/3
f 245/6/3 243/6/3 241/6/3
f 245/6/3 244/6/3 243/6/3
f 246/6/3 244/6/3 245/6/3
f 249/4/3 248/4/3 247/4/3
f 250/4/3 248/4/3 249/4/3
f 254/7/3 252/7/3 251/7/3
f 255/4/3 253/4/3 252/4/3
f 255/7/3 252/7/3 254/7/3
f 256/4/3 253/4/3 255/4/3
f 259/4/3 257/4/3 256/4/3
f 260/4/3 257/4/3 259/4/3
f 261/4/3 259/4/3 258/4/3
f 262/4/3 259/4/3 261/4/3
f 263/5/4 264/5/4 265/5/4
f 265/5/4 264/5/4 266/5/4
f 267/7/4 268/7/4 269/7/4
f 269/7/4 268/7/4 270/7/4
f 271/4/4 272/4/4 274/4/4
f 274/4/4 272/4/4 275/4/4
f 273/4/4 274/4/4 277/4/4
f 277/4/4 274/4/4 278/4/4
f 275/4/4 276/4/4 279/4/4
f 279/4/4 276/4/4 280/4/4
f 278/4/4 279/4/4 281/4/4
f 281/4/4 279/4/4 282/4/4
f 283/4/4 284/4/4 286/4/4
f 286/4/4 284/4/4 287/4/4
f 285/4/4 286/4/4 289/4/4
f 287/4/4 288/4/4 290/4/4
f 290/4/4 288/4/4 291/4/4
f 285/4/4 289/4/4 292/4/4
f 289/4/4 290/4/4 292/4/4
f 292/4/4 290/4/4 293/4/4
f 293/4/4 290/4/4 294/4/4
f 295/4/4 296/4/4 297/4/4
f 297/4/4 296/4/4 298/4/4
f 298/4/4 296/4/4 299/4/4
f 300/4/4 301/4/4 302/4/4
f 302/4/4 301/4/4 303/4/4
f 304/6/4 305/6/4 306/6/4
f 304/6/4 306/6/4 308/6/4
f 306/6/4 307/6/4 308/6/4
f 308/6/4 307/6/4 309/6/4
f 310/4/4 311/4/4 313/4/4
f 313/4/4 311/4/4 314/4/4
f 312/4/4 313/4/4 316/4/4
f 316/4/4 313/4/4 317/4/4
f 314/4/4 315/4/4 320/4/4
f 320/4/4 315/4/4 321/4/4
f 318/7/4 319/7/4 322/7/4
f 322/7/4 319/7/4 323/7/4
f 324/4/4 325/4/4 326/4/4
f 326/4/4 325/4/4 328/4/4
f 328/4/4 325/4/4 329/4/4
f 327/4/4 328/4/4 330/4/4
f 330/4/4 328/4/4 331/4/4
f 332/4/4 333/4/4 334/4/4
f 334/4/4 333/4/4 335/4/4
f 340/5/5 337/5/5 336/5/5
f 341/5/5 337/5/5 340/5/5
f 342/7/5 339/7/5 338/7/5
f 343/7/5 339/7/5 342/7/5
f 346/6/5 345/6/5 344/6/5
f 347/6/5 345/6/5 346/6/5
f 350/7/5 349/7/5 348/7/5
f 351/7/5 349/7/5 350/7/5
f 354/4/5 353/4/5 352/4/5
f 357/4/5 354/4/5 352/4/5
f 358/4/5 356/4/5 355/4/5
f 359/4/5 357/4/5 352/4/5
f 359/4/5 358/4/5 357/4/5
f 360/4/5 356/4/5 358/4/5
f 360/4/5 358/4/5 359/4/5
f 364/4/5 362/4/5 361/4/5
f 365/4/5 362/4/5 364/4/5
f 366/4/5 362/4/5 365/4/5
f 368/4/5 367/4/5 366/4/5
f 368/4/5 366/4/5 365/4/5
f 369/4/5 367/4/5 368/4/5
f 370/4/5 367/4/5 369/4/5
f 371/4/5 364/4/5 363/4/5
f 372/4/5 364/4/5 371/4/5
f 374/4/5 367/4/5 370/4/5
f 375/4/5 367/4/5 374/4/5
f 377/4/5 373/4/5 372/4/5
f 378/4/5 373/4/5 377/4/5
f 379/4/5 376/4/5 375/4/5
f 379/4/5 375/4/5 374/4/5
f 380/4/5 376/4/5 379/4/5
f 383/4/5 379/4/5 374/4/5
f 384/4/5 376/4/5 380/4/5
f 385/4/5 376/4/5 384/4/5
f 386/4/5 382/4/5 381/4/5
f 387/4/5 382/4/5 386/4/5
f 389/4/5 383/4/5 374/4/5
f 389/4/5 384/4/5 383/4/5
f 390/3/5 385/3/5 384/3/5
f 390/4/5 384/4/5 389/4/5
f 391/3/5 385/3/5 390/3/5
f 392/4/5 388/4/5 387/4/5
f 392/4/5 387/4/5 386/4/5
f 393/3/5 391/3/5 390/3/5
f 394/4/5 392/4/5 391/4/5
f 394/3/5 391/3/5 393/3/5
f 395/4/5 388/4/5 392/4/5
f 395/4/5 392/4/5 394/4/5
f 396/4/5 388/4/5 395/4/5
f 397/4/5 394/4/5 393/4/5
f 397/4/5 395/4/5 394/4/5
f 398/4/5 395/4/5 397/4/5
f 401/4/5 400/4/5 399/4/5
f 404/4/5 401/4/5 399/4/5
f 405/4/5 403/4/5 402/4/5
f 407/4/5 404/4/5 399/4/5
f 407/4/5 405/4/5 404/4/5
f 408/4/5 403/4/5 405/4/5
f 408/4/5 405/4/5 407/4/5
f 411/4/5 407/4/5 406/4/5
f 412/4/5 407/4/5 411/4/5
f 415/4/5 410/4/5 409/4/5
f 416/4/5 414/4/5 413/4/5
f 417/4/5 416/4/5 413/4/5
f 418/4/5 416/4/5 417/4/5
f 419/4/5 410/4/5 415/4/5
f 420/4/5 410/4/5 419/4/5
f 422/4/5 421/4/5 420/4/5
f 423/4/5 421/4/5 422/4/5
f 428/4/5 425/4/5 424/4/5
f 429/4/5 425/4/5 428/4/5
f 430/3/5 426/3/5 425/3/5
f 430/4/5 425/4/5 429/4/5
f 431/3/5 426/3/5 430/3/5
f 433/4/5 432/4/5 431/4/5
f 433/4/5 431/4/5 430/4/5
f 433/4/5 430/4/5 429/4/5
f 434/4/5 432/4/5 433/4/5
f 435/4/5 432/4/5 434/4/5
f 436/4/5 428/4/5 427/4/5
f 437/4/5 428/4/5 436/4/5
f 438/4/5 432/4/5 435/4/5
f 439/4/5 432/4/5 438/4/5
f 440/4/5 438/4/5 437/4/5
f 441/4/5 438/4/5 440/4/5
f 442/4/5 438/4/5 441/4/5
f 443/4/5 438/4/5 442/4/5
f 444/6/6 445/6/6 446/6/6
f 446/6/6 445/6/6 447/6/6
f 448/4/6 449/4/6 451/4/6
f 451/4/6 449/4/6 452/4/6
f 452/4/6 453/4/6 454/4/6
f 454/4/6 453/4/6 455/4/6
f 450/4/6 451/4/6 456/4/6
f 456/4/6 451/4/6 457/4/6
f 457/4/6 458/4/6 459/4/6
f 459/4/6 458/4/6 460/4/6
f 461/4/6 462/4/6 463/4/6
f 463/4/6 462/4/6 464/4/6
f 464/4/6 465/4/6 467/4/6
f 467/4/6 465/4/6 468/4/6
f 466/4/6 467/4/6 469/4/6
f 469/4/6 467/4/6 470/4/6
f 471/4/6 472/4/6 473/4/6
f 471/4/6 473/4/6 476/4/6
f 474/4/6 475/4/6 476/4/6
f 473/4/6 474/4/6 476/4/6
f 476/4/6 475/4/6 477/4/6
f 477/4/6 475/4/6 478/4/6
f 478/4/6 475/4/6 479/4/6
f 480/4/6 481/4/6 482/4/6
f 477/4/6 478/4/6 484/4/6
f 484/4/6 478/4/6 485/4/6
f 482/4/6 483/4/6 486/4/6
f 480/4/6 482/4/6 486/4/6
f 485/4/6 486/4/6 487/4/6
f 486/4/6 483/4/6 488/4/6
f 487/4/6 486/4/6 488/4/6
f 489/4/6 490/4/6 493/4/6
f 490/3/6 491/3/6 494/3/6
f 493/4/6 490/4/6 494/4/6
f 494/3/6 491/3/6 495/3/6
f 492/4/6 493/4/6 497/4/6
f 497/4/6 493/4/6 498/4/6
f 495/4/6 496/4/6 499/4/6
f 499/4/6 496/4/6 500/4/6
f 498/4/6 499/4/6 502/4/6
f 502/4/6 499/4/6 503/4/6
f 503/4/6 499/4/6 504/4/6
f 501/4/6 502/4/6 505/4/6
f 502/4/6 503/4/6 505/4/6
f 505/4/6 503/4/6 506/4/6
f 507/4/6 508/4/6 509/4/6
f 509/4/6 508/4/6 510/4/6
