# MagicaVoxel @ Ephtracy

# group
o 

# material
mtllib stein.mtl
usemtl palette

# normals
vn -1 0 0
vn 1 0 0
vn 0 0 1
vn 0 0 -1
vn 0 -1 0
vn 0 1 0

# texcoords
vt 0.978516 0.5
vt 0.982422 0.5

# verts
v -0.7 -0.8 0.7
v -0.7 -0.8 0.6
v -0.7 -0.8 0.4
v -0.7 -0.8 0.3
v -0.7 -0.8 0.1
v -0.7 -0.6 0.7
v -0.7 -0.6 0.6
v -0.7 -0.6 0.3
v -0.7 -0.6 0.2
v -0.7 -0.5 0.7
v -0.7 -0.5 0.4
v -0.7 -0.2 0.3
v -0.7 -0.2 0.2
v -0.7 -0.2 0.1
v -0.6 -0.8 0.4
v -0.6 -0.8 0.3
v -0.6 -0.8 0.1
v -0.6 -0.8 -0.2
v -0.6 -0.6 0.4
v -0.6 -0.6 0.3
v -0.6 -0.5 0.6
v -0.6 -0.5 0.5
v -0.6 -0.5 0.4
v -0.6 -0.5 0.1
v -0.6 -0.5 -0.1
v -0.6 -0.4 0
v -0.6 -0.4 -0.1
v -0.6 -0.4 -0.2
v -0.6 -0.3 0.6
v -0.6 -0.3 0.5
v -0.6 -0.3 0.4
v -0.6 -0.3 0.3
v -0.6 -0.3 0.1
v -0.6 -0.3 0
v -0.4 -0.8 -0.2
v -0.4 -0.8 -0.5
v -0.4 -0.6 -0.4
v -0.4 -0.6 -0.5
v -0.4 -0.4 -0.1
v -0.4 -0.4 -0.2
v -0.4 -0.4 -0.4
v -0.4 -0.4 -0.5
v -0.4 -0.3 -0.1
v -0.4 -0.3 -0.5
v -0.4 0.1 -0.1
v -0.4 0.1 -0.5
v -0.2 -0.8 0.7
v -0.2 -0.8 0.6
v -0.2 -0.8 -0.5
v -0.2 -0.8 -0.6
v -0.2 -0.7 0.7
v -0.2 -0.7 0.6
v -0.2 -0.4 0.3
v -0.2 -0.4 0.2
v -0.2 -0.4 -0.1
v -0.2 -0.4 -0.5
v -0.2 -0.4 -0.6
v -0.2 -0.3 0.3
v -0.2 -0.3 0.2
v -0.2 -0.2 0.2
v -0.2 -0.2 0.1
v -0.2 -0.2 -0.1
v -0.2 -0.1 0.2
v -0.2 -0.1 0.1
v -0.2 0 0.3
v -0.2 0 0.2
v -0.2 0.1 -0.1
v -0.2 0.1 -0.2
v -0.2 0.2 0.2
v -0.2 0.2 0.1
v -0.2 0.2 -0.1
v -0.2 0.2 -0.2
v -0.2 0.3 0.2
v -0.2 0.3 0.1
v -0.2 0.4 0.2
v -0.2 0.4 -0.2
v -0.1 -0.7 0.7
v -0.1 -0.7 0.6
v -0.1 -0.6 0.7
v -0.1 -0.6 0.6
v -0.1 -0.5 0.5
v -0.1 -0.5 0.4
v -0.1 -0.4 0.5
v -0.1 -0.4 0.4
v -0.1 0.4 0.1
v -0.1 0.4 0
v -0.1 0.4 -0.1
v -0.1 0.5 0.1
v -0.1 0.5 0
v -0.1 0.5 -0.1
v -0.5 -0.3 0.3
v -0.5 -0.3 0.1
v -0.5 -0.2 0.3
v -0.5 -0.2 0.1
v -0.4 -0.8 0.7
v -0.4 -0.8 0.6
v -0.4 -0.5 0.7
v -0.4 -0.5 0.6
v -0.4 -0.5 0.5
v -0.4 -0.4 0.5
v -0.4 -0.4 0
v -0.4 -0.3 0.6
v -0.4 -0.3 0.5
v -0.4 -0.3 0
v -0.2 -0.5 0.5
v -0.2 -0.5 0.4
v -0.2 -0.5 0.3
v -0.2 -0.4 0.5
v -0.2 -0.4 0.3
v 0 -0.7 0.7
v 0 -0.7 0.6
v 0 -0.6 0.7
v 0 -0.6 0.6
v 0 -0.4 -0.2
v 0 -0.4 -0.4
v 0 -0.4 -0.5
v 0 -0.3 -0.2
v 0 -0.3 -0.5
v 0 -0.1 -0.3
v 0 -0.1 -0.5
v 0 0 -0.3
v 0 0 -0.4
v 0 0.1 -0.2
v 0 0.1 -0.4
v 0 0.1 -0.5
v 0.1 -0.8 0.7
v 0.1 -0.8 0.6
v 0.1 -0.7 0.7
v 0.1 -0.7 0.6
v 0.1 -0.5 0.5
v 0.1 -0.5 0.4
v 0.1 -0.4 0.5
v 0.1 -0.4 0.4
v 0.1 0.4 0.1
v 0.1 0.4 0
v 0.1 0.4 -0.1
v 0.1 0.5 0.1
v 0.1 0.5 0
v 0.1 0.5 -0.1
v 0.2 -0.8 0.6
v 0.2 -0.8 0.3
v 0.2 -0.8 -0.4
v 0.2 -0.8 -0.5
v 0.2 -0.8 -0.6
v 0.2 -0.7 -0.4
v 0.2 -0.6 0.5
v 0.2 -0.6 0.4
v 0.2 -0.6 0.3
v 0.2 -0.6 0.2
v 0.2 -0.6 -0.4
v 0.2 -0.6 -0.5
v 0.2 -0.6 -0.6
v 0.2 -0.5 0.6
v 0.2 -0.5 0.5
v 0.2 -0.5 0.4
v 0.2 -0.5 0.3
v 0.2 -0.5 -0.2
v 0.2 -0.5 -0.4
v 0.2 -0.4 0.2
v 0.2 -0.4 0.1
v 0.2 -0.4 -0.1
v 0.2 -0.4 -0.2
v 0.2 -0.4 -0.6
v 0.2 -0.1 0.1
v 0.2 0 0.3
v 0.2 0 0.2
v 0.2 0 0.1
v 0.2 0.2 0.1
v 0.2 0.3 0.1
v 0.2 0.3 0
v 0.2 0.3 -0.1
v 0.2 0.4 0.2
v 0.2 0.4 -0.2
v 0.3 -0.8 0.3
v 0.3 -0.8 0.2
v 0.3 -0.7 0.2
v 0.3 -0.6 0.3
v 0.3 -0.6 0.2
v 0.3 -0.4 0.1
v 0.3 -0.4 -0.1
v 0.3 -0.1 0.1
v 0.3 -0.1 0
v 0.3 0 0.1
v 0.3 0 0
v 0.3 0.2 0.1
v 0.3 0.2 0
v 0.3 0.3 0.1
v 0.3 0.3 0
v 0.3 0.3 -0.1
v 0.4 -0.8 -0.2
v 0.4 -0.8 -0.4
v 0.4 -0.6 -0.2
v 0.4 -0.5 -0.2
v 0.4 -0.5 -0.4
v 0.5 -0.5 0.2
v 0.5 -0.5 0.1
v 0.5 -0.5 -0.1
v 0.5 -0.5 -0.2
v 0.5 -0.4 0.2
v 0.5 -0.4 0.1
v 0.5 -0.4 -0.1
v 0.5 -0.4 -0.2
v 0.6 -0.8 0.2
v 0.6 -0.8 -0.2
v 0.6 -0.5 0.2
v 0.6 -0.5 -0.2
v -0.7 -0.8 0.7
v -0.7 -0.6 0.7
v -0.7 -0.5 0.7
v -0.5 -0.8 0.7
v -0.5 -0.6 0.7
v -0.4 -0.8 0.7
v -0.4 -0.5 0.7
v -0.2 -0.8 0.7
v -0.2 -0.7 0.7
v -0.1 -0.7 0.7
v -0.1 -0.6 0.7
v 0 -0.7 0.7
v 0 -0.6 0.7
v 0.1 -0.8 0.7
v 0.1 -0.7 0.7
v -0.6 -0.5 0.6
v -0.6 -0.3 0.6
v -0.4 -0.8 0.6
v -0.4 -0.5 0.6
v -0.4 -0.3 0.6
v -0.2 -0.8 0.6
v -0.2 -0.7 0.6
v -0.2 -0.6 0.6
v -0.2 -0.5 0.6
v -0.1 -0.7 0.6
v -0.1 -0.6 0.6
v -0.1 -0.5 0.6
v 0 -0.7 0.6
v 0 -0.6 0.6
v 0.1 -0.8 0.6
v 0.1 -0.7 0.6
v 0.2 -0.8 0.6
v 0.2 -0.5 0.6
v -0.4 -0.5 0.5
v -0.4 -0.4 0.5
v -0.3 -0.5 0.5
v -0.3 -0.4 0.5
v -0.2 -0.5 0.5
v -0.2 -0.4 0.5
v -0.1 -0.5 0.5
v -0.1 -0.4 0.5
v 0.1 -0.5 0.5
v 0.1 -0.4 0.5
v -0.7 -0.8 0.3
v -0.7 -0.6 0.3
v -0.7 -0.2 0.3
v -0.6 -0.8 0.3
v -0.6 -0.6 0.3
v -0.6 -0.3 0.3
v -0.5 -0.3 0.3
v -0.5 -0.2 0.3
v -0.2 -0.5 0.3
v -0.2 -0.4 0.3
v -0.2 -0.3 0.3
v -0.2 0 0.3
v -0.1 -0.5 0.3
v -0.1 -0.3 0.3
v -0.1 -0.1 0.3
v -0.1 0 0.3
v 0.1 -0.1 0.3
v 0.1 0 0.3
v 0.2 -0.8 0.3
v 0.2 -0.6 0.3
v 0.2 -0.5 0.3
v 0.2 0 0.3
v 0.3 -0.8 0.3
v 0.3 -0.6 0.3
v -0.2 0 0.2
v -0.2 0.2 0.2
v -0.2 0.3 0.2
v -0.2 0.4 0.2
v -0.1 0 0.2
v -0.1 0.2 0.2
v 0 0.2 0.2
v 0 0.3 0.2
v 0.1 0 0.2
v 0.1 0.2 0.2
v 0.2 -0.6 0.2
v 0.2 -0.4 0.2
v 0.2 0 0.2
v 0.2 0.4 0.2
v 0.3 -0.8 0.2
v 0.3 -0.7 0.2
v 0.3 -0.6 0.2
v 0.3 -0.4 0.2
v 0.5 -0.8 0.2
v 0.5 -0.7 0.2
v 0.5 -0.5 0.2
v 0.5 -0.4 0.2
v 0.6 -0.8 0.2
v 0.6 -0.5 0.2
v -0.1 0.4 0.1
v -0.1 0.5 0.1
v 0.1 0.4 0.1
v 0.1 0.5 0.1
v 0.2 -0.4 0.1
v 0.2 -0.1 0.1
v 0.2 0 0.1
v 0.2 0.2 0.1
v 0.2 0.3 0.1
v 0.3 -0.4 0.1
v 0.3 -0.1 0.1
v 0.3 0 0.1
v 0.3 0.2 0.1
v 0.3 0.3 0.1
v -0.4 -0.4 -0.1
v -0.4 -0.3 -0.1
v -0.4 0.1 -0.1
v -0.3 -0.3 -0.1
v -0.3 -0.2 -0.1
v -0.2 -0.4 -0.1
v -0.2 -0.2 -0.1
v -0.2 0.1 -0.1
v -0.7 -0.8 0.4
v -0.7 -0.5 0.4
v -0.6 -0.8 0.4
v -0.6 -0.6 0.4
v -0.6 -0.5 0.4
v -0.1 -0.5 0.4
v -0.1 -0.4 0.4
v 0.1 -0.5 0.4
v 0.1 -0.4 0.4
v -0.7 -0.8 0.1
v -0.7 -0.2 0.1
v -0.6 -0.8 0.1
v -0.6 -0.5 0.1
v -0.6 -0.3 0.1
v -0.6 -0.2 0.1
v -0.5 -0.3 0.1
v -0.5 -0.2 0.1
v -0.6 -0.4 0
v -0.6 -0.3 0
v -0.5 -0.4 0
v -0.5 -0.3 0
v -0.4 -0.4 0
v -0.4 -0.3 0
v -0.1 0.4 -0.1
v -0.1 0.5 -0.1
v 0.1 0.4 -0.1
v 0.1 0.5 -0.1
v 0.2 -0.4 -0.1
v 0.2 0.3 -0.1
v 0.3 -0.4 -0.1
v 0.3 0.3 -0.1
v -0.6 -0.8 -0.2
v -0.6 -0.4 -0.2
v -0.4 -0.8 -0.2
v -0.4 -0.4 -0.2
v -0.2 0.1 -0.2
v -0.2 0.2 -0.2
v -0.2 0.4 -0.2
v 0 -0.4 -0.2
v 0 -0.3 -0.2
v 0 0.1 -0.2
v 0.1 -0.4 -0.2
v 0.1 0.2 -0.2
v 0.2 -0.5 -0.2
v 0.2 -0.4 -0.2
v 0.2 0.4 -0.2
v 0.4 -0.8 -0.2
v 0.4 -0.6 -0.2
v 0.4 -0.5 -0.2
v 0.4 -0.4 -0.2
v 0.5 -0.8 -0.2
v 0.5 -0.6 -0.2
v 0.5 -0.5 -0.2
v 0.5 -0.4 -0.2
v 0.6 -0.8 -0.2
v 0.6 -0.5 -0.2
v 0.2 -0.8 -0.4
v 0.2 -0.7 -0.4
v 0.2 -0.6 -0.4
v 0.2 -0.5 -0.4
v 0.3 -0.7 -0.4
v 0.3 -0.6 -0.4
v 0.4 -0.8 -0.4
v 0.4 -0.5 -0.4
v -0.4 -0.8 -0.5
v -0.4 -0.6 -0.5
v -0.4 -0.4 -0.5
v -0.4 -0.3 -0.5
v -0.4 0.1 -0.5
v -0.3 -0.6 -0.5
v -0.3 -0.4 -0.5
v -0.3 -0.3 -0.5
v -0.3 0.1 -0.5
v -0.2 -0.8 -0.5
v -0.2 -0.4 -0.5
v -0.1 -0.3 -0.5
v -0.1 -0.1 -0.5
v 0 -0.4 -0.5
v 0 -0.3 -0.5
v 0 -0.1 -0.5
v 0 0.1 -0.5
v -0.2 -0.8 -0.6
v -0.2 -0.4 -0.6
v 0 -0.8 -0.6
v 0 -0.6 -0.6
v 0.2 -0.8 -0.6
v 0.2 -0.6 -0.6
v 0.2 -0.4 -0.6
v -0.7 -0.8 0.7
v -0.5 -0.8 0.7
v -0.4 -0.8 0.7
v -0.2 -0.8 0.7
v 0.1 -0.8 0.7
v -0.7 -0.8 0.6
v -0.5 -0.8 0.6
v -0.4 -0.8 0.6
v -0.2 -0.8 0.6
v 0.1 -0.8 0.6
v 0.2 -0.8 0.6
v -0.7 -0.8 0.4
v -0.6 -0.8 0.4
v -0.7 -0.8 0.3
v -0.6 -0.8 0.3
v 0.2 -0.8 0.3
v 0.3 -0.8 0.3
v 0.2 -0.8 0.2
v 0.3 -0.8 0.2
v 0.5 -0.8 0.2
v 0.6 -0.8 0.2
v -0.7 -0.8 0.1
v -0.6 -0.8 0.1
v -0.6 -0.8 -0.2
v -0.4 -0.8 -0.2
v 0.4 -0.8 -0.2
v 0.5 -0.8 -0.2
v 0.6 -0.8 -0.2
v 0.2 -0.8 -0.4
v 0.4 -0.8 -0.4
v -0.4 -0.8 -0.5
v -0.2 -0.8 -0.5
v 0 -0.8 -0.5
v 0.2 -0.8 -0.5
v -0.2 -0.8 -0.6
v 0 -0.8 -0.6
v 0.2 -0.8 -0.6
v -0.2 -0.7 0.7
v -0.1 -0.7 0.7
v 0 -0.7 0.7
v 0.1 -0.7 0.7
v -0.2 -0.7 0.6
v -0.1 -0.7 0.6
v 0 -0.7 0.6
v 0.1 -0.7 0.6
v -0.1 -0.6 0.7
v 0 -0.6 0.7
v -0.1 -0.6 0.6
v 0 -0.6 0.6
v 0.2 -0.6 0.3
v 0.3 -0.6 0.3
v 0.2 -0.6 0.2
v 0.3 -0.6 0.2
v -0.7 -0.5 0.7
v -0.4 -0.5 0.7
v -0.6 -0.5 0.6
v -0.4 -0.5 0.6
v -0.2 -0.5 0.6
v -0.1 -0.5 0.6
v 0.2 -0.5 0.6
v -0.6 -0.5 0.5
v -0.4 -0.5 0.5
v -0.3 -0.5 0.5
v -0.2 -0.5 0.5
v -0.1 -0.5 0.5
v 0.1 -0.5 0.5
v 0.2 -0.5 0.5
v -0.7 -0.5 0.4
v -0.6 -0.5 0.4
v -0.2 -0.5 0.4
v -0.1 -0.5 0.4
v 0.1 -0.5 0.4
v 0.2 -0.5 0.4
v -0.2 -0.5 0.3
v -0.1 -0.5 0.3
v 0.2 -0.5 0.3
v 0.5 -0.5 0.2
v 0.6 -0.5 0.2
v 0.5 -0.5 0.1
v 0.5 -0.5 -0.1
v 0.2 -0.5 -0.2
v 0.4 -0.5 -0.2
v 0.5 -0.5 -0.2
v 0.6 -0.5 -0.2
v 0.2 -0.5 -0.4
v 0.4 -0.5 -0.4
v -0.4 -0.4 0.5
v -0.3 -0.4 0.5
v -0.2 -0.4 0.5
v -0.1 -0.4 0.5
v 0.1 -0.4 0.5
v -0.1 -0.4 0.4
v 0.1 -0.4 0.4
v -0.2 -0.4 0.3
v -0.3 -0.4 0.2
v -0.2 -0.4 0.2
v 0.2 -0.4 0.2
v 0.3 -0.4 0.2
v 0.5 -0.4 0.2
v 0.2 -0.4 0.1
v 0.3 -0.4 0.1
v 0.5 -0.4 0.1
v -0.6 -0.4 0
v -0.5 -0.4 0
v -0.4 -0.4 0
v -0.6 -0.4 -0.1
v -0.5 -0.4 -0.1
v -0.4 -0.4 -0.1
v -0.2 -0.4 -0.1
v 0.2 -0.4 -0.1
v 0.3 -0.4 -0.1
v 0.4 -0.4 -0.1
v 0.5 -0.4 -0.1
v -0.6 -0.4 -0.2
v -0.4 -0.4 -0.2
v 0 -0.4 -0.2
v 0.1 -0.4 -0.2
v 0.2 -0.4 -0.2
v 0.4 -0.4 -0.2
v 0.5 -0.4 -0.2
v 0 -0.4 -0.4
v 0.1 -0.4 -0.4
v -0.2 -0.4 -0.5
v 0 -0.4 -0.5
v -0.2 -0.4 -0.6
v 0.2 -0.4 -0.6
v -0.6 -0.3 0.6
v -0.4 -0.3 0.6
v -0.6 -0.3 0.5
v -0.4 -0.3 0.5
v -0.6 -0.3 0.4
v -0.5 -0.3 0.4
v -0.6 -0.3 0.3
v -0.5 -0.3 0.3
v -0.6 -0.3 0.1
v -0.5 -0.3 0.1
v -0.6 -0.3 0
v -0.5 -0.3 0
v -0.4 -0.3 0
v -0.7 -0.2 0.3
v -0.5 -0.2 0.3
v -0.7 -0.2 0.2
v -0.6 -0.2 0.2
v -0.7 -0.2 0.1
v -0.6 -0.2 0.1
v -0.5 -0.2 0.1
v -0.2 0 0.3
v -0.1 0 0.3
v 0.1 0 0.3
v 0.2 0 0.3
v -0.2 0 0.2
v -0.1 0 0.2
v 0.1 0 0.2
v 0.2 0 0.2
v -0.4 0.1 -0.1
v -0.2 0.1 -0.1
v -0.2 0.1 -0.2
v 0 0.1 -0.2
v -0.3 0.1 -0.4
v 0 0.1 -0.4
v -0.4 0.1 -0.5
v -0.3 0.1 -0.5
v 0 0.1 -0.5
v 0.2 0.3 0.1
v 0.3 0.3 0.1
v 0.2 0.3 0
v 0.3 0.3 0
v 0.2 0.3 -0.1
v 0.3 0.3 -0.1
v -0.2 0.4 0.2
v 0.2 0.4 0.2
v -0.1 0.4 0.1
v 0.1 0.4 0.1
v -0.1 0.4 0
v 0.1 0.4 0
v -0.1 0.4 -0.1
v 0.1 0.4 -0.1
v -0.2 0.4 -0.2
v 0.2 0.4 -0.2
v -0.1 0.5 0.1
v 0.1 0.5 0.1
v -0.1 0.5 0
v 0.1 0.5 0
v -0.1 0.5 -0.1
v 0.1 0.5 -0.1

# faces
f 6/2/1 2/2/1 1/2/1
f 7/1/1 3/1/1 2/1/1
f 7/2/1 2/2/1 6/2/1
f 8/1/1 5/1/1 4/1/1
f 9/1/1 5/1/1 8/1/1
f 10/1/1 7/1/1 6/1/1
f 11/1/1 3/1/1 7/1/1
f 11/1/1 7/1/1 10/1/1
f 12/2/1 9/2/1 8/2/1
f 13/1/1 5/1/1 9/1/1
f 13/2/1 9/2/1 12/2/1
f 14/1/1 5/1/1 13/1/1
f 19/1/1 16/1/1 15/1/1
f 20/1/1 16/1/1 19/1/1
f 23/2/1 20/2/1 19/2/1
f 24/1/1 18/1/1 17/1/1
f 25/1/1 18/1/1 24/1/1
f 26/2/1 25/2/1 24/2/1
f 27/1/1 18/1/1 25/1/1
f 27/2/1 25/2/1 26/2/1
f 28/1/1 18/1/1 27/1/1
f 29/2/1 22/2/1 21/2/1
f 30/1/1 23/1/1 22/1/1
f 30/2/1 22/2/1 29/2/1
f 31/2/1 20/2/1 23/2/1
f 31/1/1 23/1/1 30/1/1
f 32/2/1 20/2/1 31/2/1
f 33/2/1 26/2/1 24/2/1
f 34/2/1 26/2/1 33/2/1
f 37/1/1 36/1/1 35/1/1
f 38/1/1 36/1/1 37/1/1
f 40/1/1 37/1/1 35/1/1
f 41/2/1 38/2/1 37/2/1
f 41/1/1 37/1/1 40/1/1
f 42/2/1 38/2/1 41/2/1
f 43/1/1 40/1/1 39/1/1
f 43/1/1 41/1/1 40/1/1
f 43/1/1 42/1/1 41/1/1
f 44/1/1 42/1/1 43/1/1
f 45/2/1 44/2/1 43/2/1
f 46/2/1 44/2/1 45/2/1
f 51/1/1 48/1/1 47/1/1
f 52/1/1 48/1/1 51/1/1
f 56/1/1 50/1/1 49/1/1
f 57/1/1 50/1/1 56/1/1
f 58/2/1 54/2/1 53/2/1
f 59/1/1 55/1/1 54/1/1
f 59/2/1 54/2/1 58/2/1
f 60/1/1 59/1/1 58/1/1
f 60/1/1 55/1/1 59/1/1
f 61/1/1 55/1/1 60/1/1
f 62/1/1 55/1/1 61/1/1
f 63/1/1 60/1/1 58/1/1
f 63/2/1 61/2/1 60/2/1
f 64/1/1 62/1/1 61/1/1
f 64/2/1 61/2/1 63/2/1
f 65/1/1 63/1/1 58/1/1
f 65/1/1 64/1/1 63/1/1
f 66/1/1 64/1/1 65/1/1
f 67/1/1 62/1/1 64/1/1
f 67/1/1 64/1/1 66/1/1
f 69/1/1 67/1/1 66/1/1
f 70/1/1 67/1/1 69/1/1
f 71/2/1 68/2/1 67/2/1
f 71/1/1 67/1/1 70/1/1
f 72/2/1 68/2/1 71/2/1
f 73/2/1 70/2/1 69/2/1
f 74/1/1 71/1/1 70/1/1
f 74/2/1 70/2/1 73/2/1
f 74/1/1 72/1/1 71/1/1
f 75/1/1 74/1/1 73/1/1
f 76/1/1 72/1/1 74/1/1
f 76/1/1 74/1/1 75/1/1
f 79/2/1 78/2/1 77/2/1
f 80/2/1 78/2/1 79/2/1
f 83/1/1 82/1/1 81/1/1
f 84/1/1 82/1/1 83/1/1
f 88/1/1 86/1/1 85/1/1
f 89/2/1 87/2/1 86/2/1
f 89/1/1 86/1/1 88/1/1
f 90/2/1 87/2/1 89/2/1
f 91/2/2 92/2/2 93/2/2
f 93/2/2 92/2/2 94/2/2
f 95/1/2 96/1/2 97/1/2
f 97/1/2 96/1/2 98/1/2
f 98/2/2 99/2/2 100/2/2
f 98/2/2 100/2/2 102/2/2
f 100/1/2 101/1/2 103/1/2
f 102/2/2 100/2/2 103/2/2
f 103/1/2 101/1/2 104/1/2
f 105/2/2 106/2/2 108/2/2
f 106/2/2 107/2/2 108/2/2
f 108/2/2 107/2/2 109/2/2
f 110/2/2 111/2/2 112/2/2
f 112/2/2 111/2/2 113/2/2
f 114/1/2 115/1/2 117/1/2
f 115/1/2 116/1/2 117/1/2
f 117/1/2 116/1/2 118/1/2
f 117/2/2 118/2/2 119/2/2
f 119/2/2 118/2/2 120/2/2
f 117/2/2 119/2/2 121/2/2
f 119/1/2 120/1/2 121/1/2
f 121/1/2 120/1/2 122/1/2
f 117/2/2 121/2/2 123/2/2
f 121/2/2 122/2/2 123/2/2
f 122/1/2 120/1/2 124/1/2
f 123/2/2 122/2/2 124/2/2
f 124/1/2 120/1/2 125/1/2
f 126/1/2 127/1/2 128/1/2
f 128/1/2 127/1/2 129/1/2
f 130/1/2 131/1/2 132/1/2
f 132/1/2 131/1/2 133/1/2
f 134/1/2 135/1/2 137/1/2
f 135/2/2 136/2/2 138/2/2
f 137/1/2 135/1/2 138/1/2
f 138/2/2 136/2/2 139/2/2
f 142/1/2 143/1/2 145/1/2
f 140/1/2 141/1/2 146/1/2
f 146/1/2 141/1/2 147/1/2
f 147/1/2 141/1/2 148/1/2
f 145/1/2 143/1/2 150/1/2
f 143/2/2 144/2/2 151/2/2
f 150/1/2 143/1/2 151/1/2
f 151/2/2 144/2/2 152/2/2
f 140/1/2 146/1/2 153/1/2
f 146/2/2 147/2/2 154/2/2
f 153/1/2 146/1/2 154/1/2
f 148/1/2 149/1/2 155/1/2
f 154/2/2 147/2/2 155/2/2
f 147/1/2 148/1/2 155/1/2
f 155/1/2 149/1/2 156/1/2
f 151/1/2 152/1/2 158/1/2
f 150/1/2 151/1/2 158/1/2
f 156/1/2 149/1/2 159/1/2
f 157/1/2 158/1/2 162/1/2
f 158/1/2 152/1/2 163/1/2
f 162/1/2 158/1/2 163/1/2
f 159/1/2 160/1/2 164/1/2
f 156/1/2 159/1/2 165/1/2
f 159/1/2 164/1/2 165/1/2
f 165/1/2 164/1/2 166/1/2
f 166/1/2 164/1/2 167/1/2
f 166/1/2 167/1/2 168/1/2
f 166/1/2 168/1/2 169/1/2
f 161/1/2 162/1/2 171/1/2
f 169/1/2 170/1/2 172/1/2
f 170/1/2 171/1/2 172/1/2
f 166/1/2 169/1/2 172/1/2
f 171/1/2 162/1/2 173/1/2
f 172/1/2 171/1/2 173/1/2
f 174/2/2 175/2/2 176/2/2
f 174/2/2 176/2/2 177/2/2
f 177/2/2 176/2/2 178/2/2
f 179/1/2 180/1/2 181/1/2
f 181/1/2 180/1/2 182/1/2
f 181/2/2 182/2/2 183/2/2
f 182/1/2 180/1/2 184/1/2
f 183/2/2 182/2/2 184/2/2
f 183/1/2 184/1/2 185/1/2
f 184/1/2 180/1/2 186/1/2
f 185/1/2 184/1/2 186/1/2
f 185/2/2 186/2/2 187/2/2
f 186/1/2 180/1/2 188/1/2
f 187/2/2 186/2/2 188/2/2
f 188/1/2 180/1/2 189/1/2
f 190/1/2 191/1/2 192/1/2
f 192/1/2 191/1/2 193/1/2
f 193/1/2 191/1/2 194/1/2
f 195/2/2 196/2/2 199/2/2
f 196/1/2 197/1/2 200/1/2
f 199/2/2 196/2/2 200/2/2
f 197/2/2 198/2/2 201/2/2
f 200/1/2 197/1/2 201/1/2
f 201/2/2 198/2/2 202/2/2
f 203/2/2 204/2/2 205/2/2
f 205/2/2 204/2/2 206/2/2
f 210/2/3 208/2/3 207/2/3
f 211/1/3 209/1/3 208/1/3
f 211/2/3 208/2/3 210/2/3
f 212/1/3 211/1/3 210/1/3
f 213/1/3 209/1/3 211/1/3
f 213/1/3 211/1/3 212/1/3
f 216/1/3 215/1/3 214/1/3
f 218/1/3 216/1/3 214/1/3
f 218/2/3 217/2/3 216/2/3
f 219/2/3 217/2/3 218/2/3
f 220/1/3 218/1/3 214/1/3
f 221/1/3 218/1/3 220/1/3
f 225/2/3 223/2/3 222/2/3
f 226/2/3 223/2/3 225/2/3
f 227/1/3 225/1/3 224/1/3
f 228/1/3 225/1/3 227/1/3
f 229/1/3 225/1/3 228/1/3
f 230/1/3 225/1/3 229/1/3
f 231/1/3 229/1/3 228/1/3
f 232/2/3 230/2/3 229/2/3
f 232/1/3 229/1/3 231/1/3
f 233/2/3 230/2/3 232/2/3
f 235/1/3 233/1/3 232/1/3
f 237/1/3 235/1/3 234/1/3
f 238/1/3 237/1/3 236/1/3
f 239/1/3 233/1/3 235/1/3
f 239/1/3 237/1/3 238/1/3
f 239/1/3 235/1/3 237/1/3
f 242/1/3 241/1/3 240/1/3
f 243/1/3 241/1/3 242/1/3
f 244/2/3 243/2/3 242/2/3
f 245/2/3 243/2/3 244/2/3
f 248/1/3 247/1/3 246/1/3
f 249/1/3 247/1/3 248/1/3
f 253/1/3 251/1/3 250/1/3
f 254/2/3 252/2/3 251/2/3
f 254/1/3 251/1/3 253/1/3
f 255/2/3 252/2/3 254/2/3
f 256/2/3 252/2/3 255/2/3
f 257/2/3 252/2/3 256/2/3
f 262/2/3 260/2/3 259/2/3
f 262/2/3 259/2/3 258/2/3
f 263/1/3 261/1/3 260/1/3
f 263/2/3 260/2/3 262/2/3
f 264/1/3 261/1/3 263/1/3
f 265/1/3 261/1/3 264/1/3
f 266/1/3 263/1/3 262/1/3
f 266/1/3 264/1/3 263/1/3
f 266/2/3 265/2/3 264/2/3
f 267/2/3 265/2/3 266/2/3
f 270/1/3 266/1/3 262/1/3
f 270/1/3 267/1/3 266/1/3
f 271/1/3 267/1/3 270/1/3
f 272/2/3 269/2/3 268/2/3
f 273/2/3 269/2/3 272/2/3
f 278/1/3 275/1/3 274/1/3
f 279/2/3 276/2/3 275/2/3
f 279/1/3 275/1/3 278/1/3
f 280/2/3 279/2/3 278/2/3
f 280/2/3 276/2/3 279/2/3
f 281/1/3 277/1/3 276/1/3
f 281/2/3 276/2/3 280/2/3
f 282/2/3 280/2/3 278/2/3
f 283/1/3 281/1/3 280/1/3
f 283/2/3 280/2/3 282/2/3
f 286/1/3 283/1/3 282/1/3
f 287/1/3 277/1/3 281/1/3
f 287/1/3 283/1/3 286/1/3
f 287/1/3 281/1/3 283/1/3
f 290/1/3 285/1/3 284/1/3
f 291/1/3 285/1/3 290/1/3
f 292/1/3 289/1/3 288/1/3
f 293/2/3 290/2/3 289/2/3
f 293/1/3 289/1/3 292/1/3
f 293/2/3 291/2/3 290/2/3
f 294/2/3 291/2/3 293/2/3
f 295/2/3 291/2/3 294/2/3
f 296/2/3 293/2/3 292/2/3
f 296/2/3 294/2/3 293/2/3
f 297/2/3 294/2/3 296/2/3
f 300/1/3 299/1/3 298/1/3
f 301/1/3 299/1/3 300/1/3
f 307/1/3 303/1/3 302/1/3
f 308/2/3 304/2/3 303/2/3
f 308/1/3 303/1/3 307/1/3
f 309/1/3 305/1/3 304/1/3
f 309/2/3 304/2/3 308/2/3
f 310/2/3 306/2/3 305/2/3
f 310/1/3 305/1/3 309/1/3
f 311/2/3 306/2/3 310/2/3
f 315/1/3 313/1/3 312/1/3
f 315/2/3 314/2/3 313/2/3
f 316/2/3 314/2/3 315/2/3
f 317/1/3 315/1/3 312/1/3
f 317/1/3 316/1/3 315/1/3
f 318/2/3 314/2/3 316/2/3
f 318/1/3 316/1/3 317/1/3
f 319/2/3 314/2/3 318/2/3
f 320/1/4 321/1/4 322/1/4
f 322/1/4 321/1/4 323/1/4
f 323/1/4 321/1/4 324/1/4
f 325/1/4 326/1/4 327/1/4
f 327/1/4 326/1/4 328/1/4
f 329/1/4 330/1/4 331/1/4
f 331/1/4 330/1/4 332/1/4
f 332/1/4 330/1/4 333/1/4
f 333/1/4 330/1/4 334/1/4
f 333/2/4 334/2/4 335/2/4
f 335/2/4 334/2/4 336/2/4
f 337/2/4 338/2/4 339/2/4
f 339/2/4 338/2/4 340/2/4
f 339/1/4 340/1/4 341/1/4
f 341/1/4 340/1/4 342/1/4
f 343/2/4 344/2/4 345/2/4
f 345/2/4 344/2/4 346/2/4
f 347/1/4 348/1/4 349/1/4
f 349/1/4 348/1/4 350/1/4
f 351/1/4 352/1/4 353/1/4
f 353/1/4 352/1/4 354/1/4
f 355/2/4 356/2/4 360/2/4
f 358/2/4 359/2/4 361/2/4
f 359/2/4 360/2/4 361/2/4
f 360/2/4 356/2/4 362/2/4
f 361/2/4 360/2/4 362/2/4
f 356/1/4 357/1/4 362/1/4
f 361/1/4 362/1/4 364/1/4
f 362/1/4 357/1/4 365/1/4
f 364/1/4 362/1/4 365/1/4
f 363/1/4 364/1/4 368/1/4
f 368/1/4 364/1/4 369/1/4
f 366/1/4 367/1/4 370/1/4
f 367/2/4 368/2/4 371/2/4
f 370/1/4 367/1/4 371/1/4
f 368/2/4 369/2/4 371/2/4
f 371/2/4 369/2/4 372/2/4
f 372/2/4 369/2/4 373/2/4
f 370/2/4 371/2/4 374/2/4
f 371/2/4 372/2/4 374/2/4
f 374/2/4 372/2/4 375/2/4
f 376/1/4 377/1/4 380/1/4
f 377/2/4 378/2/4 380/2/4
f 378/1/4 379/1/4 381/1/4
f 380/2/4 378/2/4 381/2/4
f 376/1/4 380/1/4 382/1/4
f 380/1/4 381/1/4 382/1/4
f 381/1/4 379/1/4 383/1/4
f 382/1/4 381/1/4 383/1/4
f 384/1/4 385/1/4 389/1/4
f 385/2/4 386/2/4 389/2/4
f 386/1/4 387/1/4 390/1/4
f 389/2/4 386/2/4 390/2/4
f 387/2/4 388/2/4 391/2/4
f 390/1/4 387/1/4 391/1/4
f 391/2/4 388/2/4 392/2/4
f 389/1/4 390/1/4 393/1/4
f 384/1/4 389/1/4 393/1/4
f 391/1/4 392/1/4 393/1/4
f 390/1/4 391/1/4 393/1/4
f 393/1/4 392/1/4 394/1/4
f 394/1/4 392/1/4 395/1/4
f 395/1/4 392/1/4 396/1/4
f 394/1/4 395/1/4 397/1/4
f 395/2/4 396/2/4 398/2/4
f 397/1/4 395/1/4 398/1/4
f 396/1/4 392/1/4 399/1/4
f 398/2/4 396/2/4 399/2/4
f 399/1/4 392/1/4 400/1/4
f 401/1/4 402/1/4 403/1/4
f 403/1/4 402/1/4 404/1/4
f 403/2/4 404/2/4 405/2/4
f 404/1/4 402/1/4 406/1/4
f 405/2/4 404/2/4 406/2/4
f 406/1/4 402/1/4 407/1/4
f 413/2/5 409/2/5 408/2/5
f 414/1/5 410/1/5 409/1/5
f 414/2/5 409/2/5 413/2/5
f 415/1/5 410/1/5 414/1/5
f 416/1/5 412/1/5 411/1/5
f 417/1/5 412/1/5 416/1/5
f 419/1/5 415/1/5 414/1/5
f 419/1/5 418/1/5 417/1/5
f 419/1/5 417/1/5 416/1/5
f 419/1/5 416/1/5 415/1/5
f 419/1/5 414/1/5 413/1/5
f 420/1/5 418/1/5 419/1/5
f 422/1/5 418/1/5 420/1/5
f 423/1/5 418/1/5 422/1/5
f 425/1/5 422/1/5 421/1/5
f 425/2/5 424/2/5 423/2/5
f 425/1/5 423/1/5 422/1/5
f 426/2/5 424/2/5 425/2/5
f 429/1/5 425/1/5 421/1/5
f 429/1/5 426/1/5 425/1/5
f 429/1/5 427/1/5 426/1/5
f 430/1/5 427/1/5 429/1/5
f 431/1/5 427/1/5 430/1/5
f 432/1/5 427/1/5 431/1/5
f 433/1/5 427/1/5 432/1/5
f 434/2/5 428/2/5 427/2/5
f 434/1/5 427/1/5 433/1/5
f 435/2/5 428/2/5 434/2/5
f 436/1/5 433/1/5 432/1/5
f 437/1/5 433/1/5 436/1/5
f 438/1/5 436/1/5 432/1/5
f 439/1/5 436/1/5 438/1/5
f 440/1/5 436/1/5 439/1/5
f 441/1/5 436/1/5 440/1/5
f 442/1/5 440/1/5 439/1/5
f 443/2/5 441/2/5 440/2/5
f 443/1/5 440/1/5 442/1/5
f 444/2/5 441/2/5 443/2/5
f 445/1/6 446/1/6 449/1/6
f 449/1/6 446/1/6 450/1/6
f 447/1/6 448/1/6 451/1/6
f 451/1/6 448/1/6 452/1/6
f 453/2/6 454/2/6 455/2/6
f 455/2/6 454/2/6 456/2/6
f 457/2/6 458/2/6 459/2/6
f 459/2/6 458/2/6 460/2/6
f 461/1/6 462/1/6 463/1/6
f 463/1/6 462/1/6 464/1/6
f 461/1/6 463/1/6 468/1/6
f 464/1/6 465/1/6 469/1/6
f 469/1/6 465/1/6 470/1/6
f 465/2/6 466/2/6 471/2/6
f 470/1/6 465/1/6 471/1/6
f 466/1/6 467/1/6 472/1/6
f 471/2/6 466/2/6 472/2/6
f 472/1/6 467/1/6 473/1/6
f 473/1/6 467/1/6 474/1/6
f 461/1/6 468/1/6 475/1/6
f 475/1/6 468/1/6 476/1/6
f 471/2/6 472/2/6 477/2/6
f 477/2/6 472/2/6 478/2/6
f 473/2/6 474/2/6 479/2/6
f 479/2/6 474/2/6 480/2/6
f 477/1/6 478/1/6 481/1/6
f 479/1/6 480/1/6 481/1/6
f 478/1/6 479/1/6 481/1/6
f 481/1/6 480/1/6 482/1/6
f 482/1/6 480/1/6 483/1/6
f 484/2/6 485/2/6 486/2/6
f 486/2/6 485/2/6 487/2/6
f 487/2/6 485/2/6 490/2/6
f 490/2/6 485/2/6 491/2/6
f 488/1/6 489/1/6 492/1/6
f 492/1/6 489/1/6 493/1/6
f 497/1/6 498/1/6 499/1/6
f 499/1/6 498/1/6 500/1/6
f 495/2/6 496/2/6 501/2/6
f 494/1/6 495/1/6 502/1/6
f 495/2/6 501/2/6 502/2/6
f 502/2/6 501/2/6 503/2/6
f 504/1/6 505/1/6 507/1/6
f 505/2/6 506/2/6 508/2/6
f 507/1/6 505/1/6 508/1/6
f 508/2/6 506/2/6 509/2/6
f 502/1/6 503/1/6 512/1/6
f 494/1/6 502/1/6 512/1/6
f 510/2/6 511/2/6 513/2/6
f 511/1/6 512/1/6 514/1/6
f 513/2/6 511/2/6 514/2/6
f 512/1/6 503/1/6 515/1/6
f 514/1/6 512/1/6 515/1/6
f 515/1/6 503/1/6 516/1/6
f 508/1/6 509/1/6 518/1/6
f 518/1/6 509/1/6 519/1/6
f 519/1/6 509/1/6 520/1/6
f 513/1/6 514/1/6 521/1/6
f 514/1/6 515/1/6 521/1/6
f 521/1/6 515/1/6 522/1/6
f 518/1/6 519/1/6 525/1/6
f 517/1/6 518/1/6 525/1/6
f 519/2/6 520/2/6 526/2/6
f 525/1/6 519/1/6 526/1/6
f 526/2/6 520/2/6 527/2/6
f 523/2/6 524/2/6 528/2/6
f 524/1/6 525/1/6 529/1/6
f 528/2/6 524/2/6 529/2/6
f 528/1/6 529/1/6 531/1/6
f 530/1/6 531/1/6 532/1/6
f 529/1/6 525/1/6 533/1/6
f 532/1/6 531/1/6 533/1/6
f 531/1/6 529/1/6 533/1/6
f 534/2/6 535/2/6 536/2/6
f 536/2/6 535/2/6 537/2/6
f 536/1/6 537/1/6 538/1/6
f 538/1/6 537/1/6 539/1/6
f 538/2/6 539/2/6 540/2/6
f 539/1/6 537/1/6 541/1/6
f 540/2/6 539/2/6 541/2/6
f 541/1/6 537/1/6 543/1/6
f 542/2/6 543/2/6 544/2/6
f 543/1/6 537/1/6 545/1/6
f 544/2/6 543/2/6 545/2/6
f 545/1/6 537/1/6 546/1/6
f 547/2/6 548/2/6 549/2/6
f 549/2/6 548/2/6 550/2/6
f 549/1/6 550/1/6 551/1/6
f 550/2/6 548/2/6 552/2/6
f 551/1/6 550/1/6 552/1/6
f 552/2/6 548/2/6 553/2/6
f 554/1/6 555/1/6 558/1/6
f 555/2/6 556/2/6 559/2/6
f 558/1/6 555/1/6 559/1/6
f 556/1/6 557/1/6 560/1/6
f 559/2/6 556/2/6 560/2/6
f 560/1/6 557/1/6 561/1/6
f 562/2/6 563/2/6 564/2/6
f 562/2/6 564/2/6 566/2/6
f 564/2/6 565/2/6 566/2/6
f 566/2/6 565/2/6 567/2/6
f 562/2/6 566/2/6 568/2/6
f 566/1/6 567/1/6 569/1/6
f 568/2/6 566/2/6 569/2/6
f 569/1/6 567/1/6 570/1/6
f 571/2/6 572/2/6 573/2/6
f 573/2/6 572/2/6 574/2/6
f 573/1/6 574/1/6 575/1/6
f 575/1/6 574/1/6 576/1/6
f 577/1/6 578/1/6 579/1/6
f 579/1/6 578/1/6 580/1/6
f 577/1/6 579/1/6 581/1/6
f 580/1/6 578/1/6 582/1/6
f 577/1/6 581/1/6 583/1/6
f 582/1/6 578/1/6 584/1/6
f 577/1/6 583/1/6 585/1/6
f 583/1/6 584/1/6 585/1/6
f 584/1/6 578/1/6 586/1/6
f 585/1/6 584/1/6 586/1/6
f 587/1/6 588/1/6 589/1/6
f 589/1/6 588/1/6 590/1/6
f 589/2/6 590/2/6 591/2/6
f 591/2/6 590/2/6 592/2/6
