# MagicaVoxel @ Ephtracy

# group
o 

# material
mtllib Stein_Rand-0.2.mtl
usemtl palette

# normals
vn -1 0 0
vn 1 0 0
vn 0 0 1
vn 0 0 -1
vn 0 -1 0
vn 0 1 0

# texcoords
vt 0.0644531 0.5
vt 0.0683594 0.5

# verts
v -0.5 0 0.5
v -0.5 0 -0.3
v -0.5 0 -0.4
v -0.5 0.1 -0.2
v -0.5 0.1 -0.3
v -0.5 0.1 -0.4
v -0.5 0.2 0.1
v -0.5 0.2 0
v -0.5 0.2 -0.1
v -0.5 0.2 -0.2
v -0.5 0.2 -0.3
v -0.5 0.3 0.1
v -0.5 0.3 0
v -0.5 0.3 -0.1
v -0.5 0.4 0.4
v -0.5 0.4 0.3
v -0.5 0.4 0.2
v -0.5 0.4 0.1
v -0.5 0.5 0.5
v -0.5 0.5 0.4
v -0.5 0.5 0.3
v -0.5 0.5 0.2
v -0.1 0 -0.3
v -0.1 0 -0.4
v -0.1 0.1 -0.1
v -0.1 0.1 -0.2
v -0.1 0.1 -0.3
v -0.1 0.1 -0.4
v -0.1 0.2 -0.1
v -0.1 0.2 -0.2
v 0.2 0.1 -0.2
v 0.2 0.1 -0.3
v 0.2 0.2 0
v 0.2 0.2 -0.1
v 0.2 0.2 -0.2
v 0.2 0.2 -0.3
v 0.2 0.3 0.2
v 0.2 0.3 0.1
v 0.2 0.3 0
v 0.2 0.3 -0.1
v 0.2 0.4 0.2
v 0.2 0.4 0.1
v 0.3 0 -0.4
v 0.3 0 -0.5
v 0.3 0.1 -0.4
v 0.3 0.1 -0.5
v 0.3 0.4 0.3
v 0.3 0.4 0.2
v 0.3 0.5 0.3
v 0.3 0.5 0.2
v -0.4 0 -0.3
v -0.4 0 -0.4
v -0.4 0.1 -0.2
v -0.4 0.1 -0.3
v -0.4 0.1 -0.4
v -0.4 0.2 0
v -0.4 0.2 -0.1
v -0.4 0.2 -0.2
v -0.4 0.2 -0.3
v -0.4 0.3 0
v -0.4 0.3 -0.1
v -0.4 0.4 0.3
v -0.4 0.4 0.2
v -0.4 0.5 0.3
v -0.4 0.5 0.2
v -0.3 0.1 -0.1
v -0.3 0.1 -0.2
v -0.3 0.2 -0.1
v -0.3 0.2 -0.2
v -0.3 0.3 0.2
v -0.3 0.3 0.1
v -0.3 0.4 0.2
v -0.3 0.4 0.1
v 0.5 0 0.5
v 0.5 0 -0.4
v 0.5 0 -0.5
v 0.5 0.1 -0.3
v 0.5 0.1 -0.4
v 0.5 0.1 -0.5
v 0.5 0.2 -0.1
v 0.5 0.2 -0.3
v 0.5 0.3 0.1
v 0.5 0.3 -0.1
v 0.5 0.4 0.4
v 0.5 0.4 0.2
v 0.5 0.4 0.1
v 0.5 0.5 0.5
v 0.5 0.5 0.4
v 0.5 0.5 0.2
v -0.5 0 0.5
v -0.5 0.5 0.5
v 0 0.4 0.5
v 0 0.5 0.5
v 0.2 0.4 0.5
v 0.2 0.5 0.5
v 0.5 0 0.5
v 0.5 0.5 0.5
v -0.4 0.4 0.3
v -0.4 0.5 0.3
v -0.3 0.4 0.3
v -0.3 0.5 0.3
v -0.2 0.4 0.3
v -0.1 0.4 0.3
v -0.1 0.5 0.3
v 0.1 0.4 0.3
v 0.2 0.4 0.3
v 0.2 0.5 0.3
v 0.3 0.4 0.3
v 0.3 0.5 0.3
v -0.5 0.4 0.2
v -0.5 0.5 0.2
v -0.4 0.4 0.2
v -0.4 0.5 0.2
v -0.3 0.3 0.2
v -0.3 0.4 0.2
v -0.2 0.3 0.2
v -0.2 0.4 0.2
v 0.1 0.3 0.2
v 0.1 0.4 0.2
v 0.2 0.3 0.2
v 0.2 0.4 0.2
v 0.3 0.4 0.2
v 0.3 0.5 0.2
v 0.4 0.4 0.2
v 0.4 0.5 0.2
v 0.5 0.4 0.2
v 0.5 0.5 0.2
v -0.5 0.3 0.1
v -0.5 0.4 0.1
v -0.4 0.3 0.1
v -0.3 0.3 0.1
v -0.3 0.4 0.1
v 0.2 0.3 0.1
v 0.2 0.4 0.1
v 0.3 0.3 0.1
v 0.3 0.4 0.1
v 0.4 0.3 0.1
v 0.4 0.4 0.1
v 0.5 0.3 0.1
v 0.5 0.4 0.1
v -0.4 0.2 0
v -0.4 0.3 0
v -0.2 0.2 0
v -0.1 0.2 0
v 0.1 0.2 0
v 0.1 0.3 0
v 0.2 0.2 0
v 0.2 0.3 0
v -0.5 0.2 -0.1
v -0.5 0.3 -0.1
v -0.4 0.2 -0.1
v -0.4 0.3 -0.1
v -0.3 0.1 -0.1
v -0.3 0.2 -0.1
v -0.2 0.1 -0.1
v -0.2 0.2 -0.1
v -0.1 0.1 -0.1
v -0.1 0.2 -0.1
v 0.2 0.2 -0.1
v 0.2 0.3 -0.1
v 0.3 0.2 -0.1
v 0.4 0.2 -0.1
v 0.4 0.3 -0.1
v 0.5 0.2 -0.1
v 0.5 0.3 -0.1
v -0.4 0.1 -0.2
v -0.4 0.2 -0.2
v -0.3 0.1 -0.2
v -0.3 0.2 -0.2
v -0.1 0.1 -0.2
v -0.1 0.2 -0.2
v 0 0.1 -0.2
v 0.1 0.1 -0.2
v 0.1 0.2 -0.2
v 0.2 0.1 -0.2
v 0.2 0.2 -0.2
v -0.5 0.1 -0.3
v -0.5 0.2 -0.3
v -0.4 0 -0.3
v -0.4 0.1 -0.3
v -0.4 0.2 -0.3
v -0.1 0 -0.3
v -0.1 0.1 -0.3
v 0.2 0.1 -0.3
v 0.2 0.2 -0.3
v 0.3 0.1 -0.3
v 0.3 0.2 -0.3
v 0.4 0.1 -0.3
v 0.4 0.2 -0.3
v 0.5 0.1 -0.3
v 0.5 0.2 -0.3
v -0.5 0 -0.4
v -0.5 0.1 -0.4
v -0.4 0 -0.4
v -0.4 0.1 -0.4
v -0.1 0 -0.4
v -0.1 0.1 -0.4
v 0.1 0 -0.4
v 0.1 0.1 -0.4
v 0.3 0 -0.4
v 0.3 0.1 -0.4
v 0.3 0 -0.5
v 0.3 0.1 -0.5
v 0.5 0 -0.5
v 0.5 0.1 -0.5
v -0.5 0 0.5
v 0.5 0 0.5
v 0 0 -0.2
v 0.1 0 -0.2
v -0.5 0 -0.3
v -0.4 0 -0.3
v -0.1 0 -0.3
v 0 0 -0.3
v 0.1 0 -0.3
v 0.3 0 -0.3
v -0.5 0 -0.4
v -0.4 0 -0.4
v -0.1 0 -0.4
v 0.1 0 -0.4
v 0.3 0 -0.4
v 0.5 0 -0.4
v 0.3 0 -0.5
v 0.5 0 -0.5
v -0.3 0.1 -0.1
v -0.2 0.1 -0.1
v -0.1 0.1 -0.1
v -0.4 0.1 -0.2
v -0.3 0.1 -0.2
v -0.1 0.1 -0.2
v 0 0.1 -0.2
v 0.1 0.1 -0.2
v 0.2 0.1 -0.2
v -0.5 0.1 -0.3
v -0.4 0.1 -0.3
v -0.1 0.1 -0.3
v 0 0.1 -0.3
v 0.1 0.1 -0.3
v 0.2 0.1 -0.3
v 0.3 0.1 -0.3
v 0.4 0.1 -0.3
v 0.5 0.1 -0.3
v -0.5 0.1 -0.4
v -0.4 0.1 -0.4
v -0.1 0.1 -0.4
v 0.1 0.1 -0.4
v 0.3 0.1 -0.4
v 0.5 0.1 -0.4
v 0.3 0.1 -0.5
v 0.5 0.1 -0.5
v -0.4 0.2 0
v -0.2 0.2 0
v -0.1 0.2 0
v 0.1 0.2 0
v 0.2 0.2 0
v -0.5 0.2 -0.1
v -0.4 0.2 -0.1
v -0.3 0.2 -0.1
v -0.2 0.2 -0.1
v -0.1 0.2 -0.1
v 0.1 0.2 -0.1
v 0.2 0.2 -0.1
v 0.3 0.2 -0.1
v 0.4 0.2 -0.1
v 0.5 0.2 -0.1
v -0.5 0.2 -0.2
v -0.4 0.2 -0.2
v -0.3 0.2 -0.2
v -0.1 0.2 -0.2
v 0.1 0.2 -0.2
v 0.2 0.2 -0.2
v -0.5 0.2 -0.3
v -0.4 0.2 -0.3
v 0.2 0.2 -0.3
v 0.3 0.2 -0.3
v 0.4 0.2 -0.3
v 0.5 0.2 -0.3
v -0.3 0.3 0.2
v -0.2 0.3 0.2
v 0.1 0.3 0.2
v 0.2 0.3 0.2
v -0.5 0.3 0.1
v -0.4 0.3 0.1
v -0.3 0.3 0.1
v 0.1 0.3 0.1
v 0.2 0.3 0.1
v 0.3 0.3 0.1
v 0.4 0.3 0.1
v 0.5 0.3 0.1
v -0.5 0.3 0
v -0.4 0.3 0
v 0.1 0.3 0
v 0.2 0.3 0
v 0.4 0.3 0
v -0.5 0.3 -0.1
v -0.4 0.3 -0.1
v 0.2 0.3 -0.1
v 0.4 0.3 -0.1
v 0.5 0.3 -0.1
v -0.4 0.4 0.3
v -0.3 0.4 0.3
v -0.2 0.4 0.3
v -0.1 0.4 0.3
v 0.1 0.4 0.3
v 0.2 0.4 0.3
v 0.3 0.4 0.3
v -0.5 0.4 0.2
v -0.4 0.4 0.2
v -0.3 0.4 0.2
v -0.2 0.4 0.2
v 0.1 0.4 0.2
v 0.2 0.4 0.2
v 0.3 0.4 0.2
v 0.4 0.4 0.2
v 0.5 0.4 0.2
v -0.5 0.4 0.1
v -0.3 0.4 0.1
v 0.2 0.4 0.1
v 0.3 0.4 0.1
v 0.4 0.4 0.1
v 0.5 0.4 0.1
v -0.5 0.5 0.5
v 0 0.5 0.5
v 0.2 0.5 0.5
v 0.5 0.5 0.5
v -0.5 0.5 0.4
v -0.3 0.5 0.4
v -0.1 0.5 0.4
v 0 0.5 0.4
v 0.4 0.5 0.4
v 0.5 0.5 0.4
v -0.5 0.5 0.3
v -0.4 0.5 0.3
v -0.3 0.5 0.3
v -0.1 0.5 0.3
v 0.2 0.5 0.3
v 0.3 0.5 0.3
v -0.5 0.5 0.2
v -0.4 0.5 0.2
v 0.3 0.5 0.2
v 0.4 0.5 0.2
v 0.5 0.5 0.2

# faces
f 4/2/1 2/2/1 1/2/1
f 5/1/1 3/1/1 2/1/1
f 5/2/1 2/2/1 4/2/1
f 6/1/1 3/1/1 5/1/1
f 7/2/1 4/2/1 1/2/1
f 8/2/1 4/2/1 7/2/1
f 9/2/1 4/2/1 8/2/1
f 10/1/1 5/1/1 4/1/1
f 10/2/1 4/2/1 9/2/1
f 11/1/1 5/1/1 10/1/1
f 12/2/1 7/2/1 1/2/1
f 12/1/1 8/1/1 7/1/1
f 13/2/1 9/2/1 8/2/1
f 13/1/1 8/1/1 12/1/1
f 14/2/1 9/2/1 13/2/1
f 15/2/1 12/2/1 1/2/1
f 16/2/1 12/2/1 15/2/1
f 17/2/1 12/2/1 16/2/1
f 18/2/1 12/2/1 17/2/1
f 19/2/1 15/2/1 1/2/1
f 20/1/1 16/1/1 15/1/1
f 20/2/1 15/2/1 19/2/1
f 21/2/1 17/2/1 16/2/1
f 21/1/1 16/1/1 20/1/1
f 22/2/1 17/2/1 21/2/1
f 27/2/1 24/2/1 23/2/1
f 28/2/1 24/2/1 27/2/1
f 29/1/1 26/1/1 25/1/1
f 30/1/1 26/1/1 29/1/1
f 35/2/1 32/2/1 31/2/1
f 36/2/1 32/2/1 35/2/1
f 39/1/1 34/1/1 33/1/1
f 40/1/1 34/1/1 39/1/1
f 41/2/1 38/2/1 37/2/1
f 42/2/1 38/2/1 41/2/1
f 45/1/1 44/1/1 43/1/1
f 46/1/1 44/1/1 45/1/1
f 49/2/1 48/2/1 47/2/1
f 50/2/1 48/2/1 49/2/1
f 51/1/2 52/1/2 54/1/2
f 54/1/2 52/1/2 55/1/2
f 53/1/2 54/1/2 58/1/2
f 58/1/2 54/1/2 59/1/2
f 56/2/2 57/2/2 60/2/2
f 60/2/2 57/2/2 61/2/2
f 62/2/2 63/2/2 64/2/2
f 64/2/2 63/2/2 65/2/2
f 66/1/2 67/1/2 68/1/2
f 68/1/2 67/1/2 69/1/2
f 70/2/2 71/2/2 72/2/2
f 72/2/2 71/2/2 73/2/2
f 74/2/2 75/2/2 77/2/2
f 75/1/2 76/1/2 78/1/2
f 77/2/2 75/2/2 78/2/2
f 78/1/2 76/1/2 79/1/2
f 74/2/2 77/2/2 80/2/2
f 80/2/2 77/2/2 81/2/2
f 74/2/2 80/2/2 82/2/2
f 82/2/2 80/2/2 83/2/2
f 74/2/2 82/2/2 84/2/2
f 84/2/2 82/2/2 85/2/2
f 85/2/2 82/2/2 86/2/2
f 74/2/2 84/2/2 87/2/2
f 84/1/2 85/1/2 88/1/2
f 87/2/2 84/2/2 88/2/2
f 88/1/2 85/1/2 89/1/2
f 92/2/3 91/2/3 90/2/3
f 93/2/3 91/2/3 92/2/3
f 94/2/3 92/2/3 90/2/3
f 94/1/3 93/1/3 92/1/3
f 95/1/3 93/1/3 94/1/3
f 96/2/3 94/2/3 90/2/3
f 96/2/3 95/2/3 94/2/3
f 97/2/3 95/2/3 96/2/3
f 98/1/4 99/1/4 100/1/4
f 100/1/4 99/1/4 101/1/4
f 100/2/4 101/2/4 102/2/4
f 102/2/4 101/2/4 103/2/4
f 103/2/4 101/2/4 104/2/4
f 103/1/4 104/1/4 105/1/4
f 105/1/4 104/1/4 106/1/4
f 106/1/4 104/1/4 107/1/4
f 106/2/4 107/2/4 108/2/4
f 108/2/4 107/2/4 109/2/4
f 110/2/4 111/2/4 112/2/4
f 112/2/4 111/2/4 113/2/4
f 114/2/4 115/2/4 116/2/4
f 116/2/4 115/2/4 117/2/4
f 116/1/4 117/1/4 118/1/4
f 118/1/4 117/1/4 119/1/4
f 118/2/4 119/2/4 120/2/4
f 120/2/4 119/2/4 121/2/4
f 122/2/4 123/2/4 124/2/4
f 124/2/4 123/2/4 125/2/4
f 124/1/4 125/1/4 126/1/4
f 126/1/4 125/1/4 127/1/4
f 128/2/4 129/2/4 130/2/4
f 130/2/4 129/2/4 131/2/4
f 131/2/4 129/2/4 132/2/4
f 133/2/4 134/2/4 135/2/4
f 135/2/4 134/2/4 136/2/4
f 135/1/4 136/1/4 137/1/4
f 137/1/4 136/1/4 138/1/4
f 137/2/4 138/2/4 139/2/4
f 139/2/4 138/2/4 140/2/4
f 141/2/4 142/2/4 143/2/4
f 143/2/4 142/2/4 144/2/4
f 144/2/4 142/2/4 145/2/4
f 145/2/4 142/2/4 146/2/4
f 145/1/4 146/1/4 147/1/4
f 147/1/4 146/1/4 148/1/4
f 149/2/4 150/2/4 151/2/4
f 151/2/4 150/2/4 152/2/4
f 153/2/4 154/2/4 155/2/4
f 155/2/4 154/2/4 156/2/4
f 155/1/4 156/1/4 157/1/4
f 157/1/4 156/1/4 158/1/4
f 159/1/4 160/1/4 161/1/4
f 161/1/4 160/1/4 162/1/4
f 162/1/4 160/1/4 163/1/4
f 162/2/4 163/2/4 164/2/4
f 164/2/4 163/2/4 165/2/4
f 166/1/4 167/1/4 168/1/4
f 168/1/4 167/1/4 169/1/4
f 170/1/4 171/1/4 172/1/4
f 172/1/4 171/1/4 173/1/4
f 173/1/4 171/1/4 174/1/4
f 173/2/4 174/2/4 175/2/4
f 175/2/4 174/2/4 176/2/4
f 177/1/4 178/1/4 180/1/4
f 180/1/4 178/1/4 181/1/4
f 179/2/4 180/2/4 182/2/4
f 182/2/4 180/2/4 183/2/4
f 184/2/4 185/2/4 186/2/4
f 186/2/4 185/2/4 187/2/4
f 186/1/4 187/1/4 188/1/4
f 188/1/4 187/1/4 189/1/4
f 188/2/4 189/2/4 190/2/4
f 190/2/4 189/2/4 191/2/4
f 192/1/4 193/1/4 194/1/4
f 194/1/4 193/1/4 195/1/4
f 196/2/4 197/2/4 198/2/4
f 198/2/4 197/2/4 199/2/4
f 198/1/4 199/1/4 200/1/4
f 200/1/4 199/1/4 201/1/4
f 202/1/4 203/1/4 204/1/4
f 204/1/4 203/1/4 205/1/4
f 208/2/5 207/2/5 206/2/5
f 209/2/5 207/2/5 208/2/5
f 210/2/5 208/2/5 206/2/5
f 211/2/5 208/2/5 210/2/5
f 212/2/5 208/2/5 211/2/5
f 213/1/5 209/1/5 208/1/5
f 213/2/5 208/2/5 212/2/5
f 214/2/5 207/2/5 209/2/5
f 214/1/5 209/1/5 213/1/5
f 215/2/5 207/2/5 214/2/5
f 216/1/5 211/1/5 210/1/5
f 217/1/5 211/1/5 216/1/5
f 218/2/5 213/2/5 212/2/5
f 218/2/5 214/2/5 213/2/5
f 219/1/5 215/1/5 214/1/5
f 219/2/5 214/2/5 218/2/5
f 220/2/5 207/2/5 215/2/5
f 220/1/5 215/1/5 219/1/5
f 221/2/5 207/2/5 220/2/5
f 222/1/5 221/1/5 220/1/5
f 223/1/5 221/1/5 222/1/5
f 224/2/6 225/2/6 228/2/6
f 225/2/6 226/2/6 228/2/6
f 228/2/6 226/2/6 229/2/6
f 227/2/6 228/2/6 234/2/6
f 228/2/6 229/2/6 234/2/6
f 229/2/6 230/2/6 234/2/6
f 234/2/6 230/2/6 235/2/6
f 230/1/6 231/1/6 236/1/6
f 235/2/6 230/2/6 236/2/6
f 231/2/6 232/2/6 237/2/6
f 236/1/6 231/1/6 237/1/6
f 237/2/6 232/2/6 238/2/6
f 233/1/6 234/1/6 242/1/6
f 242/1/6 234/1/6 243/1/6
f 235/2/6 236/2/6 244/2/6
f 236/2/6 237/2/6 244/2/6
f 237/1/6 238/1/6 245/1/6
f 244/2/6 237/2/6 245/2/6
f 238/1/6 239/1/6 245/1/6
f 240/2/6 241/2/6 246/2/6
f 245/1/6 239/1/6 246/1/6
f 239/2/6 240/2/6 246/2/6
f 246/2/6 241/2/6 247/2/6
f 246/1/6 247/1/6 248/1/6
f 248/1/6 247/1/6 249/1/6
f 250/2/6 251/2/6 256/2/6
f 256/2/6 251/2/6 257/2/6
f 251/1/6 252/1/6 258/1/6
f 257/2/6 251/2/6 258/2/6
f 253/2/6 254/2/6 259/2/6
f 258/1/6 252/1/6 259/1/6
f 252/2/6 253/2/6 259/2/6
f 259/2/6 254/2/6 260/2/6
f 260/2/6 254/2/6 261/2/6
f 255/2/6 256/2/6 265/2/6
f 256/1/6 257/1/6 266/1/6
f 265/2/6 256/2/6 266/2/6
f 266/1/6 257/1/6 267/1/6
f 259/1/6 260/1/6 268/1/6
f 261/2/6 262/2/6 269/2/6
f 268/1/6 260/1/6 269/1/6
f 260/2/6 261/2/6 269/2/6
f 269/2/6 262/2/6 270/2/6
f 265/1/6 266/1/6 271/1/6
f 271/1/6 266/1/6 272/1/6
f 270/2/6 262/2/6 273/2/6
f 262/1/6 263/1/6 274/1/6
f 273/2/6 262/2/6 274/2/6
f 263/2/6 264/2/6 275/2/6
f 274/1/6 263/1/6 275/1/6
f 275/2/6 264/2/6 276/2/6
f 277/2/6 278/2/6 283/2/6
f 278/2/6 279/2/6 283/2/6
f 279/2/6 280/2/6 283/2/6
f 283/2/6 280/2/6 284/2/6
f 284/2/6 280/2/6 285/2/6
f 281/1/6 282/1/6 289/1/6
f 282/2/6 283/2/6 290/2/6
f 289/1/6 282/1/6 290/1/6
f 283/2/6 284/2/6 290/2/6
f 284/1/6 285/1/6 291/1/6
f 290/2/6 284/2/6 291/2/6
f 287/2/6 288/2/6 292/2/6
f 291/1/6 285/1/6 292/1/6
f 286/2/6 287/2/6 292/2/6
f 285/2/6 286/2/6 292/2/6
f 292/2/6 288/2/6 293/2/6
f 289/2/6 290/2/6 294/2/6
f 294/2/6 290/2/6 295/2/6
f 292/1/6 293/1/6 296/1/6
f 293/2/6 288/2/6 297/2/6
f 296/1/6 293/1/6 297/1/6
f 297/2/6 288/2/6 298/2/6
f 299/2/6 300/2/6 307/2/6
f 300/2/6 301/2/6 307/2/6
f 307/2/6 301/2/6 308/2/6
f 301/1/6 302/1/6 309/1/6
f 308/2/6 301/2/6 309/2/6
f 302/1/6 303/1/6 309/1/6
f 304/2/6 305/2/6 310/2/6
f 309/1/6 303/1/6 310/1/6
f 303/2/6 304/2/6 310/2/6
f 310/2/6 305/2/6 311/2/6
f 311/2/6 305/2/6 312/2/6
f 307/2/6 308/2/6 315/2/6
f 306/2/6 307/2/6 315/2/6
f 315/2/6 308/2/6 316/2/6
f 311/2/6 312/2/6 317/2/6
f 312/1/6 313/1/6 318/1/6
f 317/2/6 312/2/6 318/2/6
f 313/2/6 314/2/6 319/2/6
f 318/1/6 313/1/6 319/1/6
f 319/2/6 314/2/6 320/2/6
f 321/2/6 322/2/6 325/2/6
f 325/2/6 322/2/6 326/2/6
f 326/2/6 322/2/6 327/2/6
f 322/1/6 323/1/6 328/1/6
f 327/2/6 322/2/6 328/2/6
f 323/2/6 324/2/6 329/2/6
f 329/2/6 324/2/6 330/2/6
f 325/1/6 326/1/6 331/1/6
f 331/1/6 326/1/6 332/1/6
f 326/2/6 327/2/6 333/2/6
f 332/1/6 326/1/6 333/1/6
f 327/1/6 328/1/6 334/1/6
f 333/2/6 327/2/6 334/2/6
f 328/1/6 323/1/6 335/1/6
f 334/1/6 328/1/6 335/1/6
f 323/2/6 329/2/6 335/2/6
f 335/2/6 329/2/6 336/2/6
f 331/2/6 332/2/6 337/2/6
f 337/2/6 332/2/6 338/2/6
f 336/2/6 329/2/6 339/2/6
f 329/1/6 330/1/6 340/1/6
f 339/2/6 329/2/6 340/2/6
f 340/1/6 330/1/6 341/1/6
