# MagicaVoxel @ Ephtracy

# group
o 

# material
mtllib Lehm_Rand-02.mtl
usemtl palette

# normals
vn -1 0 0
vn 1 0 0
vn 0 0 1
vn 0 0 -1
vn 0 -1 0
vn 0 1 0

# texcoords
vt 0.939453 0.5
vt 0.943359 0.5
vt 0.974609 0.5

# verts
v -0.5 0 0.5
v -0.5 0 -0.5
v -0.5 1 0.5
v -0.5 1 -0.5
v -0.2 0.9 0.5
v -0.2 0.9 0.3
v -0.2 0.9 -0.3
v -0.2 0.9 -0.5
v -0.2 1 0.5
v -0.2 1 0.3
v -0.2 1 -0.3
v -0.2 1 -0.5
v -0.1 0.9 0.3
v -0.1 0.9 -0.3
v -0.1 1 0.3
v -0.1 1 -0.3
v 0.1 0.8 0.5
v 0.1 0.8 0.4
v 0.1 0.8 0.3
v 0.1 0.8 -0.4
v 0.1 0.8 -0.5
v 0.1 0.9 0.5
v 0.1 0.9 0.4
v 0.1 0.9 0.3
v 0.1 0.9 -0.4
v 0.1 0.9 -0.5
v 0.2 0.8 0.3
v 0.2 0.8 0
v 0.2 0.8 -0.1
v 0.2 0.8 -0.4
v 0.2 0.9 0.3
v 0.2 0.9 0
v 0.2 0.9 -0.1
v 0.2 0.9 -0.4
v 0.3 0.7 -0.4
v 0.3 0.7 -0.5
v 0.3 0.8 -0.4
v 0.3 0.8 -0.5
v 0.4 0.7 0.5
v 0.4 0.7 0.4
v 0.4 0.7 -0.3
v 0.4 0.7 -0.4
v 0.4 0.8 0.5
v 0.4 0.8 0.4
v 0.4 0.8 -0.3
v 0.4 0.8 -0.4
v 0.5 0 0.5
v 0.5 0 -0.5
v 0.5 0.7 0.5
v 0.5 0.7 0.4
v 0.5 0.7 -0.3
v 0.5 0.7 -0.5
v 0.5 0.8 0.4
v 0.5 0.8 -0.3
v -0.5 0 0.5
v -0.5 1 0.5
v -0.2 0 0.5
v -0.2 0.9 0.5
v -0.2 1 0.5
v -0.1 0.8 0.5
v -0.1 0.9 0.5
v 0 0.8 0.5
v 0 0.9 0.5
v 0.1 0.8 0.5
v 0.1 0.9 0.5
v 0.4 0.7 0.5
v 0.4 0.8 0.5
v 0.5 0 0.5
v 0.5 0.7 0.5
v 0.4 0.7 0.4
v 0.4 0.8 0.4
v 0.5 0.7 0.4
v 0.5 0.8 0.4
v -0.2 0.9 0.3
v -0.2 1 0.3
v -0.1 0.9 0.3
v -0.1 1 0.3
v 0.1 0.8 0.3
v 0.1 0.9 0.3
v 0.2 0.8 0.3
v 0.2 0.9 0.3
v -0.2 0.9 -0.3
v -0.2 1 -0.3
v -0.1 0.9 -0.3
v -0.1 1 -0.3
v 0.4 0.7 -0.3
v 0.4 0.8 -0.3
v 0.5 0.7 -0.3
v 0.5 0.8 -0.3
v 0.1 0.8 -0.4
v 0.1 0.9 -0.4
v 0.2 0.8 -0.4
v 0.2 0.9 -0.4
v 0.3 0.7 -0.4
v 0.3 0.8 -0.4
v 0.4 0.7 -0.4
v 0.4 0.8 -0.4
v -0.5 0 -0.5
v -0.5 1 -0.5
v -0.2 0 -0.5
v -0.2 0.9 -0.5
v -0.2 1 -0.5
v -0.1 0.8 -0.5
v -0.1 0.9 -0.5
v 0 0.8 -0.5
v 0 0.9 -0.5
v 0.1 0.8 -0.5
v 0.1 0.9 -0.5
v 0.3 0.7 -0.5
v 0.3 0.8 -0.5
v 0.5 0 -0.5
v 0.5 0.7 -0.5
v -0.5 0 0.5
v -0.2 0 0.5
v 0.5 0 0.5
v -0.5 0 -0.5
v -0.2 0 -0.5
v 0.5 0 -0.5
v 0.4 0.7 0.5
v 0.5 0.7 0.5
v 0.4 0.7 0.4
v 0.5 0.7 0.4
v 0.4 0.7 -0.3
v 0.5 0.7 -0.3
v 0.3 0.7 -0.4
v 0.4 0.7 -0.4
v 0.3 0.7 -0.5
v 0.5 0.7 -0.5
v 0.1 0.8 0.5
v 0.4 0.8 0.5
v 0.1 0.8 0.4
v 0.4 0.8 0.4
v 0.5 0.8 0.4
v 0.1 0.8 0.3
v 0.2 0.8 0.3
v 0.3 0.8 0.3
v 0.4 0.8 0.3
v 0.2 0.8 0
v 0.3 0.8 0
v 0.4 0.8 0
v 0.2 0.8 -0.1
v 0.3 0.8 -0.3
v 0.4 0.8 -0.3
v 0.5 0.8 -0.3
v 0.1 0.8 -0.4
v 0.2 0.8 -0.4
v 0.3 0.8 -0.4
v 0.4 0.8 -0.4
v 0.1 0.8 -0.5
v 0.3 0.8 -0.5
v -0.2 0.9 0.5
v -0.1 0.9 0.5
v 0 0.9 0.5
v 0.1 0.9 0.5
v -0.1 0.9 0.4
v 0 0.9 0.4
v 0.1 0.9 0.4
v -0.2 0.9 0.3
v -0.1 0.9 0.3
v 0 0.9 0.3
v 0.1 0.9 0.3
v 0.2 0.9 0.3
v 0 0.9 0.1
v 0.1 0.9 0.1
v 0 0.9 0
v 0.1 0.9 0
v 0.2 0.9 0
v 0.1 0.9 -0.1
v 0.2 0.9 -0.1
v 0 0.9 -0.2
v 0.1 0.9 -0.2
v -0.2 0.9 -0.3
v -0.1 0.9 -0.3
v -0.1 0.9 -0.4
v 0 0.9 -0.4
v 0.1 0.9 -0.4
v 0.2 0.9 -0.4
v -0.2 0.9 -0.5
v -0.1 0.9 -0.5
v 0 0.9 -0.5
v 0.1 0.9 -0.5
v -0.5 1 0.5
v -0.2 1 0.5
v -0.2 1 0.3
v -0.1 1 0.3
v -0.2 1 -0.3
v -0.1 1 -0.3
v -0.5 1 -0.5
v -0.2 1 -0.5

# faces
f 3/3/1 2/3/1 1/3/1
f 4/3/1 2/3/1 3/3/1
f 5/3/2 6/3/2 9/3/2
f 9/3/2 6/3/2 10/3/2
f 7/3/2 8/3/2 11/3/2
f 11/3/2 8/3/2 12/3/2
f 13/3/2 14/3/2 15/3/2
f 15/3/2 14/3/2 16/3/2
f 17/1/2 18/1/2 22/1/2
f 18/2/2 19/2/2 23/2/2
f 22/1/2 18/1/2 23/1/2
f 23/2/2 19/2/2 24/2/2
f 20/1/2 21/1/2 25/1/2
f 25/1/2 21/1/2 26/1/2
f 27/1/2 28/1/2 31/1/2
f 28/2/2 29/2/2 32/2/2
f 31/1/2 28/1/2 32/1/2
f 29/1/2 30/1/2 33/1/2
f 32/2/2 29/2/2 33/2/2
f 33/1/2 30/1/2 34/1/2
f 35/1/2 36/1/2 37/1/2
f 37/1/2 36/1/2 38/1/2
f 39/1/2 40/1/2 43/1/2
f 43/1/2 40/1/2 44/1/2
f 41/2/2 42/2/2 45/2/2
f 45/2/2 42/2/2 46/2/2
f 47/1/2 48/1/2 49/1/2
f 49/1/2 48/1/2 50/1/2
f 50/1/2 48/1/2 51/1/2
f 51/1/2 48/1/2 52/1/2
f 50/1/2 51/1/2 53/1/2
f 53/1/2 51/1/2 54/1/2
f 57/3/3 56/3/3 55/3/3
f 58/3/3 56/3/3 57/3/3
f 59/3/3 56/3/3 58/3/3
f 60/1/3 58/1/3 57/1/3
f 61/1/3 58/1/3 60/1/3
f 62/1/3 60/1/3 57/1/3
f 62/2/3 61/2/3 60/2/3
f 63/2/3 61/2/3 62/2/3
f 64/1/3 62/1/3 57/1/3
f 64/1/3 63/1/3 62/1/3
f 65/1/3 63/1/3 64/1/3
f 66/1/3 64/1/3 57/1/3
f 67/1/3 64/1/3 66/1/3
f 68/1/3 66/1/3 57/1/3
f 69/1/3 66/1/3 68/1/3
f 72/1/3 71/1/3 70/1/3
f 73/1/3 71/1/3 72/1/3
f 76/3/3 75/3/3 74/3/3
f 77/3/3 75/3/3 76/3/3
f 80/1/3 79/1/3 78/1/3
f 81/1/3 79/1/3 80/1/3
f 82/3/4 83/3/4 84/3/4
f 84/3/4 83/3/4 85/3/4
f 86/1/4 87/1/4 88/1/4
f 88/1/4 87/1/4 89/1/4
f 90/1/4 91/1/4 92/1/4
f 92/1/4 91/1/4 93/1/4
f 94/2/4 95/2/4 96/2/4
f 96/2/4 95/2/4 97/2/4
f 98/3/4 99/3/4 100/3/4
f 100/3/4 99/3/4 101/3/4
f 101/3/4 99/3/4 102/3/4
f 100/1/4 101/1/4 103/1/4
f 103/1/4 101/1/4 104/1/4
f 100/1/4 103/1/4 105/1/4
f 103/2/4 104/2/4 105/2/4
f 105/2/4 104/2/4 106/2/4
f 100/1/4 105/1/4 107/1/4
f 105/1/4 106/1/4 107/1/4
f 107/1/4 106/1/4 108/1/4
f 100/1/4 107/1/4 109/1/4
f 109/1/4 107/1/4 110/1/4
f 100/1/4 109/1/4 111/1/4
f 111/1/4 109/1/4 112/1/4
f 116/3/5 114/3/5 113/3/5
f 117/1/5 115/1/5 114/1/5
f 117/3/5 114/3/5 116/3/5
f 118/1/5 115/1/5 117/1/5
f 119/1/6 120/1/6 121/1/6
f 121/1/6 120/1/6 122/1/6
f 123/1/6 124/1/6 126/1/6
f 125/1/6 126/1/6 127/1/6
f 126/1/6 124/1/6 128/1/6
f 127/1/6 126/1/6 128/1/6
f 129/1/6 130/1/6 131/1/6
f 131/1/6 130/1/6 132/1/6
f 131/1/6 132/1/6 134/1/6
f 132/1/6 133/1/6 134/1/6
f 134/1/6 133/1/6 135/1/6
f 135/1/6 133/1/6 136/1/6
f 136/1/6 133/1/6 137/1/6
f 135/1/6 136/1/6 138/1/6
f 136/2/6 137/2/6 139/2/6
f 138/1/6 136/1/6 139/1/6
f 137/1/6 133/1/6 140/1/6
f 139/2/6 137/2/6 140/2/6
f 138/1/6 139/1/6 141/1/6
f 139/1/6 140/1/6 141/1/6
f 141/1/6 140/1/6 142/1/6
f 140/1/6 133/1/6 143/1/6
f 142/1/6 140/1/6 143/1/6
f 143/1/6 133/1/6 144/1/6
f 141/1/6 142/1/6 146/1/6
f 142/2/6 143/2/6 147/2/6
f 146/1/6 142/1/6 147/1/6
f 147/2/6 143/2/6 148/2/6
f 145/1/6 146/1/6 149/1/6
f 146/1/6 147/1/6 149/1/6
f 149/1/6 147/1/6 150/1/6
f 151/1/6 152/1/6 155/1/6
f 152/2/6 153/2/6 155/2/6
f 153/1/6 154/1/6 156/1/6
f 155/2/6 153/2/6 156/2/6
f 156/1/6 154/1/6 157/1/6
f 151/1/6 155/1/6 158/1/6
f 155/1/6 156/1/6 158/1/6
f 158/1/6 156/1/6 159/1/6
f 156/2/6 157/2/6 160/2/6
f 159/1/6 156/1/6 160/1/6
f 160/2/6 157/2/6 161/2/6
f 160/1/6 161/1/6 163/1/6
f 161/1/6 162/1/6 163/1/6
f 159/1/6 160/1/6 163/1/6
f 163/1/6 162/1/6 164/1/6
f 159/1/6 163/1/6 165/1/6
f 163/2/6 164/2/6 165/2/6
f 164/1/6 162/1/6 166/1/6
f 165/2/6 164/2/6 166/2/6
f 166/1/6 162/1/6 167/1/6
f 165/1/6 166/1/6 168/1/6
f 166/2/6 167/2/6 168/2/6
f 168/2/6 167/2/6 169/2/6
f 159/1/6 165/1/6 170/1/6
f 165/1/6 168/1/6 170/1/6
f 168/1/6 169/1/6 170/1/6
f 170/1/6 169/1/6 171/1/6
f 159/1/6 170/1/6 173/1/6
f 173/1/6 170/1/6 174/1/6
f 172/1/6 173/1/6 174/1/6
f 170/2/6 171/2/6 175/2/6
f 174/1/6 170/1/6 175/1/6
f 171/1/6 169/1/6 176/1/6
f 175/2/6 171/2/6 176/2/6
f 176/1/6 169/1/6 177/1/6
f 172/1/6 174/1/6 178/1/6
f 174/2/6 175/2/6 179/2/6
f 178/1/6 174/1/6 179/1/6
f 175/1/6 176/1/6 180/1/6
f 179/2/6 175/2/6 180/2/6
f 180/1/6 176/1/6 181/1/6
f 182/3/6 183/3/6 184/3/6
f 182/3/6 184/3/6 186/3/6
f 184/3/6 185/3/6 186/3/6
f 186/3/6 185/3/6 187/3/6
f 182/3/6 186/3/6 188/3/6
f 188/3/6 186/3/6 189/3/6
