# MagicaVoxel @ Ephtracy

# group
o 

# material
mtllib Lehm_Ecke-0.1.mtl
usemtl palette

# normals
vn -1 0 0
vn 1 0 0
vn 0 0 1
vn 0 0 -1
vn 0 -1 0
vn 0 1 0

# texcoords
vt 0.845703 0.5
vt 0.849609 0.5
vt 0.923828 0.5

# verts
v -0.5 0 0.5
v -0.5 0 -0.5
v -0.5 0.7 0.3
v -0.5 0.7 0.2
v -0.5 0.7 -0.2
v -0.5 0.7 -0.5
v -0.5 0.8 0.5
v -0.5 0.8 0.3
v -0.5 0.8 0.2
v -0.5 0.8 0.1
v -0.5 0.8 -0.1
v -0.5 0.8 -0.2
v -0.5 0.9 0.1
v -0.5 0.9 -0.1
v -0.5 0.9 -0.2
v -0.5 1 -0.2
v -0.5 1 -0.5
v -0.3 0.8 0.2
v -0.3 0.8 0.1
v -0.3 0.9 0.2
v -0.3 0.9 0.1
v -0.3 0.9 -0.1
v -0.3 0.9 -0.2
v -0.3 1 -0.1
v -0.3 1 -0.2
v -0.1 0.8 0.5
v -0.1 0.8 0.4
v -0.1 0.8 0.2
v -0.1 0.9 0.5
v -0.1 0.9 0.2
v -0.1 0.9 0
v -0.1 0.9 -0.1
v -0.1 1 0
v -0.1 1 -0.1
v 0 0.9 0.1
v 0 0.9 0
v 0 1 0.1
v 0 1 0
v 0.1 0.9 0.3
v 0.1 0.9 0.1
v 0.1 1 0.3
v 0.1 1 0.1
v 0.2 0.9 0.5
v 0.2 0.9 0.3
v 0.2 1 0.5
v 0.2 1 0.3
v 0.5 0 0.5
v 0.5 0 -0.5
v 0.5 0.6 0.3
v 0.5 0.6 0.1
v 0.5 0.7 0.5
v 0.5 0.7 0.3
v 0.5 0.7 0.1
v 0.5 0.7 -0.5
v 0.5 1 0.5
v 0.5 1 -0.5
v -0.5 0 0.5
v -0.5 0.8 0.5
v -0.3 0.7 0.5
v -0.3 0.8 0.5
v -0.1 0.7 0.5
v -0.1 0.8 0.5
v -0.1 0.9 0.5
v 0.2 0.7 0.5
v 0.2 0.9 0.5
v 0.2 1 0.5
v 0.5 0 0.5
v 0.5 0.7 0.5
v 0.5 1 0.5
v 0.1 0.9 0.3
v 0.1 1 0.3
v 0.2 0.9 0.3
v 0.2 1 0.3
v -0.3 0.8 0.2
v -0.3 0.9 0.2
v -0.1 0.8 0.2
v -0.1 0.9 0.2
v -0.5 0.8 0.1
v -0.5 0.9 0.1
v -0.4 0.8 0.1
v -0.4 0.9 0.1
v -0.3 0.8 0.1
v -0.3 0.9 0.1
v 0 0.9 0.1
v 0 1 0.1
v 0.1 0.9 0.1
v 0.1 1 0.1
v -0.1 0.9 0
v -0.1 1 0
v 0 0.9 0
v 0 1 0
v -0.3 0.9 -0.1
v -0.3 1 -0.1
v -0.2 0.9 -0.1
v -0.1 0.9 -0.1
v -0.1 1 -0.1
v -0.5 0.9 -0.2
v -0.5 1 -0.2
v -0.3 0.9 -0.2
v -0.3 1 -0.2
v -0.5 0 -0.5
v -0.5 0.7 -0.5
v -0.5 1 -0.5
v 0.5 0 -0.5
v 0.5 0.7 -0.5
v 0.5 1 -0.5
v -0.5 0 0.5
v 0.5 0 0.5
v -0.5 0 -0.5
v 0.5 0 -0.5
v -0.5 0.8 0.5
v -0.3 0.8 0.5
v -0.1 0.8 0.5
v -0.4 0.8 0.4
v -0.3 0.8 0.4
v -0.2 0.8 0.4
v -0.1 0.8 0.4
v -0.5 0.8 0.3
v -0.4 0.8 0.3
v -0.3 0.8 0.3
v -0.2 0.8 0.3
v -0.5 0.8 0.2
v -0.3 0.8 0.2
v -0.1 0.8 0.2
v -0.5 0.8 0.1
v -0.4 0.8 0.1
v -0.3 0.8 0.1
v -0.1 0.9 0.5
v 0.2 0.9 0.5
v 0.1 0.9 0.3
v 0.2 0.9 0.3
v -0.3 0.9 0.2
v -0.1 0.9 0.2
v -0.5 0.9 0.1
v -0.4 0.9 0.1
v -0.3 0.9 0.1
v 0 0.9 0.1
v 0.1 0.9 0.1
v -0.3 0.9 0
v -0.2 0.9 0
v -0.1 0.9 0
v 0 0.9 0
v -0.5 0.9 -0.1
v -0.4 0.9 -0.1
v -0.3 0.9 -0.1
v -0.2 0.9 -0.1
v -0.1 0.9 -0.1
v -0.5 0.9 -0.2
v -0.3 0.9 -0.2
v 0.2 1 0.5
v 0.5 1 0.5
v 0.1 1 0.3
v 0.2 1 0.3
v 0 1 0.1
v 0.1 1 0.1
v -0.1 1 0
v 0 1 0
v -0.3 1 -0.1
v -0.1 1 -0.1
v -0.5 1 -0.2
v -0.3 1 -0.2
v -0.5 1 -0.5
v 0.5 1 -0.5

# faces
f 3/1/1 2/1/1 1/1/1
f 4/1/1 2/1/1 3/1/1
f 5/1/1 2/1/1 4/1/1
f 6/1/1 2/1/1 5/1/1
f 7/1/1 3/1/1 1/1/1
f 8/2/1 4/2/1 3/2/1
f 8/1/1 3/1/1 7/1/1
f 9/1/1 5/1/1 4/1/1
f 9/2/1 4/2/1 8/2/1
f 10/1/1 5/1/1 9/1/1
f 11/1/1 5/1/1 10/1/1
f 12/3/1 6/3/1 5/3/1
f 12/1/1 5/1/1 11/1/1
f 13/1/1 11/1/1 10/1/1
f 14/2/1 12/2/1 11/2/1
f 14/1/1 11/1/1 13/1/1
f 15/3/1 6/3/1 12/3/1
f 15/2/1 12/2/1 14/2/1
f 16/3/1 6/3/1 15/3/1
f 17/3/1 6/3/1 16/3/1
f 20/1/1 19/1/1 18/1/1
f 21/1/1 19/1/1 20/1/1
f 24/3/1 23/3/1 22/3/1
f 25/3/1 23/3/1 24/3/1
f 29/1/1 27/1/1 26/1/1
f 29/1/1 28/1/1 27/1/1
f 30/1/1 28/1/1 29/1/1
f 33/3/1 32/3/1 31/3/1
f 34/3/1 32/3/1 33/3/1
f 37/3/1 36/3/1 35/3/1
f 38/3/1 36/3/1 37/3/1
f 41/3/1 40/3/1 39/3/1
f 42/3/1 40/3/1 41/3/1
f 45/3/1 44/3/1 43/3/1
f 46/3/1 44/3/1 45/3/1
f 47/1/2 48/1/2 49/1/2
f 49/1/2 48/1/2 50/1/2
f 47/1/2 49/1/2 51/1/2
f 49/3/2 50/3/2 52/3/2
f 51/1/2 49/1/2 52/1/2
f 50/1/2 48/1/2 53/1/2
f 52/3/2 50/3/2 53/3/2
f 53/1/2 48/1/2 54/1/2
f 51/3/2 52/3/2 55/3/2
f 52/3/2 53/3/2 55/3/2
f 53/3/2 54/3/2 55/3/2
f 55/3/2 54/3/2 56/3/2
f 59/1/3 58/1/3 57/1/3
f 60/1/3 58/1/3 59/1/3
f 61/1/3 59/1/3 57/1/3
f 61/2/3 60/2/3 59/2/3
f 62/2/3 60/2/3 61/2/3
f 64/1/3 62/1/3 61/1/3
f 64/1/3 63/1/3 62/1/3
f 64/1/3 61/1/3 57/1/3
f 65/1/3 63/1/3 64/1/3
f 67/1/3 64/1/3 57/1/3
f 68/3/3 66/3/3 65/3/3
f 68/1/3 64/1/3 67/1/3
f 68/3/3 65/3/3 64/3/3
f 69/3/3 66/3/3 68/3/3
f 72/3/3 71/3/3 70/3/3
f 73/3/3 71/3/3 72/3/3
f 76/1/3 75/1/3 74/1/3
f 77/1/3 75/1/3 76/1/3
f 80/1/3 79/1/3 78/1/3
f 81/1/3 79/1/3 80/1/3
f 82/2/3 81/2/3 80/2/3
f 83/2/3 81/2/3 82/2/3
f 86/3/3 85/3/3 84/3/3
f 87/3/3 85/3/3 86/3/3
f 90/3/3 89/3/3 88/3/3
f 91/3/3 89/3/3 90/3/3
f 94/3/3 93/3/3 92/3/3
f 95/3/3 93/3/3 94/3/3
f 96/3/3 93/3/3 95/3/3
f 99/3/3 98/3/3 97/3/3
f 100/3/3 98/3/3 99/3/3
f 101/1/4 102/1/4 104/1/4
f 102/3/4 103/3/4 105/3/4
f 104/1/4 102/1/4 105/1/4
f 105/3/4 103/3/4 106/3/4
f 109/1/5 108/1/5 107/1/5
f 110/1/5 108/1/5 109/1/5
f 111/1/6 112/1/6 114/1/6
f 112/2/6 113/2/6 115/2/6
f 114/1/6 112/1/6 115/1/6
f 115/2/6 113/2/6 116/2/6
f 116/2/6 113/2/6 117/2/6
f 111/1/6 114/1/6 118/1/6
f 114/2/6 115/2/6 119/2/6
f 118/1/6 114/1/6 119/1/6
f 115/2/6 116/2/6 119/2/6
f 119/2/6 116/2/6 120/2/6
f 116/1/6 117/1/6 121/1/6
f 120/2/6 116/2/6 121/2/6
f 119/2/6 120/2/6 122/2/6
f 118/2/6 119/2/6 122/2/6
f 120/1/6 121/1/6 123/1/6
f 122/2/6 120/2/6 123/2/6
f 121/1/6 117/1/6 124/1/6
f 123/1/6 121/1/6 124/1/6
f 122/1/6 123/1/6 125/1/6
f 125/1/6 123/1/6 126/1/6
f 126/1/6 123/1/6 127/1/6
f 128/1/6 129/1/6 130/1/6
f 130/1/6 129/1/6 131/1/6
f 128/1/6 130/1/6 133/1/6
f 132/1/6 133/1/6 136/1/6
f 133/1/6 130/1/6 137/1/6
f 136/1/6 133/1/6 137/1/6
f 137/1/6 130/1/6 138/1/6
f 135/2/6 136/2/6 139/2/6
f 136/1/6 137/1/6 139/1/6
f 139/1/6 137/1/6 140/1/6
f 140/1/6 137/1/6 141/1/6
f 141/1/6 137/1/6 142/1/6
f 134/1/6 135/1/6 143/1/6
f 135/2/6 139/2/6 144/2/6
f 143/1/6 135/1/6 144/1/6
f 139/2/6 140/2/6 144/2/6
f 144/2/6 140/2/6 145/2/6
f 140/1/6 141/1/6 146/1/6
f 145/2/6 140/2/6 146/2/6
f 146/1/6 141/1/6 147/1/6
f 144/2/6 145/2/6 148/2/6
f 143/2/6 144/2/6 148/2/6
f 148/2/6 145/2/6 149/2/6
f 150/3/6 151/3/6 153/3/6
f 152/3/6 153/3/6 155/3/6
f 154/3/6 155/3/6 157/3/6
f 156/3/6 157/3/6 159/3/6
f 158/3/6 159/3/6 161/3/6
f 160/3/6 161/3/6 162/3/6
f 153/3/6 151/3/6 163/3/6
f 162/3/6 161/3/6 163/3/6
f 155/3/6 153/3/6 163/3/6
f 161/3/6 159/3/6 163/3/6
f 157/3/6 155/3/6 163/3/6
f 159/3/6 157/3/6 163/3/6
