# MagicaVoxel @ Ephtracy

# group
o 

# material
mtllib Lehm_Rand-0.1.mtl
usemtl palette

# normals
vn -1 0 0
vn 1 0 0
vn 0 0 1
vn 0 0 -1
vn 0 -1 0
vn 0 1 0

# texcoords
vt 0.845703 0.5
vt 0.849609 0.5
vt 0.919922 0.5
vt 0.923828 0.5

# verts
v -0.5 0 0.5
v -0.5 0 -0.5
v -0.5 0.6 0.3
v -0.5 0.6 0.1
v -0.5 0.6 -0.4
v -0.5 0.6 -0.5
v -0.5 0.7 0.5
v -0.5 0.7 0.3
v -0.5 0.7 0.1
v -0.5 0.7 -0.4
v -0.5 0.7 -0.5
v -0.5 1 0.5
v -0.5 1 -0.5
v -0.2 0.9 0.5
v -0.2 0.9 -0.5
v -0.2 1 0.5
v -0.2 1 -0.5
v 0 0.8 0.4
v 0 0.8 0
v 0 0.9 0.4
v 0 0.9 0
v 0.1 0.8 0.5
v 0.1 0.8 0.4
v 0.1 0.8 0
v 0.1 0.8 -0.1
v 0.1 0.8 -0.4
v 0.1 0.8 -0.5
v 0.1 0.9 0.5
v 0.1 0.9 0.4
v 0.1 0.9 0
v 0.1 0.9 -0.1
v 0.1 0.9 -0.4
v 0.1 0.9 -0.5
v 0.2 0.8 -0.1
v 0.2 0.8 -0.4
v 0.2 0.9 -0.1
v 0.2 0.9 -0.4
v 0.5 0 0.5
v 0.5 0 -0.5
v 0.5 0.6 0.2
v 0.5 0.6 0.1
v 0.5 0.6 -0.1
v 0.5 0.6 -0.4
v 0.5 0.7 0.2
v 0.5 0.7 0.1
v 0.5 0.7 -0.1
v 0.5 0.7 -0.4
v 0.5 0.8 0.5
v 0.5 0.8 -0.5
v -0.5 0 0.5
v -0.5 0.7 0.5
v -0.5 1 0.5
v -0.2 0.7 0.5
v -0.2 0.9 0.5
v -0.2 1 0.5
v 0 0.6 0.5
v 0 0.7 0.5
v 0.1 0.8 0.5
v 0.1 0.9 0.5
v 0.4 0.6 0.5
v 0.4 0.7 0.5
v 0.5 0 0.5
v 0.5 0.8 0.5
v 0 0.8 0
v 0 0.9 0
v 0.1 0.8 0
v 0.1 0.9 0
v 0.1 0.8 -0.1
v 0.1 0.9 -0.1
v 0.2 0.8 -0.1
v 0.2 0.9 -0.1
v 0 0.8 0.4
v 0 0.9 0.4
v 0.1 0.8 0.4
v 0.1 0.9 0.4
v 0.1 0.8 -0.4
v 0.1 0.9 -0.4
v 0.2 0.8 -0.4
v 0.2 0.9 -0.4
v -0.5 0 -0.5
v -0.5 0.6 -0.5
v -0.5 0.7 -0.5
v -0.5 1 -0.5
v -0.3 0.6 -0.5
v -0.3 0.7 -0.5
v -0.2 0.7 -0.5
v -0.2 0.9 -0.5
v -0.2 1 -0.5
v 0 0.6 -0.5
v 0 0.7 -0.5
v 0.1 0.8 -0.5
v 0.1 0.9 -0.5
v 0.4 0.6 -0.5
v 0.4 0.7 -0.5
v 0.5 0 -0.5
v 0.5 0.8 -0.5
v -0.5 0 0.5
v 0.5 0 0.5
v -0.5 0 -0.5
v 0.5 0 -0.5
v 0.1 0.8 0.5
v 0.5 0.8 0.5
v 0 0.8 0.4
v 0.1 0.8 0.4
v 0 0.8 0
v 0.1 0.8 0
v 0.1 0.8 -0.1
v 0.2 0.8 -0.1
v 0.1 0.8 -0.4
v 0.2 0.8 -0.4
v 0.1 0.8 -0.5
v 0.5 0.8 -0.5
v -0.2 0.9 0.5
v 0.1 0.9 0.5
v 0 0.9 0.4
v 0.1 0.9 0.4
v 0 0.9 0
v 0.1 0.9 0
v 0.1 0.9 -0.1
v 0.2 0.9 -0.1
v 0.1 0.9 -0.4
v 0.2 0.9 -0.4
v -0.2 0.9 -0.5
v 0.1 0.9 -0.5
v -0.5 1 0.5
v -0.2 1 0.5
v -0.5 1 -0.5
v -0.2 1 -0.5

# faces
f 3/1/1 2/1/1 1/1/1
f 4/1/1 2/1/1 3/1/1
f 5/1/1 2/1/1 4/1/1
f 6/1/1 2/1/1 5/1/1
f 7/1/1 3/1/1 1/1/1
f 8/2/1 4/2/1 3/2/1
f 8/1/1 3/1/1 7/1/1
f 9/1/1 5/1/1 4/1/1
f 9/2/1 4/2/1 8/2/1
f 10/3/1 6/3/1 5/3/1
f 10/1/1 5/1/1 9/1/1
f 11/3/1 6/3/1 10/3/1
f 12/4/1 8/4/1 7/4/1
f 12/4/1 9/4/1 8/4/1
f 12/4/1 11/4/1 10/4/1
f 12/4/1 10/4/1 9/4/1
f 13/4/1 11/4/1 12/4/1
f 14/4/2 15/4/2 16/4/2
f 16/4/2 15/4/2 17/4/2
f 18/1/2 19/1/2 20/1/2
f 20/1/2 19/1/2 21/1/2
f 22/1/2 23/1/2 28/1/2
f 28/1/2 23/1/2 29/1/2
f 24/1/2 25/1/2 30/1/2
f 30/1/2 25/1/2 31/1/2
f 26/1/2 27/1/2 32/1/2
f 32/1/2 27/1/2 33/1/2
f 34/1/2 35/1/2 36/1/2
f 36/1/2 35/1/2 37/1/2
f 38/1/2 39/1/2 40/1/2
f 40/1/2 39/1/2 41/1/2
f 41/1/2 39/1/2 42/1/2
f 42/1/2 39/1/2 43/1/2
f 38/1/2 40/1/2 44/1/2
f 40/2/2 41/2/2 44/2/2
f 41/1/2 42/1/2 45/1/2
f 44/2/2 41/2/2 45/2/2
f 42/2/2 43/2/2 46/2/2
f 45/1/2 42/1/2 46/1/2
f 43/1/2 39/1/2 47/1/2
f 46/2/2 43/2/2 47/2/2
f 45/1/2 46/1/2 48/1/2
f 44/1/2 45/1/2 48/1/2
f 46/1/2 47/1/2 48/1/2
f 38/1/2 44/1/2 48/1/2
f 47/1/2 39/1/2 49/1/2
f 48/1/2 47/1/2 49/1/2
f 53/1/3 51/1/3 50/1/3
f 53/4/3 52/4/3 51/4/3
f 54/4/3 52/4/3 53/4/3
f 55/4/3 52/4/3 54/4/3
f 56/1/3 53/1/3 50/1/3
f 56/1/3 54/1/3 53/1/3
f 57/1/3 54/1/3 56/1/3
f 58/1/3 54/1/3 57/1/3
f 59/1/3 54/1/3 58/1/3
f 60/1/3 56/1/3 50/1/3
f 60/2/3 57/2/3 56/2/3
f 61/1/3 58/1/3 57/1/3
f 61/2/3 57/2/3 60/2/3
f 62/1/3 60/1/3 50/1/3
f 62/1/3 61/1/3 60/1/3
f 63/1/3 58/1/3 61/1/3
f 63/1/3 61/1/3 62/1/3
f 66/1/3 65/1/3 64/1/3
f 67/1/3 65/1/3 66/1/3
f 70/1/3 69/1/3 68/1/3
f 71/1/3 69/1/3 70/1/3
f 72/1/4 73/1/4 74/1/4
f 74/1/4 73/1/4 75/1/4
f 76/1/4 77/1/4 78/1/4
f 78/1/4 77/1/4 79/1/4
f 80/1/4 81/1/4 84/1/4
f 81/3/4 82/3/4 84/3/4
f 82/4/4 83/4/4 85/4/4
f 84/3/4 82/3/4 85/3/4
f 84/1/4 85/1/4 86/1/4
f 85/4/4 83/4/4 86/4/4
f 86/4/4 83/4/4 87/4/4
f 87/4/4 83/4/4 88/4/4
f 80/1/4 84/1/4 89/1/4
f 84/1/4 86/1/4 89/1/4
f 86/1/4 87/1/4 89/1/4
f 89/1/4 87/1/4 90/1/4
f 90/1/4 87/1/4 91/1/4
f 91/1/4 87/1/4 92/1/4
f 80/1/4 89/1/4 93/1/4
f 89/2/4 90/2/4 93/2/4
f 90/1/4 91/1/4 94/1/4
f 93/2/4 90/2/4 94/2/4
f 80/1/4 93/1/4 95/1/4
f 93/1/4 94/1/4 95/1/4
f 94/1/4 91/1/4 96/1/4
f 95/1/4 94/1/4 96/1/4
f 99/1/5 98/1/5 97/1/5
f 100/1/5 98/1/5 99/1/5
f 101/1/6 102/1/6 104/1/6
f 103/1/6 104/1/6 105/1/6
f 104/1/6 102/1/6 106/1/6
f 105/1/6 104/1/6 106/1/6
f 106/1/6 102/1/6 107/1/6
f 107/1/6 102/1/6 108/1/6
f 108/1/6 102/1/6 110/1/6
f 109/1/6 110/1/6 111/1/6
f 110/1/6 102/1/6 112/1/6
f 111/1/6 110/1/6 112/1/6
f 113/1/6 114/1/6 115/1/6
f 115/1/6 114/1/6 116/1/6
f 113/1/6 115/1/6 117/1/6
f 117/1/6 118/1/6 119/1/6
f 117/1/6 119/1/6 121/1/6
f 119/1/6 120/1/6 121/1/6
f 121/1/6 120/1/6 122/1/6
f 113/1/6 117/1/6 123/1/6
f 117/1/6 121/1/6 123/1/6
f 123/1/6 121/1/6 124/1/6
f 125/4/6 126/4/6 127/4/6
f 127/4/6 126/4/6 128/4/6
