# MagicaVoxel @ Ephtracy

# group
o 

# material
mtllib Lehm_Rand-0.3.mtl
usemtl palette

# normals
vn -1 0 0
vn 1 0 0
vn 0 0 1
vn 0 0 -1
vn 0 -1 0
vn 0 1 0

# texcoords
vt 0.845703 0.5
vt 0.849609 0.5
vt 0.919922 0.5
vt 0.923828 0.5

# verts
v -0.5 1.5 0.5
v -0.5 1.5 -0.5
v -0.5 2.1 0.3
v -0.5 2.1 0.1
v -0.5 2.1 -0.4
v -0.5 2.1 -0.5
v -0.5 2.2 0.5
v -0.5 2.2 0.3
v -0.5 2.2 0.1
v -0.5 2.2 -0.4
v -0.5 2.2 -0.5
v -0.5 2.5 0.5
v -0.5 2.5 -0.5
v -0.2 2.4 0.5
v -0.2 2.4 0.4
v -0.2 2.4 -0.4
v -0.2 2.4 -0.5
v -0.2 2.5 0.5
v -0.2 2.5 -0.5
v -0.1 2.3 0.2
v -0.1 2.3 -0.2
v -0.1 2.4 0.2
v -0.1 2.4 -0.2
v 0 2.3 0.4
v 0 2.3 0.3
v 0 2.3 0.2
v 0 2.3 -0.2
v 0 2.3 -0.4
v 0 2.4 0.4
v 0 2.4 0.3
v 0 2.4 0.2
v 0 2.4 -0.2
v 0 2.4 -0.4
v 0.1 2.3 0.5
v 0.1 2.3 0.4
v 0.1 2.3 -0.4
v 0.1 2.3 -0.5
v 0.1 2.4 0.5
v 0.1 2.4 0.4
v 0.1 2.4 -0.4
v 0.1 2.4 -0.5
v 0.5 1.5 0.5
v 0.5 1.5 -0.5
v 0.5 2.1 0.2
v 0.5 2.1 0.1
v 0.5 2.1 -0.1
v 0.5 2.1 -0.4
v 0.5 2.2 0.3
v 0.5 2.2 0.2
v 0.5 2.2 0.1
v 0.5 2.2 -0.1
v 0.5 2.2 -0.3
v 0.5 2.2 -0.4
v 0.5 2.3 0.5
v 0.5 2.3 0.3
v 0.5 2.3 -0.3
v 0.5 2.3 -0.5
v -0.5 1.5 0.5
v -0.5 2.2 0.5
v -0.5 2.5 0.5
v -0.2 2.2 0.5
v -0.2 2.4 0.5
v -0.2 2.5 0.5
v 0 2.1 0.5
v 0 2.2 0.5
v 0.1 2.2 0.5
v 0.1 2.3 0.5
v 0.1 2.4 0.5
v 0.3 2.2 0.5
v 0.3 2.3 0.5
v 0.4 2.1 0.5
v 0.4 2.2 0.5
v 0.5 1.5 0.5
v 0.5 2.3 0.5
v -0.1 2.3 -0.2
v -0.1 2.4 -0.2
v 0 2.3 -0.2
v 0 2.4 -0.2
v 0 2.3 -0.4
v 0 2.4 -0.4
v 0.1 2.3 -0.4
v 0.1 2.4 -0.4
v 0 2.3 0.4
v 0 2.4 0.4
v 0.1 2.3 0.4
v 0.1 2.4 0.4
v -0.1 2.3 0.2
v -0.1 2.4 0.2
v 0 2.3 0.2
v 0 2.4 0.2
v -0.5 1.5 -0.5
v -0.5 2.1 -0.5
v -0.5 2.2 -0.5
v -0.5 2.5 -0.5
v -0.3 2.1 -0.5
v -0.3 2.2 -0.5
v -0.2 2.2 -0.5
v -0.2 2.4 -0.5
v -0.2 2.5 -0.5
v 0 2.1 -0.5
v 0 2.2 -0.5
v 0.1 2.2 -0.5
v 0.1 2.3 -0.5
v 0.1 2.4 -0.5
v 0.3 2.2 -0.5
v 0.3 2.3 -0.5
v 0.4 2.1 -0.5
v 0.4 2.2 -0.5
v 0.5 1.5 -0.5
v 0.5 2.3 -0.5
v -0.5 1.5 0.5
v 0.5 1.5 0.5
v -0.5 1.5 -0.5
v 0.5 1.5 -0.5
v 0.1 2.3 0.5
v 0.3 2.3 0.5
v 0.5 2.3 0.5
v 0 2.3 0.4
v 0.1 2.3 0.4
v 0.2 2.3 0.4
v 0.3 2.3 0.4
v 0 2.3 0.3
v 0.4 2.3 0.3
v 0.5 2.3 0.3
v -0.1 2.3 0.2
v 0 2.3 0.2
v 0.1 2.3 0.2
v 0.3 2.3 0.2
v 0.4 2.3 0.2
v 0.1 2.3 0.1
v 0.2 2.3 0.1
v 0 2.3 0
v 0.1 2.3 0
v -0.1 2.3 -0.2
v 0 2.3 -0.2
v 0.2 2.3 -0.2
v 0.3 2.3 -0.2
v 0.3 2.3 -0.3
v 0.5 2.3 -0.3
v 0 2.3 -0.4
v 0.1 2.3 -0.4
v 0.2 2.3 -0.4
v 0.1 2.3 -0.5
v 0.3 2.3 -0.5
v 0.5 2.3 -0.5
v -0.2 2.4 0.5
v 0.1 2.4 0.5
v -0.2 2.4 0.4
v -0.1 2.4 0.4
v 0 2.4 0.4
v 0.1 2.4 0.4
v -0.1 2.4 0.3
v 0 2.4 0.3
v -0.1 2.4 0.2
v 0 2.4 0.2
v -0.1 2.4 -0.2
v 0 2.4 -0.2
v -0.2 2.4 -0.4
v -0.1 2.4 -0.4
v 0 2.4 -0.4
v 0.1 2.4 -0.4
v -0.2 2.4 -0.5
v 0.1 2.4 -0.5
v -0.5 2.5 0.5
v -0.2 2.5 0.5
v -0.5 2.5 -0.5
v -0.2 2.5 -0.5

# faces
f 3/1/1 2/1/1 1/1/1
f 4/1/1 2/1/1 3/1/1
f 5/1/1 2/1/1 4/1/1
f 6/1/1 2/1/1 5/1/1
f 7/1/1 3/1/1 1/1/1
f 8/2/1 4/2/1 3/2/1
f 8/1/1 3/1/1 7/1/1
f 9/1/1 5/1/1 4/1/1
f 9/2/1 4/2/1 8/2/1
f 10/3/1 6/3/1 5/3/1
f 10/1/1 5/1/1 9/1/1
f 11/3/1 6/3/1 10/3/1
f 12/4/1 8/4/1 7/4/1
f 12/4/1 9/4/1 8/4/1
f 12/4/1 11/4/1 10/4/1
f 12/4/1 10/4/1 9/4/1
f 13/4/1 11/4/1 12/4/1
f 14/4/2 15/4/2 18/4/2
f 16/4/2 17/4/2 18/4/2
f 15/4/2 16/4/2 18/4/2
f 18/4/2 17/4/2 19/4/2
f 20/2/2 21/2/2 22/2/2
f 22/2/2 21/2/2 23/2/2
f 24/1/2 25/1/2 29/1/2
f 25/2/2 26/2/2 30/2/2
f 29/1/2 25/1/2 30/1/2
f 30/2/2 26/2/2 31/2/2
f 27/1/2 28/1/2 32/1/2
f 32/1/2 28/1/2 33/1/2
f 34/1/2 35/1/2 38/1/2
f 38/1/2 35/1/2 39/1/2
f 36/1/2 37/1/2 40/1/2
f 40/1/2 37/1/2 41/1/2
f 42/1/2 43/1/2 44/1/2
f 44/1/2 43/1/2 45/1/2
f 45/1/2 43/1/2 46/1/2
f 46/1/2 43/1/2 47/1/2
f 42/1/2 44/1/2 48/1/2
f 44/2/2 45/2/2 49/2/2
f 48/1/2 44/1/2 49/1/2
f 45/1/2 46/1/2 50/1/2
f 49/2/2 45/2/2 50/2/2
f 46/2/2 47/2/2 51/2/2
f 50/1/2 46/1/2 51/1/2
f 51/2/2 47/2/2 52/2/2
f 47/1/2 43/1/2 53/1/2
f 52/2/2 47/2/2 53/2/2
f 42/1/2 48/1/2 54/1/2
f 51/2/2 52/2/2 55/2/2
f 54/1/2 48/1/2 55/1/2
f 48/2/2 49/2/2 55/2/2
f 49/2/2 50/2/2 55/2/2
f 50/2/2 51/2/2 55/2/2
f 52/1/2 53/1/2 56/1/2
f 55/2/2 52/2/2 56/2/2
f 53/1/2 43/1/2 57/1/2
f 56/1/2 53/1/2 57/1/2
f 61/1/3 59/1/3 58/1/3
f 61/4/3 60/4/3 59/4/3
f 62/4/3 60/4/3 61/4/3
f 63/4/3 60/4/3 62/4/3
f 64/1/3 61/1/3 58/1/3
f 64/1/3 62/1/3 61/1/3
f 65/1/3 62/1/3 64/1/3
f 66/2/3 65/2/3 64/2/3
f 66/1/3 62/1/3 65/1/3
f 67/1/3 62/1/3 66/1/3
f 68/1/3 62/1/3 67/1/3
f 69/2/3 66/2/3 64/2/3
f 69/2/3 67/2/3 66/2/3
f 70/2/3 67/2/3 69/2/3
f 71/1/3 64/1/3 58/1/3
f 71/2/3 69/2/3 64/2/3
f 72/1/3 70/1/3 69/1/3
f 72/2/3 69/2/3 71/2/3
f 73/1/3 71/1/3 58/1/3
f 73/1/3 72/1/3 71/1/3
f 74/1/3 70/1/3 72/1/3
f 74/1/3 72/1/3 73/1/3
f 77/1/3 76/1/3 75/1/3
f 78/1/3 76/1/3 77/1/3
f 81/1/3 80/1/3 79/1/3
f 82/1/3 80/1/3 81/1/3
f 83/1/4 84/1/4 85/1/4
f 85/1/4 84/1/4 86/1/4
f 87/2/4 88/2/4 89/2/4
f 89/2/4 88/2/4 90/2/4
f 91/1/4 92/1/4 95/1/4
f 92/3/4 93/3/4 95/3/4
f 93/4/4 94/4/4 96/4/4
f 95/3/4 93/3/4 96/3/4
f 95/1/4 96/1/4 97/1/4
f 96/4/4 94/4/4 97/4/4
f 97/4/4 94/4/4 98/4/4
f 98/4/4 94/4/4 99/4/4
f 91/1/4 95/1/4 100/1/4
f 95/1/4 97/1/4 100/1/4
f 97/1/4 98/1/4 100/1/4
f 100/1/4 98/1/4 101/1/4
f 100/2/4 101/2/4 102/2/4
f 101/1/4 98/1/4 102/1/4
f 102/1/4 98/1/4 103/1/4
f 103/1/4 98/1/4 104/1/4
f 100/2/4 102/2/4 105/2/4
f 102/2/4 103/2/4 105/2/4
f 105/2/4 103/2/4 106/2/4
f 91/1/4 100/1/4 107/1/4
f 100/2/4 105/2/4 107/2/4
f 105/1/4 106/1/4 108/1/4
f 107/2/4 105/2/4 108/2/4
f 91/1/4 107/1/4 109/1/4
f 107/1/4 108/1/4 109/1/4
f 108/1/4 106/1/4 110/1/4
f 109/1/4 108/1/4 110/1/4
f 113/1/5 112/1/5 111/1/5
f 114/1/5 112/1/5 113/1/5
f 115/2/6 116/2/6 119/2/6
f 119/2/6 116/2/6 120/2/6
f 116/1/6 117/1/6 121/1/6
f 120/2/6 116/2/6 121/2/6
f 118/1/6 119/1/6 122/1/6
f 121/1/6 117/1/6 123/1/6
f 120/1/6 121/1/6 123/1/6
f 123/1/6 117/1/6 124/1/6
f 122/1/6 119/1/6 126/1/6
f 119/2/6 120/2/6 127/2/6
f 126/1/6 119/1/6 127/1/6
f 120/1/6 123/1/6 128/1/6
f 123/2/6 124/2/6 129/2/6
f 128/1/6 123/1/6 129/1/6
f 127/2/6 120/2/6 130/2/6
f 126/2/6 127/2/6 130/2/6
f 120/1/6 128/1/6 131/1/6
f 130/2/6 120/2/6 131/2/6
f 125/1/6 126/1/6 132/1/6
f 126/2/6 130/2/6 132/2/6
f 130/1/6 131/1/6 133/1/6
f 132/2/6 130/2/6 133/2/6
f 125/1/6 132/1/6 134/1/6
f 132/1/6 133/1/6 134/1/6
f 134/1/6 133/1/6 135/1/6
f 131/1/6 128/1/6 136/1/6
f 135/1/6 133/1/6 136/1/6
f 133/1/6 131/1/6 136/1/6
f 128/2/6 129/2/6 137/2/6
f 136/1/6 128/1/6 137/1/6
f 137/2/6 129/2/6 138/2/6
f 136/2/6 137/2/6 138/2/6
f 129/2/6 124/2/6 139/2/6
f 138/2/6 129/2/6 139/2/6
f 135/1/6 136/1/6 140/1/6
f 140/1/6 136/1/6 141/1/6
f 136/2/6 138/2/6 142/2/6
f 141/1/6 136/1/6 142/1/6
f 141/2/6 142/2/6 143/2/6
f 142/2/6 138/2/6 144/2/6
f 143/2/6 142/2/6 144/2/6
f 138/1/6 139/1/6 144/1/6
f 144/1/6 139/1/6 145/1/6
f 146/1/6 147/1/6 148/1/6
f 148/1/6 147/1/6 149/1/6
f 149/1/6 147/1/6 150/1/6
f 150/1/6 147/1/6 151/1/6
f 148/2/6 149/2/6 152/2/6
f 149/1/6 150/1/6 152/1/6
f 152/1/6 150/1/6 153/1/6
f 148/2/6 152/2/6 154/2/6
f 152/2/6 153/2/6 154/2/6
f 154/2/6 153/2/6 155/2/6
f 148/2/6 154/2/6 156/2/6
f 148/2/6 156/2/6 158/2/6
f 156/1/6 157/1/6 159/1/6
f 158/2/6 156/2/6 159/2/6
f 159/1/6 157/1/6 160/1/6
f 159/1/6 160/1/6 162/1/6
f 160/1/6 161/1/6 162/1/6
f 158/1/6 159/1/6 162/1/6
f 162/1/6 161/1/6 163/1/6
f 164/4/6 165/4/6 166/4/6
f 166/4/6 165/4/6 167/4/6
