# MagicaVoxel @ Ephtracy

# group
o 

# material
mtllib Lehm_kureve-1.0.mtl
usemtl palette

# normals
vn -1 0 0
vn 1 0 0
vn 0 0 1
vn 0 0 -1
vn 0 -1 0
vn 0 1 0

# texcoords
vt 0.845703 0.5
vt 0.849609 0.5
vt 0.919922 0.5
vt 0.923828 0.5

# verts
v -0.5 0 0.5
v -0.5 0 -0.5
v -0.5 0.6 -0.4
v -0.5 0.6 -0.5
v -0.5 0.7 -0.2
v -0.5 0.7 -0.4
v -0.5 0.7 -0.5
v -0.5 0.8 0.5
v -0.5 0.8 0.1
v -0.5 0.9 0.1
v -0.5 0.9 -0.2
v -0.5 1 -0.2
v -0.5 1 -0.5
v -0.4 0.8 0.2
v -0.4 0.8 0.1
v -0.4 0.9 0.2
v -0.4 0.9 0.1
v -0.4 0.9 -0.1
v -0.4 0.9 -0.2
v -0.4 1 -0.1
v -0.4 1 -0.2
v -0.3 0.8 0.3
v -0.3 0.8 0.2
v -0.3 0.9 0.3
v -0.3 0.9 0.2
v -0.3 0.9 0
v -0.3 0.9 -0.1
v -0.3 1 0
v -0.3 1 -0.1
v -0.1 0.8 0.4
v -0.1 0.8 0.3
v -0.1 0.9 0.4
v -0.1 0.9 0.3
v -0.2 0.9 -0.3
v -0.2 0.9 -0.5
v -0.2 1 -0.3
v -0.2 1 -0.5
v -0.1 0.9 0
v -0.1 0.9 -0.3
v -0.1 1 0
v -0.1 1 -0.3
v 0.1 0.8 -0.2
v 0.1 0.8 -0.5
v 0.1 0.9 -0.2
v 0.1 0.9 -0.5
v 0.2 0.8 0.4
v 0.2 0.8 0.2
v 0.2 0.8 -0.1
v 0.2 0.8 -0.2
v 0.2 0.9 0.4
v 0.2 0.9 0.2
v 0.2 0.9 -0.1
v 0.2 0.9 -0.2
v 0.3 0.8 0.2
v 0.3 0.8 -0.1
v 0.3 0.9 0.2
v 0.3 0.9 -0.1
v 0.5 0 0.5
v 0.5 0 -0.5
v 0.5 0.6 -0.2
v 0.5 0.6 -0.4
v 0.5 0.7 -0.2
v 0.5 0.7 -0.4
v 0.5 0.8 0.5
v 0.5 0.8 -0.5
v -0.5 0 0.5
v -0.5 0.8 0.5
v 0.5 0 0.5
v 0.5 0.8 0.5
v -0.1 0.8 0.4
v -0.1 0.9 0.4
v 0.2 0.8 0.4
v 0.2 0.9 0.4
v -0.3 0.8 0.3
v -0.3 0.9 0.3
v -0.1 0.8 0.3
v -0.1 0.9 0.3
v -0.4 0.8 0.2
v -0.4 0.9 0.2
v -0.3 0.8 0.2
v -0.3 0.9 0.2
v 0.2 0.8 0.2
v 0.2 0.9 0.2
v 0.3 0.8 0.2
v 0.3 0.9 0.2
v -0.5 0.8 0.1
v -0.5 0.9 0.1
v -0.4 0.8 0.1
v -0.4 0.9 0.1
v -0.3 0.9 0
v -0.3 1 0
v -0.1 0.9 0
v -0.1 1 0
v -0.4 0.9 -0.1
v -0.4 1 -0.1
v -0.3 0.9 -0.1
v -0.3 1 -0.1
v -0.5 0.9 -0.2
v -0.5 1 -0.2
v -0.4 0.9 -0.2
v -0.4 1 -0.2
v 0.2 0.8 -0.1
v 0.2 0.9 -0.1
v 0.3 0.8 -0.1
v 0.3 0.9 -0.1
v 0.1 0.8 -0.2
v 0.1 0.9 -0.2
v 0.2 0.8 -0.2
v 0.2 0.9 -0.2
v -0.2 0.9 -0.3
v -0.2 1 -0.3
v -0.1 0.9 -0.3
v -0.1 1 -0.3
v -0.5 0 -0.5
v -0.5 0.6 -0.5
v -0.5 0.7 -0.5
v -0.5 1 -0.5
v -0.3 0.6 -0.5
v -0.3 0.7 -0.5
v -0.2 0.7 -0.5
v -0.2 0.9 -0.5
v -0.2 1 -0.5
v 0 0.6 -0.5
v 0 0.7 -0.5
v 0.1 0.8 -0.5
v 0.1 0.9 -0.5
v 0.4 0.6 -0.5
v 0.4 0.7 -0.5
v 0.5 0 -0.5
v 0.5 0.8 -0.5
v -0.5 0 0.5
v 0.5 0 0.5
v -0.5 0 -0.5
v 0.5 0 -0.5
v -0.5 0.8 0.5
v 0.5 0.8 0.5
v -0.1 0.8 0.4
v 0.2 0.8 0.4
v -0.3 0.8 0.3
v -0.1 0.8 0.3
v -0.4 0.8 0.2
v -0.3 0.8 0.2
v 0.2 0.8 0.2
v 0.3 0.8 0.2
v -0.5 0.8 0.1
v -0.4 0.8 0.1
v 0.2 0.8 -0.1
v 0.3 0.8 -0.1
v 0.1 0.8 -0.2
v 0.2 0.8 -0.2
v 0.1 0.8 -0.5
v 0.5 0.8 -0.5
v -0.1 0.9 0.4
v 0.2 0.9 0.4
v -0.3 0.9 0.3
v -0.1 0.9 0.3
v -0.4 0.9 0.2
v -0.3 0.9 0.2
v 0.2 0.9 0.2
v 0.3 0.9 0.2
v -0.5 0.9 0.1
v -0.4 0.9 0.1
v -0.3 0.9 0
v -0.1 0.9 0
v -0.4 0.9 -0.1
v -0.3 0.9 -0.1
v 0.2 0.9 -0.1
v 0.3 0.9 -0.1
v -0.5 0.9 -0.2
v -0.4 0.9 -0.2
v 0.1 0.9 -0.2
v 0.2 0.9 -0.2
v -0.2 0.9 -0.3
v -0.1 0.9 -0.3
v -0.2 0.9 -0.5
v 0.1 0.9 -0.5
v -0.3 1 0
v -0.1 1 0
v -0.4 1 -0.1
v -0.3 1 -0.1
v -0.5 1 -0.2
v -0.4 1 -0.2
v -0.2 1 -0.3
v -0.1 1 -0.3
v -0.5 1 -0.5
v -0.2 1 -0.5

# faces
f 3/1/1 2/1/1 1/1/1
f 4/1/1 2/1/1 3/1/1
f 5/1/1 3/1/1 1/1/1
f 6/3/1 4/3/1 3/3/1
f 6/1/1 3/1/1 5/1/1
f 7/3/1 4/3/1 6/3/1
f 8/1/1 5/1/1 1/1/1
f 9/1/1 5/1/1 8/1/1
f 10/1/1 5/1/1 9/1/1
f 11/4/1 6/4/1 5/4/1
f 11/1/1 5/1/1 10/1/1
f 11/4/1 7/4/1 6/4/1
f 12/4/1 7/4/1 11/4/1
f 13/4/1 7/4/1 12/4/1
f 16/1/1 15/1/1 14/1/1
f 17/1/1 15/1/1 16/1/1
f 20/4/1 19/4/1 18/4/1
f 21/4/1 19/4/1 20/4/1
f 24/1/1 23/1/1 22/1/1
f 25/1/1 23/1/1 24/1/1
f 28/4/1 27/4/1 26/4/1
f 29/4/1 27/4/1 28/4/1
f 32/1/1 31/1/1 30/1/1
f 33/1/1 31/1/1 32/1/1
f 34/4/2 35/4/2 36/4/2
f 36/4/2 35/4/2 37/4/2
f 38/4/2 39/4/2 40/4/2
f 40/4/2 39/4/2 41/4/2
f 42/1/2 43/1/2 44/1/2
f 44/1/2 43/1/2 45/1/2
f 46/1/2 47/1/2 50/1/2
f 50/1/2 47/1/2 51/1/2
f 48/1/2 49/1/2 52/1/2
f 52/1/2 49/1/2 53/1/2
f 54/1/2 55/1/2 56/1/2
f 56/1/2 55/1/2 57/1/2
f 58/1/2 59/1/2 60/1/2
f 60/1/2 59/1/2 61/1/2
f 58/1/2 60/1/2 62/1/2
f 60/2/2 61/2/2 62/2/2
f 61/1/2 59/1/2 63/1/2
f 62/2/2 61/2/2 63/2/2
f 58/1/2 62/1/2 64/1/2
f 62/1/2 63/1/2 64/1/2
f 63/1/2 59/1/2 65/1/2
f 64/1/2 63/1/2 65/1/2
f 68/1/3 67/1/3 66/1/3
f 69/1/3 67/1/3 68/1/3
f 72/1/3 71/1/3 70/1/3
f 73/1/3 71/1/3 72/1/3
f 76/1/3 75/1/3 74/1/3
f 77/1/3 75/1/3 76/1/3
f 80/1/3 79/1/3 78/1/3
f 81/1/3 79/1/3 80/1/3
f 84/1/3 83/1/3 82/1/3
f 85/1/3 83/1/3 84/1/3
f 88/1/3 87/1/3 86/1/3
f 89/1/3 87/1/3 88/1/3
f 92/4/3 91/4/3 90/4/3
f 93/4/3 91/4/3 92/4/3
f 96/4/3 95/4/3 94/4/3
f 97/4/3 95/4/3 96/4/3
f 100/4/3 99/4/3 98/4/3
f 101/4/3 99/4/3 100/4/3
f 102/1/4 103/1/4 104/1/4
f 104/1/4 103/1/4 105/1/4
f 106/1/4 107/1/4 108/1/4
f 108/1/4 107/1/4 109/1/4
f 110/4/4 111/4/4 112/4/4
f 112/4/4 111/4/4 113/4/4
f 114/1/4 115/1/4 118/1/4
f 115/3/4 116/3/4 118/3/4
f 116/4/4 117/4/4 119/4/4
f 118/3/4 116/3/4 119/3/4
f 118/1/4 119/1/4 120/1/4
f 119/4/4 117/4/4 120/4/4
f 120/4/4 117/4/4 121/4/4
f 121/4/4 117/4/4 122/4/4
f 114/1/4 118/1/4 123/1/4
f 118/1/4 120/1/4 123/1/4
f 120/1/4 121/1/4 123/1/4
f 123/1/4 121/1/4 124/1/4
f 124/1/4 121/1/4 125/1/4
f 125/1/4 121/1/4 126/1/4
f 114/1/4 123/1/4 127/1/4
f 123/2/4 124/2/4 127/2/4
f 124/1/4 125/1/4 128/1/4
f 127/2/4 124/2/4 128/2/4
f 114/1/4 127/1/4 129/1/4
f 127/1/4 128/1/4 129/1/4
f 128/1/4 125/1/4 130/1/4
f 129/1/4 128/1/4 130/1/4
f 133/1/5 132/1/5 131/1/5
f 134/1/5 132/1/5 133/1/5
f 135/1/6 136/1/6 137/1/6
f 137/1/6 136/1/6 138/1/6
f 135/1/6 137/1/6 139/1/6
f 139/1/6 137/1/6 140/1/6
f 135/1/6 139/1/6 141/1/6
f 141/1/6 139/1/6 142/1/6
f 138/1/6 136/1/6 143/1/6
f 143/1/6 136/1/6 144/1/6
f 135/1/6 141/1/6 145/1/6
f 145/1/6 141/1/6 146/1/6
f 144/1/6 136/1/6 148/1/6
f 147/1/6 148/1/6 150/1/6
f 149/1/6 150/1/6 151/1/6
f 148/1/6 136/1/6 152/1/6
f 151/1/6 150/1/6 152/1/6
f 150/1/6 148/1/6 152/1/6
f 153/1/6 154/1/6 156/1/6
f 155/1/6 156/1/6 158/1/6
f 156/1/6 154/1/6 159/1/6
f 158/1/6 156/1/6 159/1/6
f 157/1/6 158/1/6 162/1/6
f 159/1/6 160/1/6 162/1/6
f 158/1/6 159/1/6 162/1/6
f 162/1/6 160/1/6 163/1/6
f 161/1/6 162/1/6 163/1/6
f 163/1/6 160/1/6 164/1/6
f 161/1/6 163/1/6 165/1/6
f 165/1/6 163/1/6 166/1/6
f 164/1/6 160/1/6 167/1/6
f 167/1/6 160/1/6 168/1/6
f 161/1/6 165/1/6 169/1/6
f 169/1/6 165/1/6 170/1/6
f 164/1/6 167/1/6 171/1/6
f 171/1/6 167/1/6 172/1/6
f 164/1/6 171/1/6 174/1/6
f 173/1/6 174/1/6 175/1/6
f 174/1/6 171/1/6 176/1/6
f 175/1/6 174/1/6 176/1/6
f 177/4/6 178/4/6 180/4/6
f 179/4/6 180/4/6 182/4/6
f 180/4/6 178/4/6 183/4/6
f 181/4/6 182/4/6 183/4/6
f 182/4/6 180/4/6 183/4/6
f 183/4/6 178/4/6 184/4/6
f 181/4/6 183/4/6 185/4/6
f 185/4/6 183/4/6 186/4/6
