# MagicaVoxel @ Ephtracy

# group
o 

# material
mtllib MIne_1-0.mtl
usemtl palette

# normals
vn -1 0 0
vn 1 0 0
vn 0 0 1
vn 0 0 -1
vn 0 -1 0
vn 0 1 0

# texcoords
vt 0.0683594 0.5
vt 0.0722656 0.5
vt 0.0761719 0.5

# verts
v 5 0 0.3
v 5 0 -3.4
v 5 0.1 0.3
v 5 0.1 -3.4
v 5.1 0 -3.4
v 5.1 0 -3.6
v 5.1 0.1 -3.4
v 5.1 0.1 -3.6
v 5.7 0 -3.6
v 5.7 0 -3.7
v 5.7 0.1 -3.6
v 5.7 0.1 -3.7
v 6.1 0 3.1
v 6.1 0 0.3
v 6.1 0 -3.7
v 6.1 0 -3.8
v 6.1 0.1 3.1
v 6.1 0.1 0.3
v 6.1 0.1 -3.7
v 6.1 0.1 -3.8
v 6.2 0 -3.8
v 6.2 0 -3.9
v 6.2 0.1 -3.8
v 6.2 0.1 -3.9
v 6.3 0 -3.9
v 6.3 0 -4
v 6.3 0.1 -3.9
v 6.3 0.1 -4
v 6.4 0.1 -3.6
v 6.4 0.1 -3.7
v 6.4 0.1 -3.8
v 6.4 0.2 -3.6
v 6.4 0.2 -3.8
v 6.8 0.1 -3.5
v 6.8 0.1 -3.6
v 6.8 0.2 -3.5
v 6.8 0.2 -3.6
v 6.9 0.1 -3.7
v 6.9 0.1 -3.8
v 6.9 0.2 -3.7
v 6.9 0.2 -3.8
v 7.2 0.1 -3.6
v 7.2 0.1 -3.7
v 7.2 0.1 -3.8
v 7.2 0.2 -3.6
v 7.2 0.2 -3.8
v 7.3 0 -3.9
v 7.3 0 -4
v 7.3 0.1 -3.9
v 7.3 0.1 -4
v 8.3 0.1 -3.5
v 8.3 0.1 -3.6
v 8.3 0.2 -3.5
v 8.3 0.2 -3.6
v 8.6 0.1 -3.6
v 8.6 0.1 -3.7
v 8.6 0.2 -3.6
v 8.6 0.2 -3.7
v 9.2 0 -3.8
v 9.2 0 -3.9
v 9.2 0.1 -3.8
v 9.2 0.1 -3.9
v 10 0 -3.9
v 10 0 -4
v 10 0.1 -3.9
v 10 0.1 -4
v 10.3 0.1 -3.7
v 10.3 0.1 -3.9
v 10.3 0.2 -3.7
v 10.3 0.2 -3.9
v 12 0 0.4
v 12 0 0.3
v 12 0.1 0.4
v 12 0.1 0.3
v 12.1 0.1 0.3
v 12.1 0.1 -0.2
v 12.1 0.2 0.3
v 12.1 0.2 -0.2
v 12.2 0.1 -0.2
v 12.2 0.1 -0.3
v 12.2 0.2 -0.2
v 12.2 0.2 -0.3
v 6.5 0.1 -3.7
v 6.5 0.1 -3.8
v 6.5 0.2 -3.7
v 6.5 0.2 -3.8
v 7 0.1 -3.5
v 7 0.1 -3.6
v 7 0.2 -3.5
v 7 0.2 -3.6
v 7.1 0 -3.9
v 7.1 0 -4
v 7.1 0.1 -3.6
v 7.1 0.1 -3.7
v 7.1 0.1 -3.8
v 7.1 0.1 -3.9
v 7.1 0.1 -4
v 7.1 0.2 -3.6
v 7.1 0.2 -3.8
v 7.3 0.1 -3.7
v 7.3 0.1 -3.8
v 7.3 0.2 -3.7
v 7.3 0.2 -3.8
v 8 0 -3.9
v 8 0 -4
v 8 0.1 -3.9
v 8 0.1 -4
v 8.4 0.1 -3.6
v 8.4 0.1 -3.7
v 8.4 0.2 -3.6
v 8.4 0.2 -3.7
v 8.7 0 -3.8
v 8.7 0 -3.9
v 8.7 0.1 -3.8
v 8.7 0.1 -3.9
v 9.4 0.1 -3.5
v 9.4 0.1 -3.6
v 9.4 0.2 -3.5
v 9.4 0.2 -3.6
v 9.9 0.1 -3.6
v 9.9 0.1 -3.7
v 9.9 0.2 -3.6
v 9.9 0.2 -3.7
v 10.2 0 -3.9
v 10.2 0 -4
v 10.2 0.1 -3.9
v 10.2 0.1 -4
v 10.3 0 3.1
v 10.3 0 1.2
v 10.3 0.1 3.1
v 10.3 0.1 1.2
v 10.4 0 1.2
v 10.4 0 1.1
v 10.4 0.1 1.2
v 10.4 0.1 1.1
v 10.4 0.1 -3.7
v 10.4 0.1 -3.8
v 10.4 0.2 -3.7
v 10.4 0.2 -3.8
v 10.5 0.1 -3.8
v 10.5 0.1 -3.9
v 10.5 0.2 -3.8
v 10.5 0.2 -3.9
v 11 0 1.1
v 11 0 0.8
v 11 0.1 1.1
v 11 0.1 0.8
v 11.1 0 -3.8
v 11.1 0 -3.9
v 11.1 0.1 -3.8
v 11.1 0.1 -3.9
v 11.5 0 -3.7
v 11.5 0 -3.8
v 11.5 0.1 -3.7
v 11.5 0.1 -3.8
v 11.8 0 -3.6
v 11.8 0 -3.7
v 11.8 0.1 -3.6
v 11.8 0.1 -3.7
v 11.9 0 0.8
v 11.9 0 0.5
v 11.9 0 0.4
v 11.9 0 0.3
v 11.9 0 -3.3
v 11.9 0 -3.6
v 11.9 0.1 0.8
v 11.9 0.1 0.5
v 11.9 0.1 0.4
v 11.9 0.1 0.3
v 11.9 0.1 -3.3
v 11.9 0.1 -3.6
v 12 0 -3.1
v 12 0 -3.3
v 12 0.1 -3.1
v 12 0.1 -3.3
v 12.1 0 -2.8
v 12.1 0 -3.1
v 12.1 0.1 -2.8
v 12.1 0.1 -3.1
v 12.2 0 0.5
v 12.2 0 0.3
v 12.2 0 -0.7
v 12.2 0 -2.8
v 12.2 0.1 0.5
v 12.2 0.1 0.3
v 12.2 0.1 0
v 12.2 0.1 -0.7
v 12.2 0.1 -2.8
v 12.2 0.2 0.3
v 12.2 0.2 0
v 12.3 0 0.3
v 12.3 0 0.0999999
v 12.3 0 -0.5
v 12.3 0 -0.7
v 12.3 0.1 0.3
v 12.3 0.1 0.0999999
v 12.3 0.1 0
v 12.3 0.1 -0.0999999
v 12.3 0.1 -0.2
v 12.3 0.1 -0.3
v 12.3 0.1 -0.5
v 12.3 0.1 -0.7
v 12.3 0.2 0
v 12.3 0.2 -0.0999999
v 12.3 0.2 -0.2
v 12.3 0.2 -0.3
v 12.4 0 0
v 12.4 0 -0.0999999
v 12.4 0 -0.4
v 12.4 0 -0.5
v 12.4 0.1 0
v 12.4 0.1 -0.0999999
v 12.4 0.1 -0.2
v 12.4 0.1 -0.4
v 12.4 0.1 -0.5
v 12.4 0.2 -0.0999999
v 12.4 0.2 -0.2
v 12.5 0 0.0999999
v 12.5 0 0
v 12.5 0 -0.0999999
v 12.5 0 -0.4
v 12.5 0.1 0.0999999
v 12.5 0.1 0
v 12.5 0.1 -0.0999999
v 12.5 0.1 -0.4
v 6.1 0 3.1
v 6.1 0.1 3.1
v 10.3 0 3.1
v 10.3 0.1 3.1
v 10.3 0 1.2
v 10.3 0.1 1.2
v 10.4 0 1.2
v 10.4 0.1 1.2
v 10.4 0 1.1
v 10.4 0.1 1.1
v 11 0 1.1
v 11 0.1 1.1
v 11 0 0.8
v 11 0.1 0.8
v 11.9 0 0.8
v 11.9 0.1 0.8
v 11.9 0 0.5
v 11.9 0.1 0.5
v 12.2 0 0.5
v 12.2 0.1 0.5
v 5 0 0.3
v 5 0.1 0.3
v 6.1 0 0.3
v 6.1 0.1 0.3
v 11.9 0 0.3
v 11.9 0.1 0.3
v 12 0 0.3
v 12 0.1 0.3
v 12.1 0.1 0.3
v 12.1 0.2 0.3
v 12.2 0 0.3
v 12.2 0.1 0.3
v 12.2 0.2 0.3
v 12.3 0 0.3
v 12.3 0.1 0.3
v 12.3 0 0.0999999
v 12.3 0.1 0.0999999
v 12.5 0 0.0999999
v 12.5 0.1 0.0999999
v 12.2 0.1 0
v 12.2 0.2 0
v 12.3 0.1 0
v 12.3 0.2 0
v 12.3 0.1 -0.0999999
v 12.3 0.2 -0.0999999
v 12.4 0 -0.0999999
v 12.4 0.1 -0.0999999
v 12.4 0.2 -0.0999999
v 12.5 0 -0.0999999
v 12.5 0.1 -0.0999999
v 6.8 0.1 -3.5
v 6.8 0.2 -3.5
v 7 0.1 -3.5
v 7 0.2 -3.5
v 8.3 0.1 -3.5
v 8.3 0.2 -3.5
v 9.4 0.1 -3.5
v 9.4 0.2 -3.5
v 6.4 0.1 -3.6
v 6.4 0.2 -3.6
v 6.8 0.1 -3.6
v 6.8 0.2 -3.6
v 7 0.1 -3.6
v 7 0.2 -3.6
v 7.1 0.1 -3.6
v 7.1 0.2 -3.6
v 7.2 0.1 -3.6
v 7.2 0.2 -3.6
v 8.3 0.1 -3.6
v 8.3 0.2 -3.6
v 9.4 0.1 -3.6
v 9.4 0.2 -3.6
v 9.9 0.1 -3.6
v 9.9 0.2 -3.6
v 10.3 0.1 -3.7
v 10.3 0.2 -3.7
v 10.4 0.1 -3.7
v 10.4 0.2 -3.7
v 10.4 0.1 -3.8
v 10.4 0.2 -3.8
v 10.5 0.1 -3.8
v 10.5 0.2 -3.8
v 11.9 0 0.4
v 11.9 0.1 0.4
v 12 0 0.4
v 12 0.1 0.4
v 12.4 0 0
v 12.4 0.1 0
v 12.5 0 0
v 12.5 0.1 0
v 12.1 0.1 -0.2
v 12.1 0.2 -0.2
v 12.2 0.1 -0.2
v 12.2 0.2 -0.2
v 12.3 0.1 -0.2
v 12.3 0.2 -0.2
v 12.4 0.1 -0.2
v 12.4 0.2 -0.2
v 12.2 0.1 -0.3
v 12.2 0.2 -0.3
v 12.3 0.1 -0.3
v 12.3 0.2 -0.3
v 12.4 0 -0.4
v 12.4 0.1 -0.4
v 12.5 0 -0.4
v 12.5 0.1 -0.4
v 12.3 0 -0.5
v 12.3 0.1 -0.5
v 12.4 0 -0.5
v 12.4 0.1 -0.5
v 12.2 0 -0.7
v 12.2 0.1 -0.7
v 12.3 0 -0.7
v 12.3 0.1 -0.7
v 12.1 0 -2.8
v 12.1 0.1 -2.8
v 12.2 0 -2.8
v 12.2 0.1 -2.8
v 12 0 -3.1
v 12 0.1 -3.1
v 12.1 0 -3.1
v 12.1 0.1 -3.1
v 11.9 0 -3.3
v 11.9 0.1 -3.3
v 12 0 -3.3
v 12 0.1 -3.3
v 5 0 -3.4
v 5 0.1 -3.4
v 5.1 0 -3.4
v 5.1 0.1 -3.4
v 5.1 0 -3.6
v 5.1 0.1 -3.6
v 5.7 0 -3.6
v 5.7 0.1 -3.6
v 8.4 0.1 -3.6
v 8.4 0.2 -3.6
v 8.6 0.1 -3.6
v 8.6 0.2 -3.6
v 11.8 0 -3.6
v 11.8 0.1 -3.6
v 11.9 0 -3.6
v 11.9 0.1 -3.6
v 5.7 0 -3.7
v 5.7 0.1 -3.7
v 6.1 0 -3.7
v 6.1 0.1 -3.7
v 6.5 0.1 -3.7
v 6.5 0.2 -3.7
v 6.9 0.1 -3.7
v 6.9 0.2 -3.7
v 7.3 0.1 -3.7
v 7.3 0.2 -3.7
v 8.4 0.1 -3.7
v 8.4 0.2 -3.7
v 8.6 0.1 -3.7
v 8.6 0.2 -3.7
v 9.9 0.1 -3.7
v 9.9 0.2 -3.7
v 11.5 0 -3.7
v 11.5 0.1 -3.7
v 11.8 0 -3.7
v 11.8 0.1 -3.7
v 6.1 0 -3.8
v 6.1 0.1 -3.8
v 6.2 0 -3.8
v 6.2 0.1 -3.8
v 6.4 0.1 -3.8
v 6.4 0.2 -3.8
v 6.5 0.1 -3.8
v 6.5 0.2 -3.8
v 6.9 0.1 -3.8
v 6.9 0.2 -3.8
v 7.1 0.1 -3.8
v 7.1 0.2 -3.8
v 7.2 0.1 -3.8
v 7.2 0.2 -3.8
v 7.3 0.1 -3.8
v 7.3 0.2 -3.8
v 8.7 0 -3.8
v 8.7 0.1 -3.8
v 9.2 0 -3.8
v 9.2 0.1 -3.8
v 11.1 0 -3.8
v 11.1 0.1 -3.8
v 11.5 0 -3.8
v 11.5 0.1 -3.8
v 6.2 0 -3.9
v 6.2 0.1 -3.9
v 6.3 0 -3.9
v 6.3 0.1 -3.9
v 7.1 0 -3.9
v 7.1 0.1 -3.9
v 7.3 0 -3.9
v 7.3 0.1 -3.9
v 8 0 -3.9
v 8 0.1 -3.9
v 8.7 0 -3.9
v 8.7 0.1 -3.9
v 9.2 0 -3.9
v 9.2 0.1 -3.9
v 10 0 -3.9
v 10 0.1 -3.9
v 10.2 0 -3.9
v 10.2 0.1 -3.9
v 10.3 0.1 -3.9
v 10.3 0.2 -3.9
v 10.5 0.1 -3.9
v 10.5 0.2 -3.9
v 11.1 0 -3.9
v 11.1 0.1 -3.9
v 6.3 0 -4
v 6.3 0.1 -4
v 7.1 0 -4
v 7.1 0.1 -4
v 7.3 0 -4
v 7.3 0.1 -4
v 8 0 -4
v 8 0.1 -4
v 10 0 -4
v 10 0.1 -4
v 10.2 0 -4
v 10.2 0.1 -4
v 6.1 0 3.1
v 10.3 0 3.1
v 10.3 0 1.2
v 10.4 0 1.2
v 10.4 0 1.1
v 11 0 1.1
v 11 0 0.8
v 11.9 0 0.8
v 11.9 0 0.5
v 12.2 0 0.5
v 11.9 0 0.4
v 12 0 0.4
v 5 0 0.3
v 6.1 0 0.3
v 11.9 0 0.3
v 12 0 0.3
v 12.2 0 0.3
v 12.3 0 0.3
v 12.3 0 0.0999999
v 12.5 0 0.0999999
v 12.4 0 0
v 12.5 0 0
v 12.2 0 -0.0999999
v 12.3 0 -0.0999999
v 12.4 0 -0.0999999
v 12.5 0 -0.0999999
v 12.2 0 -0.2
v 12.3 0 -0.2
v 12.4 0 -0.2
v 12.4 0 -0.4
v 12.5 0 -0.4
v 12.3 0 -0.5
v 12.4 0 -0.5
v 12.2 0 -0.7
v 12.3 0 -0.7
v 12.1 0 -2.8
v 12.2 0 -2.8
v 12 0 -3.1
v 12.1 0 -3.1
v 11.9 0 -3.3
v 12 0 -3.3
v 5 0 -3.4
v 5.1 0 -3.4
v 5.1 0 -3.6
v 5.7 0 -3.6
v 11.8 0 -3.6
v 11.9 0 -3.6
v 5.7 0 -3.7
v 6.1 0 -3.7
v 11.5 0 -3.7
v 11.8 0 -3.7
v 6.1 0 -3.8
v 6.2 0 -3.8
v 8.7 0 -3.8
v 9.2 0 -3.8
v 11.1 0 -3.8
v 11.5 0 -3.8
v 6.2 0 -3.9
v 6.3 0 -3.9
v 7.1 0 -3.9
v 7.3 0 -3.9
v 8 0 -3.9
v 8.7 0 -3.9
v 9.2 0 -3.9
v 10 0 -3.9
v 10.2 0 -3.9
v 11.1 0 -3.9
v 6.3 0 -4
v 7.1 0 -4
v 7.3 0 -4
v 8 0 -4
v 10 0 -4
v 10.2 0 -4
v 6.1 0.1 3.1
v 10.3 0.1 3.1
v 10.3 0.1 1.2
v 10.4 0.1 1.2
v 10.4 0.1 1.1
v 11 0.1 1.1
v 11 0.1 0.8
v 11.9 0.1 0.8
v 11.9 0.1 0.5
v 12.2 0.1 0.5
v 11.9 0.1 0.4
v 12 0.1 0.4
v 5 0.1 0.3
v 6.1 0.1 0.3
v 11.9 0.1 0.3
v 12 0.1 0.3
v 12.1 0.1 0.3
v 12.2 0.1 0.3
v 12.3 0.1 0.3
v 12.3 0.1 0.0999999
v 12.5 0.1 0.0999999
v 12.2 0.1 0
v 12.3 0.1 0
v 12.4 0.1 0
v 12.5 0.1 0
v 12.3 0.1 -0.0999999
v 12.4 0.1 -0.0999999
v 12.5 0.1 -0.0999999
v 12.1 0.1 -0.2
v 12.2 0.1 -0.2
v 12.3 0.1 -0.2
v 12.4 0.1 -0.2
v 12.2 0.1 -0.3
v 12.3 0.1 -0.3
v 12.4 0.1 -0.4
v 12.5 0.1 -0.4
v 12.3 0.1 -0.5
v 12.4 0.1 -0.5
v 12.2 0.1 -0.7
v 12.3 0.1 -0.7
v 12.1 0.1 -2.8
v 12.2 0.1 -2.8
v 12 0.1 -3.1
v 12.1 0.1 -3.1
v 11.9 0.1 -3.3
v 12 0.1 -3.3
v 5 0.1 -3.4
v 5.1 0.1 -3.4
v 6.8 0.1 -3.5
v 7 0.1 -3.5
v 8.3 0.1 -3.5
v 9.4 0.1 -3.5
v 5.1 0.1 -3.6
v 5.7 0.1 -3.6
v 6.4 0.1 -3.6
v 6.8 0.1 -3.6
v 7 0.1 -3.6
v 7.1 0.1 -3.6
v 7.2 0.1 -3.6
v 8.3 0.1 -3.6
v 8.4 0.1 -3.6
v 8.6 0.1 -3.6
v 9.4 0.1 -3.6
v 9.9 0.1 -3.6
v 11.8 0.1 -3.6
v 11.9 0.1 -3.6
v 5.7 0.1 -3.7
v 6.1 0.1 -3.7
v 6.4 0.1 -3.7
v 6.5 0.1 -3.7
v 6.9 0.1 -3.7
v 7.1 0.1 -3.7
v 7.2 0.1 -3.7
v 7.3 0.1 -3.7
v 8.4 0.1 -3.7
v 8.6 0.1 -3.7
v 9.9 0.1 -3.7
v 10.3 0.1 -3.7
v 10.4 0.1 -3.7
v 11.5 0.1 -3.7
v 11.8 0.1 -3.7
v 6.1 0.1 -3.8
v 6.2 0.1 -3.8
v 6.4 0.1 -3.8
v 6.5 0.1 -3.8
v 6.9 0.1 -3.8
v 7.1 0.1 -3.8
v 7.2 0.1 -3.8
v 7.3 0.1 -3.8
v 8.7 0.1 -3.8
v 9.2 0.1 -3.8
v 10.4 0.1 -3.8
v 10.5 0.1 -3.8
v 11.1 0.1 -3.8
v 11.5 0.1 -3.8
v 6.2 0.1 -3.9
v 6.3 0.1 -3.9
v 7.1 0.1 -3.9
v 7.3 0.1 -3.9
v 8 0.1 -3.9
v 8.7 0.1 -3.9
v 9.2 0.1 -3.9
v 10 0.1 -3.9
v 10.2 0.1 -3.9
v 10.3 0.1 -3.9
v 10.5 0.1 -3.9
v 11.1 0.1 -3.9
v 6.3 0.1 -4
v 7.1 0.1 -4
v 7.3 0.1 -4
v 8 0.1 -4
v 10 0.1 -4
v 10.2 0.1 -4
v 12.1 0.2 0.3
v 12.2 0.2 0.3
v 12.2 0.2 0
v 12.3 0.2 0
v 12.3 0.2 -0.0999999
v 12.4 0.2 -0.0999999
v 12.1 0.2 -0.2
v 12.2 0.2 -0.2
v 12.3 0.2 -0.2
v 12.4 0.2 -0.2
v 12.2 0.2 -0.3
v 12.3 0.2 -0.3
v 6.8 0.2 -3.5
v 7 0.2 -3.5
v 8.3 0.2 -3.5
v 9.4 0.2 -3.5
v 6.4 0.2 -3.6
v 6.8 0.2 -3.6
v 7 0.2 -3.6
v 7.1 0.2 -3.6
v 7.2 0.2 -3.6
v 8.3 0.2 -3.6
v 8.4 0.2 -3.6
v 8.6 0.2 -3.6
v 9.4 0.2 -3.6
v 9.9 0.2 -3.6
v 6.5 0.2 -3.7
v 6.9 0.2 -3.7
v 7.3 0.2 -3.7
v 8.4 0.2 -3.7
v 8.6 0.2 -3.7
v 9.9 0.2 -3.7
v 10.3 0.2 -3.7
v 10.4 0.2 -3.7
v 6.4 0.2 -3.8
v 6.5 0.2 -3.8
v 6.9 0.2 -3.8
v 7.1 0.2 -3.8
v 7.2 0.2 -3.8
v 7.3 0.2 -3.8
v 10.4 0.2 -3.8
v 10.5 0.2 -3.8
v 10.3 0.2 -3.9
v 10.5 0.2 -3.9

# faces
f 3/1/1 2/1/1 1/1/1
f 4/1/1 2/1/1 3/1/1
f 7/1/1 6/1/1 5/1/1
f 8/1/1 6/1/1 7/1/1
f 11/1/1 10/1/1 9/1/1
f 12/1/1 10/1/1 11/1/1
f 17/1/1 14/1/1 13/1/1
f 18/1/1 14/1/1 17/1/1
f 19/2/1 16/2/1 15/2/1
f 20/2/1 16/2/1 19/2/1
f 23/2/1 22/2/1 21/2/1
f 24/2/1 22/2/1 23/2/1
f 27/2/1 26/2/1 25/2/1
f 28/2/1 26/2/1 27/2/1
f 32/2/1 30/2/1 29/2/1
f 32/2/1 31/2/1 30/2/1
f 33/2/1 31/2/1 32/2/1
f 36/2/1 35/2/1 34/2/1
f 37/2/1 35/2/1 36/2/1
f 40/2/1 39/2/1 38/2/1
f 41/2/1 39/2/1 40/2/1
f 45/2/1 43/2/1 42/2/1
f 45/2/1 44/2/1 43/2/1
f 46/2/1 44/2/1 45/2/1
f 49/2/1 48/2/1 47/2/1
f 50/2/1 48/2/1 49/2/1
f 53/2/1 52/2/1 51/2/1
f 54/2/1 52/2/1 53/2/1
f 57/2/1 56/2/1 55/2/1
f 58/2/1 56/2/1 57/2/1
f 61/2/1 60/2/1 59/2/1
f 62/2/1 60/2/1 61/2/1
f 65/2/1 64/2/1 63/2/1
f 66/2/1 64/2/1 65/2/1
f 69/2/1 68/2/1 67/2/1
f 70/2/1 68/2/1 69/2/1
f 73/1/1 72/1/1 71/1/1
f 74/1/1 72/1/1 73/1/1
f 77/1/1 76/1/1 75/1/1
f 78/1/1 76/1/1 77/1/1
f 81/1/1 80/1/1 79/1/1
f 82/1/1 80/1/1 81/1/1
f 83/2/2 84/2/2 85/2/2
f 85/2/2 84/2/2 86/2/2
f 87/2/2 88/2/2 89/2/2
f 89/2/2 88/2/2 90/2/2
f 91/2/2 92/2/2 96/2/2
f 96/2/2 92/2/2 97/2/2
f 94/2/2 95/2/2 98/2/2
f 93/2/2 94/2/2 98/2/2
f 98/2/2 95/2/2 99/2/2
f 100/2/2 101/2/2 102/2/2
f 102/2/2 101/2/2 103/2/2
f 104/2/2 105/2/2 106/2/2
f 106/2/2 105/2/2 107/2/2
f 108/2/2 109/2/2 110/2/2
f 110/2/2 109/2/2 111/2/2
f 112/2/2 113/2/2 114/2/2
f 114/2/2 113/2/2 115/2/2
f 116/2/2 117/2/2 118/2/2
f 118/2/2 117/2/2 119/2/2
f 120/2/2 121/2/2 122/2/2
f 122/2/2 121/2/2 123/2/2
f 124/2/2 125/2/2 126/2/2
f 126/2/2 125/2/2 127/2/2
f 128/1/2 129/1/2 130/1/2
f 130/1/2 129/1/2 131/1/2
f 132/1/2 133/1/2 134/1/2
f 134/1/2 133/1/2 135/1/2
f 136/2/2 137/2/2 138/2/2
f 138/2/2 137/2/2 139/2/2
f 140/2/2 141/2/2 142/2/2
f 142/2/2 141/2/2 143/2/2
f 144/1/2 145/1/2 146/1/2
f 146/1/2 145/1/2 147/1/2
f 148/2/2 149/2/2 150/2/2
f 150/2/2 149/2/2 151/2/2
f 152/2/2 153/2/2 154/2/2
f 154/2/2 153/2/2 155/2/2
f 156/1/2 157/1/2 158/1/2
f 158/1/2 157/1/2 159/1/2
f 160/1/2 161/1/2 166/1/2
f 166/1/2 161/1/2 167/1/2
f 162/1/2 163/1/2 168/1/2
f 168/1/2 163/1/2 169/1/2
f 164/1/2 165/1/2 170/1/2
f 170/1/2 165/1/2 171/1/2
f 172/1/2 173/1/2 174/1/2
f 174/1/2 173/1/2 175/1/2
f 176/1/2 177/1/2 178/1/2
f 178/1/2 177/1/2 179/1/2
f 180/1/2 181/1/2 184/1/2
f 184/1/2 181/1/2 185/1/2
f 182/1/2 183/1/2 187/1/2
f 187/1/2 183/1/2 188/1/2
f 185/1/2 186/1/2 189/1/2
f 189/1/2 186/1/2 190/1/2
f 191/1/2 192/1/2 195/1/2
f 195/1/2 192/1/2 196/1/2
f 193/2/2 194/2/2 201/2/2
f 201/2/2 194/2/2 202/2/2
f 197/1/2 198/1/2 203/1/2
f 203/1/2 198/1/2 204/1/2
f 199/1/2 200/1/2 205/1/2
f 205/1/2 200/1/2 206/1/2
f 207/2/2 208/2/2 211/2/2
f 211/2/2 208/2/2 212/2/2
f 209/2/2 210/2/2 214/2/2
f 214/2/2 210/2/2 215/2/2
f 212/1/2 213/1/2 216/1/2
f 216/1/2 213/1/2 217/1/2
f 218/2/2 219/2/2 222/2/2
f 222/2/2 219/2/2 223/2/2
f 220/2/2 221/2/2 224/2/2
f 224/2/2 221/2/2 225/2/2
f 228/1/3 227/1/3 226/1/3
f 229/1/3 227/1/3 228/1/3
f 232/1/3 231/1/3 230/1/3
f 233/1/3 231/1/3 232/1/3
f 236/1/3 235/1/3 234/1/3
f 237/1/3 235/1/3 236/1/3
f 240/1/3 239/1/3 238/1/3
f 241/1/3 239/1/3 240/1/3
f 244/1/3 243/1/3 242/1/3
f 245/1/3 243/1/3 244/1/3
f 248/1/3 247/1/3 246/1/3
f 249/1/3 247/1/3 248/1/3
f 252/1/3 251/1/3 250/1/3
f 253/1/3 251/1/3 252/1/3
f 257/1/3 255/1/3 254/1/3
f 258/1/3 255/1/3 257/1/3
f 259/1/3 257/1/3 256/1/3
f 260/1/3 257/1/3 259/1/3
f 263/2/3 262/2/3 261/2/3
f 264/2/3 262/2/3 263/2/3
f 267/1/3 266/1/3 265/1/3
f 268/1/3 266/1/3 267/1/3
f 272/1/3 270/1/3 269/1/3
f 273/1/3 270/1/3 272/1/3
f 274/2/3 272/2/3 271/2/3
f 275/2/3 272/2/3 274/2/3
f 278/2/3 277/2/3 276/2/3
f 279/2/3 277/2/3 278/2/3
f 282/2/3 281/2/3 280/2/3
f 283/2/3 281/2/3 282/2/3
f 286/2/3 285/2/3 284/2/3
f 287/2/3 285/2/3 286/2/3
f 290/2/3 289/2/3 288/2/3
f 291/2/3 289/2/3 290/2/3
f 294/2/3 293/2/3 292/2/3
f 295/2/3 293/2/3 294/2/3
f 298/2/3 297/2/3 296/2/3
f 299/2/3 297/2/3 298/2/3
f 302/2/3 301/2/3 300/2/3
f 303/2/3 301/2/3 302/2/3
f 306/2/3 305/2/3 304/2/3
f 307/2/3 305/2/3 306/2/3
f 308/1/4 309/1/4 310/1/4
f 310/1/4 309/1/4 311/1/4
f 312/2/4 313/2/4 314/2/4
f 314/2/4 313/2/4 315/2/4
f 316/1/4 317/1/4 318/1/4
f 318/1/4 317/1/4 319/1/4
f 320/1/4 321/1/4 322/1/4
f 322/1/4 321/1/4 323/1/4
f 324/1/4 325/1/4 326/1/4
f 326/1/4 325/1/4 327/1/4
f 328/2/4 329/2/4 330/2/4
f 330/2/4 329/2/4 331/2/4
f 332/2/4 333/2/4 334/2/4
f 334/2/4 333/2/4 335/2/4
f 336/2/4 337/2/4 338/2/4
f 338/2/4 337/2/4 339/2/4
f 340/1/4 341/1/4 342/1/4
f 342/1/4 341/1/4 343/1/4
f 344/1/4 345/1/4 346/1/4
f 346/1/4 345/1/4 347/1/4
f 348/1/4 349/1/4 350/1/4
f 350/1/4 349/1/4 351/1/4
f 352/1/4 353/1/4 354/1/4
f 354/1/4 353/1/4 355/1/4
f 356/1/4 357/1/4 358/1/4
f 358/1/4 357/1/4 359/1/4
f 360/2/4 361/2/4 362/2/4
f 362/2/4 361/2/4 363/2/4
f 364/1/4 365/1/4 366/1/4
f 366/1/4 365/1/4 367/1/4
f 368/1/4 369/1/4 370/1/4
f 370/1/4 369/1/4 371/1/4
f 372/2/4 373/2/4 374/2/4
f 374/2/4 373/2/4 375/2/4
f 376/2/4 377/2/4 378/2/4
f 378/2/4 377/2/4 379/2/4
f 380/2/4 381/2/4 382/2/4
f 382/2/4 381/2/4 383/2/4
f 384/1/4 385/1/4 386/1/4
f 386/1/4 385/1/4 387/1/4
f 388/2/4 389/2/4 390/2/4
f 390/2/4 389/2/4 391/2/4
f 392/2/4 393/2/4 394/2/4
f 394/2/4 393/2/4 395/2/4
f 396/2/4 397/2/4 398/2/4
f 398/2/4 397/2/4 399/2/4
f 400/2/4 401/2/4 402/2/4
f 402/2/4 401/2/4 403/2/4
f 404/2/4 405/2/4 406/2/4
f 406/2/4 405/2/4 407/2/4
f 408/2/4 409/2/4 410/2/4
f 410/2/4 409/2/4 411/2/4
f 412/2/4 413/2/4 414/2/4
f 414/2/4 413/2/4 415/2/4
f 416/2/4 417/2/4 418/2/4
f 418/2/4 417/2/4 419/2/4
f 420/2/4 421/2/4 422/2/4
f 422/2/4 421/2/4 423/2/4
f 424/2/4 425/2/4 426/2/4
f 426/2/4 425/2/4 427/2/4
f 428/2/4 429/2/4 430/2/4
f 428/2/4 430/2/4 432/2/4
f 430/2/4 431/2/4 432/2/4
f 432/2/4 431/2/4 433/2/4
f 428/2/4 432/2/4 434/2/4
f 434/2/4 432/2/4 435/2/4
f 436/2/4 437/2/4 438/2/4
f 438/2/4 437/2/4 439/2/4
f 440/2/4 441/2/4 442/2/4
f 442/2/4 441/2/4 443/2/4
f 444/2/4 445/2/4 446/2/4
f 446/2/4 445/2/4 447/2/4
f 450/1/5 449/1/5 448/1/5
f 452/1/5 451/1/5 450/1/5
f 454/1/5 453/1/5 452/1/5
f 456/1/5 455/1/5 454/1/5
f 458/1/5 456/1/5 454/1/5
f 458/1/5 457/1/5 456/1/5
f 459/1/5 457/1/5 458/1/5
f 461/1/5 450/1/5 448/1/5
f 461/1/5 452/1/5 450/1/5
f 461/1/5 458/1/5 454/1/5
f 461/1/5 454/1/5 452/1/5
f 462/1/5 458/1/5 461/1/5
f 463/1/5 457/1/5 459/1/5
f 464/1/5 457/1/5 463/1/5
f 466/1/5 462/1/5 461/1/5
f 466/1/5 465/1/5 464/1/5
f 466/1/5 464/1/5 463/1/5
f 466/1/5 463/1/5 462/1/5
f 466/1/5 461/1/5 460/1/5
f 468/2/5 467/2/5 466/2/5
f 469/2/5 467/2/5 468/2/5
f 470/1/5 466/1/5 460/1/5
f 471/2/5 468/2/5 466/2/5
f 471/1/5 466/1/5 470/1/5
f 472/2/5 468/2/5 471/2/5
f 474/1/5 470/1/5 460/1/5
f 474/3/5 471/3/5 470/3/5
f 475/1/5 472/1/5 471/1/5
f 475/3/5 471/3/5 474/3/5
f 476/2/5 473/2/5 472/2/5
f 476/1/5 472/1/5 475/1/5
f 477/2/5 475/2/5 474/2/5
f 477/2/5 473/2/5 476/2/5
f 477/2/5 476/2/5 475/2/5
f 478/2/5 473/2/5 477/2/5
f 479/2/5 477/2/5 474/2/5
f 480/2/5 477/2/5 479/2/5
f 481/1/5 474/1/5 460/1/5
f 481/2/5 479/2/5 474/2/5
f 482/2/5 479/2/5 481/2/5
f 483/1/5 481/1/5 460/1/5
f 484/1/5 481/1/5 483/1/5
f 485/1/5 483/1/5 460/1/5
f 486/1/5 483/1/5 485/1/5
f 487/1/5 485/1/5 460/1/5
f 488/1/5 485/1/5 487/1/5
f 489/1/5 487/1/5 460/1/5
f 490/1/5 487/1/5 489/1/5
f 491/1/5 487/1/5 490/1/5
f 492/1/5 487/1/5 491/1/5
f 493/1/5 487/1/5 492/1/5
f 494/1/5 487/1/5 493/1/5
f 495/1/5 493/1/5 492/1/5
f 496/1/5 493/1/5 495/1/5
f 497/1/5 493/1/5 496/1/5
f 498/1/5 493/1/5 497/1/5
f 499/2/5 497/2/5 496/2/5
f 500/2/5 497/2/5 499/2/5
f 501/2/5 497/2/5 500/2/5
f 502/2/5 497/2/5 501/2/5
f 503/2/5 497/2/5 502/2/5
f 504/2/5 497/2/5 503/2/5
f 505/2/5 501/2/5 500/2/5
f 506/2/5 501/2/5 505/2/5
f 507/2/5 501/2/5 506/2/5
f 508/2/5 501/2/5 507/2/5
f 509/2/5 501/2/5 508/2/5
f 510/2/5 501/2/5 509/2/5
f 511/2/5 503/2/5 502/2/5
f 512/2/5 503/2/5 511/2/5
f 513/2/5 503/2/5 512/2/5
f 514/2/5 503/2/5 513/2/5
f 515/2/5 507/2/5 506/2/5
f 516/2/5 507/2/5 515/2/5
f 517/2/5 509/2/5 508/2/5
f 518/2/5 509/2/5 517/2/5
f 519/2/5 513/2/5 512/2/5
f 520/2/5 513/2/5 519/2/5
f 521/1/6 522/1/6 523/1/6
f 523/1/6 524/1/6 525/1/6
f 525/1/6 526/1/6 527/1/6
f 527/1/6 528/1/6 529/1/6
f 527/1/6 529/1/6 531/1/6
f 529/1/6 530/1/6 531/1/6
f 531/1/6 530/1/6 532/1/6
f 521/1/6 523/1/6 534/1/6
f 523/1/6 525/1/6 534/1/6
f 527/1/6 531/1/6 534/1/6
f 525/1/6 527/1/6 534/1/6
f 534/1/6 531/1/6 535/1/6
f 532/1/6 530/1/6 536/1/6
f 536/1/6 530/1/6 537/1/6
f 537/1/6 530/1/6 538/1/6
f 538/1/6 539/1/6 540/1/6
f 538/1/6 540/1/6 542/1/6
f 540/2/6 541/2/6 543/2/6
f 542/1/6 540/1/6 543/1/6
f 543/2/6 541/2/6 544/2/6
f 544/2/6 541/2/6 545/2/6
f 543/2/6 544/2/6 546/2/6
f 546/2/6 544/2/6 547/2/6
f 534/1/6 535/1/6 549/1/6
f 533/1/6 534/1/6 549/1/6
f 535/1/6 536/1/6 549/1/6
f 536/1/6 537/1/6 549/1/6
f 547/2/6 548/2/6 552/2/6
f 549/1/6 550/1/6 553/1/6
f 551/2/6 552/2/6 554/2/6
f 552/2/6 548/2/6 555/2/6
f 553/2/6 554/2/6 555/2/6
f 554/2/6 552/2/6 555/2/6
f 555/2/6 548/2/6 556/2/6
f 553/2/6 555/2/6 557/2/6
f 557/2/6 555/2/6 558/2/6
f 549/1/6 553/1/6 559/1/6
f 553/2/6 557/2/6 559/2/6
f 559/2/6 557/2/6 560/2/6
f 533/1/6 549/1/6 561/1/6
f 549/1/6 559/1/6 561/1/6
f 561/1/6 559/1/6 562/1/6
f 533/1/6 561/1/6 563/1/6
f 563/1/6 561/1/6 564/1/6
f 533/1/6 563/1/6 565/1/6
f 565/1/6 563/1/6 566/1/6
f 533/1/6 565/1/6 567/1/6
f 567/1/6 565/1/6 568/1/6
f 568/1/6 565/1/6 569/1/6
f 569/1/6 565/1/6 570/1/6
f 570/1/6 565/1/6 571/1/6
f 571/1/6 565/1/6 572/1/6
f 568/1/6 569/1/6 573/1/6
f 573/1/6 569/1/6 574/1/6
f 574/1/6 569/1/6 575/1/6
f 575/1/6 569/1/6 576/1/6
f 570/1/6 571/1/6 577/1/6
f 577/1/6 571/1/6 578/1/6
f 578/1/6 571/1/6 579/1/6
f 579/1/6 571/1/6 580/1/6
f 572/1/6 565/1/6 583/1/6
f 583/1/6 565/1/6 584/1/6
f 584/1/6 565/1/6 585/1/6
f 585/1/6 565/1/6 586/1/6
f 574/1/6 575/1/6 587/1/6
f 587/1/6 575/1/6 588/1/6
f 588/1/6 575/1/6 589/1/6
f 578/1/6 579/1/6 592/1/6
f 592/1/6 579/1/6 593/1/6
f 581/1/6 582/1/6 595/1/6
f 595/1/6 582/1/6 596/1/6
f 584/1/6 585/1/6 597/1/6
f 597/1/6 585/1/6 598/1/6
f 598/1/6 585/1/6 599/1/6
f 599/1/6 585/1/6 600/1/6
f 600/1/6 585/1/6 601/1/6
f 588/2/6 589/2/6 602/2/6
f 602/2/6 589/2/6 603/2/6
f 603/2/6 589/2/6 604/2/6
f 590/2/6 591/2/6 605/2/6
f 605/2/6 591/2/6 606/2/6
f 592/2/6 593/2/6 607/2/6
f 607/2/6 593/2/6 608/2/6
f 595/2/6 596/2/6 609/2/6
f 594/2/6 595/2/6 609/2/6
f 596/2/6 597/2/6 609/2/6
f 597/2/6 598/2/6 609/2/6
f 609/2/6 598/2/6 610/2/6
f 610/2/6 598/2/6 611/2/6
f 599/2/6 600/2/6 612/2/6
f 612/2/6 600/2/6 613/2/6
f 613/2/6 600/2/6 614/2/6
f 614/2/6 600/2/6 615/2/6
f 605/2/6 606/2/6 616/2/6
f 607/2/6 608/2/6 616/2/6
f 603/2/6 604/2/6 616/2/6
f 606/2/6 607/2/6 616/2/6
f 609/2/6 610/2/6 616/2/6
f 608/2/6 609/2/6 616/2/6
f 604/2/6 605/2/6 616/2/6
f 616/2/6 610/2/6 617/2/6
f 617/2/6 610/2/6 618/2/6
f 618/2/6 610/2/6 619/2/6
f 619/2/6 610/2/6 620/2/6
f 620/2/6 610/2/6 621/2/6
f 611/2/6 598/2/6 622/2/6
f 622/2/6 598/2/6 623/2/6
f 623/2/6 598/2/6 624/2/6
f 624/2/6 598/2/6 625/2/6
f 613/2/6 614/2/6 626/2/6
f 626/2/6 614/2/6 627/2/6
f 617/2/6 618/2/6 628/2/6
f 628/2/6 618/2/6 629/2/6
f 619/2/6 620/2/6 630/2/6
f 630/2/6 620/2/6 631/2/6
f 623/2/6 624/2/6 632/2/6
f 632/2/6 624/2/6 633/2/6
f 634/1/6 635/1/6 636/1/6
f 636/1/6 637/1/6 638/1/6
f 634/1/6 636/1/6 640/1/6
f 638/1/6 639/1/6 640/1/6
f 636/1/6 638/1/6 640/1/6
f 640/1/6 639/1/6 641/1/6
f 641/1/6 639/1/6 642/1/6
f 642/1/6 639/1/6 643/1/6
f 641/1/6 642/1/6 644/1/6
f 644/1/6 642/1/6 645/1/6
f 646/2/6 647/2/6 651/2/6
f 651/2/6 647/2/6 652/2/6
f 648/2/6 649/2/6 655/2/6
f 655/2/6 649/2/6 656/2/6
f 656/2/6 649/2/6 657/2/6
f 657/2/6 649/2/6 658/2/6
f 652/2/6 653/2/6 660/2/6
f 650/2/6 651/2/6 660/2/6
f 651/2/6 652/2/6 660/2/6
f 660/2/6 653/2/6 661/2/6
f 655/2/6 656/2/6 662/2/6
f 654/2/6 655/2/6 662/2/6
f 662/2/6 656/2/6 663/2/6
f 658/2/6 659/2/6 664/2/6
f 657/2/6 658/2/6 664/2/6
f 664/2/6 659/2/6 665/2/6
f 650/2/6 660/2/6 668/2/6
f 668/2/6 660/2/6 669/2/6
f 661/2/6 653/2/6 670/2/6
f 670/2/6 653/2/6 671/2/6
f 654/2/6 662/2/6 672/2/6
f 672/2/6 662/2/6 673/2/6
f 666/2/6 667/2/6 674/2/6
f 674/2/6 675/2/6 676/2/6
f 666/2/6 674/2/6 676/2/6
f 676/2/6 675/2/6 677/2/6
