# MagicaVoxel @ Ephtracy

# group
o 

# material
mtllib Lehm_Ecke-0.1.mtl
usemtl palette

# normals
vn -1 0 0
vn 1 0 0
vn 0 0 1
vn 0 0 -1
vn 0 -1 0
vn 0 1 0

# texcoords
vt 0.845703 0.5
vt 0.849609 0.5
vt 0.923828 0.5
vt 0.939453 0.5
vt 0.943359 0.5
vt 0.974609 0.5

# verts
v -0.5 0 0.5
v -0.5 0 -0.2
v -0.5 0 -0.5
v -0.5 0.7 0.5
v -0.5 0.7 0.3
v -0.5 0.8 0.5
v -0.5 0.8 0.3
v -0.5 0.8 0.1
v -0.5 0.8 -0.1
v -0.5 0.8 -0.2
v -0.5 0.9 0.1
v -0.5 0.9 -0.1
v -0.5 0.9 -0.2
v -0.5 1 -0.2
v -0.5 1 -0.5
v -0.3 0.8 0.2
v -0.3 0.8 0.1
v -0.3 0.9 0.2
v -0.3 0.9 0.1
v -0.3 0.9 -0.1
v -0.3 0.9 -0.2
v -0.3 1 -0.1
v -0.3 1 -0.2
v -0.1 0.8 0.5
v -0.1 0.8 0.4
v -0.1 0.8 0.3
v -0.1 0.8 0.2
v -0.1 0.9 0.5
v -0.1 0.9 0.4
v -0.1 0.9 0.3
v -0.1 0.9 0.2
v -0.1 0.9 0
v -0.1 0.9 -0.1
v -0.1 1 0
v -0.1 1 -0.1
v 0 0.9 0.1
v 0 0.9 0
v 0 1 0.1
v 0 1 0
v 0.1 0.9 0.3
v 0.1 0.9 0.1
v 0.1 1 0.3
v 0.1 1 0.1
v 0.2 0.9 0.5
v 0.2 0.9 0.3
v 0.2 1 0.5
v 0.2 1 0.3
v 0.5 0 0.5
v 0.5 0 -0.5
v 0.5 1 0.5
v 0.5 1 -0.5
v -0.5 0 0.5
v -0.5 0.7 0.5
v -0.5 0.8 0.5
v -0.3 0.7 0.5
v -0.3 0.8 0.5
v -0.1 0.8 0.5
v -0.1 0.9 0.5
v 0 0.8 0.5
v 0 0.9 0.5
v 0.1 0.8 0.5
v 0.1 0.9 0.5
v 0.2 0 0.5
v 0.2 0.9 0.5
v 0.2 1 0.5
v 0.5 0 0.5
v 0.5 1 0.5
v 0.1 0.9 0.3
v 0.1 1 0.3
v 0.2 0.9 0.3
v 0.2 1 0.3
v -0.3 0.8 0.2
v -0.3 0.9 0.2
v -0.1 0.8 0.2
v -0.1 0.9 0.2
v -0.5 0.8 0.1
v -0.5 0.9 0.1
v -0.3 0.8 0.1
v -0.3 0.9 0.1
v 0 0.9 0.1
v 0 1 0.1
v 0.1 0.9 0.1
v 0.1 1 0.1
v -0.1 0.9 0
v -0.1 1 0
v 0 0.9 0
v 0 1 0
v -0.3 0.9 -0.1
v -0.3 1 -0.1
v -0.2 0.9 -0.1
v -0.1 0.9 -0.1
v -0.1 1 -0.1
v -0.5 0.9 -0.2
v -0.5 1 -0.2
v -0.3 0.9 -0.2
v -0.3 1 -0.2
v -0.5 0 -0.5
v -0.5 1 -0.5
v 0.5 0 -0.5
v 0.5 1 -0.5
v -0.5 0 0.5
v 0.2 0 0.5
v 0.5 0 0.5
v 0.2 0 0.4
v 0.4 0 0.4
v -0.5 0 -0.2
v -0.4 0 -0.2
v -0.1 0 -0.2
v 0.4 0 -0.2
v -0.1 0 -0.3
v 0.4 0 -0.3
v -0.4 0 -0.4
v 0.4 0 -0.4
v -0.5 0 -0.5
v 0.5 0 -0.5
v -0.5 0.8 0.5
v -0.3 0.8 0.5
v -0.1 0.8 0.5
v -0.4 0.8 0.4
v -0.3 0.8 0.4
v -0.2 0.8 0.4
v -0.1 0.8 0.4
v -0.5 0.8 0.3
v -0.4 0.8 0.3
v -0.2 0.8 0.3
v -0.1 0.8 0.3
v -0.3 0.8 0.2
v -0.1 0.8 0.2
v -0.5 0.8 0.1
v -0.3 0.8 0.1
v -0.1 0.9 0.5
v 0 0.9 0.5
v 0.1 0.9 0.5
v 0.2 0.9 0.5
v -0.1 0.9 0.4
v 0 0.9 0.4
v 0.1 0.9 0.4
v -0.1 0.9 0.3
v 0 0.9 0.3
v 0.1 0.9 0.3
v 0.2 0.9 0.3
v -0.3 0.9 0.2
v -0.1 0.9 0.2
v -0.5 0.9 0.1
v -0.3 0.9 0.1
v 0 0.9 0.1
v 0.1 0.9 0.1
v -0.4 0.9 0
v -0.2 0.9 0
v -0.1 0.9 0
v 0 0.9 0
v -0.5 0.9 -0.1
v -0.4 0.9 -0.1
v -0.3 0.9 -0.1
v -0.2 0.9 -0.1
v -0.1 0.9 -0.1
v -0.5 0.9 -0.2
v -0.3 0.9 -0.2
v 0.2 1 0.5
v 0.5 1 0.5
v 0.1 1 0.3
v 0.2 1 0.3
v 0 1 0.1
v 0.1 1 0.1
v -0.1 1 0
v 0 1 0
v -0.3 1 -0.1
v -0.1 1 -0.1
v -0.5 1 -0.2
v -0.3 1 -0.2
v -0.5 1 -0.5
v 0.5 1 -0.5

# faces
f 4/4/1 2/4/1 1/4/1
f 5/4/1 2/4/1 4/4/1
f 6/5/1 5/5/1 4/5/1
f 7/4/1 2/4/1 5/4/1
f 7/5/1 5/5/1 6/5/1
f 8/4/1 2/4/1 7/4/1
f 9/4/1 2/4/1 8/4/1
f 10/6/1 3/6/1 2/6/1
f 10/4/1 2/4/1 9/4/1
f 11/4/1 9/4/1 8/4/1
f 12/5/1 10/5/1 9/5/1
f 12/4/1 9/4/1 11/4/1
f 13/6/1 3/6/1 10/6/1
f 13/5/1 10/5/1 12/5/1
f 14/6/1 3/6/1 13/6/1
f 15/6/1 3/6/1 14/6/1
f 18/4/1 17/4/1 16/4/1
f 19/4/1 17/4/1 18/4/1
f 22/6/1 21/6/1 20/6/1
f 23/6/1 21/6/1 22/6/1
f 28/4/1 25/4/1 24/4/1
f 29/5/1 26/5/1 25/5/1
f 29/4/1 25/4/1 28/4/1
f 30/4/1 27/4/1 26/4/1
f 30/5/1 26/5/1 29/5/1
f 31/4/1 27/4/1 30/4/1
f 34/6/1 33/6/1 32/6/1
f 35/6/1 33/6/1 34/6/1
f 38/6/1 37/6/1 36/6/1
f 39/6/1 37/6/1 38/6/1
f 42/6/1 41/6/1 40/6/1
f 43/6/1 41/6/1 42/6/1
f 46/6/1 45/6/1 44/6/1
f 47/6/1 45/6/1 46/6/1
f 48/6/2 49/6/2 50/6/2
f 50/6/2 49/6/2 51/6/2
f 55/4/3 53/4/3 52/4/3
f 55/5/3 54/5/3 53/5/3
f 56/5/3 54/5/3 55/5/3
f 57/4/3 56/4/3 55/4/3
f 59/4/3 57/4/3 55/4/3
f 59/4/3 58/4/3 57/4/3
f 60/4/3 58/4/3 59/4/3
f 61/4/3 59/4/3 55/4/3
f 61/5/3 60/5/3 59/5/3
f 62/5/3 60/5/3 61/5/3
f 63/4/3 55/4/3 52/4/3
f 63/4/3 61/4/3 55/4/3
f 63/4/3 62/4/3 61/4/3
f 64/4/3 62/4/3 63/4/3
f 66/6/3 64/6/3 63/6/3
f 66/6/3 65/6/3 64/6/3
f 67/6/3 65/6/3 66/6/3
f 70/6/3 69/6/3 68/6/3
f 71/6/3 69/6/3 70/6/3
f 74/4/3 73/4/3 72/4/3
f 75/4/3 73/4/3 74/4/3
f 78/4/3 77/4/3 76/4/3
f 79/4/3 77/4/3 78/4/3
f 82/6/3 81/6/3 80/6/3
f 83/6/3 81/6/3 82/6/3
f 86/6/3 85/6/3 84/6/3
f 87/6/3 85/6/3 86/6/3
f 90/6/3 89/6/3 88/6/3
f 91/6/3 89/6/3 90/6/3
f 92/6/3 89/6/3 91/6/3
f 95/6/3 94/6/3 93/6/3
f 96/6/3 94/6/3 95/6/3
f 97/6/4 98/6/4 99/6/4
f 99/6/4 98/6/4 100/6/4
f 104/4/5 102/4/5 101/4/5
f 104/6/5 103/6/5 102/6/5
f 105/6/5 103/6/5 104/6/5
f 106/4/5 104/4/5 101/4/5
f 106/4/5 105/4/5 104/4/5
f 107/4/5 105/4/5 106/4/5
f 108/4/5 105/4/5 107/4/5
f 109/6/5 103/6/5 105/6/5
f 109/4/5 105/4/5 108/4/5
f 110/2/5 108/2/5 107/2/5
f 110/1/5 109/1/5 108/1/5
f 111/6/5 103/6/5 109/6/5
f 111/1/5 109/1/5 110/1/5
f 112/2/5 110/2/5 107/2/5
f 112/6/5 107/6/5 106/6/5
f 112/2/5 111/2/5 110/2/5
f 113/6/5 103/6/5 111/6/5
f 113/2/5 111/2/5 112/2/5
f 114/6/5 112/6/5 106/6/5
f 114/6/5 113/6/5 112/6/5
f 115/6/5 103/6/5 113/6/5
f 115/6/5 113/6/5 114/6/5
f 116/5/6 117/5/6 119/5/6
f 117/4/6 118/4/6 120/4/6
f 119/5/6 117/5/6 120/5/6
f 120/4/6 118/4/6 121/4/6
f 121/4/6 118/4/6 122/4/6
f 116/5/6 119/5/6 123/5/6
f 119/4/6 120/4/6 124/4/6
f 123/5/6 119/5/6 124/5/6
f 120/4/6 121/4/6 124/4/6
f 121/5/6 122/5/6 125/5/6
f 124/4/6 121/4/6 125/4/6
f 125/5/6 122/5/6 126/5/6
f 123/4/6 124/4/6 127/4/6
f 124/4/6 125/4/6 127/4/6
f 125/4/6 126/4/6 127/4/6
f 127/4/6 126/4/6 128/4/6
f 123/4/6 127/4/6 129/4/6
f 129/4/6 127/4/6 130/4/6
f 131/4/6 132/4/6 135/4/6
f 132/5/6 133/5/6 136/5/6
f 135/4/6 132/4/6 136/4/6
f 133/4/6 134/4/6 137/4/6
f 136/5/6 133/5/6 137/5/6
f 135/5/6 136/5/6 138/5/6
f 136/4/6 137/4/6 139/4/6
f 138/5/6 136/5/6 139/5/6
f 137/4/6 134/4/6 140/4/6
f 139/4/6 137/4/6 140/4/6
f 140/4/6 134/4/6 141/4/6
f 138/4/6 139/4/6 143/4/6
f 139/4/6 140/4/6 143/4/6
f 142/4/6 143/4/6 145/4/6
f 143/4/6 140/4/6 146/4/6
f 145/4/6 143/4/6 146/4/6
f 146/4/6 140/4/6 147/4/6
f 144/4/6 145/4/6 148/4/6
f 145/4/6 146/4/6 148/4/6
f 148/4/6 146/4/6 149/4/6
f 149/4/6 146/4/6 150/4/6
f 150/4/6 146/4/6 151/4/6
f 144/4/6 148/4/6 152/4/6
f 148/5/6 149/5/6 153/5/6
f 152/4/6 148/4/6 153/4/6
f 153/5/6 149/5/6 154/5/6
f 149/4/6 150/4/6 155/4/6
f 154/5/6 149/5/6 155/5/6
f 155/4/6 150/4/6 156/4/6
f 153/5/6 154/5/6 157/5/6
f 152/5/6 153/5/6 157/5/6
f 157/5/6 154/5/6 158/5/6
f 159/6/6 160/6/6 162/6/6
f 161/6/6 162/6/6 164/6/6
f 163/6/6 164/6/6 166/6/6
f 165/6/6 166/6/6 168/6/6
f 167/6/6 168/6/6 170/6/6
f 169/6/6 170/6/6 171/6/6
f 162/6/6 160/6/6 172/6/6
f 171/6/6 170/6/6 172/6/6
f 164/6/6 162/6/6 172/6/6
f 170/6/6 168/6/6 172/6/6
f 166/6/6 164/6/6 172/6/6
f 168/6/6 166/6/6 172/6/6
