# Blender v3.1.2 OBJ File: 'grass.blend'
# www.blender.org
mtllib grass.mtl
o Plane_Plane.005
v 0.005596 -1.013543 0.986255
v -0.002255 -0.986268 -1.013543
v 0.002255 0.986268 1.013543
v -0.005596 1.013543 -0.986255
vt 0.000000 0.000000
vt 1.000000 0.000000
vt 1.000000 1.000000
vt 0.000000 1.000000
vn 1.0000 0.0017 -0.0039
usemtl None
s off
f 1/1/1 2/2/1 4/3/1 3/4/1
o Plane.001_Plane.006
v 0.431262 -1.093930 0.785703
v -0.755828 -0.879414 -0.809540
v 0.755828 0.879414 0.809540
v -0.431262 1.093930 -0.785703
vt 0.000000 0.000000
vt 1.000000 0.000000
vt 1.000000 1.000000
vt 0.000000 1.000000
vn 0.7883 -0.1224 -0.6030
usemtl None
s off
f 5/5/2 6/6/2 8/7/2 7/8/2
o Plane.002_Plane.007
v 0.934278 -0.886837 -0.583648
v -0.961230 -1.036680 0.036511
v 0.961230 1.036680 -0.036511
v -0.934278 0.886837 0.583648
vt 0.000000 0.000000
vt 1.000000 0.000000
vt 1.000000 1.000000
vt 0.000000 1.000000
vn -0.3187 0.2635 -0.9105
usemtl None
s off
f 9/9/3 10/10/3 12/11/3 11/12/3
o Plane.003_Plane.008
v 0.894592 -1.093930 0.054974
v -1.088073 -0.879414 0.206706
v 1.088073 0.879414 -0.206706
v -0.894592 1.093930 -0.054974
vt 0.000000 0.000000
vt 1.000000 0.000000
vt 1.000000 1.000000
vt 0.000000 1.000000
vn -0.0889 -0.1224 -0.9885
usemtl None
s off
f 13/13/4 14/14/4 16/15/4 15/16/4
