# MagicaVoxel @ Ephtracy

# group
o 

# material
mtllib Stein_Brücke.mtl
usemtl palette

# normals
vn -1 0 0
vn 1 0 0
vn 0 0 1
vn 0 0 -1
vn 0 -1 0
vn 0 1 0

# texcoords
vt 0.0644531 0.5
vt 0.0683594 0.5

# verts
v -0.5 0 0.5
v -0.5 0 0.4
v -0.5 0 -0.4
v -0.5 0 -0.5
v -0.5 0.1 0.5
v -0.5 0.1 0.4
v -0.5 0.1 -0.4
v -0.5 0.1 -0.5
v -0.4 0 0.4
v -0.4 0 0.2
v -0.4 0 -0.1
v -0.4 0 -0.4
v -0.4 0.1 0.5
v -0.4 0.1 0.4
v -0.4 0.1 0.3
v -0.4 0.1 0.2
v -0.4 0.1 -0.1
v -0.4 0.1 -0.4
v -0.4 0.1 -0.5
v -0.4 0.2 0.5
v -0.4 0.2 0.4
v -0.4 0.3 0.5
v -0.4 0.3 0.4
v -0.4 0.3 0.3
v -0.4 0.5 0.5
v -0.4 0.5 0.4
v -0.4 0.5 -0.4
v -0.4 0.5 -0.5
v -0.3 0 0.2
v -0.3 0 -0.1
v -0.3 0.1 0.3
v -0.3 0.1 0.2
v -0.3 0.1 -0.1
v -0.3 0.1 -0.4
v -0.3 0.2 0.3
v -0.3 0.2 0.2
v -0.3 0.2 -0.1
v -0.3 0.2 -0.2
v -0.3 0.3 0.4
v -0.3 0.3 0.3
v -0.3 0.4 0.4
v -0.3 0.4 0.3
v -0.3 0.4 -0.2
v -0.3 0.4 -0.3
v -0.3 0.4 -0.4
v -0.3 0.5 -0.3
v -0.3 0.5 -0.4
v -0.2 0.1 0.2
v -0.2 0.1 0.1
v -0.2 0.1 0
v -0.2 0.1 -0.1
v -0.2 0.2 0.3
v -0.2 0.2 0.2
v -0.2 0.2 0.1
v -0.2 0.2 0
v -0.2 0.2 -0.1
v -0.2 0.2 -0.2
v -0.2 0.3 0
v -0.2 0.3 -0.1
v -0.2 0.4 0.3
v -0.2 0.4 0.1
v -0.2 0.4 -0.1
v -0.2 0.4 -0.2
v -0.1 0.2 0.1
v -0.1 0.2 0
v -0.1 0.3 0.1
v -0.1 0.3 0
v -0.1 0.4 0.4
v -0.1 0.4 0.3
v -0.1 0.4 0.2
v -0.1 0.5 0.4
v -0.1 0.5 0.3
v -0.1 0.5 0.2
v 0 0.3 0.1
v 0 0.3 0
v 0 0.3 -0.1
v 0 0.4 0.1
v 0 0.4 -0.1
v 0.1 0.4 -0.2
v 0.1 0.4 -0.3
v 0.1 0.5 -0.2
v 0.1 0.5 -0.3
v 0.3 0.1 0.2
v 0.3 0.1 0.1
v 0.3 0.2 0.2
v 0.3 0.2 0.1
v 0.4 0.1 0.4
v 0.4 0.1 0.3
v 0.4 0.2 0.4
v 0.4 0.2 0.3
v 0.1 0.3 0.1
v 0.1 0.3 0
v 0.1 0.3 -0.1
v 0.1 0.4 0.1
v 0.1 0.4 -0.1
v 0.2 0.1 0.2
v 0.2 0.1 0.1
v 0.2 0.1 -0.1
v 0.2 0.1 -0.2
v 0.2 0.2 0
v 0.2 0.2 -0.1
v 0.2 0.3 0.3
v 0.2 0.3 0.2
v 0.2 0.3 0.1
v 0.2 0.3 0
v 0.2 0.3 -0.1
v 0.2 0.3 -0.2
v 0.2 0.4 0.2
v 0.2 0.4 0.1
v 0.2 0.4 -0.1
v 0.2 0.4 -0.2
v 0.2 0.4 -0.3
v 0.2 0.5 0.3
v 0.2 0.5 0.2
v 0.2 0.5 -0.2
v 0.2 0.5 -0.3
v 0.3 0.1 0.4
v 0.3 0.1 0.3
v 0.3 0.2 0.4
v 0.3 0.2 0.3
v 0.3 0.2 0.2
v 0.3 0.2 -0.2
v 0.3 0.2 -0.3
v 0.3 0.3 0.3
v 0.3 0.3 0.2
v 0.3 0.3 -0.2
v 0.3 0.3 -0.3
v 0.3 0.4 0.4
v 0.3 0.4 0.3
v 0.3 0.4 -0.2
v 0.3 0.4 -0.3
v 0.3 0.4 -0.4
v 0.3 0.5 0.4
v 0.3 0.5 0.3
v 0.3 0.5 -0.3
v 0.3 0.5 -0.4
v 0.4 0 0.2
v 0.4 0 -0.2
v 0.4 0.1 0.5
v 0.4 0.1 0.4
v 0.4 0.1 0.3
v 0.4 0.1 0.2
v 0.4 0.1 0.1
v 0.4 0.1 -0.2
v 0.4 0.1 -0.3
v 0.4 0.2 0.4
v 0.4 0.2 0.3
v 0.4 0.2 0.1
v 0.4 0.2 -0.2
v 0.4 0.2 -0.3
v 0.4 0.2 -0.4
v 0.4 0.2 -0.5
v 0.4 0.3 -0.3
v 0.4 0.3 -0.4
v 0.4 0.4 0.4
v 0.4 0.4 0.3
v 0.4 0.4 -0.3
v 0.4 0.4 -0.4
v 0.4 0.5 0.5
v 0.4 0.5 0.4
v 0.4 0.5 -0.4
v 0.4 0.5 -0.5
v 0.5 0 0.5
v 0.5 0 0.2
v 0.5 0 -0.2
v 0.5 0 -0.3
v 0.5 0 -0.5
v 0.5 0.1 0.5
v 0.5 0.1 0.4
v 0.5 0.1 0.3
v 0.5 0.1 0.2
v 0.5 0.1 -0.2
v 0.5 0.1 -0.3
v 0.5 0.1 -0.4
v 0.5 0.2 0.4
v 0.5 0.2 0.3
v 0.5 0.2 -0.4
v 0.5 0.2 -0.5
v 0.5 0.3 -0.3
v 0.5 0.3 -0.4
v -0.5 0 0.5
v -0.5 0.1 0.5
v -0.4 0.1 0.5
v -0.4 0.2 0.5
v -0.4 0.3 0.5
v -0.4 0.5 0.5
v -0.3 0.1 0.5
v -0.3 0.2 0.5
v -0.3 0.3 0.5
v -0.1 0 0.5
v -0.1 0.1 0.5
v -0.1 0.2 0.5
v -0.1 0.4 0.5
v -0.1 0.5 0.5
v 0 0 0.5
v 0 0.1 0.5
v 0.1 0.4 0.5
v 0.1 0.5 0.5
v 0.4 0.1 0.5
v 0.4 0.5 0.5
v 0.5 0 0.5
v 0.5 0.1 0.5
v 0.4 0.1 0.4
v 0.4 0.2 0.4
v 0.5 0.1 0.4
v 0.5 0.2 0.4
v 0.3 0.1 0.3
v 0.3 0.2 0.3
v 0.4 0.1 0.3
v 0.4 0.2 0.3
v -0.2 0.2 0
v -0.2 0.3 0
v -0.1 0.2 0
v -0.1 0.3 0
v -0.4 0 -0.1
v -0.4 0.1 -0.1
v -0.3 0 -0.1
v -0.3 0.1 -0.1
v -0.3 0.2 -0.1
v -0.2 0.1 -0.1
v -0.2 0.2 -0.1
v -0.2 0.3 -0.1
v -0.2 0.4 -0.1
v -0.1 0.3 -0.1
v -0.1 0.4 -0.1
v 0 0.3 -0.1
v 0 0.4 -0.1
v 0.1 0.3 -0.1
v 0.1 0.4 -0.1
v 0.2 0.3 -0.1
v 0.2 0.4 -0.1
v -0.3 0.2 -0.2
v -0.3 0.4 -0.2
v -0.2 0.2 -0.2
v -0.2 0.4 -0.2
v 0.1 0.4 -0.2
v 0.1 0.5 -0.2
v 0.2 0.1 -0.2
v 0.2 0.3 -0.2
v 0.2 0.4 -0.2
v 0.2 0.5 -0.2
v 0.3 0.1 -0.2
v 0.3 0.2 -0.2
v 0.3 0.3 -0.2
v 0.3 0.4 -0.2
v 0.4 0 -0.2
v 0.4 0.1 -0.2
v 0.4 0.2 -0.2
v 0.5 0 -0.2
v 0.5 0.1 -0.2
v -0.3 0.4 -0.3
v -0.3 0.5 -0.3
v -0.2 0.4 -0.3
v -0.2 0.5 -0.3
v 0.1 0.4 -0.3
v 0.1 0.5 -0.3
v 0.2 0.4 -0.3
v 0.2 0.5 -0.3
v 0.3 0.2 -0.3
v 0.3 0.3 -0.3
v 0.3 0.4 -0.3
v 0.3 0.5 -0.3
v 0.4 0.1 -0.3
v 0.4 0.2 -0.3
v 0.4 0.3 -0.3
v 0.4 0.4 -0.3
v 0.5 0.1 -0.3
v 0.5 0.3 -0.3
v -0.5 0 -0.4
v -0.5 0.1 -0.4
v -0.4 0 -0.4
v -0.4 0.1 -0.4
v -0.4 0.5 -0.4
v -0.3 0.1 -0.4
v -0.3 0.4 -0.4
v -0.3 0.5 -0.4
v 0.3 0.4 -0.4
v 0.3 0.5 -0.4
v 0.4 0.4 -0.4
v 0.4 0.5 -0.4
v -0.5 0 0.4
v -0.5 0.1 0.4
v -0.4 0 0.4
v -0.4 0.1 0.4
v -0.4 0.3 0.4
v -0.4 0.5 0.4
v -0.3 0.3 0.4
v -0.3 0.4 0.4
v -0.1 0.4 0.4
v -0.1 0.5 0.4
v 0.3 0.1 0.4
v 0.3 0.2 0.4
v 0.3 0.4 0.4
v 0.3 0.5 0.4
v 0.4 0.1 0.4
v 0.4 0.2 0.4
v 0.4 0.4 0.4
v 0.4 0.5 0.4
v -0.4 0.1 0.3
v -0.4 0.3 0.3
v -0.3 0.1 0.3
v -0.3 0.2 0.3
v -0.3 0.3 0.3
v -0.3 0.4 0.3
v -0.2 0.2 0.3
v -0.2 0.4 0.3
v 0.2 0.3 0.3
v 0.2 0.5 0.3
v 0.3 0.2 0.3
v 0.3 0.3 0.3
v 0.3 0.4 0.3
v 0.3 0.5 0.3
v 0.4 0.1 0.3
v 0.4 0.2 0.3
v 0.4 0.4 0.3
v 0.5 0.1 0.3
v 0.5 0.2 0.3
v -0.4 0 0.2
v -0.4 0.1 0.2
v -0.3 0 0.2
v -0.3 0.1 0.2
v -0.3 0.2 0.2
v -0.2 0.1 0.2
v -0.2 0.2 0.2
v -0.1 0.4 0.2
v -0.1 0.5 0.2
v 0 0.4 0.2
v 0 0.5 0.2
v 0.1 0.4 0.2
v 0.2 0.1 0.2
v 0.2 0.3 0.2
v 0.2 0.4 0.2
v 0.2 0.5 0.2
v 0.3 0.1 0.2
v 0.3 0.2 0.2
v 0.3 0.3 0.2
v 0.4 0 0.2
v 0.4 0.1 0.2
v 0.5 0 0.2
v 0.5 0.1 0.2
v -0.2 0.2 0.1
v -0.2 0.4 0.1
v -0.1 0.2 0.1
v -0.1 0.3 0.1
v -0.1 0.4 0.1
v 0 0.3 0.1
v 0 0.4 0.1
v 0.1 0.3 0.1
v 0.1 0.4 0.1
v 0.2 0.3 0.1
v 0.2 0.4 0.1
v 0.3 0.1 0.1
v 0.3 0.2 0.1
v 0.4 0.1 0.1
v 0.4 0.2 0.1
v 0.4 0.2 -0.4
v 0.4 0.3 -0.4
v 0.5 0.2 -0.4
v 0.5 0.3 -0.4
v -0.5 0 -0.5
v -0.5 0.1 -0.5
v -0.4 0 -0.5
v -0.4 0.1 -0.5
v -0.4 0.5 -0.5
v -0.3 0.4 -0.5
v -0.3 0.5 -0.5
v -0.2 0.4 -0.5
v -0.2 0.5 -0.5
v 0 0.4 -0.5
v 0 0.5 -0.5
v 0.2 0.4 -0.5
v 0.2 0.5 -0.5
v 0.4 0.2 -0.5
v 0.4 0.5 -0.5
v 0.5 0 -0.5
v 0.5 0.2 -0.5
v -0.5 0 0.5
v -0.1 0 0.5
v 0 0 0.5
v 0.5 0 0.5
v -0.5 0 0.4
v -0.4 0 0.4
v -0.1 0 0.4
v 0 0 0.4
v -0.4 0 0.2
v -0.3 0 0.2
v 0.4 0 0.2
v 0.5 0 0.2
v 0.2 0 0.1
v 0.3 0 0.1
v -0.4 0 -0.1
v -0.3 0 -0.1
v 0.2 0 -0.1
v 0.3 0 -0.1
v 0.4 0 -0.2
v 0.5 0 -0.2
v 0.4 0 -0.3
v 0.5 0 -0.3
v -0.5 0 -0.4
v -0.4 0 -0.4
v -0.5 0 -0.5
v -0.4 0 -0.5
v 0.5 0 -0.5
v 0.3 0.2 0.4
v 0.4 0.2 0.4
v 0.3 0.2 0.3
v 0.4 0.2 0.3
v -0.5 0.1 0.5
v -0.4 0.1 0.5
v 0.4 0.1 0.5
v 0.5 0.1 0.5
v -0.5 0.1 0.4
v -0.4 0.1 0.4
v 0.3 0.1 0.4
v 0.4 0.1 0.4
v 0.5 0.1 0.4
v -0.4 0.1 0.3
v -0.3 0.1 0.3
v 0.3 0.1 0.3
v 0.4 0.1 0.3
v 0.5 0.1 0.3
v -0.4 0.1 0.2
v -0.3 0.1 0.2
v -0.2 0.1 0.2
v 0.2 0.1 0.2
v 0.3 0.1 0.2
v 0.4 0.1 0.2
v 0.5 0.1 0.2
v -0.2 0.1 0.1
v 0.2 0.1 0.1
v 0.3 0.1 0.1
v 0.4 0.1 0.1
v -0.2 0.1 0
v -0.4 0.1 -0.1
v -0.3 0.1 -0.1
v -0.2 0.1 -0.1
v 0.2 0.1 -0.1
v 0.3 0.1 -0.1
v 0.2 0.1 -0.2
v 0.3 0.1 -0.2
v 0.4 0.1 -0.2
v 0.5 0.1 -0.2
v 0.4 0.1 -0.3
v 0.5 0.1 -0.3
v -0.5 0.1 -0.4
v -0.4 0.1 -0.4
v -0.3 0.1 -0.4
v -0.5 0.1 -0.5
v -0.4 0.1 -0.5
v 0.4 0.2 0.4
v 0.5 0.2 0.4
v -0.3 0.2 0.3
v -0.2 0.2 0.3
v 0.3 0.2 0.3
v 0.4 0.2 0.3
v 0.5 0.2 0.3
v -0.3 0.2 0.2
v -0.2 0.2 0.2
v 0.3 0.2 0.2
v -0.2 0.2 0.1
v -0.1 0.2 0.1
v 0.3 0.2 0.1
v 0.4 0.2 0.1
v -0.2 0.2 0
v -0.1 0.2 0
v -0.3 0.2 -0.1
v -0.2 0.2 -0.1
v -0.3 0.2 -0.2
v -0.2 0.2 -0.2
v 0.3 0.2 -0.2
v 0.4 0.2 -0.2
v 0.3 0.2 -0.3
v 0.4 0.2 -0.3
v 0.4 0.2 -0.4
v 0.5 0.2 -0.4
v 0.4 0.2 -0.5
v 0.5 0.2 -0.5
v -0.4 0.3 0.4
v -0.3 0.3 0.4
v -0.4 0.3 0.3
v -0.3 0.3 0.3
v 0.2 0.3 0.3
v 0.3 0.3 0.3
v 0.2 0.3 0.2
v 0.3 0.3 0.2
v -0.1 0.3 0.1
v 0 0.3 0.1
v 0.1 0.3 0.1
v 0.2 0.3 0.1
v -0.2 0.3 0
v -0.1 0.3 0
v 0 0.3 0
v 0.1 0.3 0
v 0.2 0.3 0
v -0.2 0.3 -0.1
v -0.1 0.3 -0.1
v 0 0.3 -0.1
v 0.1 0.3 -0.1
v 0.2 0.3 -0.1
v 0.4 0.3 -0.3
v 0.5 0.3 -0.3
v 0.4 0.3 -0.4
v 0.5 0.3 -0.4
v -0.3 0.4 0.4
v -0.1 0.4 0.4
v 0.3 0.4 0.4
v 0.4 0.4 0.4
v -0.3 0.4 0.3
v -0.2 0.4 0.3
v -0.1 0.4 0.3
v 0.3 0.4 0.3
v 0.4 0.4 0.3
v -0.1 0.4 0.2
v 0 0.4 0.2
v 0.1 0.4 0.2
v 0.2 0.4 0.2
v -0.2 0.4 0.1
v -0.1 0.4 0.1
v 0 0.4 0.1
v 0.1 0.4 0.1
v 0.2 0.4 0.1
v -0.2 0.4 -0.1
v -0.1 0.4 -0.1
v 0 0.4 -0.1
v 0.1 0.4 -0.1
v 0.2 0.4 -0.1
v -0.3 0.4 -0.2
v -0.2 0.4 -0.2
v -0.1 0.4 -0.2
v 0 0.4 -0.2
v 0.1 0.4 -0.2
v 0.2 0.4 -0.2
v 0.3 0.4 -0.2
v -0.3 0.4 -0.3
v -0.2 0.4 -0.3
v 0.1 0.4 -0.3
v 0.2 0.4 -0.3
v 0.3 0.4 -0.3
v 0.4 0.4 -0.3
v 0.3 0.4 -0.4
v 0.4 0.4 -0.4
v -0.4 0.5 0.5
v -0.1 0.5 0.5
v 0.1 0.5 0.5
v 0.4 0.5 0.5
v -0.4 0.5 0.4
v -0.1 0.5 0.4
v 0 0.5 0.4
v 0.3 0.5 0.4
v 0.4 0.5 0.4
v -0.1 0.5 0.3
v 0 0.5 0.3
v 0.1 0.5 0.3
v 0.2 0.5 0.3
v 0.3 0.5 0.3
v -0.1 0.5 0.2
v 0 0.5 0.2
v 0.2 0.5 0.2
v 0.1 0.5 -0.2
v 0.2 0.5 -0.2
v -0.3 0.5 -0.3
v -0.2 0.5 -0.3
v 0.1 0.5 -0.3
v 0.2 0.5 -0.3
v 0.3 0.5 -0.3
v -0.4 0.5 -0.4
v -0.3 0.5 -0.4
v 0 0.5 -0.4
v 0.2 0.5 -0.4
v 0.3 0.5 -0.4
v 0.4 0.5 -0.4
v -0.4 0.5 -0.5
v -0.3 0.5 -0.5
v -0.2 0.5 -0.5
v 0 0.5 -0.5
v 0.2 0.5 -0.5
v 0.4 0.5 -0.5

# faces
f 5/2/1 2/2/1 1/2/1
f 6/2/1 2/2/1 5/2/1
f 7/1/1 4/1/1 3/1/1
f 8/1/1 4/1/1 7/1/1
f 14/2/1 10/2/1 9/2/1
f 15/2/1 10/2/1 14/2/1
f 16/2/1 10/2/1 15/2/1
f 17/2/1 12/2/1 11/2/1
f 18/2/1 12/2/1 17/2/1
f 20/2/1 14/2/1 13/2/1
f 20/2/1 15/2/1 14/2/1
f 21/2/1 15/2/1 20/2/1
f 22/1/1 21/1/1 20/1/1
f 23/2/1 15/2/1 21/2/1
f 23/1/1 21/1/1 22/1/1
f 24/2/1 15/2/1 23/2/1
f 25/2/1 23/2/1 22/2/1
f 26/2/1 23/2/1 25/2/1
f 27/2/1 19/2/1 18/2/1
f 28/2/1 19/2/1 27/2/1
f 32/2/1 30/2/1 29/2/1
f 33/2/1 30/2/1 32/2/1
f 35/2/1 32/2/1 31/2/1
f 36/2/1 32/2/1 35/2/1
f 37/2/1 34/2/1 33/2/1
f 38/2/1 34/2/1 37/2/1
f 41/2/1 40/2/1 39/2/1
f 42/2/1 40/2/1 41/2/1
f 43/2/1 34/2/1 38/2/1
f 44/2/1 34/2/1 43/2/1
f 45/2/1 34/2/1 44/2/1
f 46/1/1 45/1/1 44/1/1
f 47/1/1 45/1/1 46/1/1
f 53/2/1 49/2/1 48/2/1
f 54/1/1 50/1/1 49/1/1
f 54/2/1 49/2/1 53/2/1
f 55/2/1 51/2/1 50/2/1
f 55/1/1 50/1/1 54/1/1
f 56/2/1 51/2/1 55/2/1
f 58/1/1 56/1/1 55/1/1
f 59/2/1 57/2/1 56/2/1
f 59/1/1 56/1/1 58/1/1
f 60/2/1 54/2/1 53/2/1
f 60/2/1 53/2/1 52/2/1
f 61/2/1 54/2/1 60/2/1
f 62/2/1 57/2/1 59/2/1
f 63/2/1 57/2/1 62/2/1
f 66/1/1 65/1/1 64/1/1
f 67/1/1 65/1/1 66/1/1
f 71/2/1 69/2/1 68/2/1
f 72/1/1 70/1/1 69/1/1
f 72/2/1 69/2/1 71/2/1
f 73/1/1 70/1/1 72/1/1
f 77/2/1 75/2/1 74/2/1
f 77/2/1 76/2/1 75/2/1
f 78/2/1 76/2/1 77/2/1
f 81/2/1 80/2/1 79/2/1
f 82/2/1 80/2/1 81/2/1
f 85/2/1 84/2/1 83/2/1
f 86/2/1 84/2/1 85/2/1
f 89/2/1 88/2/1 87/2/1
f 90/2/1 88/2/1 89/2/1
f 91/2/2 92/2/2 94/2/2
f 92/2/2 93/2/2 94/2/2
f 94/2/2 93/2/2 95/2/2
f 96/2/2 97/2/2 100/2/2
f 98/2/2 99/2/2 100/2/2
f 97/2/2 98/2/2 100/2/2
f 100/2/2 99/2/2 101/2/2
f 96/2/2 100/2/2 103/2/2
f 103/2/2 100/2/2 104/2/2
f 100/1/2 101/1/2 105/1/2
f 104/2/2 100/2/2 105/2/2
f 101/2/2 99/2/2 106/2/2
f 105/1/2 101/1/2 106/1/2
f 106/2/2 99/2/2 107/2/2
f 103/1/2 104/1/2 108/1/2
f 102/2/2 103/2/2 108/2/2
f 108/1/2 104/1/2 109/1/2
f 106/2/2 107/2/2 110/2/2
f 110/2/2 107/2/2 111/2/2
f 102/2/2 108/2/2 113/2/2
f 113/2/2 108/2/2 114/2/2
f 111/2/2 112/2/2 115/2/2
f 115/2/2 112/2/2 116/2/2
f 117/2/2 118/2/2 119/2/2
f 119/2/2 118/2/2 120/2/2
f 120/2/2 121/2/2 124/2/2
f 124/2/2 121/2/2 125/2/2
f 122/2/2 123/2/2 126/2/2
f 126/2/2 123/2/2 127/2/2
f 126/1/2 127/1/2 130/1/2
f 130/1/2 127/1/2 131/1/2
f 128/2/2 129/2/2 133/2/2
f 133/2/2 129/2/2 134/2/2
f 131/1/2 132/1/2 135/1/2
f 135/1/2 132/1/2 136/1/2
f 137/2/2 138/2/2 142/2/2
f 142/2/2 138/2/2 143/2/2
f 143/2/2 138/2/2 144/2/2
f 139/2/2 140/2/2 146/2/2
f 141/2/2 142/2/2 147/2/2
f 142/2/2 143/2/2 147/2/2
f 147/2/2 143/2/2 148/2/2
f 144/1/2 145/1/2 149/1/2
f 149/1/2 145/1/2 150/1/2
f 151/2/2 152/2/2 154/2/2
f 139/2/2 146/2/2 155/2/2
f 146/2/2 147/2/2 155/2/2
f 155/2/2 147/2/2 156/2/2
f 153/1/2 154/1/2 157/1/2
f 154/2/2 152/2/2 158/2/2
f 157/1/2 154/1/2 158/1/2
f 139/2/2 155/2/2 159/2/2
f 159/2/2 155/2/2 160/2/2
f 158/2/2 152/2/2 161/2/2
f 161/2/2 152/2/2 162/2/2
f 163/2/2 164/2/2 168/2/2
f 168/2/2 164/2/2 169/2/2
f 169/2/2 164/2/2 170/2/2
f 170/2/2 164/2/2 171/2/2
f 165/1/2 166/1/2 172/1/2
f 166/2/2 167/2/2 173/2/2
f 172/1/2 166/1/2 173/1/2
f 173/2/2 167/2/2 174/2/2
f 169/2/2 170/2/2 175/2/2
f 175/2/2 170/2/2 176/2/2
f 174/2/2 167/2/2 177/2/2
f 173/1/2 174/1/2 177/1/2
f 177/2/2 167/2/2 178/2/2
f 173/1/2 177/1/2 179/1/2
f 179/1/2 177/1/2 180/1/2
f 183/2/3 182/2/3 181/2/3
f 187/2/3 183/2/3 181/2/3
f 187/2/3 184/2/3 183/2/3
f 188/1/3 185/1/3 184/1/3
f 188/2/3 184/2/3 187/2/3
f 189/2/3 186/2/3 185/2/3
f 189/1/3 185/1/3 188/1/3
f 190/2/3 187/2/3 181/2/3
f 191/1/3 188/1/3 187/1/3
f 191/2/3 187/2/3 190/2/3
f 192/2/3 189/2/3 188/2/3
f 192/1/3 188/1/3 191/1/3
f 193/2/3 186/2/3 189/2/3
f 193/2/3 189/2/3 192/2/3
f 194/2/3 186/2/3 193/2/3
f 195/1/3 191/1/3 190/1/3
f 196/2/3 192/2/3 191/2/3
f 196/1/3 191/1/3 195/1/3
f 196/2/3 193/2/3 192/2/3
f 197/1/3 194/1/3 193/1/3
f 197/2/3 193/2/3 196/2/3
f 197/2/3 196/2/3 195/2/3
f 198/1/3 194/1/3 197/1/3
f 199/2/3 197/2/3 195/2/3
f 199/2/3 198/2/3 197/2/3
f 200/2/3 198/2/3 199/2/3
f 201/2/3 199/2/3 195/2/3
f 202/2/3 199/2/3 201/2/3
f 205/2/3 204/2/3 203/2/3
f 206/2/3 204/2/3 205/2/3
f 209/2/3 208/2/3 207/2/3
f 210/2/3 208/2/3 209/2/3
f 213/1/3 212/1/3 211/1/3
f 214/1/3 212/1/3 213/1/3
f 217/2/3 216/2/3 215/2/3
f 218/2/3 216/2/3 217/2/3
f 220/2/3 219/2/3 218/2/3
f 221/2/3 219/2/3 220/2/3
f 224/2/3 223/2/3 222/2/3
f 225/2/3 223/2/3 224/2/3
f 226/1/3 225/1/3 224/1/3
f 227/1/3 225/1/3 226/1/3
f 230/2/3 229/2/3 228/2/3
f 231/2/3 229/2/3 230/2/3
f 234/2/3 233/2/3 232/2/3
f 235/2/3 233/2/3 234/2/3
f 240/2/3 237/2/3 236/2/3
f 241/2/3 237/2/3 240/2/3
f 242/2/3 239/2/3 238/2/3
f 243/2/3 239/2/3 242/2/3
f 244/1/3 240/1/3 239/1/3
f 244/2/3 239/2/3 243/2/3
f 245/1/3 240/1/3 244/1/3
f 247/1/3 243/1/3 242/1/3
f 248/1/3 243/1/3 247/1/3
f 249/1/3 247/1/3 246/1/3
f 250/1/3 247/1/3 249/1/3
f 253/1/3 252/1/3 251/1/3
f 254/1/3 252/1/3 253/1/3
f 255/2/3 254/2/3 253/2/3
f 256/2/3 254/2/3 255/2/3
f 261/1/3 258/1/3 257/1/3
f 262/1/3 258/1/3 261/1/3
f 264/2/3 260/2/3 259/2/3
f 265/1/3 261/1/3 260/1/3
f 265/2/3 260/2/3 264/2/3
f 266/1/3 261/1/3 265/1/3
f 267/1/3 264/1/3 263/1/3
f 267/1/3 265/1/3 264/1/3
f 268/1/3 265/1/3 267/1/3
f 271/1/3 270/1/3 269/1/3
f 272/1/3 270/1/3 271/1/3
f 274/2/3 273/2/3 272/2/3
f 275/2/3 273/2/3 274/2/3
f 276/2/3 273/2/3 275/2/3
f 279/2/3 278/2/3 277/2/3
f 280/2/3 278/2/3 279/2/3
f 281/2/4 282/2/4 283/2/4
f 283/2/4 282/2/4 284/2/4
f 285/2/4 286/2/4 287/2/4
f 287/2/4 286/2/4 288/2/4
f 288/2/4 286/2/4 289/2/4
f 289/2/4 286/2/4 290/2/4
f 291/2/4 292/2/4 295/2/4
f 295/2/4 292/2/4 296/2/4
f 293/2/4 294/2/4 297/2/4
f 297/2/4 294/2/4 298/2/4
f 299/2/4 300/2/4 301/2/4
f 301/2/4 300/2/4 302/2/4
f 302/2/4 300/2/4 303/2/4
f 303/2/4 304/2/4 305/2/4
f 302/2/4 303/2/4 305/2/4
f 305/2/4 304/2/4 306/2/4
f 307/2/4 308/2/4 310/2/4
f 310/2/4 308/2/4 311/2/4
f 311/2/4 308/2/4 312/2/4
f 309/2/4 310/2/4 314/2/4
f 310/2/4 311/2/4 314/2/4
f 314/2/4 311/2/4 315/2/4
f 313/2/4 314/2/4 316/2/4
f 316/2/4 314/2/4 317/2/4
f 318/2/4 319/2/4 320/2/4
f 320/2/4 319/2/4 321/2/4
f 321/2/4 322/2/4 323/2/4
f 323/2/4 322/2/4 324/2/4
f 325/1/4 326/1/4 327/1/4
f 327/1/4 326/1/4 328/1/4
f 327/2/4 328/2/4 329/2/4
f 329/2/4 328/2/4 332/2/4
f 332/2/4 328/2/4 333/2/4
f 330/2/4 331/2/4 334/2/4
f 334/2/4 331/2/4 335/2/4
f 335/2/4 331/2/4 336/2/4
f 337/2/4 338/2/4 339/2/4
f 339/2/4 338/2/4 340/2/4
f 341/2/4 342/2/4 343/2/4
f 343/2/4 342/2/4 344/2/4
f 344/2/4 342/2/4 345/2/4
f 344/1/4 345/1/4 346/1/4
f 346/1/4 345/1/4 347/1/4
f 348/1/4 349/1/4 350/1/4
f 350/1/4 349/1/4 351/1/4
f 352/2/4 353/2/4 354/2/4
f 354/2/4 353/2/4 355/2/4
f 356/1/4 357/1/4 358/1/4
f 358/1/4 357/1/4 359/1/4
f 360/1/4 361/1/4 362/1/4
f 362/1/4 361/1/4 363/1/4
f 362/2/4 363/2/4 365/2/4
f 363/2/4 364/2/4 365/2/4
f 365/2/4 364/2/4 366/2/4
f 362/2/4 365/2/4 367/2/4
f 365/1/4 366/1/4 367/1/4
f 367/1/4 366/1/4 368/1/4
f 362/2/4 367/2/4 369/2/4
f 367/2/4 368/2/4 369/2/4
f 369/2/4 368/2/4 370/2/4
f 362/2/4 369/2/4 371/2/4
f 369/1/4 370/1/4 371/1/4
f 371/1/4 370/1/4 372/1/4
f 362/2/4 371/2/4 373/2/4
f 371/2/4 372/2/4 373/2/4
f 373/2/4 372/2/4 374/2/4
f 362/2/4 373/2/4 375/2/4
f 375/2/4 373/2/4 376/2/4
f 381/2/5 378/2/5 377/2/5
f 382/2/5 378/2/5 381/2/5
f 383/1/5 379/1/5 378/1/5
f 383/2/5 378/2/5 382/2/5
f 384/2/5 380/2/5 379/2/5
f 384/1/5 379/1/5 383/1/5
f 385/2/5 383/2/5 382/2/5
f 385/2/5 384/2/5 383/2/5
f 386/2/5 384/2/5 385/2/5
f 387/2/5 380/2/5 384/2/5
f 387/2/5 384/2/5 386/2/5
f 388/2/5 380/2/5 387/2/5
f 389/2/5 387/2/5 386/2/5
f 390/2/5 387/2/5 389/2/5
f 392/2/5 389/2/5 386/2/5
f 393/1/5 390/1/5 389/1/5
f 393/2/5 389/2/5 392/2/5
f 394/2/5 387/2/5 390/2/5
f 394/1/5 390/1/5 393/1/5
f 395/2/5 393/2/5 392/2/5
f 395/2/5 387/2/5 394/2/5
f 395/2/5 394/2/5 393/2/5
f 395/2/5 392/2/5 391/2/5
f 397/2/5 395/2/5 391/2/5
f 397/1/5 396/1/5 395/1/5
f 398/1/5 396/1/5 397/1/5
f 400/2/5 397/2/5 391/2/5
f 400/2/5 398/2/5 397/2/5
f 401/1/5 400/1/5 399/1/5
f 402/2/5 398/2/5 400/2/5
f 402/1/5 400/1/5 401/1/5
f 403/2/5 398/2/5 402/2/5
f 406/2/5 405/2/5 404/2/5
f 407/2/5 405/2/5 406/2/5
f 408/2/6 409/2/6 412/2/6
f 412/2/6 409/2/6 413/2/6
f 410/2/6 411/2/6 415/2/6
f 415/2/6 411/2/6 416/2/6
f 414/2/6 415/2/6 419/2/6
f 419/2/6 415/2/6 420/2/6
f 417/2/6 418/2/6 422/2/6
f 422/2/6 418/2/6 423/2/6
f 420/2/6 421/2/6 427/2/6
f 427/2/6 421/2/6 428/2/6
f 423/2/6 424/2/6 429/2/6
f 425/2/6 426/2/6 430/2/6
f 430/2/6 426/2/6 431/2/6
f 423/2/6 429/2/6 433/2/6
f 423/2/6 433/2/6 435/2/6
f 435/2/6 433/2/6 436/2/6
f 430/1/6 431/1/6 437/1/6
f 431/2/6 432/2/6 438/2/6
f 437/1/6 431/1/6 438/1/6
f 437/2/6 438/2/6 439/2/6
f 438/2/6 432/2/6 440/2/6
f 439/2/6 438/2/6 440/2/6
f 440/2/6 432/2/6 441/2/6
f 441/1/6 442/1/6 443/1/6
f 443/1/6 442/1/6 444/1/6
f 434/2/6 435/2/6 446/2/6
f 446/2/6 435/2/6 447/2/6
f 445/1/6 446/1/6 448/1/6
f 448/1/6 446/1/6 449/1/6
f 450/2/6 451/2/6 455/2/6
f 455/2/6 451/2/6 456/2/6
f 452/2/6 453/2/6 457/2/6
f 457/2/6 453/2/6 458/2/6
f 454/2/6 455/2/6 459/2/6
f 459/2/6 455/2/6 462/2/6
f 462/2/6 455/2/6 463/2/6
f 460/1/6 461/1/6 464/1/6
f 464/1/6 461/1/6 465/1/6
f 466/2/6 467/2/6 468/2/6
f 468/2/6 467/2/6 469/2/6
f 470/1/6 471/1/6 472/1/6
f 472/1/6 471/1/6 473/1/6
f 474/2/6 475/2/6 476/2/6
f 476/2/6 475/2/6 477/2/6
f 478/2/6 479/2/6 480/2/6
f 480/2/6 479/2/6 481/2/6
f 482/2/6 483/2/6 484/2/6
f 484/2/6 483/2/6 485/2/6
f 486/1/6 487/1/6 491/1/6
f 491/1/6 487/1/6 492/1/6
f 488/2/6 489/2/6 493/2/6
f 493/2/6 489/2/6 494/2/6
f 490/1/6 491/1/6 495/1/6
f 491/2/6 492/2/6 496/2/6
f 495/1/6 491/1/6 496/1/6
f 496/2/6 492/2/6 497/2/6
f 493/1/6 494/1/6 498/1/6
f 498/1/6 494/1/6 499/1/6
f 500/1/6 501/1/6 502/1/6
f 502/1/6 501/1/6 503/1/6
f 504/2/6 505/2/6 508/2/6
f 508/2/6 505/2/6 509/2/6
f 509/2/6 505/2/6 510/2/6
f 506/2/6 507/2/6 511/2/6
f 511/2/6 507/2/6 512/2/6
f 509/2/6 510/2/6 513/2/6
f 509/2/6 513/2/6 517/2/6
f 513/1/6 514/1/6 518/1/6
f 517/2/6 513/2/6 518/2/6
f 514/2/6 515/2/6 519/2/6
f 518/1/6 514/1/6 519/1/6
f 515/1/6 516/1/6 520/1/6
f 519/2/6 515/2/6 520/2/6
f 520/1/6 516/1/6 521/1/6
f 519/2/6 520/2/6 524/2/6
f 524/2/6 520/2/6 525/2/6
f 522/2/6 523/2/6 528/2/6
f 523/1/6 524/1/6 529/1/6
f 528/2/6 523/2/6 529/2/6
f 525/2/6 526/2/6 530/2/6
f 529/1/6 524/1/6 530/1/6
f 524/2/6 525/2/6 530/2/6
f 530/2/6 526/2/6 531/2/6
f 531/2/6 526/2/6 532/2/6
f 528/2/6 529/2/6 534/2/6
f 530/2/6 531/2/6 534/2/6
f 529/2/6 530/2/6 534/2/6
f 527/2/6 528/2/6 534/2/6
f 534/2/6 531/2/6 535/2/6
f 535/2/6 531/2/6 536/2/6
f 532/1/6 533/1/6 537/1/6
f 537/1/6 533/1/6 538/1/6
f 538/1/6 539/1/6 540/1/6
f 540/1/6 539/1/6 541/1/6
f 542/2/6 543/2/6 546/2/6
f 543/1/6 544/1/6 547/1/6
f 546/2/6 543/2/6 547/2/6
f 547/1/6 544/1/6 548/1/6
f 544/2/6 545/2/6 549/2/6
f 549/2/6 545/2/6 550/2/6
f 547/2/6 548/2/6 551/2/6
f 548/1/6 544/1/6 552/1/6
f 551/2/6 548/2/6 552/2/6
f 544/2/6 549/2/6 553/2/6
f 552/1/6 544/1/6 553/1/6
f 553/2/6 549/2/6 554/2/6
f 554/2/6 549/2/6 555/2/6
f 551/1/6 552/1/6 556/1/6
f 552/2/6 553/2/6 557/2/6
f 556/1/6 552/1/6 557/1/6
f 553/2/6 554/2/6 557/2/6
f 557/2/6 554/2/6 558/2/6
f 559/2/6 560/2/6 563/2/6
f 563/2/6 560/2/6 564/2/6
f 561/1/6 562/1/6 567/1/6
f 563/2/6 564/2/6 568/2/6
f 562/2/6 563/2/6 568/2/6
f 564/1/6 565/1/6 569/1/6
f 568/2/6 564/2/6 569/2/6
f 569/1/6 565/1/6 570/1/6
f 566/2/6 567/2/6 572/2/6
f 567/1/6 562/1/6 573/1/6
f 572/2/6 567/2/6 573/2/6
f 562/2/6 568/2/6 574/2/6
f 573/1/6 562/1/6 574/1/6
f 568/1/6 569/1/6 575/1/6
f 574/2/6 568/2/6 575/2/6
f 569/2/6 570/2/6 576/2/6
f 575/1/6 569/1/6 576/1/6
f 570/2/6 571/2/6 576/2/6
f 576/2/6 571/2/6 577/2/6
