# MagicaVoxel @ Ephtracy

# group
o 

# material
mtllib Baum-5.mtl
usemtl palette

# normals
vn -1 0 0
vn 1 0 0
vn 0 0 1
vn 0 0 -1
vn 0 -1 0
vn 0 1 0

# texcoords
vt 0.876953 0.5
vt 0.880859 0.5
vt 0.908203 0.5
vt 0.912109 0.5
vt 0.916016 0.5
vt 0.919922 0.5
vt 0.955078 0.5

# verts
v -0.5 0.3 -0.1
v -0.5 0.3 -0.4
v -0.5 0.4 -0.1
v -0.5 0.4 -0.4
v -0.4 0.2 0.5
v -0.4 0.2 0.2
v -0.4 0.2 -0.1
v -0.4 0.2 -0.4
v -0.4 0.3 0
v -0.4 0.3 -0.1
v -0.4 0.3 -0.4
v -0.4 0.3 -0.5
v -0.4 0.4 0.5
v -0.4 0.4 0.2
v -0.4 0.4 0
v -0.4 0.4 -0.1
v -0.4 0.4 -0.4
v -0.4 0.4 -0.5
v -0.4 0.5 -0.1
v -0.4 0.5 -0.4
v -0.3 0 0.4
v -0.3 0 0.3
v -0.3 0 -0.2
v -0.3 0 -0.3
v -0.3 0.2 0.4
v -0.3 0.2 0.3
v -0.3 0.2 -0.2
v -0.3 0.2 -0.3
v -0.3 0.4 0.3
v -0.3 0.4 0.2
v -0.3 0.4 0
v -0.3 0.4 -0.1
v -0.3 0.5 -0.1
v -0.3 0.5 -0.2
v -0.3 0.7 0.3
v -0.3 0.7 -0.2
v -0.2 0.7 0.2
v -0.2 0.7 -0.1
v -0.2 0.8 0.2
v -0.2 0.8 -0.1
v -0.1 0 0.1
v -0.1 0 0
v -0.1 0.4 0.1
v -0.1 0.4 0
v 0 0 0.4
v 0 0 0.3
v 0 0.1 0.5
v 0 0.1 0.4
v 0 0.2 0.4
v 0 0.2 0.3
v 0 0.2 -0.1
v 0 0.2 -0.4
v 0 0.3 0.5
v 0 0.3 0.3
v 0 0.3 -0.2
v 0 0.3 -0.4
v 0 0.4 -0.1
v 0 0.4 -0.2
v 0 0.4 -0.4
v 0 0.5 -0.2
v 0 0.5 -0.4
v 0.1 0 -0.2
v 0.1 0 -0.3
v 0.1 0.2 -0.2
v 0.1 0.2 -0.3
v 0.2 0.2 0.3
v 0.2 0.2 0
v 0.2 0.3 0.3
v 0.2 0.4 0.3
v 0.2 0.4 0
v 0.3 0 0.2
v 0.3 0 0.1
v 0.3 0 -0.1
v 0.3 0 -0.3
v 0.3 0 -0.4
v 0.3 0.1 -0.1
v 0.3 0.1 -0.3
v 0.3 0.1 -0.4
v 0.3 0.2 0.2
v 0.3 0.2 0.1
v 0.3 0.4 0.2
v 0.3 0.4 0.1
v 0.3 0.5 0.2
v 0.3 0.5 0.1
v -0.2 0 0.4
v -0.2 0 0.3
v -0.2 0 -0.2
v -0.2 0 -0.3
v -0.2 0.2 0.4
v -0.2 0.2 0.3
v -0.2 0.2 -0.2
v -0.2 0.2 -0.3
v -0.2 0.3 0
v -0.2 0.3 -0.1
v -0.2 0.4 0
v -0.2 0.4 -0.1
v -0.1 0.2 0.5
v -0.1 0.2 0.2
v -0.1 0.2 -0.1
v -0.1 0.2 -0.2
v -0.1 0.2 -0.4
v -0.1 0.3 -0.2
v -0.1 0.3 -0.4
v -0.1 0.3 -0.5
v -0.1 0.4 0.5
v -0.1 0.4 0.3
v -0.1 0.4 0.2
v -0.1 0.4 -0.1
v -0.1 0.4 -0.2
v -0.1 0.4 -0.4
v -0.1 0.4 -0.5
v -0.1 0.5 -0.2
v -0.1 0.5 -0.4
v 0 0 0.1
v 0 0 0
v 0 0.4 0.1
v 0 0.4 0
v 0.1 0 0.4
v 0.1 0 0.3
v 0.1 0.1 0.4
v 0.1 0.1 0.3
v 0.1 0.7 0.2
v 0.1 0.7 -0.1
v 0.1 0.8 0.2
v 0.1 0.8 -0.1
v 0.2 0 -0.2
v 0.2 0 -0.3
v 0.2 0.1 0.5
v 0.2 0.1 0.3
v 0.2 0.2 0.3
v 0.2 0.2 -0.2
v 0.2 0.2 -0.3
v 0.2 0.3 0.5
v 0.2 0.3 0.3
v 0.2 0.4 0.3
v 0.2 0.4 0
v 0.2 0.4 -0.1
v 0.2 0.5 -0.1
v 0.2 0.5 -0.2
v 0.2 0.7 0.3
v 0.2 0.7 -0.2
v 0.3 0.2 -0.1
v 0.3 0.2 -0.4
v 0.3 0.5 -0.1
v 0.3 0.5 -0.4
v 0.4 0 0.2
v 0.4 0 0.1
v 0.4 0 -0.1
v 0.4 0 -0.3
v 0.4 0 -0.4
v 0.4 0.1 -0.1
v 0.4 0.1 -0.3
v 0.4 0.1 -0.4
v 0.4 0.2 0.2
v 0.4 0.2 0.1
v 0.4 0.4 0.2
v 0.4 0.4 0.1
v 0.4 0.5 0.2
v 0.4 0.5 0.1
v 0.5 0.2 0.3
v 0.5 0.2 0
v 0.5 0.4 0.3
v 0.5 0.4 0
v -0.4 0.2 0.5
v -0.4 0.4 0.5
v -0.1 0.2 0.5
v -0.1 0.4 0.5
v 0 0.1 0.5
v 0 0.3 0.5
v 0.2 0.1 0.5
v 0.2 0.3 0.5
v -0.3 0 0.4
v -0.3 0.2 0.4
v -0.2 0 0.4
v -0.2 0.2 0.4
v 0 0 0.4
v 0 0.1 0.4
v 0.1 0 0.4
v 0.1 0.1 0.4
v -0.3 0.4 0.3
v -0.3 0.7 0.3
v -0.1 0.4 0.3
v 0.2 0.2 0.3
v 0.2 0.3 0.3
v 0.2 0.4 0.3
v 0.2 0.7 0.3
v 0.5 0.2 0.3
v 0.5 0.4 0.3
v -0.2 0.7 0.2
v -0.2 0.8 0.2
v 0.1 0.7 0.2
v 0.1 0.8 0.2
v 0.3 0 0.2
v 0.3 0.2 0.2
v 0.3 0.4 0.2
v 0.3 0.5 0.2
v 0.4 0 0.2
v 0.4 0.2 0.2
v 0.4 0.4 0.2
v 0.4 0.5 0.2
v -0.1 0 0.1
v -0.1 0.4 0.1
v 0 0 0.1
v 0 0.4 0.1
v -0.4 0.3 0
v -0.4 0.4 0
v -0.3 0.3 0
v -0.3 0.4 0
v -0.2 0.3 0
v -0.2 0.4 0
v -0.5 0.3 -0.1
v -0.5 0.4 -0.1
v -0.4 0.2 -0.1
v -0.4 0.3 -0.1
v -0.4 0.4 -0.1
v -0.4 0.5 -0.1
v -0.3 0.3 -0.1
v -0.3 0.4 -0.1
v -0.3 0.5 -0.1
v -0.2 0.3 -0.1
v -0.2 0.4 -0.1
v -0.1 0.2 -0.1
v -0.1 0.4 -0.1
v 0 0.2 -0.1
v 0 0.4 -0.1
v 0.1 0.4 -0.1
v 0.2 0.4 -0.1
v 0.2 0.5 -0.1
v 0.3 0 -0.1
v 0.3 0.1 -0.1
v 0.3 0.2 -0.1
v 0.3 0.5 -0.1
v 0.4 0 -0.1
v 0.4 0.1 -0.1
v -0.3 0 -0.2
v -0.3 0.2 -0.2
v -0.2 0 -0.2
v -0.2 0.2 -0.2
v -0.1 0.3 -0.2
v -0.1 0.4 -0.2
v 0 0.3 -0.2
v 0 0.4 -0.2
v 0.1 0 -0.2
v 0.1 0.2 -0.2
v 0.2 0 -0.2
v 0.2 0.2 -0.2
v -0.3 0 0.3
v -0.3 0.2 0.3
v -0.2 0 0.3
v -0.2 0.2 0.3
v 0 0 0.3
v 0 0.2 0.3
v 0 0.3 0.3
v 0.1 0 0.3
v 0.1 0.1 0.3
v 0.1 0.2 0.3
v 0.2 0.1 0.3
v 0.2 0.2 0.3
v 0.2 0.3 0.3
v -0.4 0.2 0.2
v -0.4 0.4 0.2
v -0.3 0.3 0.2
v -0.3 0.4 0.2
v -0.2 0.3 0.2
v -0.2 0.4 0.2
v -0.1 0.2 0.2
v -0.1 0.4 0.2
v 0.3 0 0.1
v 0.3 0.2 0.1
v 0.3 0.4 0.1
v 0.3 0.5 0.1
v 0.4 0 0.1
v 0.4 0.2 0.1
v 0.4 0.4 0.1
v 0.4 0.5 0.1
v -0.1 0 0
v -0.1 0.4 0
v 0 0 0
v 0 0.4 0
v 0.2 0.2 0
v 0.2 0.4 0
v 0.5 0.2 0
v 0.5 0.4 0
v -0.2 0.7 -0.1
v -0.2 0.8 -0.1
v 0.1 0.7 -0.1
v 0.1 0.8 -0.1
v -0.3 0.5 -0.2
v -0.3 0.7 -0.2
v -0.1 0.4 -0.2
v -0.1 0.5 -0.2
v 0 0.4 -0.2
v 0 0.5 -0.2
v 0.2 0.5 -0.2
v 0.2 0.7 -0.2
v -0.3 0 -0.3
v -0.3 0.2 -0.3
v -0.2 0 -0.3
v -0.2 0.2 -0.3
v 0.1 0 -0.3
v 0.1 0.2 -0.3
v 0.2 0 -0.3
v 0.2 0.2 -0.3
v -0.5 0.3 -0.4
v -0.5 0.4 -0.4
v -0.4 0.2 -0.4
v -0.4 0.3 -0.4
v -0.4 0.4 -0.4
v -0.4 0.5 -0.4
v -0.3 0.2 -0.4
v -0.3 0.3 -0.4
v -0.1 0.2 -0.4
v -0.1 0.3 -0.4
v -0.1 0.4 -0.4
v -0.1 0.5 -0.4
v 0 0.2 -0.4
v 0 0.3 -0.4
v 0 0.4 -0.4
v 0 0.5 -0.4
v 0.3 0 -0.4
v 0.3 0.1 -0.4
v 0.3 0.2 -0.4
v 0.3 0.5 -0.4
v 0.4 0 -0.4
v 0.4 0.1 -0.4
v -0.4 0.3 -0.5
v -0.4 0.4 -0.5
v -0.1 0.3 -0.5
v -0.1 0.4 -0.5
v -0.3 0 0.4
v -0.2 0 0.4
v 0 0 0.4
v 0.1 0 0.4
v -0.3 0 0.3
v -0.2 0 0.3
v 0 0 0.3
v 0.1 0 0.3
v 0.3 0 0.2
v 0.4 0 0.2
v -0.1 0 0.1
v 0 0 0.1
v 0.3 0 0.1
v 0.4 0 0.1
v -0.1 0 0
v 0 0 0
v 0.3 0 -0.1
v 0.4 0 -0.1
v -0.3 0 -0.2
v -0.2 0 -0.2
v 0.1 0 -0.2
v 0.2 0 -0.2
v -0.3 0 -0.3
v -0.2 0 -0.3
v 0.1 0 -0.3
v 0.2 0 -0.3
v 0.3 0 -0.3
v 0.4 0 -0.3
v 0.3 0 -0.4
v 0.4 0 -0.4
v 0 0.1 0.5
v 0.2 0.1 0.5
v 0 0.1 0.4
v 0.1 0.1 0.4
v 0.1 0.1 0.3
v 0.2 0.1 0.3
v -0.4 0.2 0.5
v -0.1 0.2 0.5
v -0.3 0.2 0.4
v -0.2 0.2 0.4
v -0.3 0.2 0.3
v -0.2 0.2 0.3
v 0.2 0.2 0.3
v 0.5 0.2 0.3
v -0.4 0.2 0.2
v -0.1 0.2 0.2
v 0.3 0.2 0.2
v 0.4 0.2 0.2
v 0.3 0.2 0.1
v 0.4 0.2 0.1
v 0.2 0.2 0
v 0.5 0.2 0
v -0.4 0.2 -0.1
v -0.1 0.2 -0.1
v 0 0.2 -0.1
v 0.3 0.2 -0.1
v -0.3 0.2 -0.2
v -0.2 0.2 -0.2
v -0.1 0.2 -0.2
v 0.1 0.2 -0.2
v 0.2 0.2 -0.2
v -0.3 0.2 -0.3
v -0.2 0.2 -0.3
v 0.1 0.2 -0.3
v 0.2 0.2 -0.3
v -0.4 0.2 -0.4
v -0.3 0.2 -0.4
v -0.1 0.2 -0.4
v 0 0.2 -0.4
v 0.3 0.2 -0.4
v -0.4 0.3 0
v -0.3 0.3 0
v -0.2 0.3 0
v -0.5 0.3 -0.1
v -0.4 0.3 -0.1
v -0.3 0.3 -0.1
v -0.2 0.3 -0.1
v -0.1 0.3 -0.2
v 0 0.3 -0.2
v -0.5 0.3 -0.4
v -0.4 0.3 -0.4
v -0.3 0.3 -0.4
v -0.1 0.3 -0.4
v 0 0.3 -0.4
v -0.4 0.3 -0.5
v -0.1 0.3 -0.5
v -0.1 0.4 0.3
v 0.2 0.4 0.3
v -0.3 0.4 0.2
v -0.2 0.4 0.2
v -0.1 0.4 0.2
v -0.1 0.4 0.1
v 0 0.4 0.1
v -0.3 0.4 0
v -0.2 0.4 0
v -0.1 0.4 0
v 0 0.4 0
v 0.1 0.4 0
v 0.2 0.4 0
v -0.2 0.4 -0.1
v -0.1 0.4 -0.1
v 0 0.4 -0.1
v 0.1 0.4 -0.1
v 0.2 0.4 -0.1
v -0.1 0.4 -0.2
v 0 0.4 -0.2
v 0.3 0.1 -0.1
v 0.4 0.1 -0.1
v 0.3 0.1 -0.3
v 0.4 0.1 -0.3
v 0.3 0.1 -0.4
v 0.4 0.1 -0.4
v 0 0.3 0.5
v 0.2 0.3 0.5
v 0 0.3 0.3
v 0.2 0.3 0.3
v -0.4 0.4 0.5
v -0.1 0.4 0.5
v -0.3 0.4 0.3
v -0.1 0.4 0.3
v 0.2 0.4 0.3
v 0.5 0.4 0.3
v -0.4 0.4 0.2
v -0.3 0.4 0.2
v 0.3 0.4 0.2
v 0.4 0.4 0.2
v 0.3 0.4 0.1
v 0.4 0.4 0.1
v -0.4 0.4 0
v -0.3 0.4 0
v 0.2 0.4 0
v 0.5 0.4 0
v -0.5 0.4 -0.1
v -0.4 0.4 -0.1
v -0.3 0.4 -0.1
v -0.1 0.4 -0.2
v 0 0.4 -0.2
v -0.5 0.4 -0.4
v -0.4 0.4 -0.4
v -0.1 0.4 -0.4
v 0 0.4 -0.4
v -0.4 0.4 -0.5
v -0.1 0.4 -0.5
v 0.3 0.5 0.2
v 0.4 0.5 0.2
v 0.3 0.5 0.1
v 0.4 0.5 0.1
v -0.4 0.5 -0.1
v -0.3 0.5 -0.1
v 0.2 0.5 -0.1
v 0.3 0.5 -0.1
v -0.3 0.5 -0.2
v -0.1 0.5 -0.2
v 0 0.5 -0.2
v 0.2 0.5 -0.2
v -0.4 0.5 -0.4
v -0.1 0.5 -0.4
v 0 0.5 -0.4
v 0.3 0.5 -0.4
v -0.3 0.7 0.3
v 0.2 0.7 0.3
v -0.2 0.7 0.2
v 0.1 0.7 0.2
v -0.2 0.7 -0.1
v 0.1 0.7 -0.1
v -0.3 0.7 -0.2
v 0.2 0.7 -0.2
v -0.2 0.8 0.2
v 0.1 0.8 0.2
v -0.2 0.8 -0.1
v 0.1 0.8 -0.1

# faces
f 3/1/1 2/1/1 1/1/1
f 4/1/1 2/1/1 3/1/1
f 10/2/1 8/2/1 7/2/1
f 11/2/1 8/2/1 10/2/1
f 13/2/1 6/2/1 5/2/1
f 14/2/1 6/2/1 13/2/1
f 15/1/1 10/1/1 9/1/1
f 16/1/1 10/1/1 15/1/1
f 17/1/1 12/1/1 11/1/1
f 18/1/1 12/1/1 17/1/1
f 19/1/1 17/1/1 16/1/1
f 20/1/1 17/1/1 19/1/1
f 25/3/1 22/3/1 21/3/1
f 26/3/1 22/3/1 25/3/1
f 27/5/1 24/5/1 23/5/1
f 28/5/1 24/5/1 27/5/1
f 33/1/1 30/1/1 29/1/1
f 33/1/1 32/1/1 31/1/1
f 33/1/1 31/1/1 30/1/1
f 35/1/1 33/1/1 29/1/1
f 35/1/1 34/1/1 33/1/1
f 36/1/1 34/1/1 35/1/1
f 39/1/1 38/1/1 37/1/1
f 40/1/1 38/1/1 39/1/1
f 43/5/1 42/5/1 41/5/1
f 44/5/1 42/5/1 43/5/1
f 48/4/1 46/4/1 45/4/1
f 49/4/1 46/4/1 48/4/1
f 49/1/1 48/1/1 47/1/1
f 50/4/1 46/4/1 49/4/1
f 53/1/1 49/1/1 47/1/1
f 53/1/1 50/1/1 49/1/1
f 54/1/1 50/1/1 53/1/1
f 55/2/1 52/2/1 51/2/1
f 56/2/1 52/2/1 55/2/1
f 57/2/1 55/2/1 51/2/1
f 58/2/1 55/2/1 57/2/1
f 60/2/1 59/2/1 58/2/1
f 61/2/1 59/2/1 60/2/1
f 64/5/1 63/5/1 62/5/1
f 65/5/1 63/5/1 64/5/1
f 68/2/1 67/2/1 66/2/1
f 69/2/1 67/2/1 68/2/1
f 70/2/1 67/2/1 69/2/1
f 76/3/1 74/3/1 73/3/1
f 77/5/1 75/5/1 74/5/1
f 77/3/1 74/3/1 76/3/1
f 78/5/1 75/5/1 77/5/1
f 79/3/1 72/3/1 71/3/1
f 80/3/1 72/3/1 79/3/1
f 83/2/1 82/2/1 81/2/1
f 84/2/1 82/2/1 83/2/1
f 85/3/2 86/3/2 89/3/2
f 89/3/2 86/3/2 90/3/2
f 87/5/2 88/5/2 91/5/2
f 91/5/2 88/5/2 92/5/2
f 93/2/2 94/2/2 95/2/2
f 95/2/2 94/2/2 96/2/2
f 99/2/2 100/2/2 102/2/2
f 100/1/2 101/1/2 102/1/2
f 102/1/2 101/1/2 103/1/2
f 97/2/2 98/2/2 105/2/2
f 105/2/2 98/2/2 106/2/2
f 106/2/2 98/2/2 107/2/2
f 99/2/2 102/2/2 108/2/2
f 108/2/2 102/2/2 109/2/2
f 103/1/2 104/1/2 110/1/2
f 110/1/2 104/1/2 111/1/2
f 109/1/2 110/1/2 112/1/2
f 112/1/2 110/1/2 113/1/2
f 114/5/2 115/5/2 116/5/2
f 116/5/2 115/5/2 117/5/2
f 118/4/2 119/4/2 120/4/2
f 120/4/2 119/4/2 121/4/2
f 122/1/2 123/1/2 124/1/2
f 124/1/2 123/1/2 125/1/2
f 128/1/2 129/1/2 130/1/2
f 126/5/2 127/5/2 131/5/2
f 131/5/2 127/5/2 132/5/2
f 128/1/2 130/1/2 133/1/2
f 133/1/2 130/1/2 134/1/2
f 135/1/2 136/1/2 138/1/2
f 136/1/2 137/1/2 138/1/2
f 135/1/2 138/1/2 140/1/2
f 138/1/2 139/1/2 140/1/2
f 140/1/2 139/1/2 141/1/2
f 142/2/2 143/2/2 144/2/2
f 144/2/2 143/2/2 145/2/2
f 148/3/2 149/3/2 151/3/2
f 149/5/2 150/5/2 152/5/2
f 151/3/2 149/3/2 152/3/2
f 152/5/2 150/5/2 153/5/2
f 146/3/2 147/3/2 154/3/2
f 154/3/2 147/3/2 155/3/2
f 156/2/2 157/2/2 158/2/2
f 158/2/2 157/2/2 159/2/2
f 160/2/2 161/2/2 162/2/2
f 162/2/2 161/2/2 163/2/2
f 166/2/3 165/2/3 164/2/3
f 167/2/3 165/2/3 166/2/3
f 170/1/3 169/1/3 168/1/3
f 171/1/3 169/1/3 170/1/3
f 174/3/3 173/3/3 172/3/3
f 175/3/3 173/3/3 174/3/3
f 178/4/3 177/4/3 176/4/3
f 179/4/3 177/4/3 178/4/3
f 182/1/3 181/1/3 180/1/3
f 185/1/3 181/1/3 182/1/3
f 186/1/3 181/1/3 185/1/3
f 187/2/3 184/2/3 183/2/3
f 187/2/3 185/2/3 184/2/3
f 188/2/3 185/2/3 187/2/3
f 191/1/3 190/1/3 189/1/3
f 192/1/3 190/1/3 191/1/3
f 197/3/3 194/3/3 193/3/3
f 198/3/3 194/3/3 197/3/3
f 199/2/3 196/2/3 195/2/3
f 200/2/3 196/2/3 199/2/3
f 203/5/3 202/5/3 201/5/3
f 204/5/3 202/5/3 203/5/3
f 207/1/3 206/1/3 205/1/3
f 208/1/3 206/1/3 207/1/3
f 209/2/3 208/2/3 207/2/3
f 210/2/3 208/2/3 209/2/3
f 214/1/3 212/1/3 211/1/3
f 215/1/3 212/1/3 214/1/3
f 217/2/3 214/2/3 213/2/3
f 218/1/3 216/1/3 215/1/3
f 219/1/3 216/1/3 218/1/3
f 220/2/3 217/2/3 213/2/3
f 222/2/3 220/2/3 213/2/3
f 222/2/3 221/2/3 220/2/3
f 223/2/3 221/2/3 222/2/3
f 226/2/3 225/2/3 224/2/3
f 227/2/3 226/2/3 224/2/3
f 231/2/3 227/2/3 224/2/3
f 231/2/3 228/2/3 227/2/3
f 232/2/3 228/2/3 231/2/3
f 233/3/3 230/3/3 229/3/3
f 234/3/3 230/3/3 233/3/3
f 237/5/3 236/5/3 235/5/3
f 238/5/3 236/5/3 237/5/3
f 241/1/3 240/1/3 239/1/3
f 242/1/3 240/1/3 241/1/3
f 245/5/3 244/5/3 243/5/3
f 246/5/3 244/5/3 245/5/3
f 247/3/4 248/3/4 249/3/4
f 249/3/4 248/3/4 250/3/4
f 251/4/4 252/4/4 254/4/4
f 254/4/4 252/4/4 255/4/4
f 252/1/4 253/1/4 256/1/4
f 255/4/4 252/4/4 256/4/4
f 255/1/4 256/1/4 257/1/4
f 256/1/4 253/1/4 258/1/4
f 257/1/4 256/1/4 258/1/4
f 258/1/4 253/1/4 259/1/4
f 260/2/4 261/2/4 262/2/4
f 262/2/4 261/2/4 263/2/4
f 260/2/4 262/2/4 264/2/4
f 262/6/4 263/6/4 264/6/4
f 264/6/4 263/6/4 265/6/4
f 260/2/4 264/2/4 266/2/4
f 264/2/4 265/2/4 266/2/4
f 266/2/4 265/2/4 267/2/4
f 268/3/4 269/3/4 272/3/4
f 272/3/4 269/3/4 273/3/4
f 270/2/4 271/2/4 274/2/4
f 274/2/4 271/2/4 275/2/4
f 276/5/4 277/5/4 278/5/4
f 278/5/4 277/5/4 279/5/4
f 280/2/4 281/2/4 282/2/4
f 282/2/4 281/2/4 283/2/4
f 284/1/4 285/1/4 286/1/4
f 286/1/4 285/1/4 287/1/4
f 288/1/4 289/1/4 291/1/4
f 290/1/4 291/1/4 292/1/4
f 291/1/4 289/1/4 293/1/4
f 292/1/4 291/1/4 293/1/4
f 293/1/4 289/1/4 294/1/4
f 294/1/4 289/1/4 295/1/4
f 296/5/4 297/5/4 298/5/4
f 298/5/4 297/5/4 299/5/4
f 300/5/4 301/5/4 302/5/4
f 302/5/4 301/5/4 303/5/4
f 304/1/4 305/1/4 307/1/4
f 307/1/4 305/1/4 308/1/4
f 306/2/4 307/2/4 310/2/4
f 310/2/4 307/2/4 311/2/4
f 310/1/4 311/1/4 312/1/4
f 312/1/4 311/1/4 313/1/4
f 308/1/4 309/1/4 314/1/4
f 314/1/4 309/1/4 315/1/4
f 313/1/4 314/1/4 317/1/4
f 317/1/4 314/1/4 318/1/4
f 316/2/4 317/2/4 322/2/4
f 317/2/4 318/2/4 322/2/4
f 318/2/4 319/2/4 322/2/4
f 322/2/4 319/2/4 323/2/4
f 320/5/4 321/5/4 324/5/4
f 324/5/4 321/5/4 325/5/4
f 326/1/4 327/1/4 328/1/4
f 328/1/4 327/1/4 329/1/4
f 334/3/5 331/3/5 330/3/5
f 335/3/5 331/3/5 334/3/5
f 336/4/5 333/4/5 332/4/5
f 337/4/5 333/4/5 336/4/5
f 342/3/5 339/3/5 338/3/5
f 343/3/5 339/3/5 342/3/5
f 344/5/5 341/5/5 340/5/5
f 345/5/5 341/5/5 344/5/5
f 352/5/5 349/5/5 348/5/5
f 353/5/5 349/5/5 352/5/5
f 354/5/5 351/5/5 350/5/5
f 355/5/5 351/5/5 354/5/5
f 356/3/5 347/3/5 346/3/5
f 357/3/5 347/3/5 356/3/5
f 358/5/5 357/5/5 356/5/5
f 359/5/5 357/5/5 358/5/5
f 362/1/5 361/1/5 360/1/5
f 363/1/5 361/1/5 362/1/5
f 364/1/5 361/1/5 363/1/5
f 365/1/5 361/1/5 364/1/5
f 368/2/5 367/2/5 366/2/5
f 369/2/5 367/2/5 368/2/5
f 370/2/5 368/2/5 366/2/5
f 371/2/5 367/2/5 369/2/5
f 374/2/5 370/2/5 366/2/5
f 374/2/5 371/2/5 370/2/5
f 375/2/5 367/2/5 371/2/5
f 375/2/5 371/2/5 374/2/5
f 376/2/5 373/2/5 372/2/5
f 377/2/5 373/2/5 376/2/5
f 378/2/5 376/2/5 372/2/5
f 379/2/5 373/2/5 377/2/5
f 380/2/5 378/2/5 372/2/5
f 380/2/5 379/2/5 378/2/5
f 381/2/5 373/2/5 379/2/5
f 381/2/5 379/2/5 380/2/5
f 386/2/5 383/2/5 382/2/5
f 387/2/5 383/2/5 386/2/5
f 388/2/5 383/2/5 387/2/5
f 389/2/5 385/2/5 384/2/5
f 390/2/5 385/2/5 389/2/5
f 391/2/5 386/2/5 382/2/5
f 392/1/5 388/1/5 387/1/5
f 393/2/5 389/2/5 384/2/5
f 394/2/5 385/2/5 390/2/5
f 395/2/5 391/2/5 382/2/5
f 396/1/5 392/1/5 391/1/5
f 396/2/5 391/2/5 395/2/5
f 397/1/5 388/1/5 392/1/5
f 397/1/5 392/1/5 396/1/5
f 398/2/5 394/2/5 393/2/5
f 398/2/5 393/2/5 384/2/5
f 399/2/5 385/2/5 394/2/5
f 399/2/5 394/2/5 398/2/5
f 404/1/5 401/1/5 400/1/5
f 405/2/5 402/2/5 401/2/5
f 405/1/5 401/1/5 404/1/5
f 406/2/5 402/2/5 405/2/5
f 409/1/5 404/1/5 403/1/5
f 410/1/5 404/1/5 409/1/5
f 412/1/5 408/1/5 407/1/5
f 413/1/5 408/1/5 412/1/5
f 414/1/5 411/1/5 410/1/5
f 414/1/5 412/1/5 411/1/5
f 415/1/5 412/1/5 414/1/5
f 420/1/5 417/1/5 416/1/5
f 421/1/5 419/1/5 418/1/5
f 421/1/5 420/1/5 419/1/5
f 421/1/5 417/1/5 420/1/5
f 422/1/5 417/1/5 421/1/5
f 423/1/5 421/1/5 418/1/5
f 424/1/5 421/1/5 423/1/5
f 425/1/5 421/1/5 424/1/5
f 426/1/5 417/1/5 422/1/5
f 427/1/5 417/1/5 426/1/5
f 428/1/5 417/1/5 427/1/5
f 429/1/5 425/1/5 424/1/5
f 429/1/5 426/1/5 425/1/5
f 430/1/5 426/1/5 429/1/5
f 431/2/5 427/2/5 426/2/5
f 431/1/5 426/1/5 430/1/5
f 432/1/5 428/1/5 427/1/5
f 432/2/5 427/2/5 431/2/5
f 433/1/5 428/1/5 432/1/5
f 434/1/5 431/1/5 430/1/5
f 435/1/5 431/1/5 434/1/5
f 436/3/6 437/3/6 438/3/6
f 438/3/6 437/3/6 439/3/6
f 438/5/6 439/5/6 440/5/6
f 440/5/6 439/5/6 441/5/6
f 442/1/6 443/1/6 444/1/6
f 444/1/6 443/1/6 445/1/6
f 446/2/6 447/2/6 448/2/6
f 448/2/6 447/2/6 449/2/6
f 446/2/6 448/2/6 452/2/6
f 452/2/6 448/2/6 453/2/6
f 450/2/6 451/2/6 454/2/6
f 454/2/6 451/2/6 455/2/6
f 450/2/6 454/2/6 456/2/6
f 455/2/6 451/2/6 457/2/6
f 450/2/6 456/2/6 460/2/6
f 456/2/6 457/2/6 460/2/6
f 457/2/6 451/2/6 461/2/6
f 460/2/6 457/2/6 461/2/6
f 458/1/6 459/1/6 463/1/6
f 463/1/6 459/1/6 464/1/6
f 462/1/6 463/1/6 467/1/6
f 467/1/6 463/1/6 468/1/6
f 465/1/6 466/1/6 469/1/6
f 469/1/6 466/1/6 470/1/6
f 468/1/6 469/1/6 471/1/6
f 471/1/6 469/1/6 472/1/6
f 473/2/6 474/2/6 475/2/6
f 475/2/6 474/2/6 476/2/6
f 477/1/6 478/1/6 481/1/6
f 479/2/6 480/2/6 484/2/6
f 481/1/6 482/1/6 485/1/6
f 477/1/6 481/1/6 485/1/6
f 485/1/6 482/1/6 486/1/6
f 483/2/6 484/2/6 487/2/6
f 484/2/6 480/2/6 488/2/6
f 487/2/6 484/2/6 488/2/6
f 489/1/6 490/1/6 491/1/6
f 491/1/6 490/1/6 492/1/6
f 489/1/6 491/1/6 493/1/6
f 492/1/6 490/1/6 494/1/6
f 489/1/6 493/1/6 495/1/6
f 493/1/6 494/1/6 495/1/6
f 494/1/6 490/1/6 496/1/6
f 495/1/6 494/1/6 496/1/6
f 497/1/6 498/1/6 499/1/6
f 499/1/6 498/1/6 500/1/6
