# MagicaVoxel @ Ephtracy

# group
o 

# material
mtllib Baum-4.mtl
usemtl palette

# normals
vn -1 0 0
vn 1 0 0
vn 0 0 1
vn 0 0 -1
vn 0 -1 0
vn 0 1 0

# texcoords
vt 0.876953 0.5
vt 0.880859 0.5
vt 0.908203 0.5
vt 0.912109 0.5
vt 0.916016 0.5

# verts
v -0.5 0.3 0.4
v -0.5 0.3 0.1
v -0.5 0.3 -0.2
v -0.5 0.3 -0.5
v -0.5 0.5 0.4
v -0.5 0.5 0.1
v -0.5 0.5 -0.2
v -0.5 0.5 -0.5
v -0.4 0 -0.3
v -0.4 0 -0.4
v -0.4 0.2 0.4
v -0.4 0.2 0.1
v -0.4 0.3 0.5
v -0.4 0.3 0.4
v -0.4 0.3 0.1
v -0.4 0.3 0
v -0.4 0.3 -0.3
v -0.4 0.3 -0.4
v -0.4 0.5 0.5
v -0.4 0.5 0.4
v -0.4 0.5 0.1
v -0.4 0.5 0
v -0.4 0.6 0.4
v -0.4 0.6 0.1
v -0.3 0 0.3
v -0.3 0 0.2
v -0.3 0.2 0.3
v -0.3 0.2 0.2
v -0.2 0.2 -0.1
v -0.2 0.2 -0.4
v -0.2 0.3 -0.1
v -0.2 0.3 -0.2
v -0.2 0.3 -0.4
v -0.1 0 -0.2
v -0.1 0 -0.3
v -0.1 0.2 -0.2
v -0.1 0.2 -0.3
v -0.1 0.3 -0.1
v -0.1 0.3 -0.2
v -0.1 0.3 -0.3
v -0.1 0.3 -0.4
v -0.1 0.4 -0.1
v -0.1 0.4 -0.2
v -0.1 0.4 -0.3
v -0.1 0.4 -0.4
v 0 0.4 0.1
v 0 0.4 -0.1
v 0 0.4 -0.3
v 0 0.5 0.2
v 0 0.5 0.1
v 0 0.7 0.2
v 0 0.7 -0.3
v 0.1 0.2 0.5
v 0.1 0.2 0.2
v 0.1 0.3 0.1
v 0.1 0.3 -0.1
v 0.1 0.4 0.5
v 0.1 0.4 0.2
v 0.1 0.4 0.1
v 0.1 0.4 -0.1
v 0.1 0.7 0.1
v 0.1 0.7 -0.2
v 0.1 0.8 0.1
v 0.1 0.8 -0.2
v 0.2 0 0.4
v 0.2 0 0.3
v 0.2 0 0
v 0.2 0 -0.1
v 0.2 0.2 0.4
v 0.2 0.2 0.3
v 0.2 0.3 0
v 0.2 0.3 -0.1
v 0.2 0.4 0.4
v 0.2 0.4 0.3
v 0.2 0.5 0.4
v 0.2 0.5 0.3
v -0.3 0 -0.3
v -0.3 0 -0.4
v -0.3 0.3 -0.3
v -0.3 0.3 -0.4
v -0.2 0 0.3
v -0.2 0 0.2
v -0.2 0.2 0.3
v -0.2 0.2 0.2
v -0.2 0.3 -0.3
v -0.2 0.3 -0.4
v -0.2 0.3 -0.5
v -0.2 0.4 -0.2
v -0.2 0.4 -0.3
v -0.2 0.5 -0.2
v -0.2 0.5 -0.5
v -0.1 0.2 0.4
v -0.1 0.2 0.1
v -0.1 0.3 0.5
v -0.1 0.3 0.4
v -0.1 0.3 0.1
v -0.1 0.3 0
v -0.1 0.5 0.5
v -0.1 0.5 0.4
v -0.1 0.5 0.1
v -0.1 0.5 0
v -0.1 0.6 0.4
v -0.1 0.6 0.1
v 0 0 -0.2
v 0 0 -0.3
v 0 0.2 -0.2
v 0 0.2 -0.3
v 0 0.3 0.4
v 0 0.3 0.1
v 0 0.3 -0.3
v 0 0.3 -0.4
v 0 0.4 0.2
v 0 0.4 0.1
v 0 0.4 -0.3
v 0 0.4 -0.4
v 0 0.5 0.4
v 0 0.5 0.2
v 0.1 0.2 -0.1
v 0.1 0.2 -0.4
v 0.1 0.3 -0.1
v 0.1 0.3 -0.2
v 0.1 0.3 -0.3
v 0.1 0.3 -0.4
v 0.1 0.4 -0.2
v 0.1 0.4 -0.3
v 0.3 0 0.4
v 0.3 0 0.3
v 0.3 0 0
v 0.3 0 -0.1
v 0.3 0.2 0.4
v 0.3 0.2 0.3
v 0.3 0.3 0
v 0.3 0.3 -0.1
v 0.3 0.4 0.4
v 0.3 0.4 0.3
v 0.3 0.5 0.4
v 0.3 0.5 0.3
v 0.4 0.2 0.5
v 0.4 0.2 0.2
v 0.4 0.3 0.1
v 0.4 0.3 -0.2
v 0.4 0.4 0.5
v 0.4 0.4 0.2
v 0.4 0.4 0.1
v 0.4 0.4 -0.2
v 0.4 0.7 0.1
v 0.4 0.7 -0.2
v 0.4 0.8 0.1
v 0.4 0.8 -0.2
v 0.5 0.4 0.2
v 0.5 0.4 -0.3
v 0.5 0.7 0.2
v 0.5 0.7 -0.3
v -0.4 0.3 0.5
v -0.4 0.5 0.5
v -0.1 0.3 0.5
v -0.1 0.5 0.5
v 0.1 0.2 0.5
v 0.1 0.4 0.5
v 0.4 0.2 0.5
v 0.4 0.4 0.5
v -0.5 0.3 0.4
v -0.5 0.5 0.4
v -0.4 0.2 0.4
v -0.4 0.3 0.4
v -0.4 0.5 0.4
v -0.4 0.6 0.4
v -0.1 0.2 0.4
v -0.1 0.3 0.4
v -0.1 0.5 0.4
v -0.1 0.6 0.4
v 0 0.3 0.4
v 0 0.5 0.4
v 0.2 0 0.4
v 0.2 0.2 0.4
v 0.2 0.4 0.4
v 0.2 0.5 0.4
v 0.3 0 0.4
v 0.3 0.2 0.4
v 0.3 0.4 0.4
v 0.3 0.5 0.4
v -0.3 0 0.3
v -0.3 0.2 0.3
v -0.2 0 0.3
v -0.2 0.2 0.3
v 0 0.4 0.2
v 0 0.5 0.2
v 0 0.7 0.2
v 0.1 0.4 0.2
v 0.4 0.4 0.2
v 0.5 0.4 0.2
v 0.5 0.7 0.2
v 0.1 0.3 0.1
v 0.1 0.4 0.1
v 0.1 0.7 0.1
v 0.1 0.8 0.1
v 0.4 0.3 0.1
v 0.4 0.4 0.1
v 0.4 0.7 0.1
v 0.4 0.8 0.1
v 0.2 0 0
v 0.2 0.3 0
v 0.3 0 0
v 0.3 0.3 0
v -0.2 0.2 -0.1
v -0.2 0.3 -0.1
v -0.1 0.3 -0.1
v -0.1 0.4 -0.1
v 0 0.4 -0.1
v 0.1 0.2 -0.1
v 0.1 0.3 -0.1
v 0.1 0.4 -0.1
v -0.5 0.3 -0.2
v -0.5 0.5 -0.2
v -0.2 0.3 -0.2
v -0.2 0.4 -0.2
v -0.2 0.5 -0.2
v -0.1 0 -0.2
v -0.1 0.2 -0.2
v -0.1 0.3 -0.2
v -0.1 0.4 -0.2
v 0 0 -0.2
v 0 0.2 -0.2
v -0.4 0 -0.3
v -0.4 0.3 -0.3
v -0.3 0 -0.3
v -0.3 0.3 -0.3
v 0.2 0 0.3
v 0.2 0.2 0.3
v 0.2 0.4 0.3
v 0.2 0.5 0.3
v 0.3 0 0.3
v 0.3 0.2 0.3
v 0.3 0.4 0.3
v 0.3 0.5 0.3
v -0.3 0 0.2
v -0.3 0.2 0.2
v -0.2 0 0.2
v -0.2 0.2 0.2
v 0.1 0.2 0.2
v 0.1 0.4 0.2
v 0.4 0.2 0.2
v 0.4 0.4 0.2
v -0.5 0.3 0.1
v -0.5 0.5 0.1
v -0.4 0.2 0.1
v -0.4 0.3 0.1
v -0.4 0.5 0.1
v -0.4 0.6 0.1
v -0.1 0.2 0.1
v -0.1 0.3 0.1
v -0.1 0.5 0.1
v -0.1 0.6 0.1
v 0 0.3 0.1
v 0 0.4 0.1
v 0 0.5 0.1
v -0.4 0.3 0
v -0.4 0.5 0
v -0.1 0.3 0
v -0.1 0.5 0
v 0.2 0 -0.1
v 0.2 0.3 -0.1
v 0.3 0 -0.1
v 0.3 0.3 -0.1
v 0.1 0.3 -0.2
v 0.1 0.4 -0.2
v 0.1 0.7 -0.2
v 0.1 0.8 -0.2
v 0.4 0.3 -0.2
v 0.4 0.4 -0.2
v 0.4 0.7 -0.2
v 0.4 0.8 -0.2
v -0.2 0.3 -0.3
v -0.2 0.4 -0.3
v -0.1 0 -0.3
v -0.1 0.2 -0.3
v -0.1 0.3 -0.3
v -0.1 0.4 -0.3
v 0 0 -0.3
v 0 0.2 -0.3
v 0 0.3 -0.3
v 0 0.4 -0.3
v 0 0.7 -0.3
v 0.1 0.3 -0.3
v 0.1 0.4 -0.3
v 0.5 0.4 -0.3
v 0.5 0.7 -0.3
v -0.4 0 -0.4
v -0.4 0.3 -0.4
v -0.3 0 -0.4
v -0.3 0.3 -0.4
v -0.2 0.2 -0.4
v -0.2 0.3 -0.4
v -0.1 0.3 -0.4
v -0.1 0.4 -0.4
v 0 0.3 -0.4
v 0 0.4 -0.4
v 0.1 0.2 -0.4
v 0.1 0.3 -0.4
v -0.5 0.3 -0.5
v -0.5 0.5 -0.5
v -0.2 0.3 -0.5
v -0.2 0.5 -0.5
v 0.2 0 0.4
v 0.3 0 0.4
v -0.3 0 0.3
v -0.2 0 0.3
v 0.2 0 0.3
v 0.3 0 0.3
v -0.3 0 0.2
v -0.2 0 0.2
v 0.2 0 0
v 0.3 0 0
v 0.2 0 -0.1
v 0.3 0 -0.1
v -0.1 0 -0.2
v 0 0 -0.2
v -0.4 0 -0.3
v -0.3 0 -0.3
v -0.1 0 -0.3
v 0 0 -0.3
v -0.4 0 -0.4
v -0.3 0 -0.4
v 0.1 0.2 0.5
v 0.4 0.2 0.5
v -0.4 0.2 0.4
v -0.1 0.2 0.4
v 0.2 0.2 0.4
v 0.3 0.2 0.4
v -0.3 0.2 0.3
v -0.2 0.2 0.3
v 0.2 0.2 0.3
v 0.3 0.2 0.3
v -0.3 0.2 0.2
v -0.2 0.2 0.2
v 0.1 0.2 0.2
v 0.4 0.2 0.2
v -0.4 0.2 0.1
v -0.1 0.2 0.1
v -0.2 0.2 -0.1
v 0.1 0.2 -0.1
v -0.1 0.2 -0.2
v 0 0.2 -0.2
v -0.1 0.2 -0.3
v 0 0.2 -0.3
v -0.2 0.2 -0.4
v 0.1 0.2 -0.4
v -0.4 0.3 0.5
v -0.1 0.3 0.5
v -0.5 0.3 0.4
v -0.4 0.3 0.4
v -0.1 0.3 0.4
v 0 0.3 0.4
v -0.5 0.3 0.1
v -0.4 0.3 0.1
v -0.1 0.3 0.1
v 0 0.3 0.1
v 0.1 0.3 0.1
v 0.4 0.3 0.1
v -0.4 0.3 0
v -0.1 0.3 0
v 0.2 0.3 0
v 0.3 0.3 0
v 0.1 0.3 -0.1
v 0.2 0.3 -0.1
v 0.3 0.3 -0.1
v -0.5 0.3 -0.2
v -0.2 0.3 -0.2
v 0.1 0.3 -0.2
v 0.4 0.3 -0.2
v -0.4 0.3 -0.3
v -0.3 0.3 -0.3
v -0.4 0.3 -0.4
v -0.3 0.3 -0.4
v -0.2 0.3 -0.4
v -0.5 0.3 -0.5
v -0.2 0.3 -0.5
v 0 0.4 0.2
v 0.1 0.4 0.2
v 0.4 0.4 0.2
v 0.5 0.4 0.2
v 0 0.4 0.1
v 0.1 0.4 0.1
v 0.4 0.4 0.1
v 0 0.4 -0.1
v 0.1 0.4 -0.1
v 0.1 0.4 -0.2
v 0.4 0.4 -0.2
v 0.1 0.4 -0.3
v 0.5 0.4 -0.3
v -0.2 0.3 -0.1
v -0.1 0.3 -0.1
v -0.2 0.3 -0.2
v -0.1 0.3 -0.2
v -0.2 0.3 -0.3
v -0.1 0.3 -0.3
v 0 0.3 -0.3
v 0.1 0.3 -0.3
v -0.2 0.3 -0.4
v -0.1 0.3 -0.4
v 0 0.3 -0.4
v 0.1 0.3 -0.4
v 0.1 0.4 0.5
v 0.4 0.4 0.5
v 0.2 0.4 0.4
v 0.3 0.4 0.4
v 0.2 0.4 0.3
v 0.3 0.4 0.3
v 0.1 0.4 0.2
v 0.4 0.4 0.2
v -0.1 0.4 -0.1
v 0 0.4 -0.1
v -0.2 0.4 -0.2
v -0.1 0.4 -0.2
v -0.2 0.4 -0.3
v -0.1 0.4 -0.3
v 0 0.4 -0.3
v -0.1 0.4 -0.4
v 0 0.4 -0.4
v -0.4 0.5 0.5
v -0.1 0.5 0.5
v -0.5 0.5 0.4
v -0.4 0.5 0.4
v -0.1 0.5 0.4
v 0 0.5 0.4
v 0.2 0.5 0.4
v 0.3 0.5 0.4
v 0.2 0.5 0.3
v 0.3 0.5 0.3
v 0 0.5 0.2
v -0.5 0.5 0.1
v -0.4 0.5 0.1
v -0.1 0.5 0.1
v 0 0.5 0.1
v -0.4 0.5 0
v -0.1 0.5 0
v -0.5 0.5 -0.2
v -0.2 0.5 -0.2
v -0.5 0.5 -0.5
v -0.2 0.5 -0.5
v -0.4 0.6 0.4
v -0.1 0.6 0.4
v -0.4 0.6 0.1
v -0.1 0.6 0.1
v 0 0.7 0.2
v 0.5 0.7 0.2
v 0.1 0.7 0.1
v 0.4 0.7 0.1
v 0.1 0.7 -0.2
v 0.4 0.7 -0.2
v 0 0.7 -0.3
v 0.5 0.7 -0.3
v 0.1 0.8 0.1
v 0.4 0.8 0.1
v 0.1 0.8 -0.2
v 0.4 0.8 -0.2

# faces
f 5/2/1 2/2/1 1/2/1
f 6/2/1 2/2/1 5/2/1
f 7/2/1 4/2/1 3/2/1
f 8/2/1 4/2/1 7/2/1
f 14/2/1 12/2/1 11/2/1
f 15/2/1 12/2/1 14/2/1
f 17/5/1 10/5/1 9/5/1
f 18/5/1 10/5/1 17/5/1
f 19/2/1 14/2/1 13/2/1
f 20/2/1 14/2/1 19/2/1
f 21/2/1 16/2/1 15/2/1
f 22/2/1 16/2/1 21/2/1
f 23/2/1 21/2/1 20/2/1
f 24/2/1 21/2/1 23/2/1
f 27/3/1 26/3/1 25/3/1
f 28/3/1 26/3/1 27/3/1
f 31/1/1 30/1/1 29/1/1
f 32/1/1 30/1/1 31/1/1
f 33/1/1 30/1/1 32/1/1
f 36/3/1 35/3/1 34/3/1
f 37/3/1 35/3/1 36/3/1
f 42/1/1 39/1/1 38/1/1
f 43/1/1 39/1/1 42/1/1
f 44/1/1 41/1/1 40/1/1
f 45/1/1 41/1/1 44/1/1
f 50/2/1 47/2/1 46/2/1
f 50/2/1 48/2/1 47/2/1
f 51/2/1 50/2/1 49/2/1
f 52/2/1 48/2/1 50/2/1
f 52/2/1 50/2/1 51/2/1
f 57/1/1 54/1/1 53/1/1
f 58/1/1 54/1/1 57/1/1
f 59/2/1 56/2/1 55/2/1
f 60/2/1 56/2/1 59/2/1
f 63/2/1 62/2/1 61/2/1
f 64/2/1 62/2/1 63/2/1
f 69/4/1 66/4/1 65/4/1
f 70/4/1 66/4/1 69/4/1
f 71/3/1 68/3/1 67/3/1
f 72/3/1 68/3/1 71/3/1
f 75/1/1 74/1/1 73/1/1
f 76/1/1 74/1/1 75/1/1
f 77/5/2 78/5/2 79/5/2
f 79/5/2 78/5/2 80/5/2
f 81/3/2 82/3/2 83/3/2
f 83/3/2 82/3/2 84/3/2
f 85/2/2 86/2/2 89/2/2
f 86/2/2 87/2/2 89/2/2
f 88/2/2 89/2/2 90/2/2
f 89/2/2 87/2/2 91/2/2
f 90/2/2 89/2/2 91/2/2
f 92/2/2 93/2/2 95/2/2
f 95/2/2 93/2/2 96/2/2
f 94/2/2 95/2/2 98/2/2
f 98/2/2 95/2/2 99/2/2
f 96/2/2 97/2/2 100/2/2
f 100/2/2 97/2/2 101/2/2
f 99/2/2 100/2/2 102/2/2
f 102/2/2 100/2/2 103/2/2
f 104/3/2 105/3/2 106/3/2
f 106/3/2 105/3/2 107/3/2
f 108/2/2 109/2/2 112/2/2
f 112/2/2 109/2/2 113/2/2
f 110/1/2 111/1/2 114/1/2
f 114/1/2 111/1/2 115/1/2
f 108/2/2 112/2/2 116/2/2
f 116/2/2 112/2/2 117/2/2
f 118/1/2 119/1/2 120/1/2
f 120/1/2 119/1/2 121/1/2
f 121/1/2 119/1/2 122/1/2
f 122/1/2 119/1/2 123/1/2
f 121/1/2 122/1/2 124/1/2
f 124/1/2 122/1/2 125/1/2
f 126/4/2 127/4/2 130/4/2
f 130/4/2 127/4/2 131/4/2
f 128/3/2 129/3/2 132/3/2
f 132/3/2 129/3/2 133/3/2
f 134/1/2 135/1/2 136/1/2
f 136/1/2 135/1/2 137/1/2
f 138/1/2 139/1/2 142/1/2
f 142/1/2 139/1/2 143/1/2
f 140/2/2 141/2/2 144/2/2
f 144/2/2 141/2/2 145/2/2
f 146/2/2 147/2/2 148/2/2
f 148/2/2 147/2/2 149/2/2
f 150/2/2 151/2/2 152/2/2
f 152/2/2 151/2/2 153/2/2
f 156/2/3 155/2/3 154/2/3
f 157/2/3 155/2/3 156/2/3
f 160/1/3 159/1/3 158/1/3
f 161/1/3 159/1/3 160/1/3
f 165/2/3 163/2/3 162/2/3
f 166/2/3 163/2/3 165/2/3
f 168/2/3 165/2/3 164/2/3
f 169/2/3 165/2/3 168/2/3
f 170/2/3 167/2/3 166/2/3
f 171/2/3 167/2/3 170/2/3
f 172/2/3 170/2/3 169/2/3
f 173/2/3 170/2/3 172/2/3
f 178/4/3 175/4/3 174/4/3
f 179/4/3 175/4/3 178/4/3
f 180/1/3 177/1/3 176/1/3
f 181/1/3 177/1/3 180/1/3
f 184/3/3 183/3/3 182/3/3
f 185/3/3 183/3/3 184/3/3
f 189/2/3 187/2/3 186/2/3
f 189/2/3 188/2/3 187/2/3
f 190/2/3 188/2/3 189/2/3
f 191/2/3 188/2/3 190/2/3
f 192/2/3 188/2/3 191/2/3
f 197/2/3 194/2/3 193/2/3
f 198/2/3 194/2/3 197/2/3
f 199/2/3 196/2/3 195/2/3
f 200/2/3 196/2/3 199/2/3
f 203/3/3 202/3/3 201/3/3
f 204/3/3 202/3/3 203/3/3
f 207/1/3 206/1/3 205/1/3
f 209/1/3 208/1/3 207/1/3
f 210/1/3 207/1/3 205/1/3
f 210/1/3 209/1/3 207/1/3
f 211/1/3 209/1/3 210/1/3
f 212/1/3 209/1/3 211/1/3
f 215/2/3 214/2/3 213/2/3
f 216/2/3 214/2/3 215/2/3
f 217/2/3 214/2/3 216/2/3
f 220/1/3 216/1/3 215/1/3
f 221/1/3 216/1/3 220/1/3
f 222/3/3 219/3/3 218/3/3
f 223/3/3 219/3/3 222/3/3
f 226/5/3 225/5/3 224/5/3
f 227/5/3 225/5/3 226/5/3
f 228/4/4 229/4/4 232/4/4
f 232/4/4 229/4/4 233/4/4
f 230/1/4 231/1/4 234/1/4
f 234/1/4 231/1/4 235/1/4
f 236/3/4 237/3/4 238/3/4
f 238/3/4 237/3/4 239/3/4
f 240/1/4 241/1/4 242/1/4
f 242/1/4 241/1/4 243/1/4
f 244/2/4 245/2/4 247/2/4
f 247/2/4 245/2/4 248/2/4
f 246/2/4 247/2/4 250/2/4
f 250/2/4 247/2/4 251/2/4
f 248/2/4 249/2/4 252/2/4
f 252/2/4 249/2/4 253/2/4
f 251/2/4 252/2/4 254/2/4
f 254/2/4 252/2/4 255/2/4
f 255/2/4 252/2/4 256/2/4
f 257/2/4 258/2/4 259/2/4
f 259/2/4 258/2/4 260/2/4
f 261/3/4 262/3/4 263/3/4
f 263/3/4 262/3/4 264/3/4
f 265/2/4 266/2/4 269/2/4
f 269/2/4 266/2/4 270/2/4
f 267/2/4 268/2/4 271/2/4
f 271/2/4 268/2/4 272/2/4
f 273/1/4 274/1/4 277/1/4
f 277/1/4 274/1/4 278/1/4
f 275/3/4 276/3/4 279/3/4
f 279/3/4 276/3/4 280/3/4
f 281/1/4 282/1/4 284/1/4
f 282/2/4 283/2/4 285/2/4
f 284/1/4 282/1/4 285/1/4
f 285/2/4 283/2/4 286/2/4
f 286/2/4 283/2/4 287/2/4
f 288/5/4 289/5/4 290/5/4
f 290/5/4 289/5/4 291/5/4
f 292/1/4 293/1/4 294/1/4
f 292/1/4 294/1/4 296/1/4
f 294/1/4 295/1/4 296/1/4
f 296/1/4 295/1/4 297/1/4
f 292/1/4 296/1/4 298/1/4
f 298/1/4 296/1/4 299/1/4
f 300/2/4 301/2/4 302/2/4
f 302/2/4 301/2/4 303/2/4
f 308/4/5 305/4/5 304/4/5
f 309/4/5 305/4/5 308/4/5
f 310/3/5 307/3/5 306/3/5
f 311/3/5 307/3/5 310/3/5
f 314/3/5 313/3/5 312/3/5
f 315/3/5 313/3/5 314/3/5
f 320/3/5 317/3/5 316/3/5
f 321/3/5 317/3/5 320/3/5
f 322/5/5 319/5/5 318/5/5
f 323/5/5 319/5/5 322/5/5
f 328/1/5 325/1/5 324/1/5
f 329/1/5 325/1/5 328/1/5
f 330/2/5 327/2/5 326/2/5
f 331/2/5 327/2/5 330/2/5
f 332/1/5 328/1/5 324/1/5
f 333/1/5 325/1/5 329/1/5
f 334/2/5 330/2/5 326/2/5
f 335/2/5 327/2/5 331/2/5
f 336/1/5 332/1/5 324/1/5
f 336/1/5 333/1/5 332/1/5
f 337/1/5 325/1/5 333/1/5
f 337/1/5 333/1/5 336/1/5
f 338/2/5 335/2/5 334/2/5
f 338/2/5 334/2/5 326/2/5
f 339/2/5 327/2/5 335/2/5
f 339/2/5 335/2/5 338/2/5
f 342/1/5 341/1/5 340/1/5
f 343/1/5 341/1/5 342/1/5
f 344/1/5 342/1/5 340/1/5
f 345/1/5 341/1/5 343/1/5
f 346/1/5 344/1/5 340/1/5
f 346/1/5 345/1/5 344/1/5
f 347/1/5 341/1/5 345/1/5
f 347/1/5 345/1/5 346/1/5
f 351/2/5 349/2/5 348/2/5
f 352/2/5 349/2/5 351/2/5
f 354/2/5 351/2/5 350/2/5
f 355/2/5 351/2/5 354/2/5
f 356/2/5 353/2/5 352/2/5
f 357/2/5 353/2/5 356/2/5
f 360/2/5 356/2/5 355/2/5
f 361/2/5 356/2/5 360/2/5
f 362/2/5 359/2/5 358/2/5
f 363/2/5 359/2/5 362/2/5
f 364/2/5 362/2/5 358/2/5
f 365/2/5 362/2/5 364/2/5
f 366/2/5 359/2/5 363/2/5
f 369/2/5 365/2/5 364/2/5
f 369/2/5 366/2/5 365/2/5
f 370/2/5 359/2/5 366/2/5
f 370/2/5 366/2/5 369/2/5
f 371/2/5 368/2/5 367/2/5
f 372/2/5 368/2/5 371/2/5
f 373/2/5 371/2/5 367/2/5
f 374/2/5 368/2/5 372/2/5
f 375/2/5 368/2/5 374/2/5
f 376/2/5 373/2/5 367/2/5
f 376/2/5 374/2/5 373/2/5
f 376/2/5 375/2/5 374/2/5
f 377/2/5 375/2/5 376/2/5
f 382/2/5 379/2/5 378/2/5
f 382/2/5 381/2/5 380/2/5
f 382/2/5 380/2/5 379/2/5
f 383/2/5 381/2/5 382/2/5
f 384/2/5 381/2/5 383/2/5
f 385/2/5 383/2/5 382/2/5
f 386/2/5 383/2/5 385/2/5
f 388/2/5 381/2/5 384/2/5
f 389/2/5 388/2/5 387/2/5
f 390/2/5 381/2/5 388/2/5
f 390/2/5 388/2/5 389/2/5
f 391/1/6 392/1/6 393/1/6
f 393/1/6 392/1/6 394/1/6
f 395/1/6 396/1/6 399/1/6
f 399/1/6 396/1/6 400/1/6
f 397/1/6 398/1/6 401/1/6
f 401/1/6 398/1/6 402/1/6
f 403/1/6 404/1/6 405/1/6
f 405/1/6 404/1/6 406/1/6
f 403/1/6 405/1/6 407/1/6
f 406/1/6 404/1/6 408/1/6
f 403/1/6 407/1/6 409/1/6
f 407/1/6 408/1/6 409/1/6
f 408/1/6 404/1/6 410/1/6
f 409/1/6 408/1/6 410/1/6
f 411/1/6 412/1/6 414/1/6
f 413/1/6 414/1/6 415/1/6
f 414/1/6 412/1/6 416/1/6
f 415/1/6 414/1/6 416/1/6
f 416/1/6 412/1/6 417/1/6
f 416/1/6 417/1/6 418/1/6
f 418/1/6 417/1/6 419/1/6
f 420/2/6 421/2/6 423/2/6
f 423/2/6 421/2/6 424/2/6
f 426/1/6 427/1/6 428/1/6
f 428/1/6 427/1/6 429/1/6
f 424/2/6 425/2/6 430/2/6
f 422/2/6 423/2/6 431/2/6
f 431/2/6 423/2/6 432/2/6
f 424/2/6 430/2/6 433/2/6
f 433/2/6 430/2/6 434/2/6
f 432/2/6 433/2/6 435/2/6
f 435/2/6 433/2/6 436/2/6
f 437/2/6 438/2/6 439/2/6
f 439/2/6 438/2/6 440/2/6
f 441/2/6 442/2/6 443/2/6
f 443/2/6 442/2/6 444/2/6
f 445/2/6 446/2/6 447/2/6
f 447/2/6 446/2/6 448/2/6
f 445/2/6 447/2/6 449/2/6
f 448/2/6 446/2/6 450/2/6
f 445/2/6 449/2/6 451/2/6
f 449/2/6 450/2/6 451/2/6
f 450/2/6 446/2/6 452/2/6
f 451/2/6 450/2/6 452/2/6
f 453/2/6 454/2/6 455/2/6
f 455/2/6 454/2/6 456/2/6
