# MagicaVoxel @ Ephtracy

# group
o 

# material
mtllib Stein_ecke-2.0-0.mtl
usemtl palette

# normals
vn -1 0 0
vn 1 0 0
vn 0 0 1
vn 0 0 -1
vn 0 -1 0
vn 0 1 0

# texcoords
vt 0.0644531 0.5
vt 0.0683594 0.5
vt 0.0722656 0.5

# verts
v -0.5 0 0.5
v -0.5 0 0.4
v -0.5 0.1 0.5
v -0.5 0.1 0.4
v -0.4 0 0.4
v -0.4 0 0.3
v -0.4 0.1 0.4
v -0.4 0.1 0.3
v -0.2 0 0.3
v -0.2 0 -0.1
v -0.2 0.1 0.5
v -0.2 0.1 0.4
v -0.2 0.1 0.3
v -0.2 0.1 -0.1
v -0.2 0.2 0.5
v -0.2 0.2 0.4
v -0.2 0.2 0.3
v -0.2 0.3 0.5
v -0.2 0.3 0.4
v -0.1 0 -0.1
v -0.1 0 -0.2
v -0.1 0.1 0.3
v -0.1 0.1 0.2
v -0.1 0.1 0.1
v -0.1 0.1 0
v -0.1 0.1 -0.1
v -0.1 0.1 -0.2
v -0.1 0.2 0.4
v -0.1 0.2 0.3
v -0.1 0.2 0.2
v -0.1 0.2 0.1
v -0.1 0.2 0
v -0.1 0.3 0.4
v -0.1 0.3 0.3
v -0.1 0.3 0.2
v 0 0.1 0.4
v 0 0.1 0.3
v 0 0.1 0
v 0 0.1 -0.1
v 0 0.1 -0.2
v 0 0.2 0.4
v 0 0.2 0.3
v 0 0.2 0
v 0 0.2 -0.1
v 0 0.2 -0.2
v 0 0.3 0.5
v 0 0.3 0.4
v 0 0.3 0.3
v 0 0.3 0
v 0 0.3 -0.1
v 0 0.4 0.4
v 0 0.4 0.3
v 0 0.8 0.5
v 0 0.8 0.4
v 0.1 0 -0.2
v 0.1 0 -0.3
v 0.1 0.1 -0.2
v 0.1 0.1 -0.3
v 0.1 0.2 0.2
v 0.1 0.2 0.1
v 0.1 0.2 0
v 0.1 0.3 0.3
v 0.1 0.3 0.2
v 0.1 0.3 0.1
v 0.1 0.3 0
v 0.1 0.4 0.4
v 0.1 0.4 0.3
v 0.1 0.4 0.2
v 0.1 0.4 0.1
v 0.1 0.4 0
v 0.1 0.5 0.3
v 0.1 0.5 0.2
v 0.1 0.6 0.2
v 0.1 0.6 0.1
v 0.1 0.8 0.4
v 0.1 0.8 0.3
v 0.1 0.8 0.2
v 0.1 0.9 0.4
v 0.1 0.9 0.3
v 0.2 0.2 0
v 0.2 0.2 -0.1
v 0.2 0.2 -0.2
v 0.2 0.3 0
v 0.2 0.3 -0.1
v 0.2 0.3 -0.2
v 0.2 0.4 0.1
v 0.2 0.4 0
v 0.2 0.4 -0.1
v 0.2 0.5 0.1
v 0.2 0.5 0
v 0.2 0.6 0.2
v 0.2 0.6 0.1
v 0.2 0.7 0.2
v 0.2 0.7 0.1
v 0.2 0.8 0.5
v 0.2 0.8 0.4
v 0.2 0.8 0.3
v 0.2 0.8 0.2
v 0.2 0.9 0.4
v 0.2 0.9 0.3
v 0.2 0.9 0.2
v 0.2 1 0.5
v 0.2 1 0.4
v 0.2 1 0.3
v 0.3 0 -0.3
v 0.3 0 -0.4
v 0.3 0.1 -0.2
v 0.3 0.1 -0.3
v 0.3 0.1 -0.4
v 0.3 0.2 -0.2
v 0.3 0.2 -0.3
v 0.3 0.5 0.1
v 0.3 0.5 0
v 0.3 0.6 0.1
v 0.3 0.7 0.2
v 0.3 0.7 0.1
v 0.3 0.8 0.2
v 0.3 0.8 0.1
v 0.3 0.8 0
v 0.3 0.9 0.3
v 0.3 0.9 0.2
v 0.3 0.9 0.1
v 0.3 1 0.5
v 0.3 1 0.4
v 0.3 1 0.3
v 0.3 1 0.2
v 0.3 1.1 0.4
v 0.3 1.1 0.3
v 0.3 1.2 0.5
v 0.3 1.2 0.4
v 0.4 0 -0.4
v 0.4 0 -0.5
v 0.4 0.1 -0.4
v 0.4 0.1 -0.5
v 0.4 0.3 0
v 0.4 0.3 -0.1
v 0.4 0.4 0.5
v 0.4 0.4 0.3
v 0.4 0.4 0
v 0.4 0.4 -0.1
v 0.4 0.5 0.5
v 0.4 0.5 0.3
v 0.4 0.8 0.1
v 0.4 0.8 0
v 0.4 0.9 0.1
v 0.4 0.9 0
v 0.4 1.1 0.4
v 0.4 1.1 0.3
v 0.4 1.2 0.5
v 0.4 1.2 0.4
v 0.4 1.2 0.3
v 0.4 1.3 0.5
v 0.4 1.3 0.4
v -0.1 0.1 0.4
v -0.1 0.1 0.3
v -0.1 0.2 0.4
v -0.1 0.2 0.3
v 0.1 0.2 0
v 0.1 0.2 -0.1
v 0.1 0.3 0
v 0.1 0.3 -0.1
v 0.3 0.3 0
v 0.3 0.3 -0.1
v 0.3 0.4 0.5
v 0.3 0.4 0.3
v 0.3 0.4 0
v 0.3 0.4 -0.1
v 0.3 0.5 0.5
v 0.3 0.5 0.3
v 0.5 0 0.5
v 0.5 0 -0.3
v 0.5 0 -0.4
v 0.5 0 -0.5
v 0.5 0.1 -0.2
v 0.5 0.1 -0.3
v 0.5 0.1 -0.4
v 0.5 0.1 -0.5
v 0.5 0.2 0
v 0.5 0.2 -0.1
v 0.5 0.2 -0.2
v 0.5 0.2 -0.3
v 0.5 0.3 0
v 0.5 0.3 -0.1
v 0.5 0.3 -0.2
v 0.5 0.4 0
v 0.5 0.4 -0.1
v 0.5 0.5 0.5
v 0.5 0.5 0.3
v 0.5 0.5 0.1
v 0.5 0.5 0
v 0.5 0.6 0.1
v 0.5 0.6 0
v 0.5 0.7 0.1
v 0.5 0.7 0
v 0.5 0.8 0.1
v 0.5 0.8 0
v 0.5 0.9 0.2
v 0.5 0.9 0.1
v 0.5 0.9 0
v 0.5 1 0.3
v 0.5 1 0.2
v 0.5 1.2 0.4
v 0.5 1.2 0.3
v 0.5 1.3 0.5
v 0.5 1.3 0.4
v -0.5 0 0.5
v -0.5 0.1 0.5
v -0.4 0 0.5
v -0.4 0.1 0.5
v -0.3 0 0.5
v -0.3 0.1 0.5
v -0.2 0 0.5
v -0.2 0.1 0.5
v -0.2 0.2 0.5
v -0.2 0.3 0.5
v -0.1 0.1 0.5
v -0.1 0.2 0.5
v 0 0.3 0.5
v 0 0.8 0.5
v 0.2 0.8 0.5
v 0.2 1 0.5
v 0.3 0.3 0.5
v 0.3 0.4 0.5
v 0.3 0.5 0.5
v 0.3 1 0.5
v 0.3 1.2 0.5
v 0.4 0.3 0.5
v 0.4 0.4 0.5
v 0.4 0.5 0.5
v 0.4 1.2 0.5
v 0.4 1.3 0.5
v 0.5 0 0.5
v 0.5 0.5 0.5
v 0.5 1.3 0.5
v 0.1 0.8 0.4
v 0.1 0.9 0.4
v 0.2 0.8 0.4
v 0.2 0.9 0.4
v -0.1 0.1 0.3
v -0.1 0.2 0.3
v 0 0.1 0.3
v 0 0.2 0.3
v 0.3 0.4 0.3
v 0.3 0.5 0.3
v 0.4 0.4 0.3
v 0.4 0.5 0.3
v 0 0.2 0
v 0 0.3 0
v 0.1 0.2 0
v 0.1 0.3 0
v -0.5 0 0.4
v -0.5 0.1 0.4
v -0.4 0 0.4
v -0.4 0.1 0.4
v -0.2 0.2 0.4
v -0.2 0.3 0.4
v -0.1 0.1 0.4
v -0.1 0.2 0.4
v -0.1 0.3 0.4
v 0 0.1 0.4
v 0 0.2 0.4
v 0 0.4 0.4
v 0 0.8 0.4
v 0.1 0.4 0.4
v 0.1 0.8 0.4
v 0.3 1.1 0.4
v 0.3 1.2 0.4
v 0.4 1.1 0.4
v 0.4 1.2 0.4
v 0.4 1.3 0.4
v 0.5 1.2 0.4
v 0.5 1.3 0.4
v -0.4 0 0.3
v -0.4 0.1 0.3
v -0.2 0 0.3
v -0.2 0.1 0.3
v -0.2 0.2 0.3
v -0.1 0.1 0.3
v -0.1 0.2 0.3
v 0 0.3 0.3
v 0 0.4 0.3
v 0.1 0.3 0.3
v 0.1 0.4 0.3
v 0.1 0.8 0.3
v 0.1 0.9 0.3
v 0.2 0.8 0.3
v 0.2 0.9 0.3
v 0.2 1 0.3
v 0.3 0.9 0.3
v 0.3 1 0.3
v 0.3 1.1 0.3
v 0.4 1 0.3
v 0.4 1.1 0.3
v 0.4 1.2 0.3
v 0.5 1 0.3
v 0.5 1.2 0.3
v -0.1 0.2 0.2
v -0.1 0.3 0.2
v 0 0.2 0.2
v 0.1 0.2 0.2
v 0.1 0.3 0.2
v 0.1 0.6 0.2
v 0.1 0.8 0.2
v 0.2 0.6 0.2
v 0.2 0.7 0.2
v 0.2 0.8 0.2
v 0.2 0.9 0.2
v 0.3 0.7 0.2
v 0.3 0.8 0.2
v 0.3 0.9 0.2
v 0.3 1 0.2
v 0.4 0.9 0.2
v 0.4 1 0.2
v 0.5 0.9 0.2
v 0.5 1 0.2
v 0.1 0.4 0.1
v 0.1 0.6 0.1
v 0.2 0.4 0.1
v 0.2 0.5 0.1
v 0.2 0.6 0.1
v 0.2 0.7 0.1
v 0.3 0.5 0.1
v 0.3 0.6 0.1
v 0.3 0.7 0.1
v 0.3 0.8 0.1
v 0.3 0.9 0.1
v 0.4 0.8 0.1
v 0.4 0.9 0.1
v -0.1 0.1 0
v -0.1 0.2 0
v 0 0.1 0
v 0 0.2 0
v 0.1 0.2 0
v 0.1 0.3 0
v 0.1 0.4 0
v 0.2 0.2 0
v 0.2 0.3 0
v 0.2 0.4 0
v 0.2 0.5 0
v 0.3 0.3 0
v 0.3 0.4 0
v 0.3 0.5 0
v 0.3 0.8 0
v 0.4 0.3 0
v 0.4 0.4 0
v 0.4 0.5 0
v 0.4 0.6 0
v 0.4 0.7 0
v 0.4 0.8 0
v 0.4 0.9 0
v 0.5 0.4 0
v 0.5 0.5 0
v 0.5 0.6 0
v 0.5 0.7 0
v 0.5 0.8 0
v 0.5 0.9 0
v -0.2 0 -0.1
v -0.2 0.1 -0.1
v -0.1 0 -0.1
v -0.1 0.1 -0.1
v 0 0.2 -0.1
v 0 0.3 -0.1
v 0.1 0.2 -0.1
v 0.1 0.3 -0.1
v 0.2 0.3 -0.1
v 0.2 0.4 -0.1
v 0.3 0.3 -0.1
v 0.3 0.4 -0.1
v 0.4 0.3 -0.1
v 0.4 0.4 -0.1
v 0.5 0.3 -0.1
v 0.5 0.4 -0.1
v -0.1 0 -0.2
v -0.1 0.1 -0.2
v 0 0.1 -0.2
v 0 0.2 -0.2
v 0.1 0 -0.2
v 0.1 0.1 -0.2
v 0.1 0.2 -0.2
v 0.2 0.1 -0.2
v 0.2 0.2 -0.2
v 0.2 0.3 -0.2
v 0.3 0.1 -0.2
v 0.3 0.2 -0.2
v 0.3 0.3 -0.2
v 0.4 0.2 -0.2
v 0.4 0.3 -0.2
v 0.5 0.2 -0.2
v 0.5 0.3 -0.2
v 0.1 0 -0.3
v 0.1 0.1 -0.3
v 0.2 0 -0.3
v 0.2 0.1 -0.3
v 0.3 0 -0.3
v 0.3 0.1 -0.3
v 0.3 0.2 -0.3
v 0.4 0.1 -0.3
v 0.5 0.1 -0.3
v 0.5 0.2 -0.3
v 0.3 0 -0.4
v 0.3 0.1 -0.4
v 0.4 0 -0.4
v 0.4 0.1 -0.4
v 0.4 0 -0.5
v 0.4 0.1 -0.5
v 0.5 0 -0.5
v 0.5 0.1 -0.5
v -0.5 0 0.5
v -0.4 0 0.5
v -0.3 0 0.5
v -0.2 0 0.5
v 0.5 0 0.5
v -0.5 0 0.4
v -0.4 0 0.4
v -0.3 0 0.4
v -0.2 0 0.4
v 0 0 0.4
v -0.4 0 0.3
v -0.2 0 0.3
v -0.1 0 0.3
v 0 0 0.3
v 0 0 0.1
v 0.1 0 0.1
v -0.2 0 -0.1
v -0.1 0 -0.1
v 0 0 -0.1
v 0.1 0 -0.1
v 0.2 0 -0.1
v -0.1 0 -0.2
v 0.1 0 -0.2
v 0.3 0 -0.2
v 0.4 0 -0.2
v 0.1 0 -0.3
v 0.2 0 -0.3
v 0.3 0 -0.3
v 0.4 0 -0.3
v 0.5 0 -0.3
v 0.3 0 -0.4
v 0.4 0 -0.4
v 0.5 0 -0.4
v 0.4 0 -0.5
v 0.5 0 -0.5
v -0.1 0.2 0.4
v 0 0.2 0.4
v -0.1 0.2 0.3
v 0 0.2 0.3
v 0.3 0.5 0.5
v 0.4 0.5 0.5
v 0.3 0.5 0.3
v 0.4 0.5 0.3
v -0.5 0.1 0.5
v -0.4 0.1 0.5
v -0.3 0.1 0.5
v -0.2 0.1 0.5
v -0.5 0.1 0.4
v -0.4 0.1 0.4
v -0.3 0.1 0.4
v -0.2 0.1 0.4
v -0.1 0.1 0.4
v 0 0.1 0.4
v -0.4 0.1 0.3
v -0.2 0.1 0.3
v -0.1 0.1 0.3
v 0 0.1 0.3
v -0.1 0.1 0.2
v -0.1 0.1 0.1
v -0.1 0.1 0
v 0 0.1 0
v -0.2 0.1 -0.1
v -0.1 0.1 -0.1
v 0 0.1 -0.1
v -0.1 0.1 -0.2
v 0 0.1 -0.2
v 0.1 0.1 -0.2
v 0.2 0.1 -0.2
v 0.3 0.1 -0.2
v 0.1 0.1 -0.3
v 0.2 0.1 -0.3
v 0.3 0.1 -0.3
v 0.4 0.1 -0.3
v 0.5 0.1 -0.3
v 0.3 0.1 -0.4
v 0.4 0.1 -0.4
v 0.5 0.1 -0.4
v 0.4 0.1 -0.5
v 0.5 0.1 -0.5
v -0.2 0.2 0.4
v -0.1 0.2 0.4
v -0.2 0.2 0.3
v -0.1 0.2 0.3
v -0.1 0.2 0.2
v 0 0.2 0.2
v 0.1 0.2 0.2
v -0.1 0.2 0.1
v 0 0.2 0.1
v 0.1 0.2 0.1
v -0.1 0.2 0
v 0 0.2 0
v 0.1 0.2 0
v 0.2 0.2 0
v 0 0.2 -0.1
v 0.1 0.2 -0.1
v 0.2 0.2 -0.1
v 0 0.2 -0.2
v 0.1 0.2 -0.2
v 0.2 0.2 -0.2
v 0.3 0.2 -0.2
v 0.4 0.2 -0.2
v 0.5 0.2 -0.2
v 0.3 0.2 -0.3
v 0.5 0.2 -0.3
v -0.2 0.3 0.5
v 0 0.3 0.5
v -0.2 0.3 0.4
v -0.1 0.3 0.4
v 0 0.3 0.4
v -0.1 0.3 0.3
v 0 0.3 0.3
v 0.1 0.3 0.3
v -0.1 0.3 0.2
v 0.1 0.3 0.2
v 0 0.3 0
v 0.1 0.3 0
v 0.3 0.3 0
v 0.4 0.3 0
v 0 0.3 -0.1
v 0.1 0.3 -0.1
v 0.2 0.3 -0.1
v 0.3 0.3 -0.1
v 0.4 0.3 -0.1
v 0.5 0.3 -0.1
v 0.2 0.3 -0.2
v 0.3 0.3 -0.2
v 0.4 0.3 -0.2
v 0.5 0.3 -0.2
v 0.3 0.4 0.5
v 0.4 0.4 0.5
v 0 0.4 0.4
v 0.1 0.4 0.4
v 0 0.4 0.3
v 0.1 0.4 0.3
v 0.3 0.4 0.3
v 0.4 0.4 0.3
v 0.1 0.4 0.1
v 0.2 0.4 0.1
v 0.1 0.4 0
v 0.2 0.4 0
v 0.3 0.4 0
v 0.4 0.4 0
v 0.5 0.4 0
v 0.2 0.4 -0.1
v 0.3 0.4 -0.1
v 0.4 0.4 -0.1
v 0.5 0.4 -0.1
v 0.2 0.5 0.1
v 0.3 0.5 0.1
v 0.2 0.5 0
v 0.3 0.5 0
v 0.1 0.6 0.2
v 0.2 0.6 0.2
v 0.1 0.6 0.1
v 0.2 0.6 0.1
v 0.2 0.7 0.2
v 0.3 0.7 0.2
v 0.2 0.7 0.1
v 0.3 0.7 0.1
v 0 0.8 0.5
v 0.2 0.8 0.5
v 0 0.8 0.4
v 0.1 0.8 0.4
v 0.2 0.8 0.4
v 0.1 0.8 0.3
v 0.2 0.8 0.3
v 0.1 0.8 0.2
v 0.2 0.8 0.2
v 0.3 0.8 0.1
v 0.4 0.8 0.1
v 0.3 0.8 0
v 0.4 0.8 0
v 0.1 0.9 0.4
v 0.2 0.9 0.4
v 0.1 0.9 0.3
v 0.2 0.9 0.3
v 0.3 0.9 0.3
v 0.2 0.9 0.2
v 0.3 0.9 0.2
v 0.4 0.9 0.2
v 0.5 0.9 0.2
v 0.3 0.9 0.1
v 0.4 0.9 0.1
v 0.5 0.9 0.1
v 0.4 0.9 0
v 0.5 0.9 0
v 0.2 1 0.5
v 0.3 1 0.5
v 0.2 1 0.4
v 0.3 1 0.4
v 0.2 1 0.3
v 0.3 1 0.3
v 0.4 1 0.3
v 0.5 1 0.3
v 0.3 1 0.2
v 0.4 1 0.2
v 0.5 1 0.2
v 0.3 1.1 0.4
v 0.4 1.1 0.4
v 0.3 1.1 0.3
v 0.4 1.1 0.3
v 0.3 1.2 0.5
v 0.4 1.2 0.5
v 0.3 1.2 0.4
v 0.4 1.2 0.4
v 0.5 1.2 0.4
v 0.4 1.2 0.3
v 0.5 1.2 0.3
v 0.4 1.3 0.5
v 0.5 1.3 0.5
v 0.4 1.3 0.4
v 0.5 1.3 0.4

# faces
f 3/2/1 2/2/1 1/2/1
f 4/2/1 2/2/1 3/2/1
f 7/2/1 6/2/1 5/2/1
f 8/2/1 6/2/1 7/2/1
f 13/1/1 10/1/1 9/1/1
f 14/1/1 10/1/1 13/1/1
f 15/3/1 12/3/1 11/3/1
f 16/1/1 13/1/1 12/1/1
f 16/3/1 12/3/1 15/3/1
f 17/1/1 13/1/1 16/1/1
f 18/2/1 16/2/1 15/2/1
f 19/2/1 16/2/1 18/2/1
f 26/2/1 21/2/1 20/2/1
f 27/2/1 21/2/1 26/2/1
f 29/1/1 23/1/1 22/1/1
f 30/2/1 24/2/1 23/2/1
f 30/1/1 23/1/1 29/1/1
f 31/3/1 25/3/1 24/3/1
f 31/2/1 24/2/1 30/2/1
f 32/3/1 25/3/1 31/3/1
f 33/2/1 29/2/1 28/2/1
f 34/1/1 30/1/1 29/1/1
f 34/2/1 29/2/1 33/2/1
f 35/1/1 30/1/1 34/1/1
f 41/2/1 37/2/1 36/2/1
f 42/2/1 37/2/1 41/2/1
f 43/2/1 39/2/1 38/2/1
f 44/1/1 40/1/1 39/1/1
f 44/2/1 39/2/1 43/2/1
f 45/1/1 40/1/1 44/1/1
f 49/3/1 44/3/1 43/3/1
f 50/3/1 44/3/1 49/3/1
f 51/1/1 48/1/1 47/1/1
f 51/2/1 47/2/1 46/2/1
f 52/1/1 48/1/1 51/1/1
f 53/2/1 51/2/1 46/2/1
f 54/2/1 51/2/1 53/2/1
f 57/1/1 56/1/1 55/1/1
f 58/1/1 56/1/1 57/1/1
f 63/3/1 60/3/1 59/3/1
f 64/2/1 61/2/1 60/2/1
f 64/3/1 60/3/1 63/3/1
f 65/2/1 61/2/1 64/2/1
f 67/2/1 63/2/1 62/2/1
f 67/2/1 64/2/1 63/2/1
f 68/2/1 64/2/1 67/2/1
f 69/3/1 65/3/1 64/3/1
f 69/2/1 64/2/1 68/2/1
f 70/3/1 65/3/1 69/3/1
f 71/1/1 68/1/1 67/1/1
f 71/2/1 67/2/1 66/2/1
f 72/2/1 69/2/1 68/2/1
f 72/1/1 68/1/1 71/1/1
f 73/2/1 72/2/1 71/2/1
f 73/2/1 69/2/1 72/2/1
f 74/2/1 69/2/1 73/2/1
f 75/2/1 71/2/1 66/2/1
f 75/2/1 73/2/1 71/2/1
f 76/2/1 73/2/1 75/2/1
f 77/2/1 73/2/1 76/2/1
f 78/2/1 76/2/1 75/2/1
f 79/2/1 76/2/1 78/2/1
f 83/1/1 81/1/1 80/1/1
f 84/3/1 82/3/1 81/3/1
f 84/1/1 81/1/1 83/1/1
f 85/3/1 82/3/1 84/3/1
f 87/1/1 84/1/1 83/1/1
f 88/1/1 84/1/1 87/1/1
f 89/1/1 87/1/1 86/1/1
f 90/1/1 87/1/1 89/1/1
f 93/3/1 92/3/1 91/3/1
f 94/3/1 92/3/1 93/3/1
f 99/2/1 96/2/1 95/2/1
f 100/2/1 98/2/1 97/2/1
f 101/2/1 98/2/1 100/2/1
f 102/2/1 99/2/1 95/2/1
f 103/1/1 100/1/1 99/1/1
f 103/2/1 99/2/1 102/2/1
f 104/1/1 100/1/1 103/1/1
f 108/2/1 106/2/1 105/2/1
f 109/2/1 106/2/1 108/2/1
f 110/1/1 108/1/1 107/1/1
f 111/1/1 108/1/1 110/1/1
f 114/1/1 113/1/1 112/1/1
f 116/1/1 113/1/1 114/1/1
f 117/1/1 116/1/1 115/1/1
f 118/1/1 113/1/1 116/1/1
f 118/1/1 116/1/1 117/1/1
f 119/1/1 113/1/1 118/1/1
f 121/2/1 118/2/1 117/2/1
f 122/2/1 118/2/1 121/2/1
f 125/1/1 121/1/1 120/1/1
f 126/1/1 121/1/1 125/1/1
f 127/1/1 124/1/1 123/1/1
f 127/1/1 125/1/1 124/1/1
f 128/1/1 125/1/1 127/1/1
f 129/1/1 127/1/1 123/1/1
f 130/1/1 127/1/1 129/1/1
f 133/2/1 132/2/1 131/2/1
f 134/2/1 132/2/1 133/2/1
f 139/2/1 136/2/1 135/2/1
f 140/2/1 136/2/1 139/2/1
f 141/2/1 138/2/1 137/2/1
f 142/2/1 138/2/1 141/2/1
f 145/1/1 144/1/1 143/1/1
f 146/1/1 144/1/1 145/1/1
f 150/1/1 148/1/1 147/1/1
f 151/1/1 148/1/1 150/1/1
f 152/1/1 150/1/1 149/1/1
f 153/1/1 150/1/1 152/1/1
f 154/1/2 155/1/2 156/1/2
f 156/1/2 155/1/2 157/1/2
f 158/3/2 159/3/2 160/3/2
f 160/3/2 159/3/2 161/3/2
f 162/1/2 163/1/2 166/1/2
f 166/1/2 163/1/2 167/1/2
f 164/2/2 165/2/2 168/2/2
f 168/2/2 165/2/2 169/2/2
f 170/2/2 171/2/2 174/2/2
f 171/1/2 172/1/2 175/1/2
f 174/2/2 171/2/2 175/2/2
f 172/2/2 173/2/2 176/2/2
f 175/1/2 172/1/2 176/1/2
f 176/2/2 173/2/2 177/2/2
f 170/2/2 174/2/2 178/2/2
f 178/2/2 174/2/2 179/2/2
f 174/1/2 175/1/2 180/1/2
f 179/2/2 174/2/2 180/2/2
f 180/1/2 175/1/2 181/1/2
f 178/1/2 179/1/2 182/1/2
f 170/2/2 178/2/2 182/2/2
f 179/2/2 180/2/2 183/2/2
f 182/1/2 179/1/2 183/1/2
f 183/2/2 180/2/2 184/2/2
f 170/2/2 182/2/2 185/2/2
f 182/2/2 183/2/2 185/2/2
f 185/2/2 183/2/2 186/2/2
f 170/2/2 185/2/2 187/2/2
f 187/2/2 185/2/2 188/2/2
f 188/2/2 185/2/2 189/2/2
f 189/2/2 185/2/2 190/2/2
f 188/2/2 189/2/2 191/2/2
f 189/3/2 190/3/2 191/3/2
f 191/3/2 190/3/2 192/3/2
f 188/2/2 191/2/2 193/2/2
f 191/2/2 192/2/2 193/2/2
f 193/2/2 192/2/2 194/2/2
f 188/2/2 193/2/2 195/2/2
f 193/3/2 194/3/2 195/3/2
f 195/3/2 194/3/2 196/3/2
f 188/2/2 195/2/2 197/2/2
f 195/1/2 196/1/2 198/1/2
f 197/2/2 195/2/2 198/2/2
f 198/1/2 196/1/2 199/1/2
f 187/1/2 188/1/2 200/1/2
f 188/2/2 197/2/2 200/2/2
f 200/2/2 197/2/2 201/2/2
f 187/1/2 200/1/2 202/1/2
f 202/1/2 200/1/2 203/1/2
f 187/1/2 202/1/2 204/1/2
f 204/1/2 202/1/2 205/1/2
f 208/2/3 207/2/3 206/2/3
f 209/2/3 207/2/3 208/2/3
f 210/1/3 209/1/3 208/1/3
f 211/1/3 209/1/3 210/1/3
f 212/3/3 211/3/3 210/3/3
f 213/3/3 211/3/3 212/3/3
f 216/2/3 213/2/3 212/2/3
f 216/3/3 214/3/3 213/3/3
f 217/2/3 215/2/3 214/2/3
f 217/3/3 214/3/3 216/3/3
f 218/2/3 217/2/3 216/2/3
f 218/2/3 215/2/3 217/2/3
f 220/2/3 219/2/3 218/2/3
f 222/2/3 218/2/3 216/2/3
f 222/2/3 221/2/3 220/2/3
f 222/2/3 220/2/3 218/2/3
f 223/2/3 221/2/3 222/2/3
f 224/2/3 221/2/3 223/2/3
f 225/2/3 221/2/3 224/2/3
f 227/2/3 222/2/3 216/2/3
f 227/1/3 223/1/3 222/1/3
f 228/1/3 223/1/3 227/1/3
f 229/1/3 226/1/3 225/1/3
f 229/1/3 225/1/3 224/1/3
f 230/1/3 226/1/3 229/1/3
f 232/2/3 216/2/3 212/2/3
f 232/2/3 228/2/3 227/2/3
f 232/2/3 227/2/3 216/2/3
f 232/2/3 229/2/3 228/2/3
f 233/1/3 231/1/3 230/1/3
f 233/2/3 229/2/3 232/2/3
f 233/1/3 230/1/3 229/1/3
f 234/1/3 231/1/3 233/1/3
f 237/2/3 236/2/3 235/2/3
f 238/2/3 236/2/3 237/2/3
f 241/1/3 240/1/3 239/1/3
f 242/1/3 240/1/3 241/1/3
f 245/2/3 244/2/3 243/2/3
f 246/2/3 244/2/3 245/2/3
f 249/3/3 248/3/3 247/3/3
f 250/3/3 248/3/3 249/3/3
f 251/2/4 252/2/4 253/2/4
f 253/2/4 252/2/4 254/2/4
f 255/2/4 256/2/4 258/2/4
f 258/2/4 256/2/4 259/2/4
f 257/2/4 258/2/4 260/2/4
f 260/2/4 258/2/4 261/2/4
f 262/2/4 263/2/4 264/2/4
f 264/2/4 263/2/4 265/2/4
f 266/1/4 267/1/4 268/1/4
f 268/1/4 267/1/4 269/1/4
f 269/1/4 270/1/4 271/1/4
f 271/1/4 270/1/4 272/1/4
f 273/2/4 274/2/4 275/2/4
f 275/2/4 274/2/4 276/2/4
f 276/1/4 277/1/4 278/1/4
f 278/1/4 277/1/4 279/1/4
f 280/1/4 281/1/4 282/1/4
f 282/1/4 281/1/4 283/1/4
f 284/2/4 285/2/4 286/2/4
f 286/2/4 285/2/4 287/2/4
f 287/1/4 288/1/4 289/1/4
f 289/1/4 288/1/4 290/1/4
f 290/1/4 291/1/4 292/1/4
f 292/1/4 291/1/4 293/1/4
f 292/1/4 293/1/4 295/1/4
f 293/1/4 294/1/4 295/1/4
f 295/1/4 294/1/4 296/1/4
f 297/1/4 298/1/4 299/1/4
f 299/1/4 298/1/4 300/1/4
f 300/1/4 298/1/4 301/1/4
f 302/2/4 303/2/4 304/2/4
f 304/2/4 303/2/4 305/2/4
f 305/2/4 303/2/4 306/2/4
f 305/1/4 306/1/4 308/1/4
f 306/2/4 307/2/4 309/2/4
f 308/1/4 306/1/4 309/1/4
f 309/2/4 307/2/4 310/2/4
f 310/1/4 311/1/4 312/1/4
f 312/1/4 311/1/4 313/1/4
f 312/2/4 313/2/4 314/2/4
f 314/2/4 313/2/4 315/2/4
f 316/2/4 317/2/4 318/2/4
f 318/2/4 317/2/4 319/2/4
f 319/2/4 317/2/4 320/2/4
f 319/2/4 320/2/4 322/2/4
f 320/3/4 321/3/4 323/3/4
f 322/2/4 320/2/4 323/2/4
f 323/3/4 321/3/4 324/3/4
f 325/2/4 326/2/4 327/2/4
f 327/2/4 326/2/4 328/2/4
f 329/3/4 330/3/4 331/3/4
f 331/3/4 330/3/4 332/3/4
f 333/2/4 334/2/4 336/2/4
f 334/3/4 335/3/4 337/3/4
f 336/2/4 334/2/4 337/2/4
f 337/3/4 335/3/4 338/3/4
f 338/1/4 339/1/4 341/1/4
f 341/1/4 339/1/4 342/1/4
f 340/1/4 341/1/4 344/1/4
f 342/1/4 343/1/4 344/1/4
f 341/1/4 342/1/4 344/1/4
f 344/1/4 343/1/4 345/1/4
f 345/1/4 343/1/4 346/1/4
f 346/1/4 343/1/4 347/1/4
f 347/1/4 343/1/4 348/1/4
f 348/1/4 343/1/4 349/1/4
f 345/2/4 346/2/4 351/2/4
f 346/3/4 347/3/4 352/3/4
f 351/2/4 346/2/4 352/2/4
f 347/2/4 348/2/4 353/2/4
f 352/3/4 347/3/4 353/3/4
f 348/3/4 349/3/4 354/3/4
f 353/2/4 348/2/4 354/2/4
f 349/1/4 350/1/4 355/1/4
f 354/3/4 349/3/4 355/3/4
f 355/1/4 350/1/4 356/1/4
f 357/1/4 358/1/4 359/1/4
f 359/1/4 358/1/4 360/1/4
f 361/3/4 362/3/4 363/3/4
f 363/3/4 362/3/4 364/3/4
f 365/1/4 366/1/4 367/1/4
f 367/1/4 366/1/4 368/1/4
f 369/2/4 370/2/4 371/2/4
f 371/2/4 370/2/4 372/2/4
f 373/2/4 374/2/4 375/2/4
f 373/2/4 375/2/4 377/2/4
f 375/1/4 376/1/4 378/1/4
f 377/2/4 375/2/4 378/2/4
f 378/1/4 376/1/4 379/1/4
f 378/2/4 379/2/4 380/2/4
f 380/2/4 379/2/4 381/2/4
f 380/2/4 381/2/4 383/2/4
f 381/3/4 382/3/4 384/3/4
f 383/2/4 381/2/4 384/2/4
f 384/3/4 382/3/4 385/3/4
f 384/1/4 385/1/4 386/1/4
f 386/1/4 385/1/4 387/1/4
f 386/2/4 387/2/4 388/2/4
f 388/2/4 387/2/4 389/2/4
f 390/1/4 391/1/4 392/1/4
f 392/1/4 391/1/4 393/1/4
f 392/2/4 393/2/4 394/2/4
f 394/2/4 393/2/4 395/2/4
f 395/1/4 396/1/4 397/1/4
f 397/1/4 396/1/4 398/1/4
f 398/1/4 396/1/4 399/1/4
f 400/2/4 401/2/4 402/2/4
f 402/2/4 401/2/4 403/2/4
f 404/2/4 405/2/4 406/2/4
f 406/2/4 405/2/4 407/2/4
f 413/2/5 409/2/5 408/2/5
f 414/1/5 410/1/5 409/1/5
f 414/2/5 409/2/5 413/2/5
f 415/3/5 411/3/5 410/3/5
f 415/1/5 410/1/5 414/1/5
f 416/2/5 412/2/5 411/2/5
f 416/3/5 411/3/5 415/3/5
f 417/2/5 412/2/5 416/2/5
f 418/2/5 415/2/5 414/2/5
f 418/2/5 416/2/5 415/2/5
f 419/1/5 417/1/5 416/1/5
f 419/2/5 416/2/5 418/2/5
f 420/1/5 417/1/5 419/1/5
f 421/2/5 412/2/5 417/2/5
f 421/1/5 417/1/5 420/1/5
f 422/2/5 412/2/5 421/2/5
f 422/2/5 421/2/5 420/2/5
f 423/2/5 412/2/5 422/2/5
f 424/1/5 420/1/5 419/1/5
f 425/2/5 422/2/5 420/2/5
f 425/1/5 420/1/5 424/1/5
f 426/1/5 423/1/5 422/1/5
f 426/2/5 422/2/5 425/2/5
f 427/2/5 412/2/5 423/2/5
f 427/1/5 423/1/5 426/1/5
f 428/2/5 412/2/5 427/2/5
f 429/2/5 426/2/5 425/2/5
f 429/2/5 427/2/5 426/2/5
f 430/1/5 428/1/5 427/1/5
f 430/2/5 427/2/5 429/2/5
f 431/2/5 412/2/5 428/2/5
f 432/2/5 412/2/5 431/2/5
f 433/1/5 428/1/5 430/1/5
f 434/2/5 431/2/5 428/2/5
f 434/1/5 428/1/5 433/1/5
f 435/1/5 432/1/5 431/1/5
f 435/2/5 431/2/5 434/2/5
f 436/2/5 412/2/5 432/2/5
f 436/1/5 432/1/5 435/1/5
f 437/2/5 412/2/5 436/2/5
f 438/2/5 436/2/5 435/2/5
f 439/1/5 437/1/5 436/1/5
f 439/2/5 436/2/5 438/2/5
f 440/1/5 437/1/5 439/1/5
f 441/2/5 440/2/5 439/2/5
f 442/2/5 440/2/5 441/2/5
f 445/2/5 444/2/5 443/2/5
f 446/2/5 444/2/5 445/2/5
f 449/1/5 448/1/5 447/1/5
f 450/1/5 448/1/5 449/1/5
f 451/2/6 452/2/6 455/2/6
f 452/1/6 453/1/6 456/1/6
f 455/2/6 452/2/6 456/2/6
f 453/3/6 454/3/6 457/3/6
f 456/1/6 453/1/6 457/1/6
f 457/3/6 454/3/6 458/3/6
f 456/2/6 457/2/6 461/2/6
f 457/2/6 458/2/6 461/2/6
f 461/2/6 458/2/6 462/2/6
f 459/1/6 460/1/6 463/1/6
f 463/1/6 460/1/6 464/1/6
f 462/1/6 463/1/6 465/1/6
f 462/1/6 465/1/6 466/1/6
f 462/1/6 466/1/6 467/1/6
f 462/1/6 467/1/6 469/1/6
f 467/2/6 468/2/6 470/2/6
f 469/1/6 467/1/6 470/1/6
f 470/2/6 468/2/6 471/2/6
f 470/2/6 471/2/6 472/2/6
f 472/2/6 471/2/6 473/2/6
f 474/1/6 475/1/6 477/1/6
f 475/2/6 476/2/6 478/2/6
f 477/1/6 475/1/6 478/1/6
f 478/2/6 476/2/6 479/2/6
f 479/2/6 480/2/6 482/2/6
f 480/1/6 481/1/6 483/1/6
f 482/2/6 480/2/6 483/2/6
f 483/1/6 481/1/6 484/1/6
f 483/2/6 484/2/6 485/2/6
f 485/2/6 484/2/6 486/2/6
f 487/1/6 488/1/6 489/1/6
f 489/1/6 488/1/6 490/1/6
f 491/2/6 492/2/6 494/2/6
f 492/3/6 493/3/6 495/3/6
f 494/2/6 492/2/6 495/2/6
f 495/3/6 493/3/6 496/3/6
f 494/3/6 495/3/6 497/3/6
f 495/2/6 496/2/6 498/2/6
f 497/3/6 495/3/6 498/3/6
f 498/2/6 496/2/6 499/2/6
f 499/1/6 500/1/6 502/1/6
f 502/1/6 500/1/6 503/1/6
f 501/1/6 502/1/6 504/1/6
f 502/2/6 503/2/6 505/2/6
f 504/1/6 502/1/6 505/1/6
f 505/2/6 503/2/6 506/2/6
f 508/1/6 509/1/6 510/1/6
f 507/1/6 508/1/6 510/1/6
f 510/1/6 509/1/6 511/1/6
f 512/2/6 513/2/6 514/2/6
f 514/2/6 513/2/6 515/2/6
f 515/2/6 513/2/6 516/2/6
f 515/2/6 516/2/6 517/2/6
f 517/2/6 516/2/6 518/2/6
f 517/1/6 518/1/6 520/1/6
f 518/1/6 519/1/6 520/1/6
f 520/1/6 519/1/6 521/1/6
f 522/3/6 523/3/6 526/3/6
f 526/3/6 523/3/6 527/3/6
f 524/1/6 525/1/6 529/1/6
f 529/1/6 525/1/6 530/1/6
f 528/3/6 529/3/6 532/3/6
f 529/1/6 530/1/6 533/1/6
f 532/3/6 529/3/6 533/3/6
f 530/2/6 531/2/6 534/2/6
f 533/1/6 530/1/6 534/1/6
f 534/2/6 531/2/6 535/2/6
f 538/1/6 539/1/6 540/1/6
f 540/1/6 539/1/6 541/1/6
f 536/1/6 537/1/6 542/1/6
f 542/1/6 537/1/6 543/1/6
f 544/3/6 545/3/6 546/3/6
f 546/3/6 545/3/6 547/3/6
f 547/1/6 548/1/6 551/1/6
f 551/1/6 548/1/6 552/1/6
f 549/2/6 550/2/6 553/2/6
f 553/2/6 550/2/6 554/2/6
f 555/1/6 556/1/6 557/1/6
f 557/1/6 556/1/6 558/1/6
f 559/2/6 560/2/6 561/2/6
f 561/2/6 560/2/6 562/2/6
f 563/3/6 564/3/6 565/3/6
f 565/3/6 564/3/6 566/3/6
f 567/2/6 568/2/6 569/2/6
f 569/2/6 568/2/6 570/2/6
f 570/2/6 568/2/6 571/2/6
f 572/2/6 573/2/6 574/2/6
f 574/2/6 573/2/6 575/2/6
f 576/1/6 577/1/6 578/1/6
f 578/1/6 577/1/6 579/1/6
f 580/2/6 581/2/6 582/2/6
f 582/2/6 581/2/6 583/2/6
f 583/2/6 584/2/6 585/2/6
f 585/2/6 584/2/6 586/2/6
f 587/2/6 588/2/6 589/2/6
f 586/2/6 587/2/6 589/2/6
f 589/2/6 588/2/6 590/2/6
f 590/2/6 588/2/6 591/2/6
f 590/1/6 591/1/6 592/1/6
f 592/1/6 591/1/6 593/1/6
f 594/2/6 595/2/6 596/2/6
f 596/2/6 595/2/6 597/2/6
f 596/1/6 597/1/6 598/1/6
f 598/1/6 597/1/6 599/1/6
f 599/1/6 600/1/6 602/1/6
f 600/2/6 601/2/6 603/2/6
f 602/1/6 600/1/6 603/1/6
f 603/2/6 601/2/6 604/2/6
f 605/1/6 606/1/6 607/1/6
f 607/1/6 606/1/6 608/1/6
f 609/1/6 610/1/6 611/1/6
f 611/1/6 610/1/6 612/1/6
f 612/1/6 613/1/6 614/1/6
f 614/1/6 613/1/6 615/1/6
f 616/1/6 617/1/6 618/1/6
f 618/1/6 617/1/6 619/1/6
