# MagicaVoxel @ Ephtracy

# group
o 

# material
mtllib Stein_ecke-1.0-0.mtl
usemtl palette

# normals
vn -1 0 0
vn 1 0 0
vn 0 0 1
vn 0 0 -1
vn 0 -1 0
vn 0 1 0

# texcoords
vt 0.0644531 0.5
vt 0.0683594 0.5

# verts
v -0.5 0 0.5
v -0.5 0 0.4
v -0.5 0 0.3
v -0.5 0.1 0.5
v -0.5 0.1 0.4
v -0.5 0.1 0.3
v -0.4 0 0.3
v -0.4 0 0
v -0.4 0.1 0.3
v -0.4 0.1 0
v -0.3 0 0
v -0.3 0 -0.1
v -0.3 0.1 0.5
v -0.3 0.1 0.3
v -0.3 0.1 0
v -0.3 0.1 -0.1
v -0.3 0.2 0.5
v -0.3 0.2 0.3
v -0.2 0.1 0.3
v -0.2 0.1 0.2
v -0.2 0.1 0.1
v -0.2 0.1 0
v -0.2 0.1 -0.1
v -0.2 0.2 0.5
v -0.2 0.2 0.3
v -0.2 0.2 0.2
v -0.2 0.2 0.1
v -0.2 0.2 0
v -0.2 0.2 -0.1
v -0.2 0.3 0.5
v -0.2 0.3 0.2
v -0.1 0 -0.1
v -0.1 0 -0.2
v -0.1 0.1 0.2
v -0.1 0.1 0.1
v -0.1 0.1 -0.1
v -0.1 0.1 -0.2
v -0.1 0.2 0.2
v -0.1 0.2 0.1
v -0.1 0.2 -0.1
v -0.1 0.2 -0.2
v -0.1 0.3 0.5
v -0.1 0.3 0.4
v -0.1 0.3 0.2
v -0.1 0.3 0.1
v -0.1 0.4 0.5
v -0.1 0.4 0.4
v 0 0.1 0.1
v 0 0.1 0
v 0 0.2 0.4
v 0 0.2 0.3
v 0 0.2 0.2
v 0 0.2 0.1
v 0 0.2 0
v 0 0.3 0.4
v 0 0.3 0.3
v 0 0.3 0.2
v 0 0.4 0.5
v 0 0.4 0.4
v 0 0.5 0.3
v 0 0.5 0.2
v 0 0.6 0.3
v 0 0.6 0.2
v 0 0.8 0.5
v 0 0.8 0.3
v 0.1 0 -0.2
v 0.1 0 -0.3
v 0.1 0.1 0
v 0.1 0.1 -0.1
v 0.1 0.1 -0.2
v 0.1 0.1 -0.3
v 0.1 0.2 0.1
v 0.1 0.2 0
v 0.1 0.2 -0.1
v 0.1 0.3 0.2
v 0.1 0.3 0.1
v 0.1 0.4 0.1
v 0.1 0.4 0
v 0.1 0.5 0.2
v 0.1 0.6 0.2
v 0.1 0.6 0.1
v 0.1 0.8 0.5
v 0.1 0.8 0.3
v 0.1 0.9 0.5
v 0.1 0.9 0.3
v 0.2 0 -0.3
v 0.2 0 -0.4
v 0.2 0.1 -0.3
v 0.2 0.1 -0.4
v 0.2 0.6 0.3
v 0.2 0.6 0.2
v 0.2 0.6 0.1
v 0.2 0.6 0
v 0.2 0.7 0.1
v 0.2 0.7 0
v 0.2 0.8 0.3
v 0.2 0.8 0.2
v 0.2 0.8 0.1
v 0.2 0.9 0.5
v 0.2 0.9 0.4
v 0.2 0.9 0.3
v 0.2 0.9 0.2
v 0.2 1 0.5
v 0.2 1 0.4
v 0.3 0.1 -0.1
v 0.3 0.1 -0.3
v 0.3 0.2 -0.1
v 0.3 0.2 -0.3
v 0.3 0.4 0.1
v 0.3 0.4 0
v 0.3 0.6 0.1
v 0.3 0.6 0
v 0.3 0.8 0.2
v 0.3 0.8 0.1
v 0.3 0.9 0.4
v 0.3 0.9 0.3
v 0.3 0.9 0.2
v 0.3 0.9 0.1
v 0.3 1 0.5
v 0.3 1 0.4
v 0.3 1.1 0.5
v 0.3 1.1 0.4
v 0.3 1.1 0.3
v 0.3 1.2 0.5
v 0.3 1.2 0.4
v 0.4 0 -0.4
v 0.4 0 -0.5
v 0.4 0.1 -0.4
v 0.4 0.1 -0.5
v 0.4 0.2 0
v 0.4 0.2 -0.1
v 0.4 0.2 -0.2
v 0.4 0.3 0
v 0.4 0.3 -0.1
v 0.4 0.3 -0.2
v 0.4 0.4 0
v 0.4 0.4 -0.1
v 0.4 0.7 0.1
v 0.4 0.7 0
v 0.4 0.8 0.1
v 0.4 0.8 0
v 0.4 0.9 0.3
v 0.4 0.9 0.2
v 0.4 1 0.3
v 0.4 1 0.2
v 0.4 1.1 0.4
v 0.4 1.1 0.3
v 0.4 1.2 0.4
v 0.4 1.2 0.3
v -0.1 0.1 0.1
v -0.1 0.1 0
v -0.1 0.1 -0.1
v -0.1 0.2 0.4
v -0.1 0.2 0.2
v -0.1 0.2 0.1
v -0.1 0.2 0
v -0.1 0.2 -0.1
v -0.1 0.3 0.4
v -0.1 0.3 0.2
v 0 0.1 -0.1
v 0 0.1 -0.2
v 0 0.2 -0.1
v 0 0.2 -0.2
v 0.4 0.1 -0.2
v 0.4 0.1 -0.3
v 0.4 0.2 -0.2
v 0.4 0.2 -0.3
v 0.5 0 0.5
v 0.5 0 -0.4
v 0.5 0 -0.5
v 0.5 0.1 -0.1
v 0.5 0.1 -0.2
v 0.5 0.1 -0.4
v 0.5 0.1 -0.5
v 0.5 0.2 -0.1
v 0.5 0.2 -0.2
v 0.5 0.3 0.3
v 0.5 0.3 0.2
v 0.5 0.3 0
v 0.5 0.3 -0.1
v 0.5 0.3 -0.2
v 0.5 0.4 0.3
v 0.5 0.4 0.2
v 0.5 0.4 0
v 0.5 0.4 -0.1
v 0.5 0.8 0.1
v 0.5 0.8 0
v 0.5 0.9 0.3
v 0.5 0.9 0.2
v 0.5 0.9 0.1
v 0.5 1 0.3
v 0.5 1 0.2
v 0.5 1.1 0.5
v 0.5 1.1 0.3
v 0.5 1.2 0.5
v 0.5 1.2 0.3
v -0.5 0 0.5
v -0.5 0.1 0.5
v -0.4 0 0.5
v -0.4 0.1 0.5
v -0.3 0.1 0.5
v -0.3 0.2 0.5
v -0.2 0.1 0.5
v -0.2 0.2 0.5
v -0.2 0.3 0.5
v -0.1 0.1 0.5
v -0.1 0.2 0.5
v -0.1 0.3 0.5
v -0.1 0.4 0.5
v 0 0.2 0.5
v 0 0.3 0.5
v 0 0.4 0.5
v 0 0.8 0.5
v 0.1 0.2 0.5
v 0.1 0.3 0.5
v 0.1 0.8 0.5
v 0.1 0.9 0.5
v 0.2 0.9 0.5
v 0.2 1 0.5
v 0.3 0.4 0.5
v 0.3 0.5 0.5
v 0.3 1 0.5
v 0.3 1.1 0.5
v 0.3 1.2 0.5
v 0.4 0.4 0.5
v 0.4 0.5 0.5
v 0.5 0 0.5
v 0.5 1.1 0.5
v 0.5 1.2 0.5
v -0.1 0.2 0.2
v -0.1 0.3 0.2
v 0 0.2 0.2
v 0 0.3 0.2
v -0.2 0.1 0.1
v -0.2 0.2 0.1
v -0.1 0.1 0.1
v -0.1 0.2 0.1
v -0.1 0.1 -0.1
v -0.1 0.2 -0.1
v 0 0.1 -0.1
v 0 0.2 -0.1
v -0.1 0.2 0.4
v -0.1 0.3 0.4
v -0.1 0.4 0.4
v 0 0.2 0.4
v 0 0.3 0.4
v 0 0.4 0.4
v 0.2 0.9 0.4
v 0.2 1 0.4
v 0.3 0.9 0.4
v 0.3 1 0.4
v 0.3 1.1 0.4
v 0.3 1.2 0.4
v 0.4 1.1 0.4
v 0.4 1.2 0.4
v -0.5 0 0.3
v -0.5 0.1 0.3
v -0.4 0 0.3
v -0.4 0.1 0.3
v -0.3 0.1 0.3
v -0.3 0.2 0.3
v -0.2 0.1 0.3
v -0.2 0.2 0.3
v 0 0.6 0.3
v 0 0.8 0.3
v 0.1 0.6 0.3
v 0.1 0.8 0.3
v 0.1 0.9 0.3
v 0.2 0.6 0.3
v 0.2 0.8 0.3
v 0.2 0.9 0.3
v 0.3 0.9 0.3
v 0.3 1.1 0.3
v 0.4 0.9 0.3
v 0.4 1 0.3
v 0.4 1.1 0.3
v 0.4 1.2 0.3
v 0.5 1 0.3
v 0.5 1.1 0.3
v 0.5 1.2 0.3
v -0.2 0.1 0.2
v -0.2 0.2 0.2
v -0.2 0.3 0.2
v -0.1 0.1 0.2
v -0.1 0.2 0.2
v -0.1 0.3 0.2
v 0 0.3 0.2
v 0 0.5 0.2
v 0 0.6 0.2
v 0.1 0.3 0.2
v 0.1 0.5 0.2
v 0.1 0.6 0.2
v 0.2 0.8 0.2
v 0.2 0.9 0.2
v 0.3 0.8 0.2
v 0.3 0.9 0.2
v 0.4 0.9 0.2
v 0.4 1 0.2
v 0.5 0.9 0.2
v 0.5 1 0.2
v -0.1 0.1 0.1
v -0.1 0.2 0.1
v -0.1 0.3 0.1
v 0 0.1 0.1
v 0 0.2 0.1
v 0.1 0.2 0.1
v 0.1 0.3 0.1
v 0.1 0.4 0.1
v 0.1 0.6 0.1
v 0.2 0.4 0.1
v 0.2 0.6 0.1
v 0.2 0.7 0.1
v 0.2 0.8 0.1
v 0.3 0.4 0.1
v 0.3 0.6 0.1
v 0.3 0.7 0.1
v 0.3 0.8 0.1
v 0.3 0.9 0.1
v 0.4 0.7 0.1
v 0.4 0.8 0.1
v 0.4 0.9 0.1
v 0.5 0.8 0.1
v 0.5 0.9 0.1
v -0.4 0 0
v -0.4 0.1 0
v -0.3 0 0
v -0.3 0.1 0
v 0 0.1 0
v 0 0.2 0
v 0.1 0.1 0
v 0.1 0.2 0
v 0.1 0.4 0
v 0.2 0.2 0
v 0.2 0.4 0
v 0.2 0.6 0
v 0.2 0.7 0
v 0.3 0.4 0
v 0.3 0.6 0
v 0.3 0.7 0
v 0.4 0.2 0
v 0.4 0.3 0
v 0.4 0.4 0
v 0.4 0.6 0
v 0.4 0.7 0
v 0.4 0.8 0
v 0.5 0.4 0
v 0.5 0.8 0
v -0.3 0 -0.1
v -0.3 0.1 -0.1
v -0.2 0.1 -0.1
v -0.2 0.2 -0.1
v -0.1 0 -0.1
v -0.1 0.1 -0.1
v -0.1 0.2 -0.1
v 0.1 0.1 -0.1
v 0.1 0.2 -0.1
v 0.3 0.1 -0.1
v 0.3 0.2 -0.1
v 0.4 0.3 -0.1
v 0.4 0.4 -0.1
v 0.5 0.3 -0.1
v 0.5 0.4 -0.1
v -0.1 0 -0.2
v -0.1 0.1 -0.2
v -0.1 0.2 -0.2
v 0 0.1 -0.2
v 0 0.2 -0.2
v 0.1 0 -0.2
v 0.1 0.1 -0.2
v 0.4 0.1 -0.2
v 0.4 0.2 -0.2
v 0.4 0.3 -0.2
v 0.5 0.1 -0.2
v 0.5 0.2 -0.2
v 0.5 0.3 -0.2
v 0.1 0 -0.3
v 0.1 0.1 -0.3
v 0.2 0 -0.3
v 0.2 0.1 -0.3
v 0.3 0.1 -0.3
v 0.3 0.2 -0.3
v 0.4 0.1 -0.3
v 0.4 0.2 -0.3
v 0.2 0 -0.4
v 0.2 0.1 -0.4
v 0.3 0 -0.4
v 0.3 0.1 -0.4
v 0.4 0 -0.4
v 0.4 0.1 -0.4
v 0.4 0 -0.5
v 0.4 0.1 -0.5
v 0.5 0 -0.5
v 0.5 0.1 -0.5
v -0.5 0 0.5
v -0.4 0 0.5
v 0.5 0 0.5
v -0.5 0 0.4
v -0.4 0 0.4
v -0.3 0 0.4
v -0.1 0 0.4
v -0.5 0 0.3
v -0.4 0 0.3
v -0.3 0 0.3
v -0.1 0 0.2
v 0.2 0 0.2
v -0.4 0 0
v -0.3 0 0
v 0 0 0
v 0.2 0 0
v -0.3 0 -0.1
v -0.1 0 -0.1
v 0 0 -0.1
v 0.3 0 -0.1
v -0.1 0 -0.2
v 0.1 0 -0.2
v 0.1 0 -0.3
v 0.2 0 -0.3
v 0.2 0 -0.4
v 0.3 0 -0.4
v 0.4 0 -0.4
v 0.5 0 -0.4
v 0.4 0 -0.5
v 0.5 0 -0.5
v 0.2 0.6 0.1
v 0.3 0.6 0.1
v 0.2 0.6 0
v 0.3 0.6 0
v -0.5 0.1 0.5
v -0.4 0.1 0.5
v -0.3 0.1 0.5
v -0.5 0.1 0.4
v -0.4 0.1 0.4
v -0.5 0.1 0.3
v -0.4 0.1 0.3
v -0.3 0.1 0.3
v -0.2 0.1 0.3
v -0.2 0.1 0.2
v -0.1 0.1 0.2
v -0.2 0.1 0.1
v -0.1 0.1 0.1
v 0 0.1 0.1
v -0.4 0.1 0
v -0.3 0.1 0
v -0.2 0.1 0
v -0.1 0.1 0
v 0 0.1 0
v 0.1 0.1 0
v -0.3 0.1 -0.1
v -0.2 0.1 -0.1
v -0.1 0.1 -0.1
v 0 0.1 -0.1
v 0.1 0.1 -0.1
v 0.3 0.1 -0.1
v 0 0.1 -0.2
v 0.1 0.1 -0.2
v 0.4 0.1 -0.2
v 0.5 0.1 -0.2
v 0.1 0.1 -0.3
v 0.2 0.1 -0.3
v 0.3 0.1 -0.3
v 0.4 0.1 -0.3
v 0.2 0.1 -0.4
v 0.3 0.1 -0.4
v 0.4 0.1 -0.4
v 0.5 0.1 -0.4
v 0.4 0.1 -0.5
v 0.5 0.1 -0.5
v -0.3 0.2 0.5
v -0.2 0.2 0.5
v -0.1 0.2 0.4
v 0 0.2 0.4
v -0.3 0.2 0.3
v -0.2 0.2 0.3
v 0 0.2 0.3
v -0.1 0.2 0.2
v 0 0.2 0.2
v -0.2 0.2 0.1
v -0.1 0.2 0.1
v 0 0.2 0.1
v 0.1 0.2 0.1
v -0.2 0.2 0
v -0.1 0.2 0
v 0 0.2 0
v 0.1 0.2 0
v 0.2 0.2 0
v 0.4 0.2 0
v -0.2 0.2 -0.1
v -0.1 0.2 -0.1
v 0 0.2 -0.1
v 0.1 0.2 -0.1
v 0.3 0.2 -0.1
v 0.4 0.2 -0.1
v -0.1 0.2 -0.2
v 0 0.2 -0.2
v 0.4 0.2 -0.2
v 0.3 0.2 -0.3
v 0.4 0.2 -0.3
v -0.2 0.3 0.5
v -0.1 0.3 0.5
v -0.1 0.3 0.4
v -0.2 0.3 0.2
v -0.1 0.3 0.2
v 0 0.3 0.2
v 0.1 0.3 0.2
v -0.1 0.3 0.1
v 0.1 0.3 0.1
v 0.4 0.3 -0.1
v 0.5 0.3 -0.1
v 0.4 0.3 -0.2
v 0.5 0.3 -0.2
v -0.1 0.4 0.5
v 0 0.4 0.5
v -0.1 0.4 0.4
v 0 0.4 0.4
v 0.1 0.4 0.1
v 0.2 0.4 0.1
v 0.3 0.4 0.1
v 0.1 0.4 0
v 0.2 0.4 0
v 0.3 0.4 0
v 0.4 0.4 0
v 0.5 0.4 0
v 0.4 0.4 -0.1
v 0.5 0.4 -0.1
v 0 0.6 0.3
v 0.1 0.6 0.3
v 0.2 0.6 0.3
v 0 0.6 0.2
v 0.1 0.6 0.2
v 0.2 0.6 0.2
v 0.1 0.6 0.1
v 0.2 0.6 0.1
v 0.2 0.7 0.1
v 0.3 0.7 0.1
v 0.4 0.7 0.1
v 0.2 0.7 0
v 0.3 0.7 0
v 0.4 0.7 0
v 0 0.8 0.5
v 0.1 0.8 0.5
v 0 0.8 0.3
v 0.1 0.8 0.3
v 0.2 0.8 0.2
v 0.3 0.8 0.2
v 0.2 0.8 0.1
v 0.3 0.8 0.1
v 0.4 0.8 0.1
v 0.5 0.8 0.1
v 0.4 0.8 0
v 0.5 0.8 0
v 0.1 0.9 0.5
v 0.2 0.9 0.5
v 0.2 0.9 0.4
v 0.3 0.9 0.4
v 0.1 0.9 0.3
v 0.2 0.9 0.3
v 0.3 0.9 0.3
v 0.4 0.9 0.3
v 0.2 0.9 0.2
v 0.3 0.9 0.2
v 0.4 0.9 0.2
v 0.5 0.9 0.2
v 0.3 0.9 0.1
v 0.4 0.9 0.1
v 0.5 0.9 0.1
v 0.2 1 0.5
v 0.3 1 0.5
v 0.2 1 0.4
v 0.3 1 0.4
v 0.4 1 0.3
v 0.5 1 0.3
v 0.4 1 0.2
v 0.5 1 0.2
v 0.3 1.1 0.4
v 0.4 1.1 0.4
v 0.3 1.1 0.3
v 0.4 1.1 0.3
v 0.3 1.2 0.5
v 0.5 1.2 0.5
v 0.3 1.2 0.4
v 0.4 1.2 0.4
v 0.4 1.2 0.3
v 0.5 1.2 0.3

# faces
f 4/1/1 2/1/1 1/1/1
f 5/2/1 3/2/1 2/2/1
f 5/1/1 2/1/1 4/1/1
f 6/2/1 3/2/1 5/2/1
f 9/1/1 8/1/1 7/1/1
f 10/1/1 8/1/1 9/1/1
f 15/1/1 12/1/1 11/1/1
f 16/1/1 12/1/1 15/1/1
f 17/2/1 14/2/1 13/2/1
f 18/2/1 14/2/1 17/2/1
f 25/1/1 20/1/1 19/1/1
f 26/1/1 20/1/1 25/1/1
f 27/1/1 22/1/1 21/1/1
f 28/2/1 23/2/1 22/2/1
f 28/1/1 22/1/1 27/1/1
f 29/2/1 23/2/1 28/2/1
f 30/2/1 26/2/1 25/2/1
f 30/2/1 25/2/1 24/2/1
f 31/2/1 26/2/1 30/2/1
f 36/1/1 33/1/1 32/1/1
f 37/1/1 33/1/1 36/1/1
f 38/1/1 35/1/1 34/1/1
f 39/1/1 35/1/1 38/1/1
f 40/2/1 37/2/1 36/2/1
f 41/2/1 37/2/1 40/2/1
f 44/1/1 39/1/1 38/1/1
f 45/1/1 39/1/1 44/1/1
f 46/2/1 43/2/1 42/2/1
f 47/2/1 43/2/1 46/2/1
f 53/1/1 49/1/1 48/1/1
f 54/1/1 49/1/1 53/1/1
f 55/1/1 51/1/1 50/1/1
f 56/2/1 52/2/1 51/2/1
f 56/1/1 51/1/1 55/1/1
f 57/2/1 52/2/1 56/2/1
f 59/2/1 56/2/1 55/2/1
f 59/2/1 57/2/1 56/2/1
f 60/2/1 57/2/1 59/2/1
f 60/2/1 59/2/1 58/2/1
f 61/2/1 57/2/1 60/2/1
f 62/2/1 60/2/1 58/2/1
f 62/1/1 61/1/1 60/1/1
f 63/1/1 61/1/1 62/1/1
f 64/2/1 62/2/1 58/2/1
f 65/2/1 62/2/1 64/2/1
f 70/1/1 67/1/1 66/1/1
f 71/1/1 67/1/1 70/1/1
f 73/2/1 69/2/1 68/2/1
f 74/2/1 69/2/1 73/2/1
f 76/1/1 73/1/1 72/1/1
f 77/1/1 73/1/1 76/1/1
f 77/1/1 76/1/1 75/1/1
f 78/1/1 73/1/1 77/1/1
f 79/1/1 77/1/1 75/1/1
f 80/1/1 77/1/1 79/1/1
f 81/1/1 77/1/1 80/1/1
f 84/2/1 83/2/1 82/2/1
f 85/2/1 83/2/1 84/2/1
f 88/1/1 87/1/1 86/1/1
f 89/1/1 87/1/1 88/1/1
f 94/2/1 91/2/1 90/2/1
f 94/2/1 93/2/1 92/2/1
f 94/2/1 92/2/1 91/2/1
f 95/2/1 93/2/1 94/2/1
f 96/2/1 94/2/1 90/2/1
f 97/2/1 94/2/1 96/2/1
f 98/2/1 94/2/1 97/2/1
f 101/1/1 97/1/1 96/1/1
f 102/1/1 97/1/1 101/1/1
f 103/2/1 100/2/1 99/2/1
f 104/2/1 100/2/1 103/2/1
f 107/1/1 106/1/1 105/1/1
f 108/1/1 106/1/1 107/1/1
f 111/2/1 110/2/1 109/2/1
f 112/2/1 110/2/1 111/2/1
f 117/1/1 114/1/1 113/1/1
f 118/1/1 114/1/1 117/1/1
f 120/2/1 116/2/1 115/2/1
f 121/2/1 120/2/1 119/2/1
f 122/2/1 116/2/1 120/2/1
f 122/2/1 120/2/1 121/2/1
f 123/2/1 116/2/1 122/2/1
f 124/1/1 122/1/1 121/1/1
f 125/1/1 122/1/1 124/1/1
f 128/1/1 127/1/1 126/1/1
f 129/1/1 127/1/1 128/1/1
f 133/2/1 131/2/1 130/2/1
f 133/2/1 132/2/1 131/2/1
f 134/2/1 132/2/1 133/2/1
f 135/2/1 132/2/1 134/2/1
f 136/1/1 134/1/1 133/1/1
f 137/1/1 134/1/1 136/1/1
f 140/2/1 139/2/1 138/2/1
f 141/2/1 139/2/1 140/2/1
f 144/1/1 143/1/1 142/1/1
f 145/1/1 143/1/1 144/1/1
f 148/1/1 147/1/1 146/1/1
f 149/1/1 147/1/1 148/1/1
f 150/1/2 151/1/2 155/1/2
f 151/2/2 152/2/2 156/2/2
f 155/1/2 151/1/2 156/1/2
f 156/2/2 152/2/2 157/2/2
f 153/2/2 154/2/2 158/2/2
f 158/2/2 154/2/2 159/2/2
f 160/2/2 161/2/2 162/2/2
f 162/2/2 161/2/2 163/2/2
f 164/1/2 165/1/2 166/1/2
f 166/1/2 165/1/2 167/1/2
f 168/2/2 169/2/2 171/2/2
f 171/2/2 169/2/2 172/2/2
f 169/1/2 170/1/2 173/1/2
f 172/2/2 169/2/2 173/2/2
f 173/1/2 170/1/2 174/1/2
f 171/1/2 172/1/2 175/1/2
f 168/2/2 171/2/2 175/2/2
f 175/1/2 172/1/2 176/1/2
f 168/2/2 175/2/2 177/2/2
f 175/2/2 176/2/2 177/2/2
f 177/2/2 176/2/2 178/2/2
f 178/2/2 176/2/2 179/2/2
f 179/2/2 176/2/2 180/2/2
f 180/2/2 176/2/2 181/2/2
f 168/2/2 177/2/2 182/2/2
f 177/1/2 178/1/2 182/1/2
f 178/2/2 179/2/2 183/2/2
f 182/1/2 178/1/2 183/1/2
f 179/1/2 180/1/2 184/1/2
f 183/2/2 179/2/2 184/2/2
f 184/1/2 180/1/2 185/1/2
f 182/2/2 183/2/2 186/2/2
f 183/2/2 184/2/2 186/2/2
f 186/2/2 184/2/2 187/2/2
f 168/2/2 182/2/2 188/2/2
f 182/2/2 186/2/2 188/2/2
f 188/2/2 186/2/2 189/2/2
f 189/2/2 186/2/2 190/2/2
f 168/2/2 188/2/2 191/2/2
f 188/1/2 189/1/2 191/1/2
f 191/1/2 189/1/2 192/1/2
f 168/2/2 191/2/2 193/2/2
f 193/2/2 191/2/2 194/2/2
f 193/1/2 194/1/2 195/1/2
f 195/1/2 194/1/2 196/1/2
f 199/1/3 198/1/3 197/1/3
f 200/1/3 198/1/3 199/1/3
f 201/2/3 200/2/3 199/2/3
f 203/2/3 201/2/3 199/2/3
f 203/2/3 202/2/3 201/2/3
f 204/2/3 202/2/3 203/2/3
f 206/2/3 203/2/3 199/2/3
f 206/1/3 204/1/3 203/1/3
f 207/2/3 205/2/3 204/2/3
f 207/1/3 204/1/3 206/1/3
f 208/2/3 205/2/3 207/2/3
f 210/2/3 207/2/3 206/2/3
f 210/2/3 209/2/3 208/2/3
f 210/2/3 208/2/3 207/2/3
f 211/2/3 209/2/3 210/2/3
f 212/2/3 209/2/3 211/2/3
f 214/2/3 210/2/3 206/2/3
f 214/1/3 211/1/3 210/1/3
f 215/2/3 213/2/3 212/2/3
f 215/1/3 211/1/3 214/1/3
f 215/2/3 212/2/3 211/2/3
f 216/2/3 213/2/3 215/2/3
f 218/2/3 215/2/3 214/2/3
f 218/2/3 217/2/3 216/2/3
f 218/2/3 216/2/3 215/2/3
f 220/2/3 218/2/3 214/2/3
f 220/2/3 219/2/3 218/2/3
f 221/2/3 219/2/3 220/2/3
f 222/2/3 219/2/3 221/2/3
f 225/2/3 220/2/3 214/2/3
f 225/1/3 221/1/3 220/1/3
f 226/2/3 223/2/3 222/2/3
f 226/1/3 221/1/3 225/1/3
f 226/2/3 222/2/3 221/2/3
f 227/2/3 206/2/3 199/2/3
f 227/2/3 214/2/3 206/2/3
f 227/2/3 226/2/3 225/2/3
f 227/2/3 225/2/3 214/2/3
f 228/2/3 223/2/3 226/2/3
f 228/2/3 226/2/3 227/2/3
f 228/1/3 224/1/3 223/1/3
f 229/1/3 224/1/3 228/1/3
f 232/1/3 231/1/3 230/1/3
f 233/1/3 231/1/3 232/1/3
f 236/1/3 235/1/3 234/1/3
f 237/1/3 235/1/3 236/1/3
f 240/2/3 239/2/3 238/2/3
f 241/2/3 239/2/3 240/2/3
f 242/2/4 243/2/4 245/2/4
f 243/2/4 244/2/4 245/2/4
f 245/2/4 244/2/4 246/2/4
f 246/2/4 244/2/4 247/2/4
f 248/2/4 249/2/4 250/2/4
f 250/2/4 249/2/4 251/2/4
f 252/1/4 253/1/4 254/1/4
f 254/1/4 253/1/4 255/1/4
f 256/2/4 257/2/4 258/2/4
f 258/2/4 257/2/4 259/2/4
f 260/2/4 261/2/4 262/2/4
f 262/2/4 261/2/4 263/2/4
f 264/2/4 265/2/4 266/2/4
f 266/2/4 265/2/4 267/2/4
f 266/2/4 267/2/4 269/2/4
f 267/2/4 268/2/4 269/2/4
f 269/2/4 268/2/4 270/2/4
f 270/2/4 268/2/4 271/2/4
f 272/2/4 273/2/4 274/2/4
f 274/2/4 273/2/4 275/2/4
f 275/2/4 273/2/4 276/2/4
f 275/2/4 276/2/4 278/2/4
f 276/1/4 277/1/4 279/1/4
f 278/2/4 276/2/4 279/2/4
f 279/1/4 277/1/4 280/1/4
f 281/1/4 282/1/4 284/1/4
f 282/2/4 283/2/4 285/2/4
f 284/1/4 282/1/4 285/1/4
f 285/2/4 283/2/4 286/2/4
f 287/2/4 288/2/4 290/2/4
f 288/1/4 289/1/4 291/1/4
f 290/2/4 288/2/4 291/2/4
f 291/1/4 289/1/4 292/1/4
f 293/1/4 294/1/4 295/1/4
f 295/1/4 294/1/4 296/1/4
f 297/1/4 298/1/4 299/1/4
f 299/1/4 298/1/4 300/1/4
f 301/1/4 302/1/4 304/1/4
f 302/1/4 303/1/4 304/1/4
f 304/1/4 303/1/4 305/1/4
f 305/1/4 303/1/4 306/1/4
f 306/1/4 303/1/4 307/1/4
f 308/1/4 309/1/4 310/1/4
f 310/1/4 309/1/4 311/1/4
f 310/2/4 311/2/4 314/2/4
f 314/2/4 311/2/4 315/2/4
f 312/2/4 313/2/4 316/2/4
f 316/2/4 313/2/4 317/2/4
f 316/2/4 317/2/4 319/2/4
f 317/1/4 318/1/4 320/1/4
f 319/2/4 317/2/4 320/2/4
f 320/1/4 318/1/4 321/1/4
f 320/2/4 321/2/4 322/2/4
f 322/2/4 321/2/4 323/2/4
f 324/1/4 325/1/4 326/1/4
f 326/1/4 325/1/4 327/1/4
f 328/1/4 329/1/4 330/1/4
f 330/1/4 329/1/4 331/1/4
f 331/1/4 332/1/4 333/1/4
f 333/1/4 332/1/4 334/1/4
f 333/2/4 334/2/4 337/2/4
f 335/2/4 336/2/4 338/2/4
f 338/2/4 336/2/4 339/2/4
f 333/2/4 337/2/4 340/2/4
f 337/2/4 338/2/4 340/2/4
f 340/2/4 338/2/4 341/2/4
f 341/2/4 338/2/4 342/2/4
f 338/1/4 339/1/4 343/1/4
f 342/2/4 338/2/4 343/2/4
f 343/1/4 339/1/4 344/1/4
f 343/2/4 344/2/4 346/2/4
f 344/2/4 345/2/4 346/2/4
f 342/2/4 343/2/4 346/2/4
f 346/2/4 345/2/4 347/2/4
f 348/1/4 349/1/4 350/1/4
f 348/1/4 350/1/4 352/1/4
f 350/2/4 351/2/4 353/2/4
f 352/1/4 350/1/4 353/1/4
f 353/2/4 351/2/4 354/2/4
f 355/2/4 356/2/4 357/2/4
f 357/2/4 356/2/4 358/2/4
f 359/1/4 360/1/4 361/1/4
f 361/1/4 360/1/4 362/1/4
f 363/1/4 364/1/4 366/1/4
f 364/2/4 365/2/4 366/2/4
f 366/2/4 365/2/4 367/2/4
f 363/1/4 366/1/4 368/1/4
f 368/1/4 366/1/4 369/1/4
f 370/1/4 371/1/4 373/1/4
f 371/2/4 372/2/4 374/2/4
f 373/1/4 371/1/4 374/1/4
f 374/2/4 372/2/4 375/2/4
f 376/1/4 377/1/4 378/1/4
f 378/1/4 377/1/4 379/1/4
f 380/1/4 381/1/4 382/1/4
f 382/1/4 381/1/4 383/1/4
f 384/1/4 385/1/4 386/1/4
f 386/1/4 385/1/4 387/1/4
f 386/2/4 387/2/4 388/2/4
f 388/2/4 387/2/4 389/2/4
f 390/1/4 391/1/4 392/1/4
f 392/1/4 391/1/4 393/1/4
f 397/1/5 395/1/5 394/1/5
f 398/2/5 396/2/5 395/2/5
f 398/1/5 395/1/5 397/1/5
f 399/2/5 396/2/5 398/2/5
f 400/2/5 396/2/5 399/2/5
f 401/2/5 398/2/5 397/2/5
f 401/2/5 399/2/5 398/2/5
f 402/2/5 399/2/5 401/2/5
f 403/1/5 400/1/5 399/1/5
f 403/2/5 399/2/5 402/2/5
f 404/2/5 396/2/5 400/2/5
f 404/1/5 400/1/5 403/1/5
f 404/1/5 403/1/5 402/1/5
f 405/2/5 396/2/5 404/2/5
f 406/1/5 404/1/5 402/1/5
f 406/1/5 405/1/5 404/1/5
f 407/1/5 405/1/5 406/1/5
f 408/1/5 405/1/5 407/1/5
f 409/2/5 396/2/5 405/2/5
f 409/1/5 405/1/5 408/1/5
f 410/1/5 408/1/5 407/1/5
f 411/1/5 408/1/5 410/1/5
f 412/2/5 409/2/5 408/2/5
f 412/1/5 408/1/5 411/1/5
f 413/2/5 396/2/5 409/2/5
f 413/2/5 409/2/5 412/2/5
f 414/1/5 412/1/5 411/1/5
f 414/1/5 413/1/5 412/1/5
f 415/1/5 413/1/5 414/1/5
f 416/1/5 413/1/5 415/1/5
f 417/1/5 413/1/5 416/1/5
f 418/1/5 413/1/5 417/1/5
f 419/2/5 396/2/5 413/2/5
f 419/1/5 413/1/5 418/1/5
f 420/2/5 396/2/5 419/2/5
f 421/2/5 396/2/5 420/2/5
f 422/1/5 421/1/5 420/1/5
f 423/1/5 421/1/5 422/1/5
f 426/2/5 425/2/5 424/2/5
f 427/2/5 425/2/5 426/2/5
f 428/1/6 429/1/6 431/1/6
f 429/2/6 430/2/6 432/2/6
f 431/1/6 429/1/6 432/1/6
f 431/2/6 432/2/6 433/2/6
f 432/2/6 430/2/6 434/2/6
f 433/2/6 432/2/6 434/2/6
f 434/2/6 430/2/6 435/2/6
f 435/1/6 436/1/6 437/1/6
f 434/1/6 435/1/6 437/1/6
f 434/1/6 437/1/6 439/1/6
f 437/1/6 438/1/6 439/1/6
f 439/1/6 438/1/6 440/1/6
f 434/1/6 439/1/6 442/1/6
f 442/1/6 439/1/6 443/1/6
f 443/1/6 439/1/6 444/1/6
f 440/1/6 441/1/6 445/1/6
f 445/1/6 441/1/6 446/1/6
f 443/1/6 444/1/6 448/1/6
f 448/1/6 444/1/6 449/1/6
f 445/1/6 446/1/6 450/1/6
f 446/2/6 447/2/6 451/2/6
f 450/1/6 446/1/6 451/1/6
f 451/2/6 447/2/6 452/2/6
f 452/1/6 453/1/6 454/1/6
f 451/1/6 452/1/6 454/1/6
f 454/1/6 453/1/6 455/1/6
f 455/1/6 453/1/6 458/1/6
f 458/1/6 453/1/6 459/1/6
f 459/1/6 453/1/6 460/1/6
f 456/2/6 457/2/6 461/2/6
f 459/1/6 460/1/6 462/1/6
f 460/2/6 461/2/6 463/2/6
f 462/1/6 460/1/6 463/1/6
f 461/2/6 457/2/6 464/2/6
f 463/2/6 461/2/6 464/2/6
f 464/2/6 457/2/6 465/2/6
f 464/1/6 465/1/6 466/1/6
f 466/1/6 465/1/6 467/1/6
f 468/2/6 469/2/6 472/2/6
f 472/2/6 469/2/6 473/2/6
f 470/2/6 471/2/6 474/2/6
f 470/2/6 474/2/6 475/2/6
f 475/2/6 474/2/6 476/2/6
f 477/1/6 478/1/6 481/1/6
f 481/1/6 478/1/6 482/1/6
f 479/1/6 480/1/6 483/1/6
f 483/1/6 480/1/6 484/1/6
f 481/2/6 482/2/6 487/2/6
f 487/2/6 482/2/6 488/2/6
f 485/2/6 486/2/6 490/2/6
f 484/2/6 485/2/6 490/2/6
f 490/2/6 486/2/6 491/2/6
f 491/2/6 486/2/6 492/2/6
f 488/2/6 489/2/6 493/2/6
f 493/2/6 489/2/6 494/2/6
f 491/1/6 492/1/6 495/1/6
f 491/1/6 495/1/6 496/1/6
f 496/1/6 495/1/6 497/1/6
f 498/2/6 499/2/6 500/2/6
f 498/2/6 500/2/6 501/2/6
f 501/2/6 500/2/6 502/2/6
f 503/1/6 504/1/6 505/1/6
f 502/1/6 503/1/6 505/1/6
f 505/1/6 504/1/6 506/1/6
f 507/2/6 508/2/6 509/2/6
f 509/2/6 508/2/6 510/2/6
f 511/2/6 512/2/6 513/2/6
f 513/2/6 512/2/6 514/2/6
f 515/1/6 516/1/6 518/1/6
f 516/2/6 517/2/6 519/2/6
f 518/1/6 516/1/6 519/1/6
f 519/2/6 517/2/6 520/2/6
f 521/1/6 522/1/6 523/1/6
f 523/1/6 522/1/6 524/1/6
f 525/1/6 526/1/6 528/1/6
f 526/2/6 527/2/6 529/2/6
f 528/1/6 526/1/6 529/1/6
f 529/2/6 527/2/6 530/2/6
f 529/1/6 530/1/6 531/1/6
f 531/1/6 530/1/6 532/1/6
f 533/2/6 534/2/6 536/2/6
f 534/1/6 535/1/6 537/1/6
f 536/2/6 534/2/6 537/2/6
f 537/1/6 535/1/6 538/1/6
f 539/2/6 540/2/6 541/2/6
f 541/2/6 540/2/6 542/2/6
f 543/2/6 544/2/6 545/2/6
f 545/2/6 544/2/6 546/2/6
f 547/2/6 548/2/6 549/2/6
f 549/2/6 548/2/6 550/2/6
f 551/2/6 552/2/6 553/2/6
f 551/2/6 553/2/6 555/2/6
f 553/2/6 554/2/6 555/2/6
f 555/2/6 554/2/6 556/2/6
f 556/2/6 554/2/6 557/2/6
f 557/1/6 558/1/6 559/1/6
f 556/1/6 557/1/6 559/1/6
f 559/1/6 558/1/6 560/1/6
f 560/1/6 558/1/6 561/1/6
f 560/1/6 561/1/6 563/1/6
f 561/2/6 562/2/6 564/2/6
f 563/1/6 561/1/6 564/1/6
f 564/2/6 562/2/6 565/2/6
f 566/2/6 567/2/6 568/2/6
f 568/2/6 567/2/6 569/2/6
f 570/1/6 571/1/6 572/1/6
f 572/1/6 571/1/6 573/1/6
f 574/2/6 575/2/6 576/2/6
f 576/2/6 575/2/6 577/2/6
f 578/1/6 579/1/6 580/1/6
f 580/1/6 579/1/6 581/1/6
f 581/1/6 579/1/6 582/1/6
f 582/1/6 579/1/6 583/1/6
