# MagicaVoxel @ Ephtracy

# group
o 

# material
mtllib Stein_Rand-0.2.mtl
usemtl palette

# normals
vn -1 0 0
vn 1 0 0
vn 0 0 1
vn 0 0 -1
vn 0 -1 0
vn 0 1 0

# texcoords
vt 0.0644531 0.5
vt 0.0683594 0.5

# verts
v -0.5 0 0.5
v -0.5 0 -0.3
v -0.5 0 -0.4
v -0.5 0.1 -0.2
v -0.5 0.1 -0.3
v -0.5 0.1 -0.4
v -0.5 0.2 0.1
v -0.5 0.2 0
v -0.5 0.2 -0.2
v -0.5 0.2 -0.3
v -0.5 0.3 0.1
v -0.5 0.3 0
v -0.5 0.3 -0.2
v -0.5 0.4 0.4
v -0.5 0.4 0.3
v -0.5 0.5 0.4
v -0.5 0.5 0.3
v -0.5 0.6 0.1
v -0.5 0.6 0
v -0.5 1 0.3
v -0.5 1 0.1
v -0.5 1 0
v -0.5 1.2 0.4
v -0.5 1.2 0.3
v -0.5 1.3 0.5
v -0.5 1.3 0.4
v -0.5 1.3 0.3
v -0.4 0.3 0
v -0.4 0.3 -0.1
v -0.4 0.4 0
v -0.4 0.4 -0.1
v -0.4 1 0.3
v -0.4 1 0.1
v -0.4 1.1 0.3
v -0.4 1.1 0.1
v -0.3 0.3 -0.1
v -0.3 0.3 -0.2
v -0.3 0.4 0
v -0.3 0.4 -0.1
v -0.3 0.4 -0.2
v -0.3 0.6 0
v -0.3 0.6 -0.1
v -0.2 0.2 -0.2
v -0.2 0.2 -0.3
v -0.2 0.3 -0.2
v -0.2 0.3 -0.3
v -0.2 0.6 0
v -0.2 0.6 -0.1
v -0.2 0.6 -0.2
v -0.2 0.7 0
v -0.2 0.7 -0.2
v -0.1 0 -0.3
v -0.1 0 -0.4
v -0.1 0.1 -0.2
v -0.1 0.1 -0.3
v -0.1 0.1 -0.4
v -0.1 0.2 -0.2
v -0.1 0.2 -0.3
v -0.1 0.5 0
v -0.1 0.5 -0.1
v -0.1 0.6 0
v -0.1 0.6 -0.1
v 0 0.2 -0.2
v 0 0.2 -0.3
v 0 0.3 -0.2
v 0 0.3 -0.3
v 0 0.7 0
v 0 0.7 -0.1
v 0 0.8 0
v 0 0.8 -0.1
v 0.1 0.4 -0.1
v 0.1 0.4 -0.2
v 0.1 0.5 -0.1
v 0.1 0.5 -0.2
v 0.1 0.6 -0.1
v 0.1 0.6 -0.2
v 0.1 0.7 -0.1
v 0.1 0.7 -0.2
v 0.1 0.8 0
v 0.1 0.8 -0.1
v 0.1 0.9 0
v 0.1 0.9 -0.1
v 0.1 1.1 0.4
v 0.1 1.1 0.3
v 0.1 1.2 0.4
v 0.1 1.2 0.3
v 0.2 0.1 -0.2
v 0.2 0.1 -0.3
v 0.2 0.3 -0.2
v 0.2 0.3 -0.3
v 0.2 0.5 0
v 0.2 0.5 -0.1
v 0.2 0.6 0
v 0.2 0.6 -0.1
v 0.2 0.8 0.1
v 0.2 0.8 0
v 0.2 0.9 0.2
v 0.2 0.9 0.1
v 0.2 0.9 0
v 0.2 1 0.2
v 0.2 1 0.1
v 0.2 1.2 0.4
v 0.2 1.2 0.3
v 0.2 1.3 0.4
v 0.2 1.3 0.3
v 0.3 0 -0.4
v 0.3 0 -0.5
v 0.3 0.1 -0.4
v 0.3 0.1 -0.5
v 0.3 0.4 -0.1
v 0.3 0.4 -0.2
v 0.3 0.5 -0.1
v 0.3 0.5 -0.2
v 0.3 0.9 0.1
v 0.3 0.9 0
v 0.3 1 0.1
v 0.3 1 0
v -0.4 0 -0.3
v -0.4 0 -0.4
v -0.4 0.1 -0.2
v -0.4 0.1 -0.3
v -0.4 0.1 -0.4
v -0.4 0.2 -0.2
v -0.4 0.2 -0.3
v -0.3 1 0.2
v -0.3 1 0.1
v -0.3 1.1 0.2
v -0.3 1.1 0.1
v -0.2 0.5 0
v -0.2 0.5 -0.1
v -0.2 0.6 0
v -0.2 0.6 -0.1
v -0.2 0.9 0.1
v -0.2 0.9 0
v -0.2 1 0.1
v -0.2 1 0
v -0.2 1.2 0.4
v -0.2 1.2 0.3
v -0.2 1.3 0.4
v -0.2 1.3 0.3
v -0.1 0.2 -0.2
v -0.1 0.2 -0.3
v -0.1 0.3 -0.2
v -0.1 0.3 -0.3
v -0.1 0.6 -0.1
v -0.1 0.6 -0.2
v -0.1 0.7 -0.1
v -0.1 0.7 -0.2
v -0.1 1.1 0.4
v -0.1 1.1 0.3
v -0.1 1.2 0.4
v -0.1 1.2 0.3
v 0.1 0.1 -0.2
v 0.1 0.1 -0.3
v 0.1 0.3 -0.2
v 0.1 0.3 -0.3
v 0.1 0.5 0
v 0.1 0.5 -0.1
v 0.1 0.6 0
v 0.1 0.6 -0.1
v 0.1 0.8 0.1
v 0.1 0.8 0
v 0.1 0.9 0.2
v 0.1 0.9 0.1
v 0.1 0.9 0
v 0.1 1 0.2
v 0.1 1 0.1
v 0.2 0.4 -0.1
v 0.2 0.4 -0.2
v 0.2 0.5 -0.1
v 0.2 0.5 -0.2
v 0.2 0.6 -0.1
v 0.2 0.6 -0.2
v 0.2 0.7 0
v 0.2 0.7 -0.1
v 0.2 0.7 -0.2
v 0.2 0.9 0
v 0.2 0.9 -0.1
v 0.3 0.2 -0.2
v 0.3 0.2 -0.3
v 0.3 0.3 0
v 0.3 0.3 -0.1
v 0.3 0.3 -0.2
v 0.3 0.3 -0.3
v 0.3 0.4 0
v 0.3 0.4 -0.2
v 0.3 0.5 0
v 0.3 0.5 -0.1
v 0.3 0.7 0
v 0.3 0.7 -0.1
v 0.4 0.4 0
v 0.4 0.4 -0.2
v 0.4 0.5 0
v 0.4 0.5 -0.2
v 0.5 0 0.5
v 0.5 0 -0.4
v 0.5 0 -0.5
v 0.5 0.1 -0.3
v 0.5 0.1 -0.4
v 0.5 0.1 -0.5
v 0.5 0.2 -0.2
v 0.5 0.2 -0.3
v 0.5 0.3 0
v 0.5 0.3 -0.2
v 0.5 0.4 0.4
v 0.5 0.4 0.2
v 0.5 0.4 0.1
v 0.5 0.4 0
v 0.5 0.5 0.4
v 0.5 0.5 0.2
v 0.5 0.5 0.1
v 0.5 0.5 0
v 0.5 0.8 0.1
v 0.5 0.8 0
v 0.5 0.9 0.1
v 0.5 0.9 0
v 0.5 1 0.2
v 0.5 1 0
v 0.5 1.1 0.3
v 0.5 1.1 0.2
v 0.5 1.2 0.5
v 0.5 1.2 0.4
v 0.5 1.3 0.5
v 0.5 1.3 0.4
v 0.5 1.3 0.3
v -0.5 0 0.5
v -0.5 1.3 0.5
v -0.4 1.2 0.5
v -0.4 1.3 0.5
v -0.3 1.2 0.5
v -0.3 1.3 0.5
v -0.1 1.1 0.5
v -0.1 1.2 0.5
v 0 0.4 0.5
v 0 0.5 0.5
v 0 1.1 0.5
v 0 1.2 0.5
v 0.2 0.4 0.5
v 0.2 0.5 0.5
v 0.4 1.2 0.5
v 0.4 1.3 0.5
v 0.5 0 0.5
v 0.5 1.2 0.5
v 0.5 1.3 0.5
v 0.1 0.8 0
v 0.1 0.9 0
v 0.2 0.8 0
v 0.2 0.9 0
v -0.2 1.2 0.4
v -0.2 1.3 0.4
v -0.1 1.1 0.4
v -0.1 1.2 0.4
v 0 1.1 0.4
v 0 1.2 0.4
v 0.1 1.1 0.4
v 0.1 1.2 0.4
v 0.2 1.2 0.4
v 0.2 1.3 0.4
v -0.5 1 0.3
v -0.5 1.2 0.3
v -0.5 1.3 0.3
v -0.4 1 0.3
v -0.4 1.1 0.3
v -0.3 1.2 0.3
v -0.3 1.3 0.3
v -0.2 1.2 0.3
v -0.2 1.3 0.3
v -0.1 1.1 0.3
v -0.1 1.2 0.3
v 0.1 1.1 0.3
v 0.1 1.2 0.3
v 0.2 1.2 0.3
v 0.2 1.3 0.3
v 0.3 1.1 0.3
v 0.3 1.2 0.3
v 0.4 1.1 0.3
v 0.4 1.2 0.3
v 0.5 1.1 0.3
v 0.5 1.3 0.3
v -0.3 1 0.2
v -0.3 1.1 0.2
v -0.1 1 0.2
v -0.1 1.1 0.2
v 0 1 0.2
v 0 1.1 0.2
v 0.1 0.9 0.2
v 0.1 1 0.2
v 0.1 1.1 0.2
v 0.2 0.9 0.2
v 0.2 1 0.2
v 0.3 1 0.2
v 0.3 1.1 0.2
v 0.5 1 0.2
v 0.5 1.1 0.2
v -0.4 1 0.1
v -0.4 1.1 0.1
v -0.3 1 0.1
v -0.3 1.1 0.1
v -0.2 0.9 0.1
v -0.2 1 0.1
v -0.1 0.9 0.1
v 0 0.9 0.1
v 0.1 0.8 0.1
v 0.1 0.9 0.1
v 0.1 1 0.1
v 0.2 0.8 0.1
v 0.2 0.9 0.1
v 0.2 1 0.1
v 0.3 0.9 0.1
v 0.3 1 0.1
v -0.5 0.3 0
v -0.5 0.6 0
v -0.5 1 0
v -0.4 0.3 0
v -0.4 0.4 0
v -0.4 0.6 0
v -0.4 0.9 0
v -0.3 0.4 0
v -0.3 0.6 0
v -0.3 0.9 0
v -0.3 1 0
v -0.2 0.5 0
v -0.2 0.6 0
v -0.2 0.7 0
v -0.2 0.9 0
v -0.2 1 0
v -0.1 0.5 0
v -0.1 0.6 0
v -0.1 0.7 0
v -0.1 0.9 0
v 0 0.7 0
v 0 0.8 0
v 0 0.9 0
v 0.1 0.5 0
v 0.1 0.6 0
v 0.1 0.8 0
v 0.1 0.9 0
v 0.2 0.5 0
v 0.2 0.6 0
v 0.2 0.7 0
v 0.2 0.9 0
v 0.3 0.3 0
v 0.3 0.4 0
v 0.3 0.5 0
v 0.3 0.7 0
v 0.3 0.9 0
v 0.3 1 0
v 0.4 0.3 0
v 0.4 0.4 0
v 0.4 0.5 0
v 0.4 0.8 0
v 0.4 0.9 0
v 0.5 0.3 0
v 0.5 0.4 0
v 0.5 0.5 0
v 0.5 0.8 0
v 0.5 0.9 0
v 0.5 1 0
v -0.4 0.3 -0.1
v -0.4 0.4 -0.1
v -0.3 0.3 -0.1
v -0.3 0.4 -0.1
v -0.3 0.6 -0.1
v -0.2 0.5 -0.1
v -0.2 0.6 -0.1
v -0.1 0.5 -0.1
v -0.1 0.6 -0.1
v -0.1 0.7 -0.1
v 0 0.5 -0.1
v 0 0.7 -0.1
v 0 0.8 -0.1
v 0.1 0.4 -0.1
v 0.1 0.5 -0.1
v 0.1 0.6 -0.1
v 0.1 0.7 -0.1
v 0.1 0.8 -0.1
v 0.1 0.9 -0.1
v 0.2 0.4 -0.1
v 0.2 0.5 -0.1
v 0.2 0.6 -0.1
v 0.2 0.7 -0.1
v 0.2 0.9 -0.1
v 0.3 0.4 -0.1
v 0.3 0.5 -0.1
v 0.3 0.7 -0.1
v -0.5 0.2 -0.2
v -0.5 0.3 -0.2
v -0.4 0.1 -0.2
v -0.4 0.2 -0.2
v -0.4 0.3 -0.2
v -0.3 0.2 -0.2
v -0.3 0.3 -0.2
v -0.3 0.4 -0.2
v -0.2 0.1 -0.2
v -0.2 0.2 -0.2
v -0.2 0.3 -0.2
v -0.2 0.6 -0.2
v -0.2 0.7 -0.2
v -0.1 0.1 -0.2
v -0.1 0.2 -0.2
v -0.1 0.3 -0.2
v -0.1 0.6 -0.2
v -0.1 0.7 -0.2
v 0 0.2 -0.2
v 0 0.3 -0.2
v 0.1 0.1 -0.2
v 0.1 0.3 -0.2
v 0.1 0.4 -0.2
v 0.1 0.5 -0.2
v 0.1 0.6 -0.2
v 0.1 0.7 -0.2
v 0.2 0.1 -0.2
v 0.2 0.3 -0.2
v 0.2 0.4 -0.2
v 0.2 0.5 -0.2
v 0.2 0.6 -0.2
v 0.2 0.7 -0.2
v 0.3 0.2 -0.2
v 0.3 0.3 -0.2
v 0.3 0.4 -0.2
v 0.3 0.5 -0.2
v 0.4 0.2 -0.2
v 0.4 0.4 -0.2
v 0.4 0.5 -0.2
v 0.5 0.2 -0.2
v 0.5 0.3 -0.2
v -0.5 0.1 -0.3
v -0.5 0.2 -0.3
v -0.4 0 -0.3
v -0.4 0.1 -0.3
v -0.4 0.2 -0.3
v -0.2 0 -0.3
v -0.2 0.1 -0.3
v -0.2 0.2 -0.3
v -0.2 0.3 -0.3
v -0.1 0 -0.3
v -0.1 0.1 -0.3
v -0.1 0.2 -0.3
v -0.1 0.3 -0.3
v 0 0.1 -0.3
v 0 0.2 -0.3
v 0 0.3 -0.3
v 0.1 0.1 -0.3
v 0.1 0.3 -0.3
v 0.2 0.1 -0.3
v 0.2 0.3 -0.3
v 0.3 0.1 -0.3
v 0.3 0.2 -0.3
v 0.3 0.3 -0.3
v 0.4 0.1 -0.3
v 0.4 0.2 -0.3
v 0.5 0.1 -0.3
v 0.5 0.2 -0.3
v -0.5 0 -0.4
v -0.5 0.1 -0.4
v -0.4 0 -0.4
v -0.4 0.1 -0.4
v -0.1 0 -0.4
v -0.1 0.1 -0.4
v 0.1 0 -0.4
v 0.1 0.1 -0.4
v 0.3 0 -0.4
v 0.3 0.1 -0.4
v 0.3 0 -0.5
v 0.3 0.1 -0.5
v 0.5 0 -0.5
v 0.5 0.1 -0.5
v -0.5 0 0.5
v 0.5 0 0.5
v -0.2 0 -0.2
v 0.1 0 -0.2
v -0.5 0 -0.3
v -0.4 0 -0.3
v -0.2 0 -0.3
v -0.1 0 -0.3
v 0.1 0 -0.3
v 0.3 0 -0.3
v -0.5 0 -0.4
v -0.4 0 -0.4
v -0.1 0 -0.4
v 0.1 0 -0.4
v 0.3 0 -0.4
v 0.5 0 -0.4
v 0.3 0 -0.5
v 0.5 0 -0.5
v -0.2 0.2 -0.2
v -0.1 0.2 -0.2
v -0.2 0.2 -0.3
v -0.1 0.2 -0.3
v 0.3 0.4 0
v 0.4 0.4 0
v 0.3 0.4 -0.2
v 0.4 0.4 -0.2
v -0.2 0.6 0
v -0.1 0.6 0
v 0.1 0.6 0
v 0.2 0.6 0
v -0.2 0.6 -0.1
v -0.1 0.6 -0.1
v 0.1 0.6 -0.1
v 0.2 0.6 -0.1
v -0.2 0.6 -0.2
v -0.1 0.6 -0.2
v 0.1 0.6 -0.2
v 0.2 0.6 -0.2
v -0.4 0.1 -0.2
v -0.2 0.1 -0.2
v -0.1 0.1 -0.2
v 0.1 0.1 -0.2
v 0.2 0.1 -0.2
v -0.5 0.1 -0.3
v -0.4 0.1 -0.3
v -0.2 0.1 -0.3
v -0.1 0.1 -0.3
v 0 0.1 -0.3
v 0.1 0.1 -0.3
v 0.2 0.1 -0.3
v 0.3 0.1 -0.3
v 0.4 0.1 -0.3
v 0.5 0.1 -0.3
v -0.5 0.1 -0.4
v -0.4 0.1 -0.4
v -0.1 0.1 -0.4
v 0.1 0.1 -0.4
v 0.3 0.1 -0.4
v 0.5 0.1 -0.4
v 0.3 0.1 -0.5
v 0.5 0.1 -0.5
v -0.5 0.2 -0.2
v -0.4 0.2 -0.2
v -0.1 0.2 -0.2
v 0 0.2 -0.2
v 0.3 0.2 -0.2
v 0.4 0.2 -0.2
v 0.5 0.2 -0.2
v -0.5 0.2 -0.3
v -0.4 0.2 -0.3
v -0.1 0.2 -0.3
v 0 0.2 -0.3
v 0.3 0.2 -0.3
v 0.4 0.2 -0.3
v 0.5 0.2 -0.3
v -0.5 0.3 0
v -0.4 0.3 0
v 0.3 0.3 0
v 0.4 0.3 0
v 0.5 0.3 0
v -0.4 0.3 -0.1
v -0.3 0.3 -0.1
v 0.3 0.3 -0.1
v 0.4 0.3 -0.1
v -0.5 0.3 -0.2
v -0.4 0.3 -0.2
v -0.3 0.3 -0.2
v -0.2 0.3 -0.2
v -0.1 0.3 -0.2
v 0 0.3 -0.2
v 0.1 0.3 -0.2
v 0.2 0.3 -0.2
v 0.3 0.3 -0.2
v 0.5 0.3 -0.2
v -0.2 0.3 -0.3
v -0.1 0.3 -0.3
v 0 0.3 -0.3
v 0.1 0.3 -0.3
v 0.2 0.3 -0.3
v 0.3 0.3 -0.3
v -0.4 0.4 0
v -0.3 0.4 0
v -0.4 0.4 -0.1
v -0.3 0.4 -0.1
v 0.1 0.4 -0.1
v 0.2 0.4 -0.1
v 0.3 0.4 -0.1
v -0.3 0.4 -0.2
v 0.1 0.4 -0.2
v 0.2 0.4 -0.2
v 0.3 0.4 -0.2
v -0.2 0.5 0
v -0.1 0.5 0
v 0.1 0.5 0
v 0.2 0.5 0
v 0.3 0.5 0
v 0.4 0.5 0
v -0.2 0.5 -0.1
v -0.1 0.5 -0.1
v 0.1 0.5 -0.1
v 0.2 0.5 -0.1
v 0.3 0.5 -0.1
v 0.1 0.5 -0.2
v 0.2 0.5 -0.2
v 0.3 0.5 -0.2
v 0.4 0.5 -0.2
v -0.3 0.6 0
v -0.2 0.6 0
v -0.3 0.6 -0.1
v -0.2 0.6 -0.1
v -0.2 0.7 0
v -0.1 0.7 0
v 0 0.7 0
v 0.2 0.7 0
v 0.3 0.7 0
v -0.1 0.7 -0.1
v 0 0.7 -0.1
v 0.1 0.7 -0.1
v 0.2 0.7 -0.1
v 0.3 0.7 -0.1
v -0.2 0.7 -0.2
v -0.1 0.7 -0.2
v 0.1 0.7 -0.2
v 0.2 0.7 -0.2
v 0.1 0.8 0.1
v 0.2 0.8 0.1
v 0 0.8 0
v 0.1 0.8 0
v 0.2 0.8 0
v 0 0.8 -0.1
v 0.1 0.8 -0.1
v 0.1 0.9 0.2
v 0.2 0.9 0.2
v -0.2 0.9 0.1
v -0.1 0.9 0.1
v 0 0.9 0.1
v 0.1 0.9 0.1
v 0.2 0.9 0.1
v 0.3 0.9 0.1
v -0.2 0.9 0
v -0.1 0.9 0
v 0 0.9 0
v 0.1 0.9 0
v 0.2 0.9 0
v 0.3 0.9 0
v 0.1 0.9 -0.1
v 0.2 0.9 -0.1
v -0.5 1 0.3
v -0.4 1 0.3
v -0.3 1 0.2
v -0.1 1 0.2
v 0 1 0.2
v 0.1 1 0.2
v 0.2 1 0.2
v 0.3 1 0.2
v 0.5 1 0.2
v -0.5 1 0.1
v -0.4 1 0.1
v -0.3 1 0.1
v -0.2 1 0.1
v 0.1 1 0.1
v 0.2 1 0.1
v 0.3 1 0.1
v -0.5 1 0
v -0.3 1 0
v -0.2 1 0
v 0.3 1 0
v 0.5 1 0
v -0.1 1.1 0.4
v 0 1.1 0.4
v 0.1 1.1 0.4
v -0.4 1.1 0.3
v -0.1 1.1 0.3
v 0.1 1.1 0.3
v 0.3 1.1 0.3
v 0.4 1.1 0.3
v 0.5 1.1 0.3
v -0.3 1.1 0.2
v -0.1 1.1 0.2
v 0 1.1 0.2
v 0.1 1.1 0.2
v 0.3 1.1 0.2
v 0.5 1.1 0.2
v -0.4 1.1 0.1
v -0.3 1.1 0.1
v -0.2 1.2 0.4
v -0.1 1.2 0.4
v 0.1 1.2 0.4
v 0.2 1.2 0.4
v -0.2 1.2 0.3
v -0.1 1.2 0.3
v 0.1 1.2 0.3
v 0.2 1.2 0.3
v -0.5 1.3 0.5
v -0.4 1.3 0.5
v -0.3 1.3 0.5
v 0.4 1.3 0.5
v 0.5 1.3 0.5
v -0.5 1.3 0.4
v -0.4 1.3 0.4
v -0.2 1.3 0.4
v 0.2 1.3 0.4
v 0.4 1.3 0.4
v 0.5 1.3 0.4
v -0.5 1.3 0.3
v -0.3 1.3 0.3
v -0.2 1.3 0.3
v 0.2 1.3 0.3
v 0.5 1.3 0.3

# faces
f 4/2/1 2/2/1 1/2/1
f 5/1/1 3/1/1 2/1/1
f 5/2/1 2/2/1 4/2/1
f 6/1/1 3/1/1 5/1/1
f 7/2/1 4/2/1 1/2/1
f 8/2/1 4/2/1 7/2/1
f 9/1/1 5/1/1 4/1/1
f 9/2/1 4/2/1 8/2/1
f 10/1/1 5/1/1 9/1/1
f 11/1/1 8/1/1 7/1/1
f 11/2/1 7/2/1 1/2/1
f 12/2/1 9/2/1 8/2/1
f 12/1/1 8/1/1 11/1/1
f 13/2/1 9/2/1 12/2/1
f 14/2/1 11/2/1 1/2/1
f 14/2/1 12/2/1 11/2/1
f 15/2/1 12/2/1 14/2/1
f 16/2/1 14/2/1 1/2/1
f 16/1/1 15/1/1 14/1/1
f 17/2/1 12/2/1 15/2/1
f 17/1/1 15/1/1 16/1/1
f 18/2/1 17/2/1 16/2/1
f 18/2/1 12/2/1 17/2/1
f 19/2/1 12/2/1 18/2/1
f 20/2/1 18/2/1 16/2/1
f 21/1/1 19/1/1 18/1/1
f 21/2/1 18/2/1 20/2/1
f 22/1/1 19/1/1 21/1/1
f 23/2/1 16/2/1 1/2/1
f 23/2/1 20/2/1 16/2/1
f 24/2/1 20/2/1 23/2/1
f 25/2/1 23/2/1 1/2/1
f 26/1/1 24/1/1 23/1/1
f 26/2/1 23/2/1 25/2/1
f 27/1/1 24/1/1 26/1/1
f 30/2/1 29/2/1 28/2/1
f 31/2/1 29/2/1 30/2/1
f 34/2/1 33/2/1 32/2/1
f 35/2/1 33/2/1 34/2/1
f 39/2/1 37/2/1 36/2/1
f 40/2/1 37/2/1 39/2/1
f 41/2/1 39/2/1 38/2/1
f 42/2/1 39/2/1 41/2/1
f 45/2/1 44/2/1 43/2/1
f 46/2/1 44/2/1 45/2/1
f 50/2/1 48/2/1 47/2/1
f 50/2/1 49/2/1 48/2/1
f 51/2/1 49/2/1 50/2/1
f 55/2/1 53/2/1 52/2/1
f 56/2/1 53/2/1 55/2/1
f 57/1/1 55/1/1 54/1/1
f 58/1/1 55/1/1 57/1/1
f 61/1/1 60/1/1 59/1/1
f 62/1/1 60/1/1 61/1/1
f 65/2/1 64/2/1 63/2/1
f 66/2/1 64/2/1 65/2/1
f 69/2/1 68/2/1 67/2/1
f 70/2/1 68/2/1 69/2/1
f 73/1/1 72/1/1 71/1/1
f 74/1/1 72/1/1 73/1/1
f 77/2/1 76/2/1 75/2/1
f 78/2/1 76/2/1 77/2/1
f 81/2/1 80/2/1 79/2/1
f 82/2/1 80/2/1 81/2/1
f 85/2/1 84/2/1 83/2/1
f 86/2/1 84/2/1 85/2/1
f 89/2/1 88/2/1 87/2/1
f 90/2/1 88/2/1 89/2/1
f 93/2/1 92/2/1 91/2/1
f 94/2/1 92/2/1 93/2/1
f 98/2/1 96/2/1 95/2/1
f 99/2/1 96/2/1 98/2/1
f 100/2/1 98/2/1 97/2/1
f 101/2/1 98/2/1 100/2/1
f 104/2/1 103/2/1 102/2/1
f 105/2/1 103/2/1 104/2/1
f 108/1/1 107/1/1 106/1/1
f 109/1/1 107/1/1 108/1/1
f 112/1/1 111/1/1 110/1/1
f 113/1/1 111/1/1 112/1/1
f 116/2/1 115/2/1 114/2/1
f 117/2/1 115/2/1 116/2/1
f 118/1/2 119/1/2 121/1/2
f 121/1/2 119/1/2 122/1/2
f 120/1/2 121/1/2 123/1/2
f 123/1/2 121/1/2 124/1/2
f 125/2/2 126/2/2 127/2/2
f 127/2/2 126/2/2 128/2/2
f 129/2/2 130/2/2 131/2/2
f 131/2/2 130/2/2 132/2/2
f 133/2/2 134/2/2 135/2/2
f 135/2/2 134/2/2 136/2/2
f 137/2/2 138/2/2 139/2/2
f 139/2/2 138/2/2 140/2/2
f 141/2/2 142/2/2 143/2/2
f 143/2/2 142/2/2 144/2/2
f 145/2/2 146/2/2 147/2/2
f 147/2/2 146/2/2 148/2/2
f 149/2/2 150/2/2 151/2/2
f 151/2/2 150/2/2 152/2/2
f 153/2/2 154/2/2 155/2/2
f 155/2/2 154/2/2 156/2/2
f 157/2/2 158/2/2 159/2/2
f 159/2/2 158/2/2 160/2/2
f 161/2/2 162/2/2 164/2/2
f 164/2/2 162/2/2 165/2/2
f 163/2/2 164/2/2 166/2/2
f 166/2/2 164/2/2 167/2/2
f 168/1/2 169/1/2 170/1/2
f 170/1/2 169/1/2 171/1/2
f 172/2/2 173/2/2 175/2/2
f 175/2/2 173/2/2 176/2/2
f 174/2/2 175/2/2 177/2/2
f 177/2/2 175/2/2 178/2/2
f 179/2/2 180/2/2 183/2/2
f 183/2/2 180/2/2 184/2/2
f 181/1/2 182/1/2 185/1/2
f 182/1/2 183/1/2 185/1/2
f 185/1/2 183/1/2 186/1/2
f 187/2/2 188/2/2 189/2/2
f 189/2/2 188/2/2 190/2/2
f 191/1/2 192/1/2 193/1/2
f 193/1/2 192/1/2 194/1/2
f 195/2/2 196/2/2 198/2/2
f 196/1/2 197/1/2 199/1/2
f 198/2/2 196/2/2 199/2/2
f 199/1/2 197/1/2 200/1/2
f 195/2/2 198/2/2 201/2/2
f 201/2/2 198/2/2 202/2/2
f 195/2/2 201/2/2 203/2/2
f 203/2/2 201/2/2 204/2/2
f 195/2/2 203/2/2 205/2/2
f 205/2/2 203/2/2 206/2/2
f 206/2/2 203/2/2 207/2/2
f 207/2/2 203/2/2 208/2/2
f 195/2/2 205/2/2 209/2/2
f 205/1/2 206/1/2 209/1/2
f 206/2/2 207/2/2 210/2/2
f 209/1/2 206/1/2 210/1/2
f 207/1/2 208/1/2 211/1/2
f 210/2/2 207/2/2 211/2/2
f 211/1/2 208/1/2 212/1/2
f 209/2/2 210/2/2 213/2/2
f 210/2/2 211/2/2 213/2/2
f 211/2/2 212/2/2 213/2/2
f 213/2/2 212/2/2 214/2/2
f 209/2/2 213/2/2 215/2/2
f 213/1/2 214/1/2 215/1/2
f 215/1/2 214/1/2 216/1/2
f 209/2/2 215/2/2 217/2/2
f 215/2/2 216/2/2 217/2/2
f 217/2/2 216/2/2 218/2/2
f 209/2/2 217/2/2 219/2/2
f 219/2/2 217/2/2 220/2/2
f 195/2/2 209/2/2 221/2/2
f 209/2/2 219/2/2 221/2/2
f 221/2/2 219/2/2 222/2/2
f 221/1/2 222/1/2 223/1/2
f 222/2/2 219/2/2 224/2/2
f 223/1/2 222/1/2 224/1/2
f 224/2/2 219/2/2 225/2/2
f 228/2/3 227/2/3 226/2/3
f 229/2/3 227/2/3 228/2/3
f 230/2/3 228/2/3 226/2/3
f 230/1/3 229/1/3 228/1/3
f 231/1/3 229/1/3 230/1/3
f 232/2/3 230/2/3 226/2/3
f 232/2/3 231/2/3 230/2/3
f 233/2/3 231/2/3 232/2/3
f 234/2/3 232/2/3 226/2/3
f 235/2/3 232/2/3 234/2/3
f 236/1/3 233/1/3 232/1/3
f 236/2/3 232/2/3 235/2/3
f 237/2/3 231/2/3 233/2/3
f 237/1/3 233/1/3 236/1/3
f 238/1/3 235/1/3 234/1/3
f 238/2/3 234/2/3 226/2/3
f 239/2/3 236/2/3 235/2/3
f 239/1/3 235/1/3 238/1/3
f 239/2/3 237/2/3 236/2/3
f 240/2/3 231/2/3 237/2/3
f 240/2/3 237/2/3 239/2/3
f 240/2/3 239/2/3 238/2/3
f 241/2/3 231/2/3 240/2/3
f 242/2/3 238/2/3 226/2/3
f 242/2/3 240/2/3 238/2/3
f 243/1/3 241/1/3 240/1/3
f 243/2/3 240/2/3 242/2/3
f 244/1/3 241/1/3 243/1/3
f 247/2/3 246/2/3 245/2/3
f 248/2/3 246/2/3 247/2/3
f 249/2/4 250/2/4 252/2/4
f 251/1/4 252/1/4 253/1/4
f 252/2/4 250/2/4 254/2/4
f 253/1/4 252/1/4 254/1/4
f 253/2/4 254/2/4 255/2/4
f 254/2/4 250/2/4 256/2/4
f 255/2/4 254/2/4 256/2/4
f 256/2/4 250/2/4 257/2/4
f 257/2/4 250/2/4 258/2/4
f 259/2/4 260/2/4 262/2/4
f 262/2/4 260/2/4 263/2/4
f 260/1/4 261/1/4 264/1/4
f 263/2/4 260/2/4 264/2/4
f 264/1/4 261/1/4 265/1/4
f 263/2/4 264/2/4 266/2/4
f 264/2/4 265/2/4 266/2/4
f 266/2/4 265/2/4 267/2/4
f 263/2/4 266/2/4 268/2/4
f 268/2/4 266/2/4 269/2/4
f 270/2/4 271/2/4 272/2/4
f 270/2/4 272/2/4 274/2/4
f 272/2/4 273/2/4 274/2/4
f 274/2/4 273/2/4 275/2/4
f 274/1/4 275/1/4 276/1/4
f 275/2/4 273/2/4 277/2/4
f 276/1/4 275/1/4 277/1/4
f 276/2/4 277/2/4 278/2/4
f 277/2/4 273/2/4 279/2/4
f 278/2/4 277/2/4 279/2/4
f 280/2/4 281/2/4 282/2/4
f 282/2/4 281/2/4 283/2/4
f 282/1/4 283/1/4 284/1/4
f 284/1/4 283/1/4 285/1/4
f 284/2/4 285/2/4 287/2/4
f 287/2/4 285/2/4 288/2/4
f 286/2/4 287/2/4 289/2/4
f 287/1/4 288/1/4 290/1/4
f 289/2/4 287/2/4 290/2/4
f 290/1/4 288/1/4 291/1/4
f 291/1/4 288/1/4 292/1/4
f 291/2/4 292/2/4 293/2/4
f 293/2/4 292/2/4 294/2/4
f 295/2/4 296/2/4 297/2/4
f 297/2/4 296/2/4 298/2/4
f 299/2/4 300/2/4 301/2/4
f 301/2/4 300/2/4 302/2/4
f 302/2/4 300/2/4 304/2/4
f 304/2/4 300/2/4 305/2/4
f 303/2/4 304/2/4 306/2/4
f 306/2/4 304/2/4 307/2/4
f 307/2/4 308/2/4 309/2/4
f 309/2/4 308/2/4 310/2/4
f 311/2/4 312/2/4 314/2/4
f 314/2/4 312/2/4 315/2/4
f 312/1/4 313/1/4 316/1/4
f 315/2/4 312/2/4 316/2/4
f 316/1/4 313/1/4 317/1/4
f 315/2/4 316/2/4 318/2/4
f 316/2/4 317/2/4 318/2/4
f 318/2/4 317/2/4 319/2/4
f 317/1/4 313/1/4 320/1/4
f 319/2/4 317/2/4 320/2/4
f 320/1/4 313/1/4 321/1/4
f 319/2/4 320/2/4 323/2/4
f 320/2/4 321/2/4 323/2/4
f 323/2/4 321/2/4 324/2/4
f 324/2/4 321/2/4 325/2/4
f 325/2/4 321/2/4 326/2/4
f 322/2/4 323/2/4 327/2/4
f 327/2/4 323/2/4 328/2/4
f 324/2/4 325/2/4 329/2/4
f 329/2/4 325/2/4 330/2/4
f 329/1/4 330/1/4 331/1/4
f 331/1/4 330/1/4 332/1/4
f 332/1/4 330/1/4 333/1/4
f 332/2/4 333/2/4 336/2/4
f 336/2/4 333/2/4 337/2/4
f 334/2/4 335/2/4 338/2/4
f 338/2/4 335/2/4 339/2/4
f 340/2/4 341/2/4 345/2/4
f 345/2/4 341/2/4 346/2/4
f 342/2/4 343/2/4 348/2/4
f 348/2/4 343/2/4 349/2/4
f 345/2/4 346/2/4 350/2/4
f 344/2/4 345/2/4 350/2/4
f 346/2/4 347/2/4 350/2/4
f 350/2/4 347/2/4 351/2/4
f 351/2/4 347/2/4 352/2/4
f 348/2/4 349/2/4 353/2/4
f 349/1/4 350/1/4 354/1/4
f 353/2/4 349/2/4 354/2/4
f 350/2/4 351/2/4 355/2/4
f 354/1/4 350/1/4 355/1/4
f 351/1/4 352/1/4 356/1/4
f 355/2/4 351/2/4 356/2/4
f 352/2/4 347/2/4 357/2/4
f 356/1/4 352/1/4 357/1/4
f 357/2/4 347/2/4 358/2/4
f 359/2/4 360/2/4 361/2/4
f 361/2/4 360/2/4 362/2/4
f 362/2/4 363/2/4 364/2/4
f 364/2/4 363/2/4 365/2/4
f 362/2/4 364/2/4 366/2/4
f 366/1/4 367/1/4 369/1/4
f 367/1/4 368/1/4 369/1/4
f 362/2/4 366/2/4 369/2/4
f 369/1/4 368/1/4 370/1/4
f 362/2/4 369/2/4 372/2/4
f 370/2/4 371/2/4 372/2/4
f 369/2/4 370/2/4 372/2/4
f 372/2/4 371/2/4 373/2/4
f 373/2/4 371/2/4 374/2/4
f 374/2/4 371/2/4 375/2/4
f 375/2/4 371/2/4 376/2/4
f 376/2/4 377/2/4 381/2/4
f 375/2/4 376/2/4 381/2/4
f 381/2/4 377/2/4 382/2/4
f 378/1/4 379/1/4 383/1/4
f 379/2/4 380/2/4 384/2/4
f 383/1/4 379/1/4 384/1/4
f 380/2/4 381/2/4 384/2/4
f 384/2/4 381/2/4 385/2/4
f 386/2/4 387/2/4 389/2/4
f 389/2/4 387/2/4 390/2/4
f 388/1/4 389/1/4 391/1/4
f 389/1/4 390/1/4 391/1/4
f 391/1/4 390/1/4 392/1/4
f 388/1/4 391/1/4 394/1/4
f 391/2/4 392/2/4 395/2/4
f 394/1/4 391/1/4 395/1/4
f 392/2/4 393/2/4 395/2/4
f 395/2/4 393/2/4 396/2/4
f 394/1/4 395/1/4 399/1/4
f 399/1/4 395/1/4 400/1/4
f 396/2/4 393/2/4 401/2/4
f 397/2/4 398/2/4 402/2/4
f 402/2/4 398/2/4 403/2/4
f 400/2/4 401/2/4 404/2/4
f 401/2/4 393/2/4 405/2/4
f 404/2/4 401/2/4 405/2/4
f 405/2/4 393/2/4 407/2/4
f 407/2/4 393/2/4 408/2/4
f 406/2/4 407/2/4 412/2/4
f 407/2/4 408/2/4 412/2/4
f 412/2/4 408/2/4 413/2/4
f 408/1/4 409/1/4 414/1/4
f 413/2/4 408/2/4 414/2/4
f 414/1/4 409/1/4 415/1/4
f 410/2/4 411/2/4 416/2/4
f 416/2/4 411/2/4 417/2/4
f 413/1/4 414/1/4 419/1/4
f 419/1/4 414/1/4 420/1/4
f 418/2/4 419/2/4 422/2/4
f 420/1/4 421/1/4 423/1/4
f 423/1/4 421/1/4 424/1/4
f 422/2/4 419/2/4 425/2/4
f 425/2/4 419/2/4 426/2/4
f 427/1/4 428/1/4 430/1/4
f 430/1/4 428/1/4 431/1/4
f 429/2/4 430/2/4 432/2/4
f 432/2/4 430/2/4 433/2/4
f 432/1/4 433/1/4 436/1/4
f 436/1/4 433/1/4 437/1/4
f 434/2/4 435/2/4 438/2/4
f 438/2/4 435/2/4 439/2/4
f 437/1/4 438/1/4 440/1/4
f 440/1/4 438/1/4 441/1/4
f 440/2/4 441/2/4 443/2/4
f 441/2/4 442/2/4 443/2/4
f 443/2/4 442/2/4 444/2/4
f 445/2/4 446/2/4 447/2/4
f 447/2/4 446/2/4 448/2/4
f 448/2/4 446/2/4 449/2/4
f 447/1/4 448/1/4 450/1/4
f 450/1/4 448/1/4 451/1/4
f 450/2/4 451/2/4 452/2/4
f 452/2/4 451/2/4 453/2/4
f 454/1/4 455/1/4 456/1/4
f 456/1/4 455/1/4 457/1/4
f 458/2/4 459/2/4 460/2/4
f 460/2/4 459/2/4 461/2/4
f 460/1/4 461/1/4 462/1/4
f 462/1/4 461/1/4 463/1/4
f 464/1/4 465/1/4 466/1/4
f 466/1/4 465/1/4 467/1/4
f 470/2/5 469/2/5 468/2/5
f 471/2/5 469/2/5 470/2/5
f 472/2/5 470/2/5 468/2/5
f 473/2/5 470/2/5 472/2/5
f 474/1/5 471/1/5 470/1/5
f 474/2/5 470/2/5 473/2/5
f 475/1/5 471/1/5 474/1/5
f 476/2/5 469/2/5 471/2/5
f 476/1/5 471/1/5 475/1/5
f 477/2/5 469/2/5 476/2/5
f 478/1/5 473/1/5 472/1/5
f 479/1/5 473/1/5 478/1/5
f 480/2/5 476/2/5 475/2/5
f 481/1/5 477/1/5 476/1/5
f 481/2/5 476/2/5 480/2/5
f 482/2/5 469/2/5 477/2/5
f 482/1/5 477/1/5 481/1/5
f 483/2/5 469/2/5 482/2/5
f 484/1/5 483/1/5 482/1/5
f 485/1/5 483/1/5 484/1/5
f 488/2/5 487/2/5 486/2/5
f 489/2/5 487/2/5 488/2/5
f 492/1/5 491/1/5 490/1/5
f 493/1/5 491/1/5 492/1/5
f 498/2/5 495/2/5 494/2/5
f 499/2/5 495/2/5 498/2/5
f 500/2/5 497/2/5 496/2/5
f 501/2/5 497/2/5 500/2/5
f 502/2/5 499/2/5 498/2/5
f 503/2/5 499/2/5 502/2/5
f 504/2/5 501/2/5 500/2/5
f 505/2/5 501/2/5 504/2/5
f 506/2/6 507/2/6 512/2/6
f 507/1/6 508/1/6 513/1/6
f 512/2/6 507/2/6 513/2/6
f 513/1/6 508/1/6 514/1/6
f 509/2/6 510/2/6 516/2/6
f 516/2/6 510/2/6 517/2/6
f 511/1/6 512/1/6 521/1/6
f 521/1/6 512/1/6 522/1/6
f 514/2/6 515/2/6 523/2/6
f 515/2/6 516/2/6 523/2/6
f 517/1/6 518/1/6 524/1/6
f 523/2/6 516/2/6 524/2/6
f 516/1/6 517/1/6 524/1/6
f 519/2/6 520/2/6 525/2/6
f 524/1/6 518/1/6 525/1/6
f 518/2/6 519/2/6 525/2/6
f 525/2/6 520/2/6 526/2/6
f 525/1/6 526/1/6 527/1/6
f 527/1/6 526/1/6 528/1/6
f 529/1/6 530/1/6 536/1/6
f 536/1/6 530/1/6 537/1/6
f 531/1/6 532/1/6 538/1/6
f 538/1/6 532/1/6 539/1/6
f 533/1/6 534/1/6 540/1/6
f 534/2/6 535/2/6 541/2/6
f 540/1/6 534/1/6 541/1/6
f 541/2/6 535/2/6 542/2/6
f 543/2/6 544/2/6 548/2/6
f 545/1/6 546/1/6 550/1/6
f 546/2/6 547/2/6 551/2/6
f 550/1/6 546/1/6 551/1/6
f 543/2/6 548/2/6 552/2/6
f 548/1/6 549/1/6 553/1/6
f 552/2/6 548/2/6 553/2/6
f 553/1/6 549/1/6 554/1/6
f 550/2/6 551/2/6 560/2/6
f 551/2/6 547/2/6 561/2/6
f 560/2/6 551/2/6 561/2/6
f 555/2/6 556/2/6 562/2/6
f 562/2/6 556/2/6 563/2/6
f 557/2/6 558/2/6 564/2/6
f 564/2/6 558/2/6 565/2/6
f 559/2/6 560/2/6 566/2/6
f 566/2/6 560/2/6 567/2/6
f 568/2/6 569/2/6 570/2/6
f 570/2/6 569/2/6 571/2/6
f 571/2/6 572/2/6 575/2/6
f 575/2/6 572/2/6 576/2/6
f 573/1/6 574/1/6 577/1/6
f 577/1/6 574/1/6 578/1/6
f 579/2/6 580/2/6 585/2/6
f 585/2/6 580/2/6 586/2/6
f 581/2/6 582/2/6 587/2/6
f 587/2/6 582/2/6 588/2/6
f 583/1/6 584/1/6 589/1/6
f 587/1/6 588/1/6 590/1/6
f 590/1/6 588/1/6 591/1/6
f 589/1/6 584/1/6 592/1/6
f 592/1/6 584/1/6 593/1/6
f 594/2/6 595/2/6 596/2/6
f 596/2/6 595/2/6 597/2/6
f 598/2/6 599/2/6 603/2/6
f 599/1/6 600/1/6 603/1/6
f 603/1/6 600/1/6 604/1/6
f 601/2/6 602/2/6 606/2/6
f 606/2/6 602/2/6 607/2/6
f 598/2/6 603/2/6 608/2/6
f 608/2/6 603/2/6 609/2/6
f 605/2/6 606/2/6 610/2/6
f 610/2/6 606/2/6 611/2/6
f 612/2/6 613/2/6 615/2/6
f 615/2/6 613/2/6 616/2/6
f 614/2/6 615/2/6 617/2/6
f 617/2/6 615/2/6 618/2/6
f 619/2/6 620/2/6 624/2/6
f 624/2/6 620/2/6 625/2/6
f 621/2/6 622/2/6 627/2/6
f 622/1/6 623/1/6 628/1/6
f 627/2/6 622/2/6 628/2/6
f 623/2/6 624/2/6 629/2/6
f 628/1/6 623/1/6 629/1/6
f 629/2/6 624/2/6 630/2/6
f 625/2/6 626/2/6 631/2/6
f 631/2/6 626/2/6 632/2/6
f 630/2/6 631/2/6 633/2/6
f 633/2/6 631/2/6 634/2/6
f 635/2/6 636/2/6 644/2/6
f 644/2/6 636/2/6 645/2/6
f 637/2/6 638/2/6 646/2/6
f 638/2/6 639/2/6 646/2/6
f 639/2/6 640/2/6 646/2/6
f 646/2/6 640/2/6 647/2/6
f 647/2/6 640/2/6 648/2/6
f 642/2/6 643/2/6 649/2/6
f 641/2/6 642/2/6 649/2/6
f 649/2/6 643/2/6 650/2/6
f 644/1/6 645/1/6 651/1/6
f 645/1/6 646/1/6 651/1/6
f 646/2/6 647/2/6 652/2/6
f 651/1/6 646/1/6 652/1/6
f 652/2/6 647/2/6 653/2/6
f 650/2/6 643/2/6 654/2/6
f 654/2/6 643/2/6 655/2/6
f 656/1/6 657/1/6 660/1/6
f 657/2/6 658/2/6 661/2/6
f 659/2/6 660/2/6 665/2/6
f 660/1/6 657/1/6 666/1/6
f 665/2/6 660/2/6 666/2/6
f 657/2/6 661/2/6 667/2/6
f 666/1/6 657/1/6 667/1/6
f 661/1/6 662/1/6 668/1/6
f 667/2/6 661/2/6 668/2/6
f 663/2/6 664/2/6 669/2/6
f 668/1/6 662/1/6 669/1/6
f 662/2/6 663/2/6 669/2/6
f 669/2/6 664/2/6 670/2/6
f 659/2/6 665/2/6 671/2/6
f 671/2/6 665/2/6 672/2/6
f 673/2/6 674/2/6 677/2/6
f 677/2/6 674/2/6 678/2/6
f 675/2/6 676/2/6 679/2/6
f 679/2/6 676/2/6 680/2/6
f 681/2/6 682/2/6 686/2/6
f 682/1/6 683/1/6 687/1/6
f 686/2/6 682/2/6 687/2/6
f 683/2/6 684/2/6 688/2/6
f 688/2/6 684/2/6 689/2/6
f 684/1/6 685/1/6 690/1/6
f 689/2/6 684/2/6 690/2/6
f 690/1/6 685/1/6 691/1/6
f 686/1/6 687/1/6 692/1/6
f 687/1/6 683/1/6 693/1/6
f 692/1/6 687/1/6 693/1/6
f 683/2/6 688/2/6 693/2/6
f 693/2/6 688/2/6 694/2/6
f 690/2/6 691/2/6 695/2/6
f 689/2/6 690/2/6 695/2/6
f 695/2/6 691/2/6 696/2/6
