# MagicaVoxel @ Ephtracy

# group
o 

# material
mtllib Saggasse.mtl
usemtl palette

# normals
vn -1 0 0
vn 1 0 0
vn 0 0 1
vn 0 0 -1
vn 0 -1 0
vn 0 1 0

# texcoords
vt 0.0292969 0.5
vt 0.0839844 0.5
vt 0.376953 0.5
vt 0.380859 0.5

# verts
v -0.8 0 0.7
v -0.8 0 0.3
v -0.8 0 -1.19209e-007
v -0.8 0 -0.1
v -0.8 0 -0.7
v -0.8 0 -0.8
v -0.8 0.1 0.7
v -0.8 0.1 0.3
v -0.8 0.1 -1.19209e-007
v -0.8 0.1 -0.1
v -0.8 0.1 -0.7
v -0.8 0.1 -0.8
v -0.7 0 0.8
v -0.7 0 0.7
v -0.7 0 0.3
v -0.7 0 0.2
v -0.7 0 0.0999999
v -0.7 0 -1.19209e-007
v -0.7 0 -0.1
v -0.7 0 -0.3
v -0.7 0 -0.5
v -0.7 0 -0.7
v -0.7 0 -0.8
v -0.7 0 -0.9
v -0.7 0.1 0.8
v -0.7 0.1 0.7
v -0.7 0.1 0.6
v -0.7 0.1 0.3
v -0.7 0.1 0.2
v -0.7 0.1 0.0999999
v -0.7 0.1 -1.19209e-007
v -0.7 0.1 -0.1
v -0.7 0.1 -0.3
v -0.7 0.1 -0.5
v -0.7 0.1 -0.7
v -0.7 0.1 -0.8
v -0.7 0.1 -0.9
v -0.7 0.2 0.6
v -0.7 0.2 0.3
v -0.7 0.2 -1.19209e-007
v -0.7 0.2 -0.1
v -0.6 0 0.9
v -0.6 0 0.8
v -0.6 0 -1.19209e-007
v -0.6 0 -0.1
v -0.6 0 -0.3
v -0.6 0 -0.5
v -0.6 0.1 0.9
v -0.6 0.1 0.8
v -0.6 0.1 0.6
v -0.6 0.1 0.0999999
v -0.6 0.1 -1.19209e-007
v -0.6 0.1 -0.1
v -0.6 0.1 -0.2
v -0.6 0.1 -0.3
v -0.6 0.1 -0.5
v -0.6 0.1 -0.9
v -0.6 0.2 0.8
v -0.6 0.2 0.6
v -0.6 0.2 0.0999999
v -0.6 0.2 -1.19209e-007
v -0.6 0.2 -0.1
v -0.6 0.2 -0.2
v -0.6 0.2 -0.5
v -0.6 0.2 -0.9
v -0.5 0 0.2
v -0.5 0 0.0999999
v -0.5 0 -0.9
v -0.5 0 -1.1
v -0.5 0.1 0.9
v -0.5 0.1 0.8
v -0.5 0.1 0.4
v -0.5 0.1 0.2
v -0.5 0.1 -0.2
v -0.5 0.1 -0.5
v -0.5 0.1 -1
v -0.5 0.1 -1.1
v -0.5 0.2 0.9
v -0.5 0.2 0.8
v -0.5 0.2 0.4
v -0.5 0.2 0.0999999
v -0.5 0.2 -0.2
v -0.5 0.2 -0.5
v -0.5 0.2 -0.9
v -0.5 0.2 -1
v -0.4 0 1.1
v -0.4 0 0.9
v -0.4 0.1 1.1
v -0.4 0.1 1
v -0.4 0.1 -1
v -0.4 0.1 -1.1
v -0.4 0.2 1
v -0.4 0.2 0.9
v -0.4 0.2 -1
v -0.4 0.2 -1.1
v -0.4 0.5 0.8
v -0.4 0.5 0.7
v -0.4 0.5 0.4
v -0.4 0.5 -0.4
v -0.4 0.5 -0.7
v -0.4 0.5 -0.8
v -0.4 0.6 0.0999999
v -0.4 0.6 -0.1
v -0.4 0.7 0.8
v -0.4 0.7 0.7
v -0.4 0.7 0.4
v -0.4 0.7 0.0999999
v -0.4 0.7 -0.1
v -0.4 0.7 -0.4
v -0.4 0.7 -0.7
v -0.4 0.7 -0.8
v -0.3 0.2 0.8
v -0.3 0.2 0.6
v -0.3 0.2 -0.6
v -0.3 0.2 -0.8
v -0.3 0.4 0.6
v -0.3 0.4 0.5
v -0.3 0.4 -0.5
v -0.3 0.4 -0.6
v -0.3 0.5 0.9
v -0.3 0.5 0.8
v -0.3 0.5 0.7
v -0.3 0.5 0.6
v -0.3 0.5 0.5
v -0.3 0.5 0.4
v -0.3 0.5 -0.4
v -0.3 0.5 -0.5
v -0.3 0.5 -0.6
v -0.3 0.5 -0.7
v -0.3 0.5 -0.8
v -0.3 0.5 -0.9
v -0.3 0.7 0.9
v -0.3 0.7 0.8
v -0.3 0.7 0.7
v -0.3 0.7 0.4
v -0.3 0.7 0.0999999
v -0.3 0.7 -0.1
v -0.3 0.7 -0.4
v -0.3 0.7 -0.7
v -0.3 0.7 -0.8
v -0.3 0.7 -0.9
v -0.3 0.8 0.8
v -0.3 0.8 0.7
v -0.3 0.8 0.4
v -0.3 0.8 0.0999999
v -0.3 0.8 -0.1
v -0.3 0.8 -0.4
v -0.3 0.8 -0.7
v -0.3 0.8 -0.8
v -0.2 0.1 1.1
v -0.2 0.1 1
v -0.2 0.2 1.1
v -0.2 0.2 1
v -0.7 0 -1.19209e-007
v -0.7 0 -0.1
v -0.7 0.1 -1.19209e-007
v -0.7 0.1 -0.1
v -0.6 0.1 0.4
v -0.6 0.1 0.3
v -0.6 0.2 0.4
v -0.6 0.2 0.3
v -0.1 0.2 0.8
v -0.1 0.2 0.6
v -0.1 0.2 -0.6
v -0.1 0.2 -0.8
v -0.1 0.4 0.6
v -0.1 0.4 -0.6
v -0.1 0.5 0.9
v -0.1 0.5 0.8
v -0.1 0.5 0.7
v -0.1 0.5 0.6
v -0.1 0.5 0.4
v -0.1 0.5 -0.4
v -0.1 0.5 -0.6
v -0.1 0.5 -0.7
v -0.1 0.5 -0.8
v -0.1 0.5 -0.9
v -0.1 0.7 0.9
v -0.1 0.7 0.8
v -0.1 0.7 0.7
v -0.1 0.7 0.4
v -0.1 0.7 0.0999999
v -0.1 0.7 -0.1
v -0.1 0.7 -0.4
v -0.1 0.7 -0.7
v -0.1 0.7 -0.8
v -0.1 0.7 -0.9
v -0.1 0.8 0.8
v -0.1 0.8 0.7
v -0.1 0.8 0.4
v -0.1 0.8 0.0999999
v -0.1 0.8 -0.1
v -0.1 0.8 -0.4
v -0.1 0.8 -0.7
v -0.1 0.8 -0.8
v 5.96046e-008 0.5 0.8
v 5.96046e-008 0.5 0.7
v 5.96046e-008 0.5 0.4
v 5.96046e-008 0.5 -0.4
v 5.96046e-008 0.5 -0.7
v 5.96046e-008 0.5 -0.8
v 5.96046e-008 0.6 0.0999999
v 5.96046e-008 0.6 -0.1
v 5.96046e-008 0.7 0.8
v 5.96046e-008 0.7 0.7
v 5.96046e-008 0.7 0.4
v 5.96046e-008 0.7 0.0999999
v 5.96046e-008 0.7 -0.1
v 5.96046e-008 0.7 -0.4
v 5.96046e-008 0.7 -0.7
v 5.96046e-008 0.7 -0.8
v 2.5 0 1.1
v 2.5 0 0.9
v 2.5 0 0.0999999
v 2.5 0 -0.1
v 2.5 0 -0.9
v 2.5 0 -1.1
v 2.5 0.2 1.1
v 2.5 0.2 0.9
v 2.5 0.2 0.0999999
v 2.5 0.2 -0.1
v 2.5 0.2 -0.9
v 2.5 0.2 -1.1
v -0.4 0 1.1
v -0.4 0.1 1.1
v -0.2 0.1 1.1
v -0.2 0.2 1.1
v 2.5 0 1.1
v 2.5 0.2 1.1
v -0.4 0.1 1
v -0.4 0.2 1
v -0.2 0.1 1
v -0.2 0.2 1
v -0.6 0 0.9
v -0.6 0.1 0.9
v -0.5 0.1 0.9
v -0.5 0.2 0.9
v -0.4 0 0.9
v -0.4 0.2 0.9
v -0.3 0.5 0.9
v -0.3 0.7 0.9
v -0.1 0.5 0.9
v -0.1 0.7 0.9
v -0.7 0 0.8
v -0.7 0.1 0.8
v -0.6 0 0.8
v -0.6 0.1 0.8
v -0.6 0.2 0.8
v -0.5 0.1 0.8
v -0.5 0.2 0.8
v -0.4 0.5 0.8
v -0.4 0.7 0.8
v -0.3 0.2 0.8
v -0.3 0.5 0.8
v -0.3 0.7 0.8
v -0.3 0.8 0.8
v -0.1 0.2 0.8
v -0.1 0.5 0.8
v -0.1 0.7 0.8
v -0.1 0.8 0.8
v 5.96046e-008 0.5 0.8
v 5.96046e-008 0.7 0.8
v -0.8 0 0.7
v -0.8 0.1 0.7
v -0.7 0 0.7
v -0.7 0.1 0.7
v -0.7 0.1 0.6
v -0.7 0.2 0.6
v -0.6 0.1 0.6
v -0.6 0.2 0.6
v -0.7 0 0.0999999
v -0.7 0.1 0.0999999
v -0.6 0.1 0.0999999
v -0.6 0.2 0.0999999
v -0.5 0 0.0999999
v -0.5 0.2 0.0999999
v -0.8 0 -1.19209e-007
v -0.8 0.1 -1.19209e-007
v -0.7 0 -1.19209e-007
v -0.7 0.1 -1.19209e-007
v -0.7 0.2 -1.19209e-007
v -0.6 0.1 -1.19209e-007
v -0.6 0.2 -1.19209e-007
v -0.7 0 -0.1
v -0.7 0.1 -0.1
v -0.6 0 -0.1
v -0.6 0.1 -0.1
v -0.7 0 -0.5
v -0.7 0.1 -0.5
v -0.6 0 -0.5
v -0.6 0.1 -0.5
v -0.6 0.2 -0.5
v -0.5 0.1 -0.5
v -0.5 0.2 -0.5
v -0.3 0.2 -0.6
v -0.3 0.4 -0.6
v -0.2 0.4 -0.6
v -0.1 0.2 -0.6
v -0.1 0.4 -0.6
v -0.8 0 -0.7
v -0.8 0.1 -0.7
v -0.7 0 -0.7
v -0.7 0.1 -0.7
v -0.3 0.2 0.6
v -0.3 0.4 0.6
v -0.2 0.4 0.6
v -0.1 0.2 0.6
v -0.1 0.4 0.6
v -0.6 0.1 0.4
v -0.6 0.2 0.4
v -0.5 0.1 0.4
v -0.5 0.2 0.4
v -0.8 0 0.3
v -0.8 0.1 0.3
v -0.7 0 0.3
v -0.7 0.1 0.3
v -0.7 0.2 0.3
v -0.6 0.1 0.3
v -0.6 0.2 0.3
v -0.7 0 0.2
v -0.7 0.1 0.2
v -0.5 0 0.2
v -0.5 0.1 0.2
v -0.7 0 -1.19209e-007
v -0.7 0.1 -1.19209e-007
v -0.6 0 -1.19209e-007
v -0.6 0.1 -1.19209e-007
v -0.8 0 -0.1
v -0.8 0.1 -0.1
v -0.7 0 -0.1
v -0.7 0.1 -0.1
v -0.7 0.2 -0.1
v -0.6 0.1 -0.1
v -0.6 0.2 -0.1
v -0.6 0.1 -0.2
v -0.6 0.2 -0.2
v -0.5 0.1 -0.2
v -0.5 0.2 -0.2
v -0.7 0 -0.3
v -0.7 0.1 -0.3
v -0.6 0 -0.3
v -0.6 0.1 -0.3
v -0.8 0 -0.8
v -0.8 0.1 -0.8
v -0.7 0 -0.8
v -0.7 0.1 -0.8
v -0.4 0.5 -0.8
v -0.4 0.7 -0.8
v -0.3 0.2 -0.8
v -0.3 0.5 -0.8
v -0.3 0.7 -0.8
v -0.3 0.8 -0.8
v -0.1 0.2 -0.8
v -0.1 0.5 -0.8
v -0.1 0.7 -0.8
v -0.1 0.8 -0.8
v 5.96046e-008 0.5 -0.8
v 5.96046e-008 0.7 -0.8
v -0.7 0 -0.9
v -0.7 0.1 -0.9
v -0.6 0.1 -0.9
v -0.6 0.2 -0.9
v -0.5 0 -0.9
v -0.5 0.2 -0.9
v -0.3 0.5 -0.9
v -0.3 0.7 -0.9
v -0.1 0.5 -0.9
v -0.1 0.7 -0.9
v -0.5 0.1 -1
v -0.5 0.2 -1
v -0.4 0.1 -1
v -0.4 0.2 -1
v -0.5 0 -1.1
v -0.5 0.1 -1.1
v -0.4 0.1 -1.1
v -0.4 0.2 -1.1
v 2.5 0 -1.1
v 2.5 0.2 -1.1
v -0.4 0 1.1
v 2.5 0 1.1
v -0.6 0 0.9
v -0.4 0 0.9
v 2.5 0 0.9
v -0.7 0 0.8
v -0.6 0 0.8
v -0.8 0 0.7
v -0.7 0 0.7
v -0.8 0 0.3
v -0.7 0 0.3
v -0.7 0 0.2
v -0.5 0 0.2
v -0.7 0 0.0999999
v -0.5 0 0.0999999
v 2.5 0 0.0999999
v -0.8 0 -1.19209e-007
v -0.7 0 -1.19209e-007
v -0.6 0 -1.19209e-007
v -0.8 0 -0.1
v -0.7 0 -0.1
v -0.6 0 -0.1
v -0.5 0 -0.1
v 2.5 0 -0.1
v -0.7 0 -0.3
v -0.6 0 -0.3
v -0.7 0 -0.5
v -0.6 0 -0.5
v -0.8 0 -0.7
v -0.7 0 -0.7
v -0.8 0 -0.8
v -0.7 0 -0.8
v -0.7 0 -0.9
v -0.5 0 -0.9
v 2.5 0 -0.9
v -0.5 0 -1.1
v 2.5 0 -1.1
v -0.7 0.1 -1.19209e-007
v -0.6 0.1 -1.19209e-007
v -0.7 0.1 -0.1
v -0.6 0.1 -0.1
v -0.3 0.4 0.6
v -0.2 0.4 0.6
v -0.1 0.4 0.6
v -0.3 0.4 0.5
v -0.2 0.4 0.5
v -0.3 0.4 -0.5
v -0.2 0.4 -0.5
v -0.3 0.4 -0.6
v -0.2 0.4 -0.6
v -0.1 0.4 -0.6
v -0.3 0.5 0.9
v -0.1 0.5 0.9
v -0.4 0.5 0.8
v -0.3 0.5 0.8
v -0.1 0.5 0.8
v 5.96046e-008 0.5 0.8
v -0.4 0.5 0.7
v -0.3 0.5 0.7
v -0.1 0.5 0.7
v 5.96046e-008 0.5 0.7
v -0.3 0.5 0.6
v -0.1 0.5 0.6
v -0.3 0.5 0.5
v -0.4 0.5 0.4
v -0.3 0.5 0.4
v -0.1 0.5 0.4
v 5.96046e-008 0.5 0.4
v -0.4 0.5 -0.4
v -0.3 0.5 -0.4
v -0.1 0.5 -0.4
v 5.96046e-008 0.5 -0.4
v -0.3 0.5 -0.5
v -0.3 0.5 -0.6
v -0.1 0.5 -0.6
v -0.4 0.5 -0.7
v -0.3 0.5 -0.7
v -0.1 0.5 -0.7
v 5.96046e-008 0.5 -0.7
v -0.4 0.5 -0.8
v -0.3 0.5 -0.8
v -0.1 0.5 -0.8
v 5.96046e-008 0.5 -0.8
v -0.3 0.5 -0.9
v -0.1 0.5 -0.9
v -0.4 0.1 1.1
v -0.2 0.1 1.1
v -0.4 0.1 1
v -0.2 0.1 1
v -0.6 0.1 0.9
v -0.5 0.1 0.9
v -0.7 0.1 0.8
v -0.6 0.1 0.8
v -0.5 0.1 0.8
v -0.8 0.1 0.7
v -0.7 0.1 0.7
v -0.7 0.1 0.6
v -0.6 0.1 0.6
v -0.6 0.1 0.4
v -0.5 0.1 0.4
v -0.8 0.1 0.3
v -0.7 0.1 0.3
v -0.6 0.1 0.3
v -0.7 0.1 0.2
v -0.5 0.1 0.2
v -0.7 0.1 0.0999999
v -0.6 0.1 0.0999999
v -0.8 0.1 -1.19209e-007
v -0.7 0.1 -1.19209e-007
v -0.6 0.1 -1.19209e-007
v -0.8 0.1 -0.1
v -0.7 0.1 -0.1
v -0.6 0.1 -0.1
v -0.6 0.1 -0.2
v -0.5 0.1 -0.2
v -0.7 0.1 -0.3
v -0.6 0.1 -0.3
v -0.7 0.1 -0.5
v -0.6 0.1 -0.5
v -0.5 0.1 -0.5
v -0.8 0.1 -0.7
v -0.7 0.1 -0.7
v -0.8 0.1 -0.8
v -0.7 0.1 -0.8
v -0.7 0.1 -0.9
v -0.6 0.1 -0.9
v -0.5 0.1 -1
v -0.4 0.1 -1
v -0.5 0.1 -1.1
v -0.4 0.1 -1.1
v -0.2 0.2 1.1
v 2.5 0.2 1.1
v -0.4 0.2 1
v -0.2 0.2 1
v -0.5 0.2 0.9
v -0.4 0.2 0.9
v 2.5 0.2 0.9
v -0.6 0.2 0.8
v -0.5 0.2 0.8
v -0.3 0.2 0.8
v -0.1 0.2 0.8
v -0.7 0.2 0.6
v -0.6 0.2 0.6
v -0.3 0.2 0.6
v -0.1 0.2 0.6
v -0.6 0.2 0.4
v -0.5 0.2 0.4
v -0.7 0.2 0.3
v -0.6 0.2 0.3
v -0.6 0.2 0.0999999
v -0.5 0.2 0.0999999
v 2.5 0.2 0.0999999
v -0.7 0.2 -1.19209e-007
v -0.6 0.2 -1.19209e-007
v -0.5 0.2 -1.19209e-007
v -0.7 0.2 -0.1
v -0.6 0.2 -0.1
v 2.5 0.2 -0.1
v -0.6 0.2 -0.2
v -0.5 0.2 -0.2
v -0.6 0.2 -0.5
v -0.5 0.2 -0.5
v -0.3 0.2 -0.6
v -0.1 0.2 -0.6
v -0.3 0.2 -0.8
v -0.1 0.2 -0.8
v -0.6 0.2 -0.9
v -0.5 0.2 -0.9
v 2.5 0.2 -0.9
v -0.5 0.2 -1
v -0.4 0.2 -1
v -0.4 0.2 -1.1
v 2.5 0.2 -1.1
v -0.3 0.7 0.9
v -0.1 0.7 0.9
v -0.4 0.7 0.8
v -0.3 0.7 0.8
v -0.1 0.7 0.8
v 5.96046e-008 0.7 0.8
v -0.4 0.7 0.7
v -0.3 0.7 0.7
v -0.1 0.7 0.7
v 5.96046e-008 0.7 0.7
v -0.4 0.7 0.4
v -0.3 0.7 0.4
v -0.1 0.7 0.4
v 5.96046e-008 0.7 0.4
v -0.4 0.7 0.0999999
v -0.3 0.7 0.0999999
v -0.1 0.7 0.0999999
v 5.96046e-008 0.7 0.0999999
v -0.4 0.7 -0.1
v -0.3 0.7 -0.1
v -0.1 0.7 -0.1
v 5.96046e-008 0.7 -0.1
v -0.4 0.7 -0.4
v -0.3 0.7 -0.4
v -0.1 0.7 -0.4
v 5.96046e-008 0.7 -0.4
v -0.4 0.7 -0.7
v -0.3 0.7 -0.7
v -0.1 0.7 -0.7
v 5.96046e-008 0.7 -0.7
v -0.4 0.7 -0.8
v -0.3 0.7 -0.8
v -0.1 0.7 -0.8
v 5.96046e-008 0.7 -0.8
v -0.3 0.7 -0.9
v -0.1 0.7 -0.9
v -0.3 0.8 0.8
v -0.1 0.8 0.8
v -0.3 0.8 0.7
v -0.1 0.8 0.7
v -0.3 0.8 0.4
v -0.1 0.8 0.4
v -0.3 0.8 0.0999999
v -0.1 0.8 0.0999999
v -0.3 0.8 -0.1
v -0.1 0.8 -0.1
v -0.3 0.8 -0.4
v -0.1 0.8 -0.4
v -0.3 0.8 -0.7
v -0.1 0.8 -0.7
v -0.3 0.8 -0.8
v -0.1 0.8 -0.8

# faces
f 7/3/1 2/3/1 1/3/1
f 8/3/1 2/3/1 7/3/1
f 9/3/1 4/3/1 3/3/1
f 10/3/1 4/3/1 9/3/1
f 11/3/1 6/3/1 5/3/1
f 12/3/1 6/3/1 11/3/1
f 25/3/1 14/3/1 13/3/1
f 26/3/1 14/3/1 25/3/1
f 28/3/1 16/3/1 15/3/1
f 29/3/1 16/3/1 28/3/1
f 30/3/1 18/3/1 17/3/1
f 31/3/1 18/3/1 30/3/1
f 32/3/1 20/3/1 19/3/1
f 33/3/1 20/3/1 32/3/1
f 34/3/1 22/3/1 21/3/1
f 35/3/1 22/3/1 34/3/1
f 36/3/1 24/3/1 23/3/1
f 37/3/1 24/3/1 36/3/1
f 38/3/1 28/3/1 27/3/1
f 39/3/1 28/3/1 38/3/1
f 40/3/1 32/3/1 31/3/1
f 41/3/1 32/3/1 40/3/1
f 48/3/1 43/3/1 42/3/1
f 49/3/1 43/3/1 48/3/1
f 52/3/1 45/3/1 44/3/1
f 53/3/1 45/3/1 52/3/1
f 55/3/1 47/3/1 46/3/1
f 56/3/1 47/3/1 55/3/1
f 58/3/1 50/3/1 49/3/1
f 59/3/1 50/3/1 58/3/1
f 60/3/1 52/3/1 51/3/1
f 61/3/1 52/3/1 60/3/1
f 62/3/1 54/3/1 53/3/1
f 63/3/1 54/3/1 62/3/1
f 64/3/1 57/3/1 56/3/1
f 65/3/1 57/3/1 64/3/1
f 73/3/1 67/3/1 66/3/1
f 76/4/1 69/4/1 68/4/1
f 77/4/1 69/4/1 76/4/1
f 78/3/1 71/3/1 70/3/1
f 79/3/1 71/3/1 78/3/1
f 80/3/1 73/3/1 72/3/1
f 81/3/1 67/3/1 73/3/1
f 81/3/1 73/3/1 80/3/1
f 82/3/1 75/3/1 74/3/1
f 83/3/1 75/3/1 82/3/1
f 84/4/1 76/4/1 68/4/1
f 85/4/1 76/4/1 84/4/1
f 88/4/1 87/4/1 86/4/1
f 89/4/1 87/4/1 88/4/1
f 92/4/1 87/4/1 89/4/1
f 93/4/1 87/4/1 92/4/1
f 94/4/1 91/4/1 90/4/1
f 95/4/1 91/4/1 94/4/1
f 102/1/1 99/1/1 98/1/1
f 103/1/1 99/1/1 102/1/1
f 104/1/1 97/1/1 96/1/1
f 105/4/1 98/4/1 97/4/1
f 105/1/1 97/1/1 104/1/1
f 106/1/1 102/1/1 98/1/1
f 106/4/1 98/4/1 105/4/1
f 107/4/1 103/4/1 102/4/1
f 107/1/1 102/1/1 106/1/1
f 108/1/1 99/1/1 103/1/1
f 108/4/1 103/4/1 107/4/1
f 109/4/1 100/4/1 99/4/1
f 109/1/1 99/1/1 108/1/1
f 110/1/1 101/1/1 100/1/1
f 110/4/1 100/4/1 109/4/1
f 111/1/1 101/1/1 110/1/1
f 116/2/1 113/2/1 112/2/1
f 119/2/1 115/2/1 114/2/1
f 121/2/1 116/2/1 112/2/1
f 122/2/1 116/2/1 121/2/1
f 123/4/1 117/4/1 116/4/1
f 123/2/1 116/2/1 122/2/1
f 124/1/1 118/1/1 117/1/1
f 124/4/1 117/4/1 123/4/1
f 125/1/1 118/1/1 124/1/1
f 126/1/1 118/1/1 125/1/1
f 127/4/1 119/4/1 118/4/1
f 127/1/1 118/1/1 126/1/1
f 128/2/1 115/2/1 119/2/1
f 128/4/1 119/4/1 127/4/1
f 129/2/1 115/2/1 128/2/1
f 130/2/1 115/2/1 129/2/1
f 132/1/1 121/1/1 120/1/1
f 133/1/1 121/1/1 132/1/1
f 140/1/1 131/1/1 130/1/1
f 141/1/1 131/1/1 140/1/1
f 142/1/1 134/1/1 133/1/1
f 143/4/1 135/4/1 134/4/1
f 143/1/1 134/1/1 142/1/1
f 144/1/1 136/1/1 135/1/1
f 144/4/1 135/4/1 143/4/1
f 145/4/1 137/4/1 136/4/1
f 145/1/1 136/1/1 144/1/1
f 146/1/1 138/1/1 137/1/1
f 146/4/1 137/4/1 145/4/1
f 147/4/1 139/4/1 138/4/1
f 147/1/1 138/1/1 146/1/1
f 148/1/1 140/1/1 139/1/1
f 148/4/1 139/4/1 147/4/1
f 149/1/1 140/1/1 148/1/1
f 152/4/1 151/4/1 150/4/1
f 153/4/1 151/4/1 152/4/1
f 154/3/2 155/3/2 156/3/2
f 156/3/2 155/3/2 157/3/2
f 158/3/2 159/3/2 160/3/2
f 160/3/2 159/3/2 161/3/2
f 162/2/2 163/2/2 166/2/2
f 164/2/2 165/2/2 167/2/2
f 162/2/2 166/2/2 169/2/2
f 169/2/2 166/2/2 170/2/2
f 166/1/2 167/1/2 171/1/2
f 170/2/2 166/2/2 171/2/2
f 171/1/2 167/1/2 172/1/2
f 172/1/2 167/1/2 173/1/2
f 167/2/2 165/2/2 174/2/2
f 173/1/2 167/1/2 174/1/2
f 174/2/2 165/2/2 175/2/2
f 175/2/2 165/2/2 176/2/2
f 168/1/2 169/1/2 178/1/2
f 178/1/2 169/1/2 179/1/2
f 176/1/2 177/1/2 186/1/2
f 186/1/2 177/1/2 187/1/2
f 179/1/2 180/1/2 188/1/2
f 180/4/2 181/4/2 189/4/2
f 188/1/2 180/1/2 189/1/2
f 181/1/2 182/1/2 190/1/2
f 189/4/2 181/4/2 190/4/2
f 182/4/2 183/4/2 191/4/2
f 190/1/2 182/1/2 191/1/2
f 183/1/2 184/1/2 192/1/2
f 191/4/2 183/4/2 192/4/2
f 184/4/2 185/4/2 193/4/2
f 192/1/2 184/1/2 193/1/2
f 185/1/2 186/1/2 194/1/2
f 193/4/2 185/4/2 194/4/2
f 194/1/2 186/1/2 195/1/2
f 198/1/2 199/1/2 202/1/2
f 202/1/2 199/1/2 203/1/2
f 196/1/2 197/1/2 204/1/2
f 197/4/2 198/4/2 205/4/2
f 204/1/2 197/1/2 205/1/2
f 198/1/2 202/1/2 206/1/2
f 205/4/2 198/4/2 206/4/2
f 202/4/2 203/4/2 207/4/2
f 206/1/2 202/1/2 207/1/2
f 203/1/2 199/1/2 208/1/2
f 207/4/2 203/4/2 208/4/2
f 199/4/2 200/4/2 209/4/2
f 208/1/2 199/1/2 209/1/2
f 200/1/2 201/1/2 210/1/2
f 209/4/2 200/4/2 210/4/2
f 210/1/2 201/1/2 211/1/2
f 212/4/2 213/4/2 218/4/2
f 213/3/2 214/3/2 219/3/2
f 218/4/2 213/4/2 219/4/2
f 214/4/2 215/4/2 220/4/2
f 219/3/2 214/3/2 220/3/2
f 215/3/2 216/3/2 221/3/2
f 220/4/2 215/4/2 221/4/2
f 216/4/2 217/4/2 222/4/2
f 221/3/2 216/3/2 222/3/2
f 222/4/2 217/4/2 223/4/2
f 226/4/3 225/4/3 224/4/3
f 228/4/3 226/4/3 224/4/3
f 228/4/3 227/4/3 226/4/3
f 229/4/3 227/4/3 228/4/3
f 232/4/3 231/4/3 230/4/3
f 233/4/3 231/4/3 232/4/3
f 236/3/3 235/3/3 234/3/3
f 238/3/3 236/3/3 234/3/3
f 238/3/3 237/3/3 236/3/3
f 239/3/3 237/3/3 238/3/3
f 242/1/3 241/1/3 240/1/3
f 243/1/3 241/1/3 242/1/3
f 246/3/3 245/3/3 244/3/3
f 247/3/3 245/3/3 246/3/3
f 249/3/3 248/3/3 247/3/3
f 250/3/3 248/3/3 249/3/3
f 254/1/3 252/1/3 251/1/3
f 255/1/3 252/1/3 254/1/3
f 257/2/3 254/2/3 253/2/3
f 258/2/3 254/2/3 257/2/3
f 259/1/3 256/1/3 255/1/3
f 260/1/3 256/1/3 259/1/3
f 261/1/3 259/1/3 258/1/3
f 262/1/3 259/1/3 261/1/3
f 265/3/3 264/3/3 263/3/3
f 266/3/3 264/3/3 265/3/3
f 269/3/3 268/3/3 267/3/3
f 270/3/3 268/3/3 269/3/3
f 273/3/3 272/3/3 271/3/3
f 275/3/3 273/3/3 271/3/3
f 275/3/3 274/3/3 273/3/3
f 276/3/3 274/3/3 275/3/3
f 279/3/3 278/3/3 277/3/3
f 280/3/3 278/3/3 279/3/3
f 282/3/3 281/3/3 280/3/3
f 283/3/3 281/3/3 282/3/3
f 286/3/3 285/3/3 284/3/3
f 287/3/3 285/3/3 286/3/3
f 290/3/3 289/3/3 288/3/3
f 291/3/3 289/3/3 290/3/3
f 293/3/3 292/3/3 291/3/3
f 294/3/3 292/3/3 293/3/3
f 297/2/3 296/2/3 295/2/3
f 298/2/3 297/2/3 295/2/3
f 299/2/3 297/2/3 298/2/3
f 302/3/3 301/3/3 300/3/3
f 303/3/3 301/3/3 302/3/3
f 304/2/4 305/2/4 306/2/4
f 304/2/4 306/2/4 307/2/4
f 307/2/4 306/2/4 308/2/4
f 309/3/4 310/3/4 311/3/4
f 311/3/4 310/3/4 312/3/4
f 313/3/4 314/3/4 315/3/4
f 315/3/4 314/3/4 316/3/4
f 316/3/4 317/3/4 318/3/4
f 318/3/4 317/3/4 319/3/4
f 320/3/4 321/3/4 322/3/4
f 322/3/4 321/3/4 323/3/4
f 324/3/4 325/3/4 326/3/4
f 326/3/4 325/3/4 327/3/4
f 328/3/4 329/3/4 330/3/4
f 330/3/4 329/3/4 331/3/4
f 331/3/4 332/3/4 333/3/4
f 333/3/4 332/3/4 334/3/4
f 335/3/4 336/3/4 337/3/4
f 337/3/4 336/3/4 338/3/4
f 339/3/4 340/3/4 341/3/4
f 341/3/4 340/3/4 342/3/4
f 343/3/4 344/3/4 345/3/4
f 345/3/4 344/3/4 346/3/4
f 347/1/4 348/1/4 350/1/4
f 350/1/4 348/1/4 351/1/4
f 349/2/4 350/2/4 353/2/4
f 353/2/4 350/2/4 354/2/4
f 351/1/4 352/1/4 355/1/4
f 355/1/4 352/1/4 356/1/4
f 354/1/4 355/1/4 357/1/4
f 357/1/4 355/1/4 358/1/4
f 359/3/4 360/3/4 361/3/4
f 359/3/4 361/3/4 363/3/4
f 361/3/4 362/3/4 363/3/4
f 363/3/4 362/3/4 364/3/4
f 365/1/4 366/1/4 367/1/4
f 367/1/4 366/1/4 368/1/4
f 369/4/4 370/4/4 371/4/4
f 371/4/4 370/4/4 372/4/4
f 373/4/4 374/4/4 375/4/4
f 373/4/4 375/4/4 377/4/4
f 375/4/4 376/4/4 377/4/4
f 377/4/4 376/4/4 378/4/4
f 382/4/5 380/4/5 379/4/5
f 383/4/5 380/4/5 382/4/5
f 385/3/5 382/3/5 381/3/5
f 385/3/5 383/3/5 382/3/5
f 387/3/5 385/3/5 384/3/5
f 388/3/5 387/3/5 386/3/5
f 389/3/5 385/3/5 387/3/5
f 389/3/5 387/3/5 388/3/5
f 390/3/5 385/3/5 389/3/5
f 391/3/5 383/3/5 385/3/5
f 391/3/5 385/3/5 390/3/5
f 393/3/5 383/3/5 391/3/5
f 394/3/5 383/3/5 393/3/5
f 396/3/5 393/3/5 392/3/5
f 397/3/5 393/3/5 396/3/5
f 398/3/5 396/3/5 395/3/5
f 399/3/5 396/3/5 398/3/5
f 400/3/5 393/3/5 397/3/5
f 401/4/5 394/4/5 393/4/5
f 401/3/5 393/3/5 400/3/5
f 402/4/5 394/4/5 401/4/5
f 403/3/5 400/3/5 399/3/5
f 403/3/5 402/3/5 401/3/5
f 403/3/5 401/3/5 400/3/5
f 404/3/5 402/3/5 403/3/5
f 406/3/5 402/3/5 404/3/5
f 408/3/5 406/3/5 405/3/5
f 409/3/5 408/3/5 407/3/5
f 410/3/5 406/3/5 408/3/5
f 410/3/5 408/3/5 409/3/5
f 411/3/5 406/3/5 410/3/5
f 412/3/5 402/3/5 406/3/5
f 412/3/5 406/3/5 411/3/5
f 413/3/5 402/3/5 412/3/5
f 414/4/5 413/4/5 412/4/5
f 415/4/5 413/4/5 414/4/5
f 418/3/5 417/3/5 416/3/5
f 419/3/5 417/3/5 418/3/5
f 423/4/5 421/4/5 420/4/5
f 424/1/5 422/1/5 421/1/5
f 424/4/5 421/4/5 423/4/5
f 425/1/5 424/1/5 423/1/5
f 426/1/5 422/1/5 424/1/5
f 426/1/5 424/1/5 425/1/5
f 427/4/5 426/4/5 425/4/5
f 428/1/5 422/1/5 426/1/5
f 428/4/5 426/4/5 427/4/5
f 429/1/5 422/1/5 428/1/5
f 433/1/5 431/1/5 430/1/5
f 434/1/5 431/1/5 433/1/5
f 436/1/5 433/1/5 432/1/5
f 437/1/5 433/1/5 436/1/5
f 438/1/5 435/1/5 434/1/5
f 439/1/5 435/1/5 438/1/5
f 440/4/5 437/4/5 436/4/5
f 441/4/5 439/4/5 438/4/5
f 442/4/5 440/4/5 436/4/5
f 443/4/5 442/4/5 436/4/5
f 444/4/5 442/4/5 443/4/5
f 445/4/5 439/4/5 441/4/5
f 446/4/5 439/4/5 445/4/5
f 447/1/5 444/1/5 443/1/5
f 448/1/5 444/1/5 447/1/5
f 449/1/5 446/1/5 445/1/5
f 450/1/5 446/1/5 449/1/5
f 451/4/5 448/4/5 447/4/5
f 452/4/5 451/4/5 447/4/5
f 453/4/5 450/4/5 449/4/5
f 454/4/5 452/4/5 447/4/5
f 455/4/5 452/4/5 454/4/5
f 456/4/5 450/4/5 453/4/5
f 457/4/5 450/4/5 456/4/5
f 458/1/5 455/1/5 454/1/5
f 459/1/5 455/1/5 458/1/5
f 460/1/5 457/1/5 456/1/5
f 461/1/5 457/1/5 460/1/5
f 462/1/5 460/1/5 459/1/5
f 463/1/5 460/1/5 462/1/5
f 464/4/6 465/4/6 466/4/6
f 466/4/6 465/4/6 467/4/6
f 468/3/6 469/3/6 471/3/6
f 471/3/6 469/3/6 472/3/6
f 470/3/6 471/3/6 474/3/6
f 474/3/6 471/3/6 475/3/6
f 473/3/6 474/3/6 475/3/6
f 475/3/6 471/3/6 476/3/6
f 473/3/6 475/3/6 479/3/6
f 479/3/6 475/3/6 480/3/6
f 477/3/6 478/3/6 481/3/6
f 480/3/6 481/3/6 482/3/6
f 481/3/6 478/3/6 483/3/6
f 482/3/6 481/3/6 483/3/6
f 484/3/6 485/3/6 487/3/6
f 487/3/6 485/3/6 488/3/6
f 486/3/6 487/3/6 489/3/6
f 489/3/6 487/3/6 490/3/6
f 490/3/6 491/3/6 492/3/6
f 490/3/6 492/3/6 494/3/6
f 492/3/6 493/3/6 494/3/6
f 494/3/6 493/3/6 495/3/6
f 495/3/6 493/3/6 497/3/6
f 497/3/6 493/3/6 498/3/6
f 496/3/6 497/3/6 500/3/6
f 499/3/6 500/3/6 501/3/6
f 500/3/6 497/3/6 502/3/6
f 501/3/6 500/3/6 502/3/6
f 502/3/6 497/3/6 503/3/6
f 503/3/6 497/3/6 504/3/6
f 505/4/6 506/4/6 507/4/6
f 507/4/6 506/4/6 508/4/6
f 509/4/6 510/4/6 512/4/6
f 511/4/6 512/4/6 514/4/6
f 512/4/6 510/4/6 515/4/6
f 514/4/6 512/4/6 515/4/6
f 513/3/6 514/3/6 517/3/6
f 514/3/6 515/3/6 517/3/6
f 517/3/6 515/3/6 518/3/6
f 518/3/6 515/3/6 519/3/6
f 516/3/6 517/3/6 521/3/6
f 517/3/6 518/3/6 521/3/6
f 521/3/6 518/3/6 522/3/6
f 519/3/6 515/3/6 523/3/6
f 521/3/6 522/3/6 524/3/6
f 522/3/6 523/3/6 524/3/6
f 520/3/6 521/3/6 524/3/6
f 524/3/6 523/3/6 525/3/6
f 520/3/6 524/3/6 526/3/6
f 526/3/6 524/3/6 527/3/6
f 525/3/6 523/3/6 529/3/6
f 523/3/6 515/3/6 530/3/6
f 529/3/6 523/3/6 530/3/6
f 528/3/6 529/3/6 532/3/6
f 529/4/6 530/4/6 533/4/6
f 532/3/6 529/3/6 533/3/6
f 531/3/6 532/3/6 534/3/6
f 532/4/6 533/4/6 535/4/6
f 534/3/6 532/3/6 535/3/6
f 533/4/6 530/4/6 536/4/6
f 535/4/6 533/4/6 536/4/6
f 535/3/6 536/3/6 537/3/6
f 537/3/6 536/3/6 538/3/6
f 538/3/6 536/3/6 540/3/6
f 540/3/6 536/3/6 541/3/6
f 539/3/6 540/3/6 541/3/6
f 541/3/6 536/3/6 542/3/6
f 539/3/6 541/3/6 543/3/6
f 542/3/6 536/3/6 544/3/6
f 539/3/6 543/3/6 545/3/6
f 543/3/6 544/3/6 545/3/6
f 545/3/6 544/3/6 546/3/6
f 544/3/6 536/3/6 547/3/6
f 546/3/6 544/3/6 547/3/6
f 546/4/6 547/4/6 548/4/6
f 548/4/6 547/4/6 549/4/6
f 549/4/6 547/4/6 550/4/6
f 550/4/6 547/4/6 551/4/6
f 552/1/6 553/1/6 555/1/6
f 555/1/6 553/1/6 556/1/6
f 554/1/6 555/1/6 558/1/6
f 558/1/6 555/1/6 559/1/6
f 556/1/6 557/1/6 560/1/6
f 560/1/6 557/1/6 561/1/6
f 558/4/6 559/4/6 562/4/6
f 562/4/6 559/4/6 563/4/6
f 560/4/6 561/4/6 564/4/6
f 564/4/6 561/4/6 565/4/6
f 562/1/6 563/1/6 566/1/6
f 566/1/6 563/1/6 567/1/6
f 564/1/6 565/1/6 568/1/6
f 568/1/6 565/1/6 569/1/6
f 566/4/6 567/4/6 570/4/6
f 570/4/6 567/4/6 571/4/6
f 568/4/6 569/4/6 572/4/6
f 572/4/6 569/4/6 573/4/6
f 570/1/6 571/1/6 574/1/6
f 574/1/6 571/1/6 575/1/6
f 572/1/6 573/1/6 576/1/6
f 576/1/6 573/1/6 577/1/6
f 574/4/6 575/4/6 578/4/6
f 578/4/6 575/4/6 579/4/6
f 576/4/6 577/4/6 580/4/6
f 580/4/6 577/4/6 581/4/6
f 578/1/6 579/1/6 582/1/6
f 582/1/6 579/1/6 583/1/6
f 580/1/6 581/1/6 584/1/6
f 584/1/6 581/1/6 585/1/6
f 583/1/6 584/1/6 586/1/6
f 586/1/6 584/1/6 587/1/6
f 588/1/6 589/1/6 590/1/6
f 590/1/6 589/1/6 591/1/6
f 590/4/6 591/4/6 592/4/6
f 592/4/6 591/4/6 593/4/6
f 592/1/6 593/1/6 594/1/6
f 594/1/6 593/1/6 595/1/6
f 594/4/6 595/4/6 596/4/6
f 596/4/6 595/4/6 597/4/6
f 596/1/6 597/1/6 598/1/6
f 598/1/6 597/1/6 599/1/6
f 598/4/6 599/4/6 600/4/6
f 600/4/6 599/4/6 601/4/6
f 600/1/6 601/1/6 602/1/6
f 602/1/6 601/1/6 603/1/6
