# MagicaVoxel @ Ephtracy

# group
o 

# material
mtllib straßeLicht.mtl
usemtl palette

# normals
vn -1 0 0
vn 1 0 0
vn 0 0 1
vn 0 0 -1
vn 0 -1 0
vn 0 1 0

# texcoords
vt 0.376953 0.5
vt 0.380859 0.5
vt 0.384766 0.5
vt 0.990234 0.5

# verts
v -2.5 0 1.1
v -2.5 0 0.9
v -2.5 0 0.0999999
v -2.5 0 -0.1
v -2.5 0 -0.9
v -2.5 0 -1.1
v -2.5 0.2 1.1
v -2.5 0.2 0.9
v -2.5 0.2 0.0999999
v -2.5 0.2 -0.1
v -2.5 0.2 -0.9
v -2.5 0.2 -1.1
v -1.3 0 1.3
v -1.3 0 1.1
v -1.3 0 -1.1
v -1.3 0 -1.3
v -1.3 0.2 1.1
v -1.3 0.2 -1.1
v -1.3 1.6 0.9
v -1.3 1.6 0.7
v -1.3 1.6 -0.7
v -1.3 1.6 -0.9
v -1.3 1.8 1.1
v -1.3 1.8 0.9
v -1.3 1.8 0.7
v -1.3 1.8 0.5
v -1.3 1.8 -0.5
v -1.3 1.8 -0.7
v -1.3 1.8 -0.9
v -1.3 1.8 -1.1
v -1.3 2 1.3
v -1.3 2 0.5
v -1.3 2 -0.5
v -1.3 2 -1.3
v 1.1 0 1.3
v 1.1 0 1.1
v 1.1 0 -1.1
v 1.1 0 -1.3
v 1.1 0.2 1.1
v 1.1 0.2 -1.1
v 1.1 1.6 0.9
v 1.1 1.6 0.7
v 1.1 1.6 -0.7
v 1.1 1.6 -0.9
v 1.1 1.8 1.1
v 1.1 1.8 0.9
v 1.1 1.8 0.7
v 1.1 1.8 0.5
v 1.1 1.8 -0.5
v 1.1 1.8 -0.7
v 1.1 1.8 -0.9
v 1.1 1.8 -1.1
v 1.1 2 1.3
v 1.1 2 0.5
v 1.1 2 -0.5
v 1.1 2 -1.3
v -1.1 0 1.3
v -1.1 0 1.1
v -1.1 0 -1.1
v -1.1 0 -1.3
v -1.1 0.2 1.1
v -1.1 0.2 -1.1
v -1.1 1.6 0.9
v -1.1 1.6 0.7
v -1.1 1.6 -0.7
v -1.1 1.6 -0.9
v -1.1 1.8 1.1
v -1.1 1.8 0.9
v -1.1 1.8 0.7
v -1.1 1.8 0.5
v -1.1 1.8 -0.5
v -1.1 1.8 -0.7
v -1.1 1.8 -0.9
v -1.1 1.8 -1.1
v -1.1 2 1.3
v -1.1 2 0.5
v -1.1 2 -0.5
v -1.1 2 -1.3
v 1.3 0 1.3
v 1.3 0 1.1
v 1.3 0 -1.1
v 1.3 0 -1.3
v 1.3 0.2 1.1
v 1.3 0.2 -1.1
v 1.3 1.6 0.9
v 1.3 1.6 0.7
v 1.3 1.6 -0.7
v 1.3 1.6 -0.9
v 1.3 1.8 1.1
v 1.3 1.8 0.9
v 1.3 1.8 0.7
v 1.3 1.8 0.5
v 1.3 1.8 -0.5
v 1.3 1.8 -0.7
v 1.3 1.8 -0.9
v 1.3 1.8 -1.1
v 1.3 2 1.3
v 1.3 2 0.5
v 1.3 2 -0.5
v 1.3 2 -1.3
v 2.5 0 1.1
v 2.5 0 0.9
v 2.5 0 0.0999999
v 2.5 0 -0.1
v 2.5 0 -0.9
v 2.5 0 -1.1
v 2.5 0.2 1.1
v 2.5 0.2 0.9
v 2.5 0.2 0.0999999
v 2.5 0.2 -0.1
v 2.5 0.2 -0.9
v 2.5 0.2 -1.1
v -1.3 0 1.3
v -1.3 2 1.3
v -1.1 0 1.3
v -1.1 2 1.3
v 1.1 0 1.3
v 1.1 2 1.3
v 1.3 0 1.3
v 1.3 2 1.3
v -2.5 0 1.1
v -2.5 0.2 1.1
v -1.3 0 1.1
v -1.3 0.2 1.1
v -1.1 0 1.1
v -1.1 0.2 1.1
v 1.1 0 1.1
v 1.1 0.2 1.1
v 1.3 0 1.1
v 1.3 0.2 1.1
v 2.5 0 1.1
v 2.5 0.2 1.1
v -1.3 1.6 0.9
v -1.3 1.8 0.9
v -1.1 1.6 0.9
v -1.1 1.8 0.9
v 1.1 1.6 0.9
v 1.1 1.8 0.9
v 1.3 1.6 0.9
v 1.3 1.8 0.9
v -1.3 1.8 -0.5
v -1.3 2 -0.5
v -1.1 1.8 -0.5
v -1.1 2 -0.5
v 1.1 1.8 -0.5
v 1.1 2 -0.5
v 1.3 1.8 -0.5
v 1.3 2 -0.5
v -1.3 1.6 -0.7
v -1.3 1.8 -0.7
v -1.1 1.6 -0.7
v -1.1 1.8 -0.7
v 1.1 1.6 -0.7
v 1.1 1.8 -0.7
v 1.3 1.6 -0.7
v 1.3 1.8 -0.7
v -1.3 0.2 -1.1
v -1.3 1.8 -1.1
v -1.1 0.2 -1.1
v -1.1 1.8 -1.1
v 1.1 0.2 -1.1
v 1.1 1.8 -1.1
v 1.3 0.2 -1.1
v 1.3 1.8 -1.1
v -1.3 0.2 1.1
v -1.3 1.8 1.1
v -1.1 0.2 1.1
v -1.1 1.8 1.1
v 1.1 0.2 1.1
v 1.1 1.8 1.1
v 1.3 0.2 1.1
v 1.3 1.8 1.1
v -1.3 1.6 0.7
v -1.3 1.8 0.7
v -1.1 1.6 0.7
v -1.1 1.8 0.7
v 1.1 1.6 0.7
v 1.1 1.8 0.7
v 1.3 1.6 0.7
v 1.3 1.8 0.7
v -1.3 1.8 0.5
v -1.3 2 0.5
v -1.1 1.8 0.5
v -1.1 2 0.5
v 1.1 1.8 0.5
v 1.1 2 0.5
v 1.3 1.8 0.5
v 1.3 2 0.5
v -1.3 1.6 -0.9
v -1.3 1.8 -0.9
v -1.1 1.6 -0.9
v -1.1 1.8 -0.9
v 1.1 1.6 -0.9
v 1.1 1.8 -0.9
v 1.3 1.6 -0.9
v 1.3 1.8 -0.9
v -2.5 0 -1.1
v -2.5 0.2 -1.1
v -1.3 0 -1.1
v -1.3 0.2 -1.1
v -1.1 0 -1.1
v -1.1 0.2 -1.1
v 1.1 0 -1.1
v 1.1 0.2 -1.1
v 1.3 0 -1.1
v 1.3 0.2 -1.1
v 2.5 0 -1.1
v 2.5 0.2 -1.1
v -1.3 0 -1.3
v -1.3 2 -1.3
v -1.1 0 -1.3
v -1.1 2 -1.3
v 1.1 0 -1.3
v 1.1 2 -1.3
v 1.3 0 -1.3
v 1.3 2 -1.3
v -1.3 0 1.3
v -1.1 0 1.3
v 1.1 0 1.3
v 1.3 0 1.3
v -2.5 0 1.1
v -1.3 0 1.1
v -1.1 0 1.1
v 1.1 0 1.1
v 1.3 0 1.1
v 2.5 0 1.1
v -2.5 0 0.9
v 2.5 0 0.9
v -2.5 0 0.0999999
v 2.5 0 0.0999999
v -2.5 0 -0.1
v 2.5 0 -0.1
v -2.5 0 -0.9
v 2.5 0 -0.9
v -2.5 0 -1.1
v -1.3 0 -1.1
v -1.1 0 -1.1
v 1.1 0 -1.1
v 1.3 0 -1.1
v 2.5 0 -1.1
v -1.3 0 -1.3
v -1.1 0 -1.3
v 1.1 0 -1.3
v 1.3 0 -1.3
v -1.3 1.6 0.9
v -1.1 1.6 0.9
v 1.1 1.6 0.9
v 1.3 1.6 0.9
v -1.3 1.6 0.7
v -1.1 1.6 0.7
v 1.1 1.6 0.7
v 1.3 1.6 0.7
v -1.3 1.6 -0.7
v -1.1 1.6 -0.7
v 1.1 1.6 -0.7
v 1.3 1.6 -0.7
v -1.3 1.6 -0.9
v -1.1 1.6 -0.9
v 1.1 1.6 -0.9
v 1.3 1.6 -0.9
v -1.3 1.8 1.1
v -1.1 1.8 1.1
v 1.1 1.8 1.1
v 1.3 1.8 1.1
v -1.3 1.8 0.9
v -1.1 1.8 0.9
v 1.1 1.8 0.9
v 1.3 1.8 0.9
v -1.3 1.8 0.7
v -1.1 1.8 0.7
v 1.1 1.8 0.7
v 1.3 1.8 0.7
v -1.3 1.8 0.5
v -1.1 1.8 0.5
v 1.1 1.8 0.5
v 1.3 1.8 0.5
v -1.3 1.8 -0.5
v -1.1 1.8 -0.5
v 1.1 1.8 -0.5
v 1.3 1.8 -0.5
v -1.3 1.8 -0.7
v -1.1 1.8 -0.7
v 1.1 1.8 -0.7
v 1.3 1.8 -0.7
v -1.3 1.8 -0.9
v -1.1 1.8 -0.9
v 1.1 1.8 -0.9
v 1.3 1.8 -0.9
v -1.3 1.8 -1.1
v -1.1 1.8 -1.1
v 1.1 1.8 -1.1
v 1.3 1.8 -1.1
v -2.5 0.2 1.1
v -1.3 0.2 1.1
v -1.1 0.2 1.1
v 1.1 0.2 1.1
v 1.3 0.2 1.1
v 2.5 0.2 1.1
v -2.5 0.2 0.9
v 2.5 0.2 0.9
v -2.5 0.2 0.0999999
v 2.5 0.2 0.0999999
v -2.5 0.2 -0.1
v 2.5 0.2 -0.1
v -2.5 0.2 -0.9
v 2.5 0.2 -0.9
v -2.5 0.2 -1.1
v -1.3 0.2 -1.1
v -1.1 0.2 -1.1
v 1.1 0.2 -1.1
v 1.3 0.2 -1.1
v 2.5 0.2 -1.1
v -1.3 2 1.3
v -1.1 2 1.3
v 1.1 2 1.3
v 1.3 2 1.3
v -1.3 2 0.5
v -1.1 2 0.5
v 1.1 2 0.5
v 1.3 2 0.5
v -1.3 2 -0.5
v -1.1 2 -0.5
v 1.1 2 -0.5
v 1.3 2 -0.5
v -1.3 2 -1.3
v -1.1 2 -1.3
v 1.1 2 -1.3
v 1.3 2 -1.3

# faces
f 7/2/1 2/2/1 1/2/1
f 8/1/1 3/1/1 2/1/1
f 8/2/1 2/2/1 7/2/1
f 9/2/1 4/2/1 3/2/1
f 9/1/1 3/1/1 8/1/1
f 10/1/1 5/1/1 4/1/1
f 10/2/1 4/2/1 9/2/1
f 11/2/1 6/2/1 5/2/1
f 11/1/1 5/1/1 10/1/1
f 12/2/1 6/2/1 11/2/1
f 17/4/1 14/4/1 13/4/1
f 18/4/1 16/4/1 15/4/1
f 23/4/1 17/4/1 13/4/1
f 24/3/1 20/3/1 19/3/1
f 25/3/1 20/3/1 24/3/1
f 28/3/1 22/3/1 21/3/1
f 29/3/1 22/3/1 28/3/1
f 30/4/1 16/4/1 18/4/1
f 31/4/1 26/4/1 25/4/1
f 31/4/1 23/4/1 13/4/1
f 31/4/1 24/4/1 23/4/1
f 31/4/1 25/4/1 24/4/1
f 32/4/1 26/4/1 31/4/1
f 33/4/1 30/4/1 29/4/1
f 33/4/1 29/4/1 28/4/1
f 33/4/1 28/4/1 27/4/1
f 34/4/1 16/4/1 30/4/1
f 34/4/1 30/4/1 33/4/1
f 39/4/1 36/4/1 35/4/1
f 40/4/1 38/4/1 37/4/1
f 45/4/1 39/4/1 35/4/1
f 46/3/1 42/3/1 41/3/1
f 47/3/1 42/3/1 46/3/1
f 50/3/1 44/3/1 43/3/1
f 51/3/1 44/3/1 50/3/1
f 52/4/1 38/4/1 40/4/1
f 53/4/1 48/4/1 47/4/1
f 53/4/1 45/4/1 35/4/1
f 53/4/1 46/4/1 45/4/1
f 53/4/1 47/4/1 46/4/1
f 54/4/1 48/4/1 53/4/1
f 55/4/1 52/4/1 51/4/1
f 55/4/1 51/4/1 50/4/1
f 55/4/1 50/4/1 49/4/1
f 56/4/1 38/4/1 52/4/1
f 56/4/1 52/4/1 55/4/1
f 57/4/2 58/4/2 61/4/2
f 59/4/2 60/4/2 62/4/2
f 57/4/2 61/4/2 67/4/2
f 63/3/2 64/3/2 68/3/2
f 68/3/2 64/3/2 69/3/2
f 65/3/2 66/3/2 72/3/2
f 72/3/2 66/3/2 73/3/2
f 62/4/2 60/4/2 74/4/2
f 69/4/2 70/4/2 75/4/2
f 57/4/2 67/4/2 75/4/2
f 67/4/2 68/4/2 75/4/2
f 68/4/2 69/4/2 75/4/2
f 75/4/2 70/4/2 76/4/2
f 73/4/2 74/4/2 77/4/2
f 72/4/2 73/4/2 77/4/2
f 71/4/2 72/4/2 77/4/2
f 74/4/2 60/4/2 78/4/2
f 77/4/2 74/4/2 78/4/2
f 79/4/2 80/4/2 83/4/2
f 81/4/2 82/4/2 84/4/2
f 79/4/2 83/4/2 89/4/2
f 85/3/2 86/3/2 90/3/2
f 90/3/2 86/3/2 91/3/2
f 87/3/2 88/3/2 94/3/2
f 94/3/2 88/3/2 95/3/2
f 84/4/2 82/4/2 96/4/2
f 91/4/2 92/4/2 97/4/2
f 79/4/2 89/4/2 97/4/2
f 89/4/2 90/4/2 97/4/2
f 90/4/2 91/4/2 97/4/2
f 97/4/2 92/4/2 98/4/2
f 95/4/2 96/4/2 99/4/2
f 94/4/2 95/4/2 99/4/2
f 93/4/2 94/4/2 99/4/2
f 96/4/2 82/4/2 100/4/2
f 99/4/2 96/4/2 100/4/2
f 101/2/2 102/2/2 107/2/2
f 102/1/2 103/1/2 108/1/2
f 107/2/2 102/2/2 108/2/2
f 103/2/2 104/2/2 109/2/2
f 108/1/2 103/1/2 109/1/2
f 104/1/2 105/1/2 110/1/2
f 109/2/2 104/2/2 110/2/2
f 105/2/2 106/2/2 111/2/2
f 110/1/2 105/1/2 111/1/2
f 111/2/2 106/2/2 112/2/2
f 115/4/3 114/4/3 113/4/3
f 116/4/3 114/4/3 115/4/3
f 119/4/3 118/4/3 117/4/3
f 120/4/3 118/4/3 119/4/3
f 123/2/3 122/2/3 121/2/3
f 124/2/3 122/2/3 123/2/3
f 127/2/3 126/2/3 125/2/3
f 128/2/3 126/2/3 127/2/3
f 131/2/3 130/2/3 129/2/3
f 132/2/3 130/2/3 131/2/3
f 135/3/3 134/3/3 133/3/3
f 136/3/3 134/3/3 135/3/3
f 139/3/3 138/3/3 137/3/3
f 140/3/3 138/3/3 139/3/3
f 143/4/3 142/4/3 141/4/3
f 144/4/3 142/4/3 143/4/3
f 147/4/3 146/4/3 145/4/3
f 148/4/3 146/4/3 147/4/3
f 151/3/3 150/3/3 149/3/3
f 152/3/3 150/3/3 151/3/3
f 155/3/3 154/3/3 153/3/3
f 156/3/3 154/3/3 155/3/3
f 159/4/3 158/4/3 157/4/3
f 160/4/3 158/4/3 159/4/3
f 163/4/3 162/4/3 161/4/3
f 164/4/3 162/4/3 163/4/3
f 165/4/4 166/4/4 167/4/4
f 167/4/4 166/4/4 168/4/4
f 169/4/4 170/4/4 171/4/4
f 171/4/4 170/4/4 172/4/4
f 173/3/4 174/3/4 175/3/4
f 175/3/4 174/3/4 176/3/4
f 177/3/4 178/3/4 179/3/4
f 179/3/4 178/3/4 180/3/4
f 181/4/4 182/4/4 183/4/4
f 183/4/4 182/4/4 184/4/4
f 185/4/4 186/4/4 187/4/4
f 187/4/4 186/4/4 188/4/4
f 189/3/4 190/3/4 191/3/4
f 191/3/4 190/3/4 192/3/4
f 193/3/4 194/3/4 195/3/4
f 195/3/4 194/3/4 196/3/4
f 197/2/4 198/2/4 199/2/4
f 199/2/4 198/2/4 200/2/4
f 201/2/4 202/2/4 203/2/4
f 203/2/4 202/2/4 204/2/4
f 205/2/4 206/2/4 207/2/4
f 207/2/4 206/2/4 208/2/4
f 209/4/4 210/4/4 211/4/4
f 211/4/4 210/4/4 212/4/4
f 213/4/4 214/4/4 215/4/4
f 215/4/4 214/4/4 216/4/4
f 222/4/5 218/4/5 217/4/5
f 223/4/5 218/4/5 222/4/5
f 224/4/5 220/4/5 219/4/5
f 225/4/5 220/4/5 224/4/5
f 227/2/5 223/2/5 222/2/5
f 227/2/5 226/2/5 225/2/5
f 227/2/5 225/2/5 224/2/5
f 227/2/5 224/2/5 223/2/5
f 227/2/5 222/2/5 221/2/5
f 228/2/5 226/2/5 227/2/5
f 229/1/5 228/1/5 227/1/5
f 230/1/5 228/1/5 229/1/5
f 231/2/5 230/2/5 229/2/5
f 232/2/5 230/2/5 231/2/5
f 233/1/5 232/1/5 231/1/5
f 234/1/5 232/1/5 233/1/5
f 235/2/5 234/2/5 233/2/5
f 236/2/5 234/2/5 235/2/5
f 237/2/5 234/2/5 236/2/5
f 238/2/5 234/2/5 237/2/5
f 239/2/5 234/2/5 238/2/5
f 240/2/5 234/2/5 239/2/5
f 241/4/5 237/4/5 236/4/5
f 242/4/5 237/4/5 241/4/5
f 243/4/5 239/4/5 238/4/5
f 244/4/5 239/4/5 243/4/5
f 249/3/5 246/3/5 245/3/5
f 250/3/5 246/3/5 249/3/5
f 251/3/5 248/3/5 247/3/5
f 252/3/5 248/3/5 251/3/5
f 257/3/5 254/3/5 253/3/5
f 258/3/5 254/3/5 257/3/5
f 259/3/5 256/3/5 255/3/5
f 260/3/5 256/3/5 259/3/5
f 265/4/5 262/4/5 261/4/5
f 266/4/5 262/4/5 265/4/5
f 267/4/5 264/4/5 263/4/5
f 268/4/5 264/4/5 267/4/5
f 273/4/5 270/4/5 269/4/5
f 274/4/5 270/4/5 273/4/5
f 275/4/5 272/4/5 271/4/5
f 276/4/5 272/4/5 275/4/5
f 281/4/5 278/4/5 277/4/5
f 282/4/5 278/4/5 281/4/5
f 283/4/5 280/4/5 279/4/5
f 284/4/5 280/4/5 283/4/5
f 289/4/5 286/4/5 285/4/5
f 290/4/5 286/4/5 289/4/5
f 291/4/5 288/4/5 287/4/5
f 292/4/5 288/4/5 291/4/5
f 293/2/6 294/2/6 299/2/6
f 297/2/6 298/2/6 299/2/6
f 296/2/6 297/2/6 299/2/6
f 295/2/6 296/2/6 299/2/6
f 294/2/6 295/2/6 299/2/6
f 299/2/6 298/2/6 300/2/6
f 299/1/6 300/1/6 301/1/6
f 301/1/6 300/1/6 302/1/6
f 301/2/6 302/2/6 303/2/6
f 303/2/6 302/2/6 304/2/6
f 303/1/6 304/1/6 305/1/6
f 305/1/6 304/1/6 306/1/6
f 305/2/6 306/2/6 307/2/6
f 307/2/6 306/2/6 308/2/6
f 308/2/6 306/2/6 309/2/6
f 309/2/6 306/2/6 310/2/6
f 310/2/6 306/2/6 311/2/6
f 311/2/6 306/2/6 312/2/6
f 313/4/6 314/4/6 317/4/6
f 317/4/6 314/4/6 318/4/6
f 315/4/6 316/4/6 319/4/6
f 319/4/6 316/4/6 320/4/6
f 321/4/6 322/4/6 325/4/6
f 325/4/6 322/4/6 326/4/6
f 323/4/6 324/4/6 327/4/6
f 327/4/6 324/4/6 328/4/6
