# MagicaVoxel @ Ephtracy

# group
o 

# material
mtllib StraßeKreuzung.mtl
usemtl palette

# normals
vn -1 0 0
vn 1 0 0
vn 0 0 1
vn 0 0 -1
vn 0 -1 0
vn 0 1 0

# texcoords
vt 0.376953 0.5
vt 0.380859 0.5
vt 0.958984 0.5
vt 0.962891 0.5
vt 0.986328 0.5

# verts
v -2.5 0.1 1.1
v -2.5 0.1 0.9
v -2.5 0.1 0.0999999
v -2.5 0.1 -0.1
v -2.5 0.1 -0.9
v -2.5 0.1 -1.1
v -2.5 0.2 1.1
v -2.5 0.2 0.9
v -2.5 0.2 0.0999999
v -2.5 0.2 -0.1
v -2.5 0.2 -0.9
v -2.5 0.2 -1.1
v -2.5 0.3 1.1
v -2.5 0.3 0.9
v -2.5 0.3 0.0999999
v -2.5 0.3 -0.1
v -2.5 0.3 -0.9
v -2.5 0.3 -1.1
v -1.1 0.1 2.5
v -1.1 0.1 1.1
v -1.1 0.1 -1.1
v -1.1 0.1 -2.5
v -1.1 0.2 2.5
v -1.1 0.2 1.1
v -1.1 0.2 -1.1
v -1.1 0.2 -2.5
v -1.1 0.3 2.5
v -1.1 0.3 1.1
v -1.1 0.3 -1.1
v -1.1 0.3 -2.5
v 1.1 0.1 2.5
v 1.1 0.1 1.1
v 1.1 0.1 -1.1
v 1.1 0.1 -2.5
v 1.1 0.2 2.5
v 1.1 0.2 1.1
v 1.1 0.2 -1.1
v 1.1 0.2 -2.5
v 1.1 0.3 2.5
v 1.1 0.3 1.1
v 1.1 0.3 -1.1
v 1.1 0.3 -2.5
v 2.5 0.1 1.1
v 2.5 0.1 0.9
v 2.5 0.1 0.0999999
v 2.5 0.1 -0.1
v 2.5 0.1 -0.9
v 2.5 0.1 -1.1
v 2.5 0.2 1.1
v 2.5 0.2 0.9
v 2.5 0.2 0.0999999
v 2.5 0.2 -0.1
v 2.5 0.2 -0.9
v 2.5 0.2 -1.1
v 2.5 0.3 1.1
v 2.5 0.3 0.9
v 2.5 0.3 0.0999999
v 2.5 0.3 -0.1
v 2.5 0.3 -0.9
v 2.5 0.3 -1.1
v -1.1 0.1 2.5
v -1.1 0.2 2.5
v -1.1 0.3 2.5
v -0.9 0.1 2.5
v -0.9 0.2 2.5
v -0.9 0.3 2.5
v -0.0999999 0.1 2.5
v -0.0999999 0.2 2.5
v -0.0999999 0.3 2.5
v 0.1 0.1 2.5
v 0.1 0.2 2.5
v 0.1 0.3 2.5
v 0.9 0.1 2.5
v 0.9 0.2 2.5
v 0.9 0.3 2.5
v 1.1 0.1 2.5
v 1.1 0.2 2.5
v 1.1 0.3 2.5
v -2.5 0.1 1.1
v -2.5 0.2 1.1
v -2.5 0.3 1.1
v -1.1 0.1 1.1
v -1.1 0.2 1.1
v -1.1 0.3 1.1
v 1.1 0.1 1.1
v 1.1 0.2 1.1
v 1.1 0.3 1.1
v 2.5 0.1 1.1
v 2.5 0.2 1.1
v 2.5 0.3 1.1
v -2.5 0.1 -1.1
v -2.5 0.2 -1.1
v -2.5 0.3 -1.1
v -1.1 0.1 -1.1
v -1.1 0.2 -1.1
v -1.1 0.3 -1.1
v 1.1 0.1 -1.1
v 1.1 0.2 -1.1
v 1.1 0.3 -1.1
v 2.5 0.1 -1.1
v 2.5 0.2 -1.1
v 2.5 0.3 -1.1
v -1.1 0.1 -2.5
v -1.1 0.2 -2.5
v -1.1 0.3 -2.5
v -0.9 0.1 -2.5
v -0.9 0.2 -2.5
v -0.9 0.3 -2.5
v -0.0999999 0.1 -2.5
v -0.0999999 0.2 -2.5
v -0.0999999 0.3 -2.5
v 0.1 0.1 -2.5
v 0.1 0.2 -2.5
v 0.1 0.3 -2.5
v 0.9 0.1 -2.5
v 0.9 0.2 -2.5
v 0.9 0.3 -2.5
v 1.1 0.1 -2.5
v 1.1 0.2 -2.5
v 1.1 0.3 -2.5
v -1.1 0.1 2.5
v -0.9 0.1 2.5
v -0.0999999 0.1 2.5
v 0.1 0.1 2.5
v 0.9 0.1 2.5
v 1.1 0.1 2.5
v -2.5 0.1 1.1
v -1.1 0.1 1.1
v 0.3 0.1 1.1
v 0.7 0.1 1.1
v 1.1 0.1 1.1
v 2.5 0.1 1.1
v -2.5 0.1 0.9
v -0.9 0.1 0.9
v -0.0999999 0.1 0.9
v 0.1 0.1 0.9
v 0.3 0.1 0.9
v 0.7 0.1 0.9
v 0.9 0.1 0.9
v 2.5 0.1 0.9
v -2.5 0.1 0.0999999
v 2.5 0.1 0.0999999
v -2.5 0.1 -0.1
v 2.5 0.1 -0.1
v -2.5 0.1 -0.9
v -1.1 0.1 -0.9
v -0.9 0.1 -0.9
v -0.7 0.1 -0.9
v -0.3 0.1 -0.9
v -0.0999999 0.1 -0.9
v 0.1 0.1 -0.9
v 0.9 0.1 -0.9
v 2.5 0.1 -0.9
v -2.5 0.1 -1.1
v -1.1 0.1 -1.1
v -0.7 0.1 -1.1
v -0.3 0.1 -1.1
v 0.9 0.1 -1.1
v 1.1 0.1 -1.1
v 2.5 0.1 -1.1
v -1.1 0.1 -2.5
v -0.9 0.1 -2.5
v -0.0999999 0.1 -2.5
v 0.1 0.1 -2.5
v 0.9 0.1 -2.5
v 1.1 0.1 -2.5
v -1.1 0.3 2.5
v -0.9 0.3 2.5
v -0.0999999 0.3 2.5
v 0.1 0.3 2.5
v 0.9 0.3 2.5
v 1.1 0.3 2.5
v -2.5 0.3 1.1
v -1.1 0.3 1.1
v 0.3 0.3 1.1
v 0.7 0.3 1.1
v 1.1 0.3 1.1
v 2.5 0.3 1.1
v -2.5 0.3 0.9
v -0.9 0.3 0.9
v -0.0999999 0.3 0.9
v 0.1 0.3 0.9
v 0.3 0.3 0.9
v 0.7 0.3 0.9
v 0.9 0.3 0.9
v 2.5 0.3 0.9
v -2.5 0.3 0.0999999
v 2.5 0.3 0.0999999
v -2.5 0.3 -0.1
v 2.5 0.3 -0.1
v -2.5 0.3 -0.9
v -0.9 0.3 -0.9
v -0.7 0.3 -0.9
v -0.3 0.3 -0.9
v -0.0999999 0.3 -0.9
v 0.1 0.3 -0.9
v 0.9 0.3 -0.9
v 2.5 0.3 -0.9
v -2.5 0.3 -1.1
v -1.1 0.3 -1.1
v -0.7 0.3 -1.1
v -0.3 0.3 -1.1
v 1.1 0.3 -1.1
v 2.5 0.3 -1.1
v -1.1 0.3 -2.5
v -0.9 0.3 -2.5
v -0.0999999 0.3 -2.5
v 0.1 0.3 -2.5
v 0.9 0.3 -2.5
v 1.1 0.3 -2.5

# faces
f 7/4/1 2/4/1 1/4/1
f 8/5/1 3/5/1 2/5/1
f 8/4/1 2/4/1 7/4/1
f 9/4/1 4/4/1 3/4/1
f 9/5/1 3/5/1 8/5/1
f 10/5/1 5/5/1 4/5/1
f 10/4/1 4/4/1 9/4/1
f 11/4/1 6/4/1 5/4/1
f 11/5/1 5/5/1 10/5/1
f 12/4/1 6/4/1 11/4/1
f 13/2/1 8/2/1 7/2/1
f 14/1/1 9/1/1 8/1/1
f 14/2/1 8/2/1 13/2/1
f 15/2/1 10/2/1 9/2/1
f 15/1/1 9/1/1 14/1/1
f 16/1/1 11/1/1 10/1/1
f 16/2/1 10/2/1 15/2/1
f 17/2/1 12/2/1 11/2/1
f 17/1/1 11/1/1 16/1/1
f 18/2/1 12/2/1 17/2/1
f 23/4/1 20/4/1 19/4/1
f 24/4/1 20/4/1 23/4/1
f 25/3/1 22/3/1 21/3/1
f 26/3/1 22/3/1 25/3/1
f 27/2/1 24/2/1 23/2/1
f 28/2/1 24/2/1 27/2/1
f 29/2/1 26/2/1 25/2/1
f 30/2/1 26/2/1 29/2/1
f 31/4/2 32/4/2 35/4/2
f 35/4/2 32/4/2 36/4/2
f 33/3/2 34/3/2 37/3/2
f 37/3/2 34/3/2 38/3/2
f 35/2/2 36/2/2 39/2/2
f 39/2/2 36/2/2 40/2/2
f 37/2/2 38/2/2 41/2/2
f 41/2/2 38/2/2 42/2/2
f 43/4/2 44/4/2 49/4/2
f 44/5/2 45/5/2 50/5/2
f 49/4/2 44/4/2 50/4/2
f 45/4/2 46/4/2 51/4/2
f 50/5/2 45/5/2 51/5/2
f 46/5/2 47/5/2 52/5/2
f 51/4/2 46/4/2 52/4/2
f 47/4/2 48/4/2 53/4/2
f 52/5/2 47/5/2 53/5/2
f 53/4/2 48/4/2 54/4/2
f 49/2/2 50/2/2 55/2/2
f 50/1/2 51/1/2 56/1/2
f 55/2/2 50/2/2 56/2/2
f 51/2/2 52/2/2 57/2/2
f 56/1/2 51/1/2 57/1/2
f 52/1/2 53/1/2 58/1/2
f 57/2/2 52/2/2 58/2/2
f 53/2/2 54/2/2 59/2/2
f 58/1/2 53/1/2 59/1/2
f 59/2/2 54/2/2 60/2/2
f 64/4/3 62/4/3 61/4/3
f 65/2/3 63/2/3 62/2/3
f 65/4/3 62/4/3 64/4/3
f 66/2/3 63/2/3 65/2/3
f 67/5/3 65/5/3 64/5/3
f 68/1/3 66/1/3 65/1/3
f 68/5/3 65/5/3 67/5/3
f 69/1/3 66/1/3 68/1/3
f 70/4/3 68/4/3 67/4/3
f 71/2/3 69/2/3 68/2/3
f 71/4/3 68/4/3 70/4/3
f 72/2/3 69/2/3 71/2/3
f 73/5/3 71/5/3 70/5/3
f 74/1/3 72/1/3 71/1/3
f 74/5/3 71/5/3 73/5/3
f 75/1/3 72/1/3 74/1/3
f 76/4/3 74/4/3 73/4/3
f 77/2/3 75/2/3 74/2/3
f 77/4/3 74/4/3 76/4/3
f 78/2/3 75/2/3 77/2/3
f 82/4/3 80/4/3 79/4/3
f 83/2/3 81/2/3 80/2/3
f 83/4/3 80/4/3 82/4/3
f 84/2/3 81/2/3 83/2/3
f 88/4/3 86/4/3 85/4/3
f 89/2/3 87/2/3 86/2/3
f 89/4/3 86/4/3 88/4/3
f 90/2/3 87/2/3 89/2/3
f 91/4/4 92/4/4 94/4/4
f 92/2/4 93/2/4 95/2/4
f 94/4/4 92/4/4 95/4/4
f 95/2/4 93/2/4 96/2/4
f 97/4/4 98/4/4 100/4/4
f 98/2/4 99/2/4 101/2/4
f 100/4/4 98/4/4 101/4/4
f 101/2/4 99/2/4 102/2/4
f 103/3/4 104/3/4 106/3/4
f 104/2/4 105/2/4 107/2/4
f 106/3/4 104/3/4 107/3/4
f 107/2/4 105/2/4 108/2/4
f 106/5/4 107/5/4 109/5/4
f 107/1/4 108/1/4 110/1/4
f 109/5/4 107/5/4 110/5/4
f 110/1/4 108/1/4 111/1/4
f 109/3/4 110/3/4 112/3/4
f 110/2/4 111/2/4 113/2/4
f 112/3/4 110/3/4 113/3/4
f 113/2/4 111/2/4 114/2/4
f 112/5/4 113/5/4 115/5/4
f 113/1/4 114/1/4 116/1/4
f 115/5/4 113/5/4 116/5/4
f 116/1/4 114/1/4 117/1/4
f 115/3/4 116/3/4 118/3/4
f 116/2/4 117/2/4 119/2/4
f 118/3/4 116/3/4 119/3/4
f 119/2/4 117/2/4 120/2/4
f 128/4/5 122/4/5 121/4/5
f 129/5/5 125/5/5 124/5/5
f 130/5/5 125/5/5 129/5/5
f 131/4/5 126/4/5 125/4/5
f 133/4/5 128/4/5 127/4/5
f 134/5/5 123/5/5 122/5/5
f 134/4/5 128/4/5 133/4/5
f 134/4/5 122/4/5 128/4/5
f 135/4/5 124/4/5 123/4/5
f 135/5/5 123/5/5 134/5/5
f 136/5/5 129/5/5 124/5/5
f 136/4/5 124/4/5 135/4/5
f 137/4/5 130/4/5 129/4/5
f 137/5/5 129/5/5 136/5/5
f 138/5/5 125/5/5 130/5/5
f 138/4/5 130/4/5 137/4/5
f 139/4/5 132/4/5 131/4/5
f 139/5/5 125/5/5 138/5/5
f 139/4/5 131/4/5 125/4/5
f 140/4/5 132/4/5 139/4/5
f 141/5/5 137/5/5 136/5/5
f 141/5/5 134/5/5 133/5/5
f 141/5/5 140/5/5 139/5/5
f 141/5/5 139/5/5 138/5/5
f 141/5/5 135/5/5 134/5/5
f 141/5/5 136/5/5 135/5/5
f 141/5/5 138/5/5 137/5/5
f 142/5/5 140/5/5 141/5/5
f 143/4/5 142/4/5 141/4/5
f 144/4/5 142/4/5 143/4/5
f 145/5/5 144/5/5 143/5/5
f 146/5/5 144/5/5 145/5/5
f 147/5/5 144/5/5 146/5/5
f 148/5/5 144/5/5 147/5/5
f 149/5/5 144/5/5 148/5/5
f 150/5/5 144/5/5 149/5/5
f 151/5/5 144/5/5 150/5/5
f 152/5/5 144/5/5 151/5/5
f 153/5/5 144/5/5 152/5/5
f 154/4/5 146/4/5 145/4/5
f 155/3/5 147/3/5 146/3/5
f 155/4/5 146/4/5 154/4/5
f 156/5/5 148/5/5 147/5/5
f 156/4/5 149/4/5 148/4/5
f 157/5/5 150/5/5 149/5/5
f 157/4/5 149/4/5 156/4/5
f 158/5/5 152/5/5 151/5/5
f 158/4/5 153/4/5 152/4/5
f 159/4/5 153/4/5 158/4/5
f 160/4/5 153/4/5 159/4/5
f 161/3/5 147/3/5 155/3/5
f 162/5/5 156/5/5 147/5/5
f 162/3/5 147/3/5 161/3/5
f 162/5/5 157/5/5 156/5/5
f 163/3/5 151/3/5 150/3/5
f 163/5/5 157/5/5 162/5/5
f 163/5/5 150/5/5 157/5/5
f 164/5/5 158/5/5 151/5/5
f 164/3/5 151/3/5 163/3/5
f 165/3/5 159/3/5 158/3/5
f 165/5/5 158/5/5 164/5/5
f 166/3/5 159/3/5 165/3/5
f 167/2/6 168/2/6 174/2/6
f 170/1/6 171/1/6 175/1/6
f 175/1/6 171/1/6 176/1/6
f 171/2/6 172/2/6 177/2/6
f 173/2/6 174/2/6 179/2/6
f 168/1/6 169/1/6 180/1/6
f 179/2/6 174/2/6 180/2/6
f 174/2/6 168/2/6 180/2/6
f 169/2/6 170/2/6 181/2/6
f 180/1/6 169/1/6 181/1/6
f 170/1/6 175/1/6 182/1/6
f 181/2/6 170/2/6 182/2/6
f 175/2/6 176/2/6 183/2/6
f 182/1/6 175/1/6 183/1/6
f 176/1/6 171/1/6 184/1/6
f 183/2/6 176/2/6 184/2/6
f 177/2/6 178/2/6 185/2/6
f 184/1/6 171/1/6 185/1/6
f 171/2/6 177/2/6 185/2/6
f 185/2/6 178/2/6 186/2/6
f 182/1/6 183/1/6 187/1/6
f 179/1/6 180/1/6 187/1/6
f 185/1/6 186/1/6 187/1/6
f 184/1/6 185/1/6 187/1/6
f 180/1/6 181/1/6 187/1/6
f 181/1/6 182/1/6 187/1/6
f 183/1/6 184/1/6 187/1/6
f 187/1/6 186/1/6 188/1/6
f 187/2/6 188/2/6 189/2/6
f 189/2/6 188/2/6 190/2/6
f 189/1/6 190/1/6 191/1/6
f 191/1/6 190/1/6 192/1/6
f 192/1/6 190/1/6 193/1/6
f 193/1/6 190/1/6 194/1/6
f 194/1/6 190/1/6 195/1/6
f 195/1/6 190/1/6 196/1/6
f 196/1/6 190/1/6 197/1/6
f 197/1/6 190/1/6 198/1/6
f 191/2/6 192/2/6 199/2/6
f 199/2/6 192/2/6 200/2/6
f 192/1/6 193/1/6 201/1/6
f 193/2/6 194/2/6 201/2/6
f 194/1/6 195/1/6 202/1/6
f 201/2/6 194/2/6 202/2/6
f 197/2/6 198/2/6 203/2/6
f 203/2/6 198/2/6 204/2/6
f 200/2/6 192/2/6 205/2/6
f 192/1/6 201/1/6 206/1/6
f 205/2/6 192/2/6 206/2/6
f 201/1/6 202/1/6 206/1/6
f 195/2/6 196/2/6 207/2/6
f 206/1/6 202/1/6 207/1/6
f 202/1/6 195/1/6 207/1/6
f 196/1/6 197/1/6 208/1/6
f 207/2/6 196/2/6 208/2/6
f 197/2/6 203/2/6 209/2/6
f 208/1/6 197/1/6 209/1/6
f 209/2/6 203/2/6 210/2/6
